<?xml version="1.0" encoding="UTF-8"?>
<svg id="Layer_3" data-name="Layer 3" xmlns="http://www.w3.org/2000/svg" viewBox="0 0 1920 1080">
  <defs>
    <style>
      .cls-1 {
        fill: #9ea3bd;
      }

      .cls-1, .cls-2 {
        stroke-width: 0px;
      }

      .cls-3 {
        isolation: isolate;
      }

      .cls-4 {
        stroke-width: .95px;
      }

      .cls-4, .cls-5 {
        stroke: #484b6b;
      }

      .cls-4, .cls-5, .cls-6 {
        fill: none;
        stroke-linejoin: round;
      }

      .cls-5 {
        stroke-width: 1.9px;
      }

      .cls-2 {
        fill: #2a2d49;
      }

      .cls-6 {
        stroke: #6870ee;
        stroke-linecap: round;
        stroke-width: 4.75px;
      }
    </style>
  </defs>
  <rect id="cover" class="cls-2" x="157.25" y="113.82" width="1605.5" height="852.36" rx="32.53" ry="32.53"/>
  <g>
    <g>
      <path id="_گرید" data-name="گرید" class="cls-4" d="M283.3,822.2h1356.15M283.3,778.47h1356.15M283.3,734.75h1356.15M283.3,690.36h1356.15M283.3,646.64h1356.15M283.3,602.26h1356.15M283.3,558.53h1356.15M283.3,514.81h1356.15M283.3,470.43h1356.15M283.3,426.7h1356.15M283.3,382.97h1356.15M283.3,338.59h1356.15M283.3,294.86h1356.15M283.3,250.48h1011.58"/>
      <path class="cls-5" d="M283.3,866.55h1356.15"/>
      <path class="cls-5" d="M283.3,866.55v8.48M396.21,866.55v8.48M509.11,866.55v8.48M622.01,866.55v8.48M735.57,866.55v8.48M848.47,866.55v8.48M961.38,866.55v8.48M1074.28,866.55v8.48M1187.84,866.55v8.48M1300.74,866.55v8.48M1413.64,866.55v8.48M1527.2,866.55v8.48M1639.45,866.55v8.48"/>
    </g>
    <path class="cls-6" d="M339.43,294.53h112.9l112.9,88.12,113.56,43.73,112.9,88.11,112.9,44.38,112.9,43.73h226.46l112.9,43.73,112.9,44.38,113.56,87.43"/>
    <g>
      <g class="cls-3">
        <path class="cls-1" d="M235.17,863.67c-.98-.36-1.7-.87-2.17-1.53-.47-.66-.71-1.46-.71-2.38,0-1.39.5-2.57,1.5-3.51,1-.95,2.33-1.42,4-1.42s3.02.49,4.04,1.46c1.02.97,1.53,2.15,1.53,3.55,0,.89-.23,1.66-.7,2.32-.47.66-1.17,1.17-2.12,1.52,1.18.38,2.07,1,2.68,1.86s.92,1.87.92,3.06c0,1.64-.58,3.01-1.74,4.13s-2.68,1.67-4.57,1.67-3.41-.56-4.57-1.68c-1.16-1.12-1.74-2.51-1.74-4.19,0-1.25.32-2.29.95-3.13.63-.84,1.53-1.41,2.7-1.72ZM233.94,868.53c0,.67.16,1.32.48,1.95.32.63.79,1.11,1.42,1.46.63.34,1.3.52,2.03.52,1.12,0,2.05-.36,2.78-1.08s1.1-1.64,1.1-2.76-.38-2.07-1.13-2.81c-.75-.74-1.7-1.11-2.83-1.11s-2.02.37-2.75,1.1c-.73.73-1.09,1.65-1.09,2.74ZM234.7,859.68c0,.91.29,1.65.88,2.22.58.57,1.34.86,2.27.86s1.65-.29,2.23-.86c.58-.57.87-1.27.87-2.1s-.3-1.59-.9-2.17-1.34-.88-2.23-.88-1.64.29-2.23.86c-.59.57-.89,1.26-.89,2.06Z"/>
        <path class="cls-1" d="M246.43,864.61c0-2.26.23-4.09.7-5.47.47-1.38,1.16-2.45,2.08-3.19s2.08-1.12,3.47-1.12c1.03,0,1.93.21,2.71.62.77.41,1.42,1.01,1.92,1.79s.9,1.73,1.19,2.85c.29,1.12.43,2.63.43,4.53,0,2.25-.23,4.06-.69,5.44-.46,1.38-1.15,2.45-2.07,3.2-.92.75-2.08,1.13-3.48,1.13-1.85,0-3.3-.66-4.35-1.99-1.26-1.59-1.89-4.19-1.89-7.79ZM248.85,864.61c0,3.14.37,5.24,1.1,6.28.74,1.04,1.64,1.56,2.72,1.56s1.99-.52,2.72-1.57c.74-1.04,1.1-3.14,1.1-6.27s-.37-5.25-1.1-6.28c-.74-1.04-1.65-1.55-2.75-1.55s-1.94.46-2.59,1.37c-.81,1.17-1.21,3.32-1.21,6.47Z"/>
      </g>
      <g class="cls-3">
        <path class="cls-1" d="M235.17,819.29c-.98-.36-1.7-.87-2.17-1.53-.47-.66-.71-1.46-.71-2.38,0-1.39.5-2.57,1.5-3.51,1-.95,2.33-1.42,4-1.42s3.02.49,4.04,1.46c1.02.97,1.53,2.15,1.53,3.55,0,.89-.23,1.66-.7,2.32-.47.66-1.17,1.17-2.12,1.52,1.18.38,2.07,1,2.68,1.86s.92,1.87.92,3.06c0,1.64-.58,3.01-1.74,4.13s-2.68,1.67-4.57,1.67-3.41-.56-4.57-1.68c-1.16-1.12-1.74-2.51-1.74-4.19,0-1.25.32-2.29.95-3.13.63-.84,1.53-1.41,2.7-1.72ZM233.94,824.15c0,.67.16,1.32.48,1.95.32.63.79,1.11,1.42,1.46.63.34,1.3.52,2.03.52,1.12,0,2.05-.36,2.78-1.08s1.1-1.64,1.1-2.76-.38-2.07-1.13-2.81c-.75-.74-1.7-1.11-2.83-1.11s-2.02.37-2.75,1.1c-.73.73-1.09,1.65-1.09,2.74ZM234.7,815.31c0,.91.29,1.65.88,2.22.58.57,1.34.86,2.27.86s1.65-.29,2.23-.86c.58-.57.87-1.27.87-2.1s-.3-1.59-.9-2.17-1.34-.88-2.23-.88-1.64.29-2.23.86c-.59.57-.89,1.26-.89,2.06Z"/>
        <path class="cls-1" d="M255.29,829.68h-2.35v-14.99c-.57.54-1.31,1.08-2.23,1.62s-1.74.94-2.48,1.21v-2.27c1.32-.62,2.46-1.37,3.45-2.25s1.68-1.73,2.09-2.56h1.52v19.23Z"/>
      </g>
      <g class="cls-3">
        <path class="cls-1" d="M235.17,775.57c-.98-.36-1.7-.87-2.17-1.53-.47-.66-.71-1.46-.71-2.38,0-1.39.5-2.57,1.5-3.51,1-.95,2.33-1.42,4-1.42s3.02.49,4.04,1.46c1.02.97,1.53,2.15,1.53,3.55,0,.89-.23,1.66-.7,2.32-.47.66-1.17,1.17-2.12,1.52,1.18.38,2.07,1,2.68,1.86s.92,1.87.92,3.06c0,1.64-.58,3.01-1.74,4.13s-2.68,1.67-4.57,1.67-3.41-.56-4.57-1.68c-1.16-1.12-1.74-2.51-1.74-4.19,0-1.25.32-2.29.95-3.13.63-.84,1.53-1.41,2.7-1.72ZM233.94,780.43c0,.67.16,1.32.48,1.95.32.63.79,1.11,1.42,1.46.63.34,1.3.52,2.03.52,1.12,0,2.05-.36,2.78-1.08s1.1-1.64,1.1-2.76-.38-2.07-1.13-2.81c-.75-.74-1.7-1.11-2.83-1.11s-2.02.37-2.75,1.1c-.73.73-1.09,1.65-1.09,2.74ZM234.7,771.58c0,.91.29,1.65.88,2.22.58.57,1.34.86,2.27.86s1.65-.29,2.23-.86c.58-.57.87-1.27.87-2.1s-.3-1.59-.9-2.17-1.34-.88-2.23-.88-1.64.29-2.23.86c-.59.57-.89,1.26-.89,2.06Z"/>
        <path class="cls-1" d="M258.79,783.69v2.26h-12.66c-.02-.57.07-1.11.27-1.63.32-.86.84-1.71,1.55-2.55s1.74-1.8,3.08-2.9c2.08-1.71,3.49-3.06,4.22-4.06.73-1,1.1-1.94,1.1-2.83s-.33-1.72-1-2.36c-.67-.64-1.54-.96-2.61-.96-1.13,0-2.04.34-2.72,1.02-.68.68-1.02,1.62-1.03,2.82l-2.42-.25c.17-1.8.79-3.18,1.87-4.12,1.08-.95,2.53-1.42,4.35-1.42s3.29.51,4.36,1.53c1.07,1.02,1.61,2.28,1.61,3.79,0,.77-.16,1.52-.47,2.26s-.83,1.52-1.56,2.34c-.73.82-1.94,1.94-3.62,3.37-1.41,1.18-2.32,1.99-2.72,2.41-.4.42-.73.85-.99,1.27h9.39Z"/>
      </g>
      <g class="cls-3">
        <path class="cls-1" d="M235.17,731.84c-.98-.36-1.7-.87-2.17-1.53-.47-.66-.71-1.46-.71-2.38,0-1.39.5-2.57,1.5-3.51,1-.95,2.33-1.42,4-1.42s3.02.49,4.04,1.46c1.02.97,1.53,2.15,1.53,3.55,0,.89-.23,1.66-.7,2.32-.47.66-1.17,1.17-2.12,1.52,1.18.38,2.07,1,2.68,1.86s.92,1.87.92,3.06c0,1.64-.58,3.01-1.74,4.13s-2.68,1.67-4.57,1.67-3.41-.56-4.57-1.68c-1.16-1.12-1.74-2.51-1.74-4.19,0-1.25.32-2.29.95-3.13.63-.84,1.53-1.41,2.7-1.72ZM233.94,736.7c0,.67.16,1.32.48,1.95.32.63.79,1.11,1.42,1.46.63.34,1.3.52,2.03.52,1.12,0,2.05-.36,2.78-1.08s1.1-1.64,1.1-2.76-.38-2.07-1.13-2.81c-.75-.74-1.7-1.11-2.83-1.11s-2.02.37-2.75,1.1c-.73.73-1.09,1.65-1.09,2.74ZM234.7,727.86c0,.91.29,1.65.88,2.22.58.57,1.34.86,2.27.86s1.65-.29,2.23-.86c.58-.57.87-1.27.87-2.1s-.3-1.59-.9-2.17-1.34-.88-2.23-.88-1.64.29-2.23.86c-.59.57-.89,1.26-.89,2.06Z"/>
        <path class="cls-1" d="M246.45,737.17l2.35-.31c.27,1.33.73,2.29,1.38,2.88.65.59,1.44.88,2.37.88,1.11,0,2.04-.38,2.8-1.15.76-.77,1.14-1.72,1.14-2.85s-.35-1.97-1.06-2.67c-.71-.7-1.6-1.05-2.69-1.05-.44,0-1,.09-1.66.26l.26-2.06c.16.02.28.03.38.03,1,0,1.9-.26,2.7-.78.8-.52,1.2-1.33,1.2-2.42,0-.86-.29-1.58-.88-2.14-.58-.57-1.34-.85-2.26-.85s-1.68.29-2.29.86c-.61.57-1,1.44-1.18,2.59l-2.35-.42c.29-1.58.94-2.8,1.96-3.66,1.02-.87,2.29-1.3,3.8-1.3,1.05,0,2.01.22,2.89.67.88.45,1.55,1.06,2.02,1.84s.7,1.6.7,2.47-.22,1.58-.67,2.26c-.44.68-1.1,1.22-1.97,1.62,1.13.26,2.01.8,2.64,1.63s.94,1.85.94,3.09c0,1.67-.61,3.09-1.83,4.25-1.22,1.16-2.76,1.74-4.62,1.74-1.68,0-3.08-.5-4.19-1.5-1.11-1-1.74-2.3-1.9-3.89Z"/>
      </g>
      <g class="cls-3">
        <path class="cls-1" d="M235.17,687.46c-.98-.36-1.7-.87-2.17-1.53-.47-.66-.71-1.46-.71-2.38,0-1.39.5-2.57,1.5-3.51,1-.95,2.33-1.42,4-1.42s3.02.49,4.04,1.46c1.02.97,1.53,2.15,1.53,3.55,0,.89-.23,1.66-.7,2.32-.47.66-1.17,1.17-2.12,1.52,1.18.38,2.07,1,2.68,1.86s.92,1.87.92,3.06c0,1.64-.58,3.01-1.74,4.13s-2.68,1.67-4.57,1.67-3.41-.56-4.57-1.68c-1.16-1.12-1.74-2.51-1.74-4.19,0-1.25.32-2.29.95-3.13.63-.84,1.53-1.41,2.7-1.72ZM233.94,692.32c0,.67.16,1.32.48,1.95.32.63.79,1.11,1.42,1.46.63.34,1.3.52,2.03.52,1.12,0,2.05-.36,2.78-1.08s1.1-1.64,1.1-2.76-.38-2.07-1.13-2.81c-.75-.74-1.7-1.11-2.83-1.11s-2.02.37-2.75,1.1c-.73.73-1.09,1.65-1.09,2.74ZM234.7,683.48c0,.91.29,1.65.88,2.22.58.57,1.34.86,2.27.86s1.65-.29,2.23-.86c.58-.57.87-1.27.87-2.1s-.3-1.59-.9-2.17-1.34-.88-2.23-.88-1.64.29-2.23.86c-.59.57-.89,1.26-.89,2.06Z"/>
        <path class="cls-1" d="M253.97,697.85v-4.59h-8.31v-2.16l8.74-12.41h1.92v12.41h2.59v2.16h-2.59v4.59h-2.35ZM253.97,691.11v-8.64l-6,8.64h6Z"/>
      </g>
      <g class="cls-3">
        <path class="cls-1" d="M235.17,643.74c-.98-.36-1.7-.87-2.17-1.53-.47-.66-.71-1.46-.71-2.38,0-1.39.5-2.57,1.5-3.51,1-.95,2.33-1.42,4-1.42s3.02.49,4.04,1.46c1.02.97,1.53,2.15,1.53,3.55,0,.89-.23,1.66-.7,2.32-.47.66-1.17,1.17-2.12,1.52,1.18.38,2.07,1,2.68,1.86s.92,1.87.92,3.06c0,1.64-.58,3.01-1.74,4.13s-2.68,1.67-4.57,1.67-3.41-.56-4.57-1.68c-1.16-1.12-1.74-2.51-1.74-4.19,0-1.25.32-2.29.95-3.13.63-.84,1.53-1.41,2.7-1.72ZM233.94,648.6c0,.67.16,1.32.48,1.95.32.63.79,1.11,1.42,1.46.63.34,1.3.52,2.03.52,1.12,0,2.05-.36,2.78-1.08s1.1-1.64,1.1-2.76-.38-2.07-1.13-2.81c-.75-.74-1.7-1.11-2.83-1.11s-2.02.37-2.75,1.1c-.73.73-1.09,1.65-1.09,2.74ZM234.7,639.75c0,.91.29,1.65.88,2.22.58.57,1.34.86,2.27.86s1.65-.29,2.23-.86c.58-.57.87-1.27.87-2.1s-.3-1.59-.9-2.17-1.34-.88-2.23-.88-1.64.29-2.23.86c-.59.57-.89,1.26-.89,2.06Z"/>
        <path class="cls-1" d="M246.43,649.11l2.47-.21c.18,1.2.61,2.11,1.27,2.71.67.61,1.47.91,2.41.91,1.13,0,2.09-.43,2.87-1.28.78-.85,1.18-1.99,1.18-3.4s-.38-2.4-1.13-3.17c-.75-.78-1.74-1.16-2.96-1.16-.76,0-1.44.17-2.05.52-.61.34-1.09.79-1.44,1.34l-2.21-.29,1.86-9.84h9.52v2.25h-7.64l-1.03,5.15c1.15-.8,2.36-1.2,3.62-1.2,1.67,0,3.08.58,4.23,1.74,1.15,1.16,1.72,2.65,1.72,4.47s-.5,3.23-1.52,4.49c-1.23,1.55-2.9,2.33-5.03,2.33-1.74,0-3.16-.49-4.27-1.46-1.1-.98-1.73-2.27-1.89-3.88Z"/>
      </g>
      <g class="cls-3">
        <path class="cls-1" d="M235.17,599.36c-.98-.36-1.7-.87-2.17-1.53-.47-.66-.71-1.46-.71-2.38,0-1.39.5-2.57,1.5-3.51,1-.95,2.33-1.42,4-1.42s3.02.49,4.04,1.46c1.02.97,1.53,2.15,1.53,3.55,0,.89-.23,1.66-.7,2.32-.47.66-1.17,1.17-2.12,1.52,1.18.38,2.07,1,2.68,1.86s.92,1.87.92,3.06c0,1.64-.58,3.01-1.74,4.13s-2.68,1.67-4.57,1.67-3.41-.56-4.57-1.68c-1.16-1.12-1.74-2.51-1.74-4.19,0-1.25.32-2.29.95-3.13.63-.84,1.53-1.41,2.7-1.72ZM233.94,604.22c0,.67.16,1.32.48,1.95.32.63.79,1.11,1.42,1.46.63.34,1.3.52,2.03.52,1.12,0,2.05-.36,2.78-1.08s1.1-1.64,1.1-2.76-.38-2.07-1.13-2.81c-.75-.74-1.7-1.11-2.83-1.11s-2.02.37-2.75,1.1c-.73.73-1.09,1.65-1.09,2.74ZM234.7,595.37c0,.91.29,1.65.88,2.22.58.57,1.34.86,2.27.86s1.65-.29,2.23-.86c.58-.57.87-1.27.87-2.1s-.3-1.59-.9-2.17-1.34-.88-2.23-.88-1.64.29-2.23.86c-.59.57-.89,1.26-.89,2.06Z"/>
        <path class="cls-1" d="M258.64,595.28l-2.34.18c-.21-.92-.5-1.59-.89-2.01-.64-.67-1.42-1.01-2.35-1.01-.75,0-1.41.21-1.97.63-.74.54-1.32,1.33-1.75,2.36-.43,1.04-.65,2.51-.67,4.43.57-.86,1.26-1.5,2.08-1.92s1.68-.63,2.57-.63c1.57,0,2.9.58,4,1.73,1.1,1.15,1.65,2.65,1.65,4.48,0,1.2-.26,2.32-.78,3.35-.52,1.03-1.23,1.82-2.14,2.37-.91.55-1.93.82-3.08.82-1.96,0-3.56-.72-4.79-2.16-1.24-1.44-1.86-3.82-1.86-7.13,0-3.7.68-6.39,2.05-8.07,1.19-1.46,2.8-2.2,4.82-2.2,1.51,0,2.74.42,3.7,1.27.96.84,1.54,2.01,1.73,3.5ZM249.03,603.54c0,.81.17,1.59.52,2.33s.83,1.3,1.44,1.69c.62.39,1.27.58,1.95.58.99,0,1.85-.4,2.56-1.2.71-.8,1.07-1.89,1.07-3.27s-.35-2.37-1.06-3.13c-.71-.76-1.59-1.14-2.67-1.14s-1.96.38-2.7,1.14c-.74.76-1.11,1.76-1.11,3Z"/>
      </g>
      <g class="cls-3">
        <path class="cls-1" d="M235.17,555.63c-.98-.36-1.7-.87-2.17-1.53-.47-.66-.71-1.46-.71-2.38,0-1.39.5-2.57,1.5-3.51,1-.95,2.33-1.42,4-1.42s3.02.49,4.04,1.46c1.02.97,1.53,2.15,1.53,3.55,0,.89-.23,1.66-.7,2.32-.47.66-1.17,1.17-2.12,1.52,1.18.38,2.07,1,2.68,1.86s.92,1.87.92,3.06c0,1.64-.58,3.01-1.74,4.13s-2.68,1.67-4.57,1.67-3.41-.56-4.57-1.68c-1.16-1.12-1.74-2.51-1.74-4.19,0-1.25.32-2.29.95-3.13.63-.84,1.53-1.41,2.7-1.72ZM233.94,560.49c0,.67.16,1.32.48,1.95.32.63.79,1.11,1.42,1.46.63.34,1.3.52,2.03.52,1.12,0,2.05-.36,2.78-1.08s1.1-1.64,1.1-2.76-.38-2.07-1.13-2.81c-.75-.74-1.7-1.11-2.83-1.11s-2.02.37-2.75,1.1c-.73.73-1.09,1.65-1.09,2.74ZM234.7,551.65c0,.91.29,1.65.88,2.22.58.57,1.34.86,2.27.86s1.65-.29,2.23-.86c.58-.57.87-1.27.87-2.1s-.3-1.59-.9-2.17-1.34-.88-2.23-.88-1.64.29-2.23.86c-.59.57-.89,1.26-.89,2.06Z"/>
        <path class="cls-1" d="M246.59,549.38v-2.26h12.4v1.83c-1.22,1.3-2.43,3.02-3.62,5.17-1.2,2.15-2.12,4.36-2.78,6.64-.47,1.6-.77,3.36-.9,5.27h-2.42c.03-1.51.32-3.33.89-5.46s1.38-4.19,2.44-6.17c1.06-1.98,2.18-3.65,3.38-5.01h-9.38Z"/>
      </g>
      <g class="cls-3">
        <path class="cls-1" d="M235.17,511.91c-.98-.36-1.7-.87-2.17-1.53-.47-.66-.71-1.45-.71-2.38,0-1.39.5-2.56,1.5-3.51,1-.95,2.33-1.42,4-1.42s3.02.49,4.04,1.46c1.02.97,1.53,2.15,1.53,3.55,0,.89-.23,1.66-.7,2.32s-1.17,1.17-2.12,1.52c1.18.38,2.07,1,2.68,1.85.61.85.92,1.87.92,3.06,0,1.64-.58,3.01-1.74,4.13-1.16,1.12-2.68,1.67-4.57,1.67s-3.41-.56-4.57-1.68c-1.16-1.12-1.74-2.52-1.74-4.19,0-1.25.32-2.29.95-3.13.63-.84,1.53-1.41,2.7-1.72ZM233.94,516.77c0,.67.16,1.32.48,1.95.32.63.79,1.11,1.42,1.46.63.34,1.3.52,2.03.52,1.12,0,2.05-.36,2.78-1.08.73-.72,1.1-1.64,1.1-2.76s-.38-2.07-1.13-2.81c-.75-.74-1.7-1.11-2.83-1.11s-2.02.37-2.75,1.1c-.73.73-1.09,1.65-1.09,2.74ZM234.7,507.92c0,.91.29,1.65.88,2.22.58.57,1.34.86,2.27.86s1.65-.29,2.23-.86.87-1.27.87-2.1-.3-1.59-.9-2.18-1.34-.88-2.23-.88-1.64.29-2.23.86c-.59.57-.89,1.26-.89,2.06Z"/>
        <path class="cls-1" d="M250.05,511.91c-.98-.36-1.7-.87-2.17-1.53-.47-.66-.71-1.45-.71-2.38,0-1.39.5-2.56,1.5-3.51,1-.95,2.33-1.42,4-1.42s3.02.49,4.04,1.46c1.02.97,1.53,2.15,1.53,3.55,0,.89-.23,1.66-.7,2.32s-1.17,1.17-2.12,1.52c1.18.38,2.07,1,2.68,1.85.61.85.92,1.87.92,3.06,0,1.64-.58,3.01-1.74,4.13-1.16,1.12-2.68,1.67-4.57,1.67s-3.41-.56-4.57-1.68c-1.16-1.12-1.74-2.52-1.74-4.19,0-1.25.32-2.29.95-3.13.63-.84,1.53-1.41,2.7-1.72ZM248.83,516.77c0,.67.16,1.32.48,1.95.32.63.79,1.11,1.42,1.46.63.34,1.3.52,2.03.52,1.12,0,2.05-.36,2.78-1.08.73-.72,1.1-1.64,1.1-2.76s-.38-2.07-1.13-2.81c-.75-.74-1.7-1.11-2.83-1.11s-2.02.37-2.75,1.1c-.73.73-1.09,1.65-1.09,2.74ZM249.58,507.92c0,.91.29,1.65.88,2.22.58.57,1.34.86,2.27.86s1.65-.29,2.23-.86.87-1.27.87-2.1-.3-1.59-.9-2.18-1.34-.88-2.23-.88-1.64.29-2.23.86c-.59.57-.89,1.26-.89,2.06Z"/>
      </g>
      <g class="cls-3">
        <path class="cls-1" d="M235.17,467.53c-.98-.36-1.7-.87-2.17-1.53-.47-.66-.71-1.45-.71-2.38,0-1.39.5-2.56,1.5-3.51,1-.95,2.33-1.42,4-1.42s3.02.49,4.04,1.46c1.02.97,1.53,2.15,1.53,3.55,0,.89-.23,1.66-.7,2.32s-1.17,1.17-2.12,1.52c1.18.38,2.07,1,2.68,1.85.61.85.92,1.87.92,3.06,0,1.64-.58,3.01-1.74,4.13-1.16,1.12-2.68,1.67-4.57,1.67s-3.41-.56-4.57-1.68c-1.16-1.12-1.74-2.52-1.74-4.19,0-1.25.32-2.29.95-3.13.63-.84,1.53-1.41,2.7-1.72ZM233.94,472.39c0,.67.16,1.32.48,1.95.32.63.79,1.11,1.42,1.46.63.34,1.3.52,2.03.52,1.12,0,2.05-.36,2.78-1.08.73-.72,1.1-1.64,1.1-2.76s-.38-2.07-1.13-2.81c-.75-.74-1.7-1.11-2.83-1.11s-2.02.37-2.75,1.1c-.73.73-1.09,1.65-1.09,2.74ZM234.7,463.54c0,.91.29,1.65.88,2.22.58.57,1.34.86,2.27.86s1.65-.29,2.23-.86.87-1.27.87-2.1-.3-1.59-.9-2.18-1.34-.88-2.23-.88-1.64.29-2.23.86c-.59.57-.89,1.26-.89,2.06Z"/>
        <path class="cls-1" d="M246.79,473.49l2.26-.21c.19,1.06.56,1.83,1.1,2.31s1.23.72,2.08.72c.72,0,1.36-.17,1.9-.5.54-.33.99-.77,1.34-1.33.35-.55.64-1.3.88-2.24.24-.94.35-1.9.35-2.87,0-.1,0-.26-.01-.47-.47.75-1.11,1.36-1.93,1.82s-1.7.7-2.65.7c-1.59,0-2.93-.58-4.02-1.72-1.1-1.15-1.65-2.67-1.65-4.55s.57-3.51,1.72-4.69c1.15-1.18,2.58-1.78,4.31-1.78,1.25,0,2.38.34,3.42,1.01,1.03.67,1.82,1.63,2.35,2.87.54,1.24.8,3.04.8,5.39s-.27,4.4-.8,5.85-1.32,2.55-2.37,3.31-2.28,1.14-3.69,1.14c-1.5,0-2.72-.42-3.67-1.25-.95-.83-1.52-2-1.71-3.51ZM256.42,465.03c0-1.35-.36-2.42-1.08-3.21s-1.58-1.19-2.59-1.19-1.96.43-2.73,1.28c-.78.85-1.16,1.96-1.16,3.32,0,1.22.37,2.21,1.1,2.97.74.76,1.64,1.14,2.72,1.14s1.98-.38,2.69-1.14c.7-.76,1.05-1.82,1.05-3.17Z"/>
      </g>
      <g class="cls-3">
        <path class="cls-1" d="M231.91,429.76l2.26-.21c.19,1.06.56,1.83,1.1,2.31s1.23.72,2.08.72c.72,0,1.36-.17,1.9-.5.54-.33.99-.77,1.34-1.33.35-.55.64-1.3.88-2.24.24-.94.35-1.9.35-2.87,0-.1,0-.26-.01-.47-.47.75-1.11,1.36-1.93,1.82s-1.7.7-2.65.7c-1.59,0-2.93-.58-4.02-1.72-1.1-1.15-1.65-2.67-1.65-4.55s.57-3.51,1.72-4.69c1.15-1.18,2.58-1.78,4.31-1.78,1.25,0,2.38.34,3.42,1.01,1.03.67,1.82,1.63,2.35,2.87.54,1.24.8,3.04.8,5.39s-.27,4.4-.8,5.85-1.32,2.55-2.37,3.31-2.28,1.14-3.69,1.14c-1.5,0-2.72-.42-3.67-1.25-.95-.83-1.52-2-1.71-3.51ZM241.54,421.31c0-1.35-.36-2.42-1.08-3.21s-1.58-1.19-2.59-1.19-1.96.43-2.73,1.28c-.78.85-1.16,1.96-1.16,3.32,0,1.22.37,2.21,1.1,2.97.74.76,1.64,1.14,2.72,1.14s1.98-.38,2.69-1.14c.7-.76,1.05-1.82,1.05-3.17Z"/>
        <path class="cls-1" d="M246.43,424.74c0-2.26.23-4.09.7-5.47.47-1.38,1.16-2.45,2.08-3.19s2.08-1.12,3.47-1.12c1.03,0,1.93.21,2.71.62.77.41,1.42,1.01,1.92,1.79.5.78.9,1.73,1.19,2.85.29,1.12.43,2.63.43,4.53,0,2.25-.23,4.06-.69,5.44s-1.15,2.45-2.07,3.2c-.92.75-2.08,1.13-3.48,1.13-1.85,0-3.3-.66-4.35-1.99-1.26-1.59-1.89-4.19-1.89-7.79ZM248.85,424.74c0,3.14.37,5.24,1.1,6.28.74,1.04,1.64,1.56,2.72,1.56s1.99-.52,2.72-1.57c.74-1.05,1.1-3.14,1.1-6.27s-.37-5.25-1.1-6.28c-.74-1.04-1.65-1.55-2.75-1.55s-1.94.46-2.59,1.37c-.81,1.17-1.21,3.32-1.21,6.47Z"/>
      </g>
      <g class="cls-3">
        <path class="cls-1" d="M231.91,386.04l2.26-.21c.19,1.06.56,1.83,1.1,2.31s1.23.72,2.08.72c.72,0,1.36-.17,1.9-.5.54-.33.99-.77,1.34-1.33.35-.55.64-1.3.88-2.24.24-.94.35-1.9.35-2.87,0-.1,0-.26-.01-.47-.47.75-1.11,1.36-1.93,1.82s-1.7.7-2.65.7c-1.59,0-2.93-.58-4.02-1.72-1.1-1.15-1.65-2.67-1.65-4.55s.57-3.51,1.72-4.69c1.15-1.18,2.58-1.78,4.31-1.78,1.25,0,2.38.34,3.42,1.01,1.03.67,1.82,1.63,2.35,2.87.54,1.24.8,3.04.8,5.39s-.27,4.4-.8,5.85-1.32,2.55-2.37,3.31-2.28,1.14-3.69,1.14c-1.5,0-2.72-.42-3.67-1.25-.95-.83-1.52-2-1.71-3.51ZM241.54,377.58c0-1.35-.36-2.42-1.08-3.21s-1.58-1.19-2.59-1.19-1.96.43-2.73,1.28c-.78.85-1.16,1.96-1.16,3.32,0,1.22.37,2.21,1.1,2.97.74.76,1.64,1.14,2.72,1.14s1.98-.38,2.69-1.14c.7-.76,1.05-1.82,1.05-3.17Z"/>
        <path class="cls-1" d="M255.29,390.46h-2.35v-14.99c-.57.54-1.31,1.08-2.23,1.62s-1.74.95-2.48,1.22v-2.27c1.32-.62,2.46-1.37,3.45-2.25.98-.88,1.68-1.73,2.09-2.56h1.52v19.23Z"/>
      </g>
      <g class="cls-3">
        <path class="cls-1" d="M231.91,341.66l2.26-.21c.19,1.06.56,1.83,1.1,2.31s1.23.72,2.08.72c.72,0,1.36-.17,1.9-.5.54-.33.99-.77,1.34-1.33.35-.55.64-1.3.88-2.24.24-.94.35-1.9.35-2.87,0-.1,0-.26-.01-.47-.47.75-1.11,1.36-1.93,1.82s-1.7.7-2.65.7c-1.59,0-2.93-.58-4.02-1.72-1.1-1.15-1.65-2.67-1.65-4.55s.57-3.51,1.72-4.69c1.15-1.18,2.58-1.78,4.31-1.78,1.25,0,2.38.34,3.42,1.01,1.03.67,1.82,1.63,2.35,2.87.54,1.24.8,3.04.8,5.39s-.27,4.4-.8,5.85-1.32,2.55-2.37,3.31-2.28,1.14-3.69,1.14c-1.5,0-2.72-.42-3.67-1.25-.95-.83-1.52-2-1.71-3.51ZM241.54,333.2c0-1.35-.36-2.42-1.08-3.21s-1.58-1.19-2.59-1.19-1.96.43-2.73,1.28c-.78.85-1.16,1.96-1.16,3.32,0,1.22.37,2.21,1.1,2.97.74.76,1.64,1.14,2.72,1.14s1.98-.38,2.69-1.14c.7-.76,1.05-1.82,1.05-3.17Z"/>
        <path class="cls-1" d="M258.79,343.83v2.26h-12.66c-.02-.57.07-1.11.27-1.63.32-.86.84-1.71,1.55-2.55.71-.84,1.74-1.8,3.08-2.9,2.08-1.71,3.49-3.06,4.22-4.06.73-1,1.1-1.94,1.1-2.83s-.33-1.72-1-2.36c-.67-.64-1.54-.96-2.61-.96-1.13,0-2.04.34-2.72,1.02-.68.68-1.02,1.62-1.03,2.82l-2.42-.25c.17-1.8.79-3.18,1.87-4.12,1.08-.94,2.53-1.42,4.35-1.42s3.29.51,4.36,1.53,1.61,2.28,1.61,3.79c0,.77-.16,1.52-.47,2.26-.31.74-.83,1.52-1.56,2.34-.73.82-1.94,1.94-3.62,3.37-1.41,1.18-2.32,1.99-2.72,2.41-.4.42-.73.85-.99,1.27h9.39Z"/>
      </g>
      <g class="cls-3">
        <path class="cls-1" d="M231.91,297.93l2.26-.21c.19,1.06.56,1.83,1.1,2.31s1.23.72,2.08.72c.72,0,1.36-.17,1.9-.5.54-.33.99-.77,1.34-1.33.35-.55.64-1.3.88-2.24.24-.94.35-1.9.35-2.87,0-.1,0-.26-.01-.47-.47.75-1.11,1.36-1.93,1.82s-1.7.7-2.65.7c-1.59,0-2.93-.58-4.02-1.72-1.1-1.15-1.65-2.67-1.65-4.55s.57-3.51,1.72-4.69c1.15-1.18,2.58-1.78,4.31-1.78,1.25,0,2.38.34,3.42,1.01,1.03.67,1.82,1.63,2.35,2.87.54,1.24.8,3.04.8,5.39s-.27,4.4-.8,5.85-1.32,2.55-2.37,3.31-2.28,1.14-3.69,1.14c-1.5,0-2.72-.42-3.67-1.25-.95-.83-1.52-2-1.71-3.51ZM241.54,289.48c0-1.35-.36-2.42-1.08-3.21s-1.58-1.19-2.59-1.19-1.96.43-2.73,1.28c-.78.85-1.16,1.96-1.16,3.32,0,1.22.37,2.21,1.1,2.97.74.76,1.64,1.14,2.72,1.14s1.98-.38,2.69-1.14c.7-.76,1.05-1.82,1.05-3.17Z"/>
        <path class="cls-1" d="M246.45,297.3l2.35-.31c.27,1.33.73,2.29,1.38,2.88.65.59,1.44.88,2.37.88,1.11,0,2.04-.38,2.8-1.15.76-.77,1.14-1.72,1.14-2.85s-.35-1.97-1.06-2.67c-.71-.7-1.6-1.05-2.69-1.05-.44,0-1,.09-1.66.26l.26-2.06c.16.02.28.03.38.03,1,0,1.9-.26,2.7-.78.8-.52,1.2-1.33,1.2-2.42,0-.86-.29-1.58-.88-2.14-.58-.57-1.34-.85-2.26-.85s-1.68.29-2.29.86c-.61.57-1,1.44-1.18,2.59l-2.35-.42c.29-1.58.94-2.8,1.96-3.67,1.02-.87,2.29-1.3,3.8-1.3,1.05,0,2.01.22,2.89.67s1.55,1.06,2.02,1.84c.47.78.7,1.6.7,2.47s-.22,1.58-.67,2.26c-.44.68-1.1,1.22-1.97,1.62,1.13.26,2.01.8,2.64,1.63s.94,1.85.94,3.09c0,1.67-.61,3.09-1.83,4.25-1.22,1.16-2.76,1.74-4.62,1.74-1.68,0-3.08-.5-4.19-1.5-1.11-1-1.74-2.3-1.9-3.89Z"/>
      </g>
      <g class="cls-3">
        <path class="cls-1" d="M231.91,253.55l2.26-.21c.19,1.06.56,1.83,1.1,2.31s1.23.72,2.08.72c.72,0,1.36-.17,1.9-.5.54-.33.99-.77,1.34-1.33.35-.55.64-1.3.88-2.24.24-.94.35-1.9.35-2.87,0-.1,0-.26-.01-.47-.47.75-1.11,1.36-1.93,1.82s-1.7.7-2.65.7c-1.59,0-2.93-.58-4.02-1.72-1.1-1.15-1.65-2.67-1.65-4.55s.57-3.51,1.72-4.69c1.15-1.18,2.58-1.78,4.31-1.78,1.25,0,2.38.34,3.42,1.01,1.03.67,1.82,1.63,2.35,2.87.54,1.24.8,3.04.8,5.39s-.27,4.4-.8,5.85-1.32,2.55-2.37,3.31-2.28,1.14-3.69,1.14c-1.5,0-2.72-.42-3.67-1.25-.95-.83-1.52-2-1.71-3.51ZM241.54,245.1c0-1.35-.36-2.42-1.08-3.21s-1.58-1.19-2.59-1.19-1.96.43-2.73,1.28c-.78.85-1.16,1.96-1.16,3.32,0,1.22.37,2.21,1.1,2.97.74.76,1.64,1.14,2.72,1.14s1.98-.38,2.69-1.14c.7-.76,1.05-1.82,1.05-3.17Z"/>
        <path class="cls-1" d="M253.97,257.98v-4.59h-8.31v-2.16l8.74-12.41h1.92v12.41h2.59v2.16h-2.59v4.59h-2.35ZM253.97,251.24v-8.64l-6,8.64h6Z"/>
      </g>
    </g>
    <g>
      <g class="cls-3">
        <path class="cls-1" d="M342.22,908.64h-2.35v-14.99c-.57.54-1.31,1.08-2.23,1.62s-1.74.94-2.48,1.21v-2.27c1.32-.62,2.46-1.37,3.45-2.25s1.68-1.73,2.09-2.56h1.52v19.23Z"/>
      </g>
      <g class="cls-3">
        <path class="cls-1" d="M458.62,906.38v2.26h-12.66c-.02-.57.07-1.11.27-1.63.32-.86.84-1.71,1.55-2.55s1.74-1.8,3.08-2.9c2.08-1.71,3.49-3.06,4.22-4.06.73-1,1.1-1.94,1.1-2.83s-.33-1.72-1-2.36c-.67-.64-1.54-.96-2.61-.96-1.13,0-2.04.34-2.72,1.02-.68.68-1.02,1.62-1.03,2.82l-2.42-.25c.17-1.8.79-3.18,1.87-4.12,1.08-.95,2.53-1.42,4.35-1.42s3.29.51,4.36,1.53c1.07,1.02,1.61,2.28,1.61,3.79,0,.77-.16,1.52-.47,2.26s-.83,1.52-1.56,2.34c-.73.82-1.94,1.94-3.62,3.37-1.41,1.18-2.32,1.99-2.72,2.41-.4.42-.73.85-.99,1.27h9.39Z"/>
      </g>
      <g class="cls-3">
        <path class="cls-1" d="M559.83,903.59l2.35-.31c.27,1.33.73,2.29,1.38,2.88.65.59,1.44.88,2.37.88,1.11,0,2.04-.38,2.8-1.15.76-.77,1.14-1.72,1.14-2.85s-.35-1.97-1.06-2.67c-.71-.7-1.6-1.05-2.69-1.05-.44,0-1,.09-1.66.26l.26-2.06c.16.02.28.03.38.03,1,0,1.9-.26,2.7-.78.8-.52,1.2-1.33,1.2-2.42,0-.86-.29-1.58-.88-2.14-.58-.57-1.34-.85-2.26-.85s-1.68.29-2.29.86c-.61.57-1,1.44-1.18,2.59l-2.35-.42c.29-1.58.94-2.8,1.96-3.66,1.02-.87,2.29-1.3,3.8-1.3,1.05,0,2.01.22,2.89.67.88.45,1.55,1.06,2.02,1.84s.7,1.6.7,2.47-.22,1.58-.67,2.26c-.44.68-1.1,1.22-1.97,1.62,1.13.26,2.01.8,2.64,1.63s.94,1.85.94,3.09c0,1.67-.61,3.09-1.83,4.25-1.22,1.16-2.76,1.74-4.62,1.74-1.68,0-3.08-.5-4.19-1.5-1.11-1-1.74-2.3-1.9-3.89Z"/>
      </g>
      <g class="cls-3">
        <path class="cls-1" d="M680.26,908.64v-4.59h-8.31v-2.16l8.74-12.41h1.92v12.41h2.59v2.16h-2.59v4.59h-2.35ZM680.26,901.9v-8.64l-6,8.64h6Z"/>
      </g>
      <g class="cls-3">
        <path class="cls-1" d="M785.63,903.63l2.47-.21c.18,1.2.61,2.11,1.27,2.71.67.61,1.47.91,2.41.91,1.13,0,2.09-.43,2.87-1.28.78-.85,1.18-1.99,1.18-3.4s-.38-2.4-1.13-3.17c-.75-.78-1.74-1.16-2.96-1.16-.76,0-1.44.17-2.05.52-.61.34-1.09.79-1.44,1.34l-2.21-.29,1.86-9.84h9.52v2.25h-7.64l-1.03,5.15c1.15-.8,2.36-1.2,3.62-1.2,1.67,0,3.08.58,4.23,1.74,1.15,1.16,1.72,2.65,1.72,4.47s-.5,3.23-1.52,4.49c-1.23,1.55-2.9,2.33-5.03,2.33-1.74,0-3.16-.49-4.27-1.46-1.1-.98-1.73-2.27-1.89-3.88Z"/>
      </g>
      <g class="cls-3">
        <path class="cls-1" d="M911.39,894.18l-2.34.18c-.21-.92-.5-1.59-.89-2.01-.64-.67-1.42-1.01-2.35-1.01-.75,0-1.41.21-1.97.63-.74.54-1.32,1.33-1.75,2.36-.43,1.04-.65,2.51-.67,4.43.57-.86,1.26-1.5,2.08-1.92s1.68-.63,2.57-.63c1.57,0,2.9.58,4,1.73,1.1,1.15,1.65,2.65,1.65,4.48,0,1.2-.26,2.32-.78,3.35-.52,1.03-1.23,1.82-2.14,2.37-.91.55-1.93.82-3.08.82-1.96,0-3.56-.72-4.79-2.16-1.24-1.44-1.86-3.82-1.86-7.13,0-3.7.68-6.39,2.05-8.07,1.19-1.46,2.8-2.2,4.82-2.2,1.51,0,2.74.42,3.7,1.27.96.84,1.54,2.01,1.73,3.5ZM901.78,902.44c0,.81.17,1.59.52,2.33s.83,1.3,1.44,1.69c.62.39,1.27.58,1.95.58.99,0,1.85-.4,2.56-1.2.71-.8,1.07-1.89,1.07-3.27s-.35-2.37-1.06-3.13c-.71-.76-1.59-1.14-2.67-1.14s-1.96.38-2.7,1.14c-.74.76-1.11,1.76-1.11,3Z"/>
      </g>
      <g class="cls-3">
        <path class="cls-1" d="M1012.24,892v-2.26h12.4v1.83c-1.22,1.3-2.43,3.02-3.62,5.17-1.2,2.15-2.12,4.36-2.78,6.64-.47,1.6-.77,3.36-.9,5.27h-2.42c.03-1.51.32-3.33.89-5.46s1.38-4.19,2.44-6.17c1.06-1.98,2.18-3.65,3.38-5.01h-9.38Z"/>
      </g>
      <g class="cls-3">
        <path class="cls-1" d="M1128.61,898.26c-.98-.36-1.7-.87-2.17-1.53-.47-.66-.71-1.46-.71-2.38,0-1.39.5-2.57,1.5-3.51,1-.95,2.33-1.42,4-1.42s3.02.49,4.04,1.46c1.02.97,1.53,2.15,1.53,3.55,0,.89-.23,1.66-.7,2.32-.47.66-1.17,1.17-2.12,1.52,1.18.38,2.07,1,2.68,1.86s.92,1.87.92,3.06c0,1.64-.58,3.01-1.74,4.13s-2.68,1.67-4.57,1.67-3.41-.56-4.57-1.68c-1.16-1.12-1.74-2.51-1.74-4.19,0-1.25.32-2.29.95-3.13.63-.84,1.53-1.41,2.7-1.72ZM1127.38,903.12c0,.67.16,1.32.48,1.95.32.63.79,1.11,1.42,1.46.63.34,1.3.52,2.03.52,1.12,0,2.05-.36,2.78-1.08s1.1-1.64,1.1-2.76-.38-2.07-1.13-2.81c-.75-.74-1.7-1.11-2.83-1.11s-2.02.37-2.75,1.1c-.73.73-1.09,1.65-1.09,2.74ZM1128.14,894.27c0,.91.29,1.65.88,2.22.58.57,1.34.86,2.27.86s1.65-.29,2.23-.86c.58-.57.87-1.27.87-2.1s-.3-1.59-.9-2.17-1.34-.88-2.23-.88-1.64.29-2.23.86c-.59.57-.89,1.26-.89,2.06Z"/>
      </g>
      <g class="cls-3">
        <path class="cls-1" d="M1238.9,904.22l2.26-.21c.19,1.06.56,1.83,1.1,2.31.54.48,1.23.72,2.08.72.72,0,1.36-.17,1.9-.5.54-.33.99-.77,1.34-1.33.35-.55.64-1.3.88-2.24.24-.94.35-1.9.35-2.88,0-.1,0-.26-.01-.47-.47.75-1.11,1.36-1.93,1.82s-1.7.7-2.65.7c-1.59,0-2.93-.58-4.02-1.72-1.1-1.15-1.65-2.67-1.65-4.55s.57-3.51,1.72-4.69c1.15-1.18,2.58-1.78,4.31-1.78,1.25,0,2.38.34,3.42,1.01s1.82,1.63,2.35,2.87c.54,1.24.8,3.04.8,5.39s-.27,4.4-.8,5.85-1.32,2.55-2.37,3.31c-1.05.76-2.28,1.14-3.69,1.14-1.5,0-2.72-.42-3.67-1.25s-1.52-2-1.71-3.51ZM1248.53,895.76c0-1.35-.36-2.42-1.08-3.21-.72-.79-1.58-1.19-2.59-1.19s-1.96.43-2.73,1.28-1.16,1.96-1.16,3.32c0,1.22.37,2.21,1.1,2.97.74.76,1.64,1.14,2.72,1.14s1.98-.38,2.69-1.14c.7-.76,1.05-1.82,1.05-3.17Z"/>
      </g>
      <g class="cls-3">
        <path class="cls-1" d="M1353.13,908.64h-2.35v-14.99c-.57.54-1.31,1.08-2.23,1.62s-1.74.94-2.48,1.21v-2.27c1.32-.62,2.46-1.37,3.45-2.25s1.68-1.73,2.09-2.56h1.52v19.23Z"/>
        <path class="cls-1" d="M1359.15,899.2c0-2.26.23-4.09.7-5.47.47-1.38,1.16-2.45,2.08-3.19s2.08-1.12,3.47-1.12c1.03,0,1.93.21,2.71.62.77.41,1.42,1.01,1.92,1.79s.9,1.73,1.19,2.85c.29,1.12.43,2.63.43,4.53,0,2.25-.23,4.06-.69,5.44-.46,1.38-1.15,2.45-2.07,3.2-.92.75-2.08,1.13-3.48,1.13-1.85,0-3.3-.66-4.35-1.99-1.26-1.59-1.89-4.19-1.89-7.79ZM1361.57,899.2c0,3.14.37,5.24,1.1,6.28.74,1.04,1.64,1.56,2.72,1.56s1.99-.52,2.72-1.57c.74-1.04,1.1-3.14,1.1-6.27s-.37-5.25-1.1-6.28c-.74-1.04-1.65-1.55-2.75-1.55s-1.94.46-2.59,1.37c-.81,1.17-1.21,3.32-1.21,6.47Z"/>
      </g>
      <g class="cls-3">
        <path class="cls-1" d="M1466.69,908.64h-2.35v-14.99c-.57.54-1.31,1.08-2.23,1.62s-1.74.94-2.48,1.21v-2.27c1.32-.62,2.46-1.37,3.45-2.25s1.68-1.73,2.09-2.56h1.52v19.23Z"/>
        <path class="cls-1" d="M1481.57,908.64h-2.35v-14.99c-.57.54-1.31,1.08-2.23,1.62s-1.74.94-2.48,1.21v-2.27c1.32-.62,2.46-1.37,3.45-2.25s1.68-1.73,2.09-2.56h1.52v19.23Z"/>
      </g>
      <g class="cls-3">
        <path class="cls-1" d="M1579.59,908.64h-2.35v-14.99c-.57.54-1.31,1.08-2.23,1.62s-1.74.94-2.48,1.21v-2.27c1.32-.62,2.46-1.37,3.45-2.25s1.68-1.73,2.09-2.56h1.52v19.23Z"/>
        <path class="cls-1" d="M1597.97,906.38v2.26h-12.66c-.02-.57.07-1.11.27-1.63.32-.86.84-1.71,1.55-2.55s1.74-1.8,3.08-2.9c2.08-1.71,3.49-3.06,4.22-4.06.73-1,1.1-1.94,1.1-2.83s-.33-1.72-1-2.36c-.67-.64-1.54-.96-2.61-.96-1.13,0-2.04.34-2.72,1.02-.68.68-1.02,1.62-1.03,2.82l-2.42-.25c.17-1.8.79-3.18,1.87-4.12,1.08-.95,2.53-1.42,4.35-1.42s3.29.51,4.36,1.53c1.07,1.02,1.61,2.28,1.61,3.79,0,.77-.16,1.52-.47,2.26s-.83,1.52-1.56,2.34c-.73.82-1.94,1.94-3.62,3.37-1.41,1.18-2.32,1.99-2.72,2.41-.4.42-.73.85-.99,1.27h9.39Z"/>
      </g>
    </g>
    <g>
      <path class="cls-1" d="M1650.2,909.21c-.51-.2-.93-.52-1.25-.95s-.48-1-.48-1.7c0-.76.24-1.56.73-2.41.49-.85,1.1-1.69,1.83-2.53l-.98-.7,1.02-1.56c1.07.65,1.99,1.38,2.75,2.18s1.34,1.65,1.75,2.56c.4.91.61,1.86.61,2.85,0,.25-.03.49-.09.73-.06.24-.16.47-.28.69-.16.25-.29.43-.4.55-.11.12-.23.2-.35.25-.34.14-.76.23-1.26.28-.5.05-1.12.07-1.89.07-.64,0-1.21-.1-1.72-.3ZM1653.58,907.18c.4-.02.76-.06,1.07-.14,0-.76-.16-1.52-.48-2.28s-.97-1.51-1.94-2.24c-.37.33-.73.72-1.06,1.18s-.6.9-.8,1.33-.3.76-.3,1.01c0,.37.14.66.42.86.28.2.78.3,1.51.3.65,0,1.18,0,1.58-.02Z"/>
      <path class="cls-1" d="M1661.24,908.95c-.64-.29-1.12-.77-1.46-1.43-.33-.66-.52-1.56-.57-2.69l-.33-11.64,1.84-.33.12,11.95c0,.54.11.99.34,1.33.22.34.53.59.92.73s.85.22,1.4.22h.67s.09.06.12.19c.03.12.05.27.05.44v1.07c0,.16-.02.29-.05.42-.03.12-.07.19-.12.19h-.46c-1.01,0-1.83-.15-2.47-.44Z"/>
      <path class="cls-1" d="M1664.06,909.21c-.03-.12-.05-.26-.05-.42v-1.07c0-.17.02-.32.05-.44s.07-.19.12-.19v2.31s-.08-.06-.12-.19ZM1664.18,907.09h4.75v2.31h-4.75v-2.31ZM1669.04,907.27c.03.12.05.27.05.44v1.07c0,.16-.02.29-.05.42-.03.12-.07.19-.12.19v-2.31s.08.06.12.19Z"/>
      <path class="cls-1" d="M1668.81,909.21c-.03-.12-.05-.26-.05-.42v-1.07c0-.17.02-.32.05-.44s.07-.19.12-.19v2.31s-.08-.06-.12-.19ZM1668.93,907.09h4.75v2.31h-4.75v-2.31ZM1673.79,907.27c.03.12.05.27.05.44v1.07c0,.16-.02.29-.05.42-.03.12-.07.19-.12.19v-2.31s.08.06.12.19Z"/>
      <path class="cls-1" d="M1673.56,909.21c-.03-.12-.05-.26-.05-.42v-1.07c0-.17.02-.32.05-.44s.07-.19.12-.19v2.31s-.08-.06-.12-.19ZM1673.68,907.09h4.75v2.31h-4.75v-2.31ZM1678.54,907.27c.03.12.05.27.05.44v1.07c0,.16-.02.29-.05.42-.03.12-.07.19-.12.19v-2.31s.08.06.12.19Z"/>
      <path class="cls-1" d="M1678.31,909.21c-.03-.12-.05-.26-.05-.42v-1.07c0-.17.02-.32.05-.44s.07-.19.12-.19v2.31s-.08-.06-.12-.19ZM1678.43,907.09h4.75v2.31h-4.75v-2.31ZM1683.29,907.27c.03.12.05.27.05.44v1.07c0,.16-.02.29-.05.42-.03.12-.07.19-.12.19v-2.31s.08.06.12.19Z"/>
      <path class="cls-1" d="M1686.18,908.58c-.26.26-.6.47-1.01.61-.41.14-.9.21-1.46.21h-.54s-.08-.06-.12-.19c-.03-.12-.05-.26-.05-.42v-1.07c0-.17.02-.32.05-.44s.07-.19.12-.19h.82c.39,0,.69-.03.9-.09.21-.06.38-.18.52-.36.14-.18.3-.47.49-.87.43-1.01.85-1.79,1.23-2.34.39-.55.79-.94,1.22-1.18.43-.23.93-.35,1.53-.35.65,0,1.22.2,1.7.61.48.4.85.97,1.12,1.69.26.72.4,1.54.4,2.46,0,.39-.03.8-.09,1.25-.06.44-.15.84-.26,1.2-.05.17-.14.35-.27.52-.13.18-.32.36-.57.55-.26.19-.52.3-.77.34-.25.04-.51,0-.79-.13l-4.15-1.84-.02.05ZM1691.38,907.67c.06-.34.09-.69.09-1.05,0-.82-.16-1.49-.47-2-.31-.51-.75-.77-1.3-.77-.33,0-.62.08-.87.26-.26.17-.52.45-.78.85-.26.4-.59.99-.98,1.78l4.03,1.77c.12-.22.22-.5.28-.84Z"/>
    </g>
    <g>
      <path class="cls-1" d="M228.58,176.78c-.47-.19-.85-.48-1.15-.88s-.44-.92-.44-1.56c0-.7.23-1.44.68-2.22.45-.78,1.01-1.55,1.68-2.32l-.9-.64.94-1.44c.99.6,1.83,1.27,2.53,2,.7.74,1.24,1.52,1.61,2.36.37.84.56,1.71.56,2.62,0,.23-.03.45-.09.67-.06.22-.14.43-.26.63-.14.23-.26.4-.36.5-.1.11-.21.18-.32.22-.31.13-.7.21-1.16.26s-1.04.06-1.74.06c-.58,0-1.11-.09-1.58-.28ZM231.69,174.92c.37-.01.7-.06.99-.13,0-.7-.15-1.4-.44-2.1-.29-.7-.89-1.39-1.79-2.06-.34.3-.67.66-.98,1.08-.31.42-.55.83-.74,1.22-.19.39-.28.7-.28.93,0,.34.13.61.39.79.26.19.72.28,1.39.28.6,0,1.09,0,1.46-.02Z"/>
      <path class="cls-1" d="M236.05,179.61c.75-.51,1.34-1.02,1.77-1.53.43-.51.73-1.01.9-1.51l-.69-5.96,1.65-.32c.16,1.51.28,2.74.35,3.66.08.93.12,1.66.12,2.21,0,.81-.21,1.61-.64,2.39-.43.78-1.08,1.52-1.95,2.24-.87.71-1.94,1.36-3.19,1.95l-1.05-1.63c1.07-.49,1.98-.99,2.73-1.5ZM237.15,166.69l1.22-1.52,1.61,1.26-1.22,1.52-1.61-1.26Z"/>
      <path class="cls-1" d="M244.76,161.74l.15,15.21-1.41.19-.41-15.1,1.67-.3Z"/>
      <path class="cls-1" d="M248.71,177.02c-.39-.17-.67-.46-.85-.86-.17-.4-.26-.96-.26-1.69,0-.2,0-.39.01-.57,0-.18.02-.39.03-.63l1.29.11v.41c0,.46.04.77.11.95s.21.29.42.34c.21.05.57.07,1.1.07.5,0,1.02-.04,1.55-.13.54-.09,1.03-.21,1.48-.39s.81-.36,1.08-.58l-1.59-6.53,1.56-.86,1.22,5.93c.16.76.32,1.28.49,1.57.17.29.41.48.72.55.31.07.86.11,1.66.11.03,0,.06.06.1.17.04.11.05.25.05.41v.99c0,.14-.02.27-.05.39-.04.11-.07.17-.1.17h-.54c-.77,0-1.39-.13-1.85-.39-.46-.26-.78-.68-.95-1.26-.09.26-.19.45-.31.57-.12.12-.26.23-.42.33-.47.29-1.13.54-1.98.75-.85.21-1.64.32-2.37.32-.69,0-1.22-.09-1.62-.26Z"/>
      <path class="cls-1" d="M258.64,176.78c-.03-.11-.04-.24-.04-.39v-.99c0-.16.01-.29.04-.41.03-.11.06-.17.11-.17.54,0,1.05-.02,1.53-.05.48-.04.94-.11,1.38-.21.44-.11.83-.26,1.16-.46l-.41-4.86,1.63-.3.09,1.46c.08,1.94.13,3.2.13,3.77,0,.39-.09.75-.28,1.08s-.46.62-.84.85c-.54.29-1.19.5-1.95.64-.76.14-1.57.21-2.44.21-.04,0-.08-.06-.11-.17ZM261.58,165.55l1.22-1.52,1.61,1.26-1.22,1.52-1.61-1.26Z"/>
      <path class="cls-1" d="M268.88,161.74l.15,15.21-1.41.19-.41-15.1,1.67-.3Z"/>
      <path class="cls-1" d="M228.11,203.93c-.52-1.73-.78-3.58-.78-5.57s.26-3.84.78-5.56,1.29-3.41,2.3-5.07l1.31.62c-.89,1.51-1.57,3.12-2.05,4.81s-.72,3.42-.72,5.2.24,3.48.72,5.17c.48,1.69,1.16,3.3,2.05,4.81l-1.31.62c-1.01-1.63-1.78-3.31-2.3-5.03Z"/>
      <path class="cls-1" d="M237.05,204.16c-1-.68-1.77-1.6-2.3-2.77-.54-1.17-.8-2.5-.8-3.98s.28-2.94.83-4.15,1.33-2.15,2.36-2.83,2.22-1.02,3.59-1.02c.79,0,1.53.15,2.24.46s1.33.74,1.87,1.3l-1.01,1.31c-.47-.47-.96-.82-1.47-1.06s-1.05-.35-1.62-.35c-1.01,0-1.88.27-2.58.81-.71.54-1.24,1.29-1.61,2.23-.36.94-.55,2.02-.55,3.23s.18,2.25.54,3.19c.36.94.89,1.68,1.58,2.21.7.53,1.55.79,2.55.79.67,0,1.28-.14,1.83-.41.55-.27,1.1-.69,1.66-1.26l1.03,1.2c-.61.71-1.3,1.25-2.06,1.6-.76.35-1.6.52-2.53.52-1.37,0-2.56-.34-3.56-1.02Z"/>
      <path class="cls-1" d="M248.17,189.68h2.44l3.43,9.6c.07.19.12.32.16.41.04.09.08.22.14.41.11.3.19.55.24.75h.06c.09-.24.17-.48.26-.71.07-.2.12-.35.16-.45.04-.1.08-.24.14-.43l3.34-9.58h2.46v15.21h-1.86v-8.18c0-.53.01-1.02.03-1.48.02-.46.05-1,.08-1.63.03-.36.05-.62.05-.8,0-.18.02-.44.05-.78h-.11l-4.01,11.27h-1.33l-4.05-11.27h-.11c.01.47.04.88.06,1.23s.05.77.06,1.25c.04.89.06,1.62.06,2.21v8.18h-1.78v-15.21Z"/>
      <path class="cls-1" d="M266.1,203.55c.48-1.7.72-3.43.72-5.19s-.24-3.5-.72-5.2c-.48-1.69-1.17-3.3-2.07-4.81l1.33-.62c1.01,1.66,1.78,3.35,2.3,5.07s.78,3.57.78,5.56-.26,3.84-.78,5.57-1.29,3.41-2.3,5.03l-1.33-.62c.9-1.5,1.59-3.1,2.07-4.8Z"/>
    </g>
  </g>
  <g>
    <path class="cls-1" d="M1324.96,264.23c-.38-4.1-.57-7.3-.57-9.58,0-1.37.08-2.57.25-3.61.17-1.04.41-1.9.74-2.58.81-1.67,1.62-3.11,2.43-4.31.81-1.2,1.68-2.17,2.6-2.89.92-.72,1.91-1.08,2.95-1.08s2.03.33,2.81.99c.79.66,1.39,1.58,1.82,2.75.43,1.18.65,2.51.65,4.01,0,.63-.05,1.31-.15,2.03-.1.72-.24,1.37-.42,1.96-.08.28-.22.56-.44.85-.22.29-.53.59-.93.89-.43.3-.86.49-1.27.55-.42.06-.85,0-1.31-.21l-6.76-3.08c-.13,1.54-.13,3.43,0,5.66.13,2.23.35,4.71.68,7.45.02.08.04.18.04.3l-3.08.49-.04-.61ZM1335.82,249.53c.1-.56.15-1.13.15-1.71,0-1.34-.25-2.43-.76-3.27-.51-.84-1.22-1.25-2.13-1.25-.53,0-1.03.17-1.48.49-.46.33-.9.82-1.33,1.46-.43.65-.94,1.55-1.52,2.72l6.61,2.93c.2-.35.35-.81.46-1.37ZM1341.35,252.17c-.72-.16-1.33-.42-1.82-.76-.49-.34-.89-.79-1.2-1.35l-.19-5.4c.28,1.06.58,1.86.91,2.39.33.53.87.93,1.62,1.2.75.27,1.84.4,3.29.4.08,0,.14.1.19.3.05.2.08.44.08.72v1.75c0,.25-.03.48-.08.68-.05.2-.11.3-.19.3-1.01,0-1.88-.08-2.6-.25Z"/>
    <path class="cls-1" d="M1343.76,252.11c-.05-.2-.08-.43-.08-.68v-1.75c0-.28.03-.52.08-.72.05-.2.11-.3.19-.3,2.1,0,3.96-.09,5.57-.28,1.61-.19,2.86-.48,3.74-.85-.18-2.08-.56-3.92-1.14-5.53-.58-1.61-1.49-3.12-2.72-4.52-1.23-1.41-2.87-2.77-4.92-4.08l.38-2.77c2.23-1.14,4.34-2.1,6.33-2.89,1.99-.78,4.13-1.54,6.44-2.28l.42,3.12c-3.22.96-6.4,2.2-9.54,3.72,2.84,2.23,4.81,4.63,5.93,7.2,1.11,2.57,1.67,5.43,1.67,8.57,0,1.06-.5,1.92-1.5,2.56-1,.65-2.4,1.11-4.2,1.39-1.8.28-3.95.42-6.46.42-.08,0-.14-.1-.19-.3ZM1356.82,251.94c-.7-.32-1.21-.75-1.54-1.31-.33-.56-.52-1.22-.57-1.98l1.18-3.23c.05.89.21,1.56.48,2.03.27.47.62.79,1.06.95.44.17,1.06.25,1.84.25h1.98c.08,0,.14.1.19.3.05.2.08.44.08.72v1.75c0,.25-.03.48-.08.68-.05.2-.11.3-.19.3h-1.71c-1.12,0-2.02-.16-2.72-.48Z"/>
    <path class="cls-1" d="M1361.05,252.11c-.05-.2-.08-.43-.08-.68v-1.75c0-.28.03-.52.08-.72.05-.2.11-.3.19-.3.94,0,1.79-.06,2.57-.19.77-.13,1.49-.35,2.15-.68l.08-6h2.66l-.11,4.75c-.03.84.2,1.4.68,1.69.48.29,1.1.44,1.86.44.53,0,1.08-.04,1.63-.13.56-.09,1.05-.25,1.48-.48l-.08-7.71,2.62-.08v7.71c.25.23.56.4.93.51.37.11.82.17,1.35.17.71,0,1.37-.04,1.98-.13.61-.09,1.15-.3,1.63-.63l-.68-9.16,2.85-.53c.13,2.1.22,3.96.29,5.59.06,1.62.09,2.96.09,4.03s-.28,1.94-.84,2.64c-.56.7-1.26,1.2-2.11,1.5-.85.3-1.75.46-2.72.46-1.01,0-1.88-.16-2.6-.49-.72-.33-1.21-.81-1.46-1.44-.3.71-.88,1.21-1.73,1.5-.85.29-1.63.44-2.34.44-.96,0-1.8-.17-2.53-.51-.72-.34-1.25-.83-1.58-1.46-.51.66-1.32,1.15-2.43,1.48-1.12.33-2.33.49-3.65.49-.08,0-.14-.1-.19-.3ZM1370.14,234.33l1.94-2.43,2.51,2.01-1.94,2.43-2.51-2.01ZM1372.15,229.65l1.94-2.43,2.55,2.01-1.94,2.43-2.55-2.01ZM1374.74,234.33l1.94-2.43,2.51,2.01-1.94,2.43-2.51-2.01Z"/>
    <path class="cls-1" d="M1389.5,257.13c1.33-.91,2.38-1.82,3.13-2.72.76-.9,1.29-1.79,1.6-2.68l-1.22-10.56,2.93-.57c.28,2.69.49,4.85.63,6.5.14,1.65.21,2.95.21,3.91,0,1.44-.38,2.86-1.14,4.24-.76,1.38-1.91,2.7-3.46,3.97s-3.43,2.42-5.66,3.46l-1.86-2.89c1.9-.86,3.51-1.75,4.84-2.66Z"/>
    <path class="cls-1" d="M1407.68,256.41c1.7-1.29,2.84-2.74,3.42-4.33-1.06.23-2.39.34-3.99.34-.73,0-1.37-.04-1.9-.11-.53-.08-1.01-.22-1.44-.42-.43-.2-.8-.52-1.1-.95l-.04-.04c-.28-.38-.48-.73-.59-1.04-.11-.32-.17-.75-.17-1.31,0-1.37.21-2.76.63-4.18.42-1.42,1.11-2.62,2.07-3.61s2.17-1.48,3.61-1.48,2.62.51,3.51,1.54,1.53,2.27,1.9,3.74c.37,1.47.55,3.07.55,4.79,0,2.03-.46,3.88-1.39,5.57-.92,1.68-2.21,3.18-3.86,4.48-1.65,1.3-3.58,2.4-5.81,3.29l-1.82-2.89c2.58-.96,4.72-2.09,6.42-3.38ZM1405.67,249.09c.56.09,1.18.13,1.86.13,1.75,0,3.08-.13,3.99-.38,0-2.15-.31-3.77-.93-4.85-.62-1.08-1.53-1.62-2.72-1.62-.68,0-1.29.27-1.82.82-.53.54-.95,1.29-1.25,2.24-.3.95-.46,2.05-.46,3.29.33.15.77.27,1.33.36Z"/>
    <path class="cls-1" d="M1421.13,246.05v.36c0,.84.08,1.41.25,1.71.17.3.51.5,1.04.59.53.09,1.5.13,2.89.13,1.24,0,2.51-.11,3.8-.32,1.29-.21,2.24-.49,2.85-.82-.18-1.87-.82-3.73-1.94-5.57-1.12-1.84-2.67-3.69-4.67-5.57l1.9-2.47c2.69,2.58,4.57,5.03,5.64,7.33,1.08,2.31,1.61,4.48,1.61,6.54,0,1.09-.44,1.98-1.31,2.66s-2.01,1.18-3.42,1.5-2.92.48-4.54.48c-1.77,0-3.12-.16-4.05-.48-.93-.32-1.56-.84-1.92-1.56-.36-.72-.53-1.78-.53-3.17,0-.3,0-.6.02-.89.01-.29.03-.63.06-1.01l2.32.19v.36Z"/>
    <path class="cls-1" d="M1452.35,260.02c-1.33-.53-2.31-1.31-2.93-2.34-.62-1.03-.93-2.34-.93-3.93,0-.43.06-1.13.19-2.11.13-.98.29-2.12.49-3.44.33-1.98.65-3.94.95-5.89l2.36.46c-.48,2.79-.84,5.08-1.08,6.88-.24,1.8-.36,3.03-.36,3.69,0,.91.28,1.64.84,2.19.56.54,1.31.94,2.26,1.2.95.25,2.08.38,3.4.38s2.53-.06,3.65-.19c1.11-.13,2.13-.34,3.04-.65.91-.3,1.68-.7,2.32-1.18l-1.33-14.44,2.89-.61.49,6.04c.08.96.4,1.63.97,2.01.57.38,1.44.57,2.6.57.76,0,1.45-.04,2.07-.13.62-.09,1.15-.25,1.58-.48l-.23-7.71,2.62-.08.15,7.71c.23.23.53.4.91.51.38.11.82.17,1.33.17.73,0,1.41-.04,2.01-.13.61-.09,1.15-.3,1.63-.63l-.68-9.16,2.85-.53c.08,1.9.15,3.53.21,4.9.06,1.37.12,2.94.17,4.71,0,1.06-.28,1.94-.84,2.64-.56.7-1.27,1.2-2.13,1.5-.86.3-1.76.46-2.7.46-.89,0-1.67-.16-2.36-.49-.68-.33-1.15-.81-1.41-1.44-.3.71-.91,1.21-1.81,1.5-.9.29-1.86.44-2.87.44-.91,0-1.67-.11-2.28-.34-.61-.23-1.1-.63-1.48-1.22.1,2.03.15,3.6.15,4.71s-.56,2.07-1.67,2.87c-1.12.8-2.56,1.39-4.33,1.79-1.77.39-3.62.59-5.55.59-2.13,0-3.86-.27-5.19-.8ZM1471.71,234.18l1.94-2.43,2.51,2.01-1.94,2.43-2.51-2.01ZM1473.72,229.5l1.94-2.43,2.55,2.01-1.94,2.43-2.55-2.01ZM1476.31,234.18l1.94-2.43,2.51,2.01-1.94,2.43-2.51-2.01ZM1487.78,251.9c-.68-.34-1.19-.84-1.52-1.5-.33-.66-.48-1.47-.46-2.43l.61-9.77.42,7.49c.05.71.18,1.28.4,1.71.21.43.56.75,1.03.95.47.2,1.13.3,2,.3h1.94c.08,0,.14.1.19.3.05.2.08.44.08.72v1.75c0,.25-.03.48-.08.68-.05.2-.11.3-.19.3h-1.94c-.96,0-1.79-.17-2.47-.51Z"/>
    <path class="cls-1" d="M1500.86,251.67c-.94.29-2.08.49-3.44.59-1.36.1-3.1.15-5.22.15-.08,0-.14-.1-.19-.3-.05-.2-.08-.43-.08-.68v-1.75c0-.28.03-.52.08-.72.05-.2.11-.3.19-.3h3.38c.99,0,1.89.04,2.7.11.81.08,1.37.14,1.67.19l-.57.34c-1.27-.38-2.26-.91-2.98-1.6-.72-.68-1.08-1.52-1.08-2.51,0-.86.27-1.86.82-3,.54-1.14,1.29-2.27,2.22-3.38l-1.86-.87,1.29-2.81,9.8,4.37c1.8.81,3.13,1.76,3.99,2.85s1.29,2.42,1.29,3.99c0,.61-.09,1.27-.27,1.98-.18.71-.43,1.43-.76,2.17-.18.35-.36.66-.55.91-.19.25-.45.49-.78.72-.41.3-.75.49-1.04.57-.29.08-.6.05-.93-.08l-5.66-2.13c-.41.51-1.08.91-2.01,1.2ZM1504.2,241.47l-3.57-1.6c-.84.99-1.44,1.85-1.82,2.58-.38.74-.57,1.38-.57,1.94,0,.41.15.75.46,1.04.3.29.72.54,1.25.74.53.2,1.2.41,2.01.61l2.24-5.32ZM1509.64,249.03c.4-.81.61-1.63.61-2.47,0-.89-.27-1.66-.82-2.32-.55-.66-1.51-1.28-2.91-1.86l-2.2,5.28,5.02,1.9c.08-.13.18-.3.3-.53Z"/>
    <path class="cls-1" d="M1521.57,251.69c-1.04-.48-1.83-1.26-2.38-2.34-.55-1.08-.86-2.54-.93-4.39l-.53-19,3-.53.19,19.49c0,.89.18,1.61.55,2.17s.87.96,1.5,1.2c.63.24,1.39.36,2.28.36h1.1c.08,0,.14.1.19.3.05.2.08.44.08.72v1.75c0,.25-.03.48-.08.68-.05.2-.11.3-.19.3h-.76c-1.65,0-2.99-.24-4.03-.72Z"/>
    <path class="cls-1" d="M1526.16,252.11c-.05-.2-.08-.43-.08-.68v-1.75c0-.28.03-.52.08-.72.05-.2.11-.3.19-.3,2.1,0,3.96-.09,5.57-.28,1.61-.19,2.86-.48,3.74-.85-.18-2.08-.56-3.92-1.14-5.53-.58-1.61-1.49-3.12-2.72-4.52-1.23-1.41-2.87-2.77-4.92-4.08l.38-2.77c2.23-1.14,4.34-2.1,6.33-2.89,1.99-.78,4.13-1.54,6.44-2.28l.42,3.12c-3.22.96-6.4,2.2-9.54,3.72,2.84,2.23,4.81,4.63,5.93,7.2,1.11,2.57,1.67,5.43,1.67,8.57,0,1.06-.5,1.92-1.5,2.56-1,.65-2.4,1.11-4.2,1.39-1.8.28-3.95.42-6.46.42-.08,0-.14-.1-.19-.3Z"/>
    <path class="cls-1" d="M1552.63,257.13c1.33-.91,2.38-1.82,3.13-2.72.76-.9,1.29-1.79,1.6-2.68l-1.22-10.56,2.93-.57c.28,2.69.49,4.85.63,6.5.14,1.65.21,2.95.21,3.91,0,1.44-.38,2.86-1.14,4.24-.76,1.38-1.91,2.7-3.46,3.97s-3.43,2.42-5.66,3.46l-1.86-2.89c1.9-.86,3.51-1.75,4.84-2.66Z"/>
    <path class="cls-1" d="M1568.08,225.44l.27,26.98-2.51.34-.72-26.79,2.96-.53Z"/>
    <path class="cls-1" d="M1575.3,246.05v.36c0,.84.08,1.41.25,1.71.17.3.51.5,1.04.59.53.09,1.5.13,2.89.13,1.24,0,2.51-.11,3.8-.32,1.29-.21,2.24-.49,2.85-.82-.18-1.87-.82-3.73-1.94-5.57-1.12-1.84-2.67-3.69-4.67-5.57l1.9-2.47c2.69,2.58,4.57,5.03,5.64,7.33,1.08,2.31,1.61,4.48,1.61,6.54,0,1.09-.44,1.98-1.31,2.66s-2.01,1.18-3.42,1.5-2.92.48-4.54.48c-1.77,0-3.12-.16-4.05-.48-.93-.32-1.56-.84-1.92-1.56-.36-.72-.53-1.78-.53-3.17,0-.3,0-.6.02-.89.01-.29.03-.63.06-1.01l2.32.19v.36Z"/>
    <path class="cls-1" d="M1592.44,259.79c2.58-.96,4.72-2.09,6.42-3.38s2.84-2.74,3.42-4.33c-1.06.23-2.39.34-3.99.34-.73,0-1.37-.04-1.9-.11-.53-.08-1.01-.22-1.44-.42-.43-.2-.8-.52-1.1-.95l-.04-.04c-.28-.38-.48-.73-.59-1.04-.11-.32-.17-.75-.17-1.31,0-1.37.21-2.76.63-4.18.42-1.42,1.11-2.62,2.07-3.61s2.17-1.48,3.61-1.48,2.62.51,3.51,1.54,1.53,2.27,1.9,3.74c.37,1.47.55,3.07.55,4.79,0,2.03-.46,3.88-1.39,5.57-.92,1.68-2.21,3.18-3.86,4.48-1.65,1.3-3.58,2.4-5.81,3.29l-1.82-2.89ZM1596.84,249.09c.56.09,1.18.13,1.86.13,1.75,0,3.08-.13,3.99-.38,0-2.15-.31-3.77-.93-4.85-.62-1.08-1.53-1.62-2.72-1.62-.68,0-1.29.27-1.82.82-.53.54-.95,1.29-1.25,2.24-.3.95-.46,2.05-.46,3.29.33.15.77.27,1.33.36ZM1604.06,248.65h4.18c.08,0,.14.1.19.3.05.2.08.44.08.72v1.75c0,.25-.03.48-.08.68-.05.2-.11.3-.19.3h-4.18v-3.76Z"/>
    <path class="cls-1" d="M1613.15,251.09c-.43.43-.98.76-1.65.99-.67.23-1.46.34-2.38.34h-.87c-.08,0-.14-.1-.19-.3-.05-.2-.08-.43-.08-.68v-1.75c0-.28.03-.52.08-.72.05-.2.11-.3.19-.3h1.33c.63,0,1.12-.05,1.46-.15.34-.1.63-.3.86-.59.23-.29.49-.77.8-1.43.71-1.65,1.38-2.92,2.01-3.82.63-.9,1.3-1.54,2-1.92.7-.38,1.53-.57,2.49-.57,1.06,0,1.99.33,2.77.99.79.66,1.39,1.58,1.82,2.75.43,1.18.65,2.51.65,4.01,0,.63-.05,1.31-.15,2.03-.1.72-.24,1.37-.42,1.96-.08.28-.22.56-.44.85-.21.29-.53.59-.93.89-.43.3-.85.49-1.25.55-.41.06-.84,0-1.29-.21l-6.76-3-.04.08ZM1621.62,249.6c.1-.56.15-1.13.15-1.71,0-1.34-.25-2.43-.76-3.27s-1.22-1.25-2.13-1.25c-.53,0-1.01.14-1.42.42-.42.28-.84.74-1.27,1.39-.43.65-.96,1.61-1.6,2.91l6.57,2.89c.2-.35.35-.81.46-1.37ZM1624.85,247.06c.33.53.87.93,1.61,1.2.75.27,1.84.4,3.29.4.08,0,.14.1.19.3.05.2.08.44.08.72v1.75c0,.25-.03.48-.08.68-.05.2-.11.3-.19.3-.99,0-1.85-.08-2.58-.25-.74-.16-1.35-.42-1.84-.76-.49-.34-.89-.79-1.2-1.35l-.15-5.4c.25,1.06.54,1.86.87,2.39Z"/>
    <path class="cls-1" d="M1629.56,252.11c-.05-.2-.08-.43-.08-.68v-1.75c0-.28.03-.52.08-.72.05-.2.11-.3.19-.3.96,0,1.87-.03,2.72-.09.85-.06,1.67-.19,2.45-.38s1.47-.46,2.05-.82l-.72-8.63,2.89-.53.15,2.58c.15,3.45.23,5.67.23,6.69,0,.68-.17,1.32-.49,1.92-.33.6-.82,1.1-1.48,1.5-.96.51-2.12.89-3.46,1.14-1.34.25-2.79.38-4.33.38-.08,0-.14-.1-.19-.3ZM1634.77,232.2l2.17-2.7,2.85,2.24-2.17,2.7-2.85-2.24Z"/>
  </g>
</svg>