<?xml version="1.0" encoding="UTF-8"?>
<svg id="Layer_9" data-name="Layer 9" xmlns="http://www.w3.org/2000/svg" xmlns:xlink="http://www.w3.org/1999/xlink" viewBox="0 0 1200 600">
  <defs>
    <style>
      .cls-1 {
        fill: #666;
      }

      .cls-1, .cls-2, .cls-3, .cls-4, .cls-5, .cls-6, .cls-7, .cls-8, .cls-9, .cls-10, .cls-11, .cls-12, .cls-13, .cls-14, .cls-15, .cls-16, .cls-17, .cls-18, .cls-19 {
        stroke-width: 0px;
      }

      .cls-2 {
        fill: #e8b125;
      }

      .cls-3, .cls-20 {
        fill: #fc3;
      }

      .cls-4 {
        fill: #8cc63f;
      }

      .cls-5, .cls-21 {
        fill: #6870ee;
      }

      .cls-6 {
        fill: #ff8db3;
      }

      .cls-7 {
        fill: gray;
      }

      .cls-8 {
        fill: #a4e242;
      }

      .cls-22 {
        clip-path: url(#clippath-1);
      }

      .cls-9 {
        fill: #333;
      }

      .cls-10 {
        fill: #8d98ff;
      }

      .cls-11 {
        fill: #ccc;
      }

      .cls-12 {
        fill: #fff;
      }

      .cls-13, .cls-23 {
        fill: #484c6d;
      }

      .cls-24 {
        clip-path: url(#clippath);
      }

      .cls-25 {
        clip-path: url(#clippath-3);
      }

      .cls-14 {
        fill: #3d56bf;
      }

      .cls-15 {
        fill: #ffe7b3;
      }

      .cls-16 {
        fill: #ccd2ea;
      }

      .cls-17 {
        fill: #383c54;
      }

      .cls-18 {
        fill: #1b1c26;
      }

      .cls-19 {
        fill: #f36;
      }
    </style>
    <clipPath id="clippath">
      <path class="cls-3" d="M757.42,118.26c-.64-4.4-1.52-9.9-4.56-13.23-4.25-4.65-10.64-4.42-15.85-7.23-1.22-.66-2.31-.19-3.1.78-2.75,3.38-5.37,6.69-8.83,9.35-.56.43-1.08.71-1.7,1.08-2.33-.47-5.35.42-7.47.7-5.39.71-9.2.17-12.9-3.73-2-2.11-3.46-3.95-6.61-3.59-3.15.36-6.46,1.6-9.11,3.38-5.3,3.57-6.03,8.96-6.34,14.92-.77,3.36-.64,6.64-.94,10.06-.64,7.45-1.86,14.8-3.52,22.11-.89,2.63-1.59,5.6-2.26,8.21-.42,1.62.63,2.17,1.95,2.34.03.1,0,.22.02.34.14.53.87.58,1.14.15.75-1.21,1.44-2.39,2.05-3.67.35-.73.56-1.52.75-2.31.04-.16.17-.29.25-.43.31-.53.68-1.02.92-1.6.24-.58.27-.97.49-1.63.22-.66.64-1.58.77-2.33.16-.08.54.03.64.03.1,0,.03-.05.04-.08.17-.71-.03-1.22.26-1.98.29-.76,1.14-1.42,2.09-1.12s1.26,1.09,1.2,2.06c-.1,1.5.41,2.75.78,4.22.36,1.46.7,2.99.99,4.52s.58,3.25.75,4.81c.09.78.08,1.65-.05,2.34s-.33,1.24-.38,1.82c-.05.58-.19.77-.52,1.17.17.79.28,1.43.51,2.25.93,3.37,2.08,6.63,1.28,10.17-1.81.54-2.81,1.77-3.7,3.37.09.22.17.45.19.69.07.8-.13,1.6-.36,2.34-.09.31-.22.69-.28.92-.06.23-.07.33-.09.46s-.04.32-.04.37c-.13,1.78-.15,3.48-.45,5.21,0,.01-.02,0,0,.02,2.36,2.85,5.49,3.52,9.13,4.02,4.45.61,9.1-.09,13.7.28,4.6.37,9.17.65,13.82-.15,4.65-.8,9.3-2.62,13.99-3.29s9.04-.72,13.35-2.97c1.1-.57,1.62-2.21.89-3.32-1.63-2.47-2.47-4.87-2.82-7.78,0-.02-.02-.03-.03-.05-1.3-2.96-1.78-5.85-1.67-9.06.05-1.56.2-2.96.14-4.54-.06-1.59-.17-3.31-.02-4.94.05-.53.29-.97.68-1.33.5-2,.86-3.87.95-5.97.04-.98-.15-2.19-.19-3.21.28-.23.52-.42.73-.72,1-1.39,1.92-2.84,2.87-4.26.42-.62.48-1.26.4-1.98,1.58-3.77,3.11-7.36,4.19-11.37,1.46-5.43,2.7-10.89,1.86-16.62Z"/>
    </clipPath>
    <clipPath id="clippath-1">
      <path class="cls-5" d="M681.22,116.59c-1.58-2.7-4-3.65-6.76-4.7-1.8-.69-3.47-1.33-5.35-1.58-.74-.1-1.2.06-1.76.5-2.35-.72-4.85-1.02-7.25-1.46-1.05-.19-2.16-.55-3.13-.65-.98-.11-1.44.18-2.05.83-3.29.06-6.43.5-9.59,1.44-.54.16-.75.49-1.08.9-.8,1-1.14,1.77-.95,3.11.5,3.55-.3,6.83-.86,10.4-.56,3.57-.3,7.39-.58,11-.28,3.62-.81,7.19-1.05,10.78-.03.51.01,1.1-.16,1.52-.17.42-.56.73-.7,1.15-.94,2.93-1,5.77-.95,8.79.01.6.05.99.31,1.51-.42,1.36-.99,2.69-1.28,4.09-.73,3.6-.27,7.19-.36,10.83-1.17,1.96-1.49,4.04-1.42,6.27.02.71.26,1.11.62,1.67-.85,3.09-1.78,6.09-2.02,9.32-.14,1.8.11,3.65.18,5.46,0,.24-.12.49-.14.76-.33,3.76-1.68,7.42-1.93,11.18-.08,1.17.54,1.83,1.48,2.35-.39,2.44-.76,4.73-1.03,7.23-.26,2.5-.43,5.18-.29,7.73,0,.1.05.16.1.23-.48,3.09-1.05,6.26-1.59,9.31-.92,5.22-1.5,10.24-1.35,15.54.03,1.13.06,2.3,0,3.44-.9,3.96-1.4,8.02-2.07,12-.19,1.14.36,1.83,1.3,2.33-.68,3.05-1.45,6.1-1.75,9.21-.38,3.92-.27,7.81-.74,11.72-.47,3.91-1.32,7.74-1.18,11.71,0,.26.11.46.15.72-.92,2.63-2.92,5.57-1.86,8.44,2.23,6.02,9.72,6.25,14.98,6.92,4.06.52,7.27,1.04,11.05,1.12,2.46.06,4.29-.4,5.91-2.23,2.23-2.52,2.82-5.95,3.23-9.14.69-5.37,1.49-10.53,2.58-15.76.93-4.45,1.13-8.81,1.1-13.31-.04-5.29.86-10.21,1.81-15.41,1.66-9.1,1.92-18.4,2.79-27.6,1.87-19.85,3.44-39.69,5.7-59.51.7-6.14,1.24-12.34,2.13-18.46.77-5.27,2.1-10.55,2.79-15.78.7-5.23.45-9.71.87-15.17.15-2.02-.27-5.63.4-7.87.21-.11.45-.13.65-.22,1.08-.49,1.75-1.57,1.1-2.67Z"/>
    </clipPath>
    <clipPath id="clippath-3">
      <path class="cls-13" d="M789.72,333.34c-.23-.82-.45-1.44-.82-2.26-.38-.81-.84-1.6-1.25-2.5s-.7-1.97-.95-3c-.59-2.42-1.1-4.93-1.89-7.32-1.54-4.66-3.84-8.96-6.6-12.97-2.75-4.01-5.78-7.6-8.47-11.6-2.01-2.98-3.84-6.05-5.29-9.34-.41-.92-.47-1.95-.79-2.9-.63-1.88-1.17-3.79-1.7-5.71-.24-.87-.41-1.76-.55-2.65.45-.33.64-.85.52-1.36-.12-.51-.24-.87-.4-1.34-.16-.47-.53-.73-.97-.92-.67-1.79-.73-3.86-1.09-5.68-.51-2.61-1.35-4.95-2.01-7.48.24-.35.33-.66.18-1.09-2.62-7.63-3.76-15.62-6.01-23.36-.54-1.86-1.35-3.62-2.06-5.42-.03-.08-.1-.16-.09-.24.26-1.35.9-2.8,1.06-4.12s-.04-2.36-.16-3.63c-.12-1.27-.1-2.57,0-3.85.23-2.68.02-5.44.05-8.1.02-1.41-.06-3.01.16-4.3.19-1.16.42-2.95.29-3.7-.11-.63.02.04-.02-.14-.03-.15,0-.01,0-.02-.06-.17-.04-.11-.04-.31s-.27-.39-.33-.59c-.11-.4,0-.84-.12-1.28-.22-.75-1.11-1.12-1.78-.75-6.12,3.4-12.47,3.91-19.29,4.32-1.66.1-3.21.27-4.8.31-1.59.05-3.07.05-4.61.28-.82.13-1.47.44-2.22.73-.12.05-.25-.05-.41,0-1.25.33-2.48.22-3.76.06-1.77-.65-3.66-.38-5.48-.67-.61-.1-.93.1-1.3.53-.05.06-.12.02-.19.02-1.97.09-3.88.02-5.83-.3-1.95-.32-3.83-.69-5.81-.96-.92-.13-1.87-.35-2.83-.61-.96-.25-2.29-.57-3.26-.73-.96-.16-1.95-.29-2.71.14s-.67,1.03-.64,1.72c.1,2.06.64,4.04.71,6.11.11,3.33-1.21,6.36-1.73,9.61-.27,1.67,0,3.16.31,4.86.31,1.7.61,3.53.77,5.31.37,3.96.52,8.01.89,11.97.37,3.96,1.07,7.81,1.24,11.78s-.1,8.01.22,11.98c.14,1.77.38,3.72.84,5.35.46,1.63,1.38,2.56,2.24,3.89.86,1.32.99,2.36.6,3.92-.39,1.56-1.04,3.15-1.39,4.77-.81,3.75-2.04,7.38-1.88,11.27.08,1.95.56,3.99.76,5.87.2,1.88.21,3.55.58,5.36.63,3.14,1.74,5.99,3.35,8.77.73,1.26,1.51,2.36,2.17,3.73.41.85,1.06,1.99.51,2.98-.25.46-.68.58-1.08,1.04-.4.46-.91,1.07-1.13,1.77-.39,1.22-.58,2.45-.66,3.79-.08,1.34.06,2.56.56,3.9s1.32,2.73,1.77,4.17c.18.59.36,1.2.21,1.88s-.74,1.32-1.11,1.93c-.79,1.27-1.36,2.68-1.2,4.13.17,1.45.74,2.47,1.22,3.79.24.65.62,1.39.32,2.09-.17.39-.55.46-.89.63-.83.41-1.66.78-1.71,1.83-.06,1.05.5,1.99,1.35,2.61,1.85,1.35,4.03,2.01,6.07,3.03,1.17.58,1.98,1.32,3.18,2.02,1.2.7,2.6,1.46,4.09,1.72,3.67.64,7.35.27,11.1.82,2.14.31,4.47.94,6.28-.8,2.05-1.97,2.15-5.17,2.36-7.83.26-3.28.38-6.14-.72-9.24-.49-1.38-1.36-2.35-1.83-3.89-.47-1.54-.35-3.26-.18-5.01.17-1.76.37-3.73.22-5.58-.15-1.85-.59-3.7-1.12-5.51-.53-1.81-1.3-3.7-1.85-5.49-.55-1.79-.61-3.43-.49-5.26.13-1.83.39-3.45.28-5.34-.11-1.88-.53-3.85-.68-5.8-.15-1.95.06-3.98.22-5.95.16-1.97.34-3.95.5-5.93.34-4.1.59-8.21.5-12.32-.04-1.95-.25-3.89-.68-5.75-.43-1.86-1.17-3.58-1.48-5.43-.61-3.63,1.07-6.82,1.45-10.34.38-3.52-1.14-6.77-1.35-10.24-.02-.33-.04-.66-.07-.98.96,2.82,1.87,5.64,2.89,8.44,1.51,4.15,3.19,8.2,4.72,12.36,1.53,4.16,3.04,8.39,4.84,12.45.16.36.41.5.76.6.44,1.89.81,3.77,1.32,5.66.66,2.43,1.37,4.84,2.53,7.09.93,1.8,2.23,3.25,3.67,4.68s3.01,2.56,4.39,4.11c1.38,1.55,2.31,3.1,2.9,5.23s.72,4.54,1.22,6.84c.51,2.29,1.56,4.51,2.84,6.53,1.28,2.02,2.51,4.05,3.61,6.18,1.09,2.13,1.91,4.41,3.13,6.48.99,1.68,2.22,3.11,3.58,4.53s3.12,2.55,3.67,4.56c.37,1.35-.33,2.78-.71,4.02-.48,1.55-1.13,3.12-1.25,4.67-.12,1.55.4,2.86,1.61,3.66,1.22.81,2.47.76,3.82.61,3.34-.37,6.52-1.41,9.64-2.6,1.48-.57,2.7-1.36,3.97-2.29.52.55,1.25.5,1.66-.09s.66-1.1,1.05-1.66c.44.29.83.37,1.25-.08,1.06-1.16,1.73-2.41,1.77-4.03,0-.09-.09-.19-.04-.26.75-.99,1.36-2.06,1.8-3.22.25-.65.67-1.14.81-1.84s-.14-1.21-.84-1.42ZM715.68,202.69s-.39.52-.43.53c-.03.01-.16-.49-.14-.52.02-.03.57-.05.57-.01Z"/>
    </clipPath>
  </defs>
  <path class="cls-16" d="M755.56,461.71c6.63-5.75,13.07-12.5,19-19.16.7-.79,1.54-1.66,2.26-2.45,6.19-5.07,12.43-10.06,18.32-15.55,11.76-10.97,24.45-22.84,33.37-35.84,8.92-13,16.08-25.85,19.91-40.48,3.83-14.63,6.17-28.53,5.66-43.37-.51-14.83-1.98-29.49-6-43.69-4.35-15.37-10.58-29.71-17.82-43.86-9.78-19.09-21.87-36.38-35.64-52.78-10.17-12.12-20.73-23.39-32.85-33.57-1.85-1.56-3.9-2.91-5.8-4.41-5.07-4.84-9.93-9.59-15.9-13.39-12.58-8.02-24.71-15.91-38.79-21.42-14.08-5.51-28.4-9.54-43.58-12.36-15.18-2.83-31.09-3.1-46.8-3.52-10.03-.27-20.23.26-30.47,1.53-16.22,2-32.63,4.83-48.57,9.18-10.15,2.76-20.03,6.19-29.88,10.26-15.87,6.56-31.65,13.9-46.41,22.83-4.71,2.85-9.14,6.06-13.48,9.46-9.27,7.25-18.9,14.43-27.09,22.85-7.82,8.03-14.37,17.24-20.72,26.2-2.86,4.04-5.51,8.43-7.41,12.58-11.57,25.27-17.64,51.52-16.05,79.06.79,13.72,3.82,26.08,7.07,38.94,2.14,8.45,5.23,16.11,8.68,23.79,8.83,19.65,18.96,38.44,31.42,55.94,1.74,3.05,3.13,5.84,4.88,8.97,11.73,20.84,25.28,40.25,40.79,58.65,6.02,7.15,12.88,14.03,20.32,20.16,10.43,8.6,21.27,17.04,33.11,23.97,7.39,4.33,15.31,7.87,23.43,11.02,12.96,5.03,26.39,9.76,40.24,12.03,13.85,2.28,28.27,2.97,42.23,2.54,8.77-.27,17.24-1.39,25.53-3.46,13.51-3.36,26.24-6.98,38.88-12.76s24.41-12.82,35.99-20.77c11.58-7.95,21.46-17.79,32.22-27.12Z"/>
  <path class="cls-12" d="M976.23,407.75c-2.66-11.89-11.93-16.91-22.53-21.16-13.57-5.44-26.82-12.52-39.2-19.79-14.28-8.38-29.16-16.14-43.08-24.01-13.91-7.87-26.45-15.44-40.2-22.71s-27.08-13.67-41.13-20.25c-28.1-13.15-56.15-25.58-83.68-40.16-27.22-14.42-53.6-31.15-81.56-44.48-13.89-6.62-27.75-13.54-41.61-20.36-6.62-3.26-13.24-6.45-20.1-9.42-5.44-2.36-10.97-5.8-16.97-6.64-6-.85-10.02,2.66-14.55,5.97-5.65,4.12-12.05,6.09-18.56,8.21-6.97,2.27-13.47,4.96-19.99,8.25s-13.01,6.97-19.75,9.78c-13.98,5.83-28.99,10.71-43,15.81-13.47,4.91-25.91,10.27-38.34,16.77-6.14,3.21-11.47,6.99-17.47,10.1-6,3.11-12,5.49-18.29,7.72-12.31,4.36-24.37,8.96-36.11,14.74-6.35,3.13-13.22,5.65-19.7,8.49s-12.28,6.81-18.1,10.69c-11.37,7.57-22.67,14.88-34.15,22.27-9.5,6.11-18.8,12.37-27.13,20.04-1.02.26-1.78.29-2.48,1.31-2.23,3.26-2.06,7.48-1.88,11.32.18,3.85.41,8.04,2.5,11.18,1.37,2.06,3.36,2.24,5.34,2.82,3,.88,4.99,2.39,7.57,3.99,5.4,3.36,11.96,5.1,17.96,6.58,12.74,3.15,25.52,2.82,37.97,6.61s22.39,9.28,34.44,14.97c23.94,11.32,48.64,15.45,73.33,27.87,26.45,13.3,51.36,35.06,76.64,52.32,12.59,8.6,25.95,18.35,39.58,26.32,12.91,7.55,26.41,14.41,40.17,21.49s27.7,13.78,41.58,22.18c8.93,5.4,18.54,16.61,30.48,13.81,2.79-.65,4.41-2.8,6.54-4.3,2.77-1.95,5.83-3.15,8.89-4.24,6.47-2.31,12.95-4.89,18.62-8.48,11.31-7.15,22.54-13.98,33.79-20.91,5.87-3.62,11.46-6.26,17.64-9.28,5.91-2.89,10.84-5.9,16.66-9.37,12.34-7.35,21.02-11.81,34.9-18.54,29.3-14.22,54.26-23.56,87.76-32.3,32.87-8.57,71.63-17.5,104.35-30.36,3.39-1.33,6.89-2.71,10.24-3.51,2.25-.53,4.89-.54,7-1.22,4.8-1.55,6.68-5.31,5.6-10.11Z"/>
  <path class="cls-4" d="M550.82,203.24c-2.88-7.72-7.91-14.36-14.09-19.93-8.15-7.34-17.9-11.98-27.84-16.42-5.62-2.51-11.23-4.53-16.04-8.44-3.86-3.14-7.1-6.88-10.61-10.38-.27-.78-.49-1.52-.75-2.3s-.41-1.71-.72-2.49c-1.31-3.26-6.06-2.23-5.39,1.38,1.13,6.17,3.95,12.09,5.52,18.19.24.92.21,1.86.23,2.8-1.29.4-2.35,1.3-2.26,2.73.4,6.45.62,12.98.78,19.38.16,6.4.26,12.46,2.43,18.46.52,1.43,1.76,1.69,3.01,1.45,2.35,8.68,4.51,16.42,10.7,23.39,6.5,7.32,14.61,13.52,23.68,17.47,6.93,3.02,14.65,4.37,21.27.35,7.53-4.57,10-13.05,11.48-21.18,1.54-8.47,1.64-16.3-1.4-24.45Z"/>
  <path class="cls-4" d="M603.15,269.63c-6.73-2.53-13.24-1.34-20.15-.58-6.35.69-12.65.98-18.57,3.2-4.74,1.78-7.5,4.93-10.45,8.77-1.6,1.07-2.77,1.83-4.05,3.42-3.11,3.85-5.43,8.01-4.93,13.17.02.16.13.29.1.45-.17.84.11,1.46.8,1.98,1.81,2.42,3.77,4.19,6.82,5.05,9.69,2.75,19.92,1.33,28.94-2.43,4.7-1.96,6.32-4.66,8.93-8.49,3.67-3.47,6-8.05,9.56-11.64,1.07-1.08,1.08-2.15.4-3.43,1.61-1.67,3.25-3.36,4.26-5.48.81-1.7.08-3.34-1.65-3.99Z"/>
  <path class="cls-4" d="M501.11,273.29c-6.65-5.66-14.81-9.63-23.06-12.28-9.43-3.04-18.95-3.42-28.67-3.44-7.5-.02-16.33-1.91-22.7,2.3-6.07,4.01-1.75,9.52,2.52,13.14,6.33,5.36,10.76,12.68,17.64,17.77,10.92,8.08,22.19,9.94,36.22,11.32,7.46.73,19.64.86,25.43-5.91,1.13.1,2.37-.47,2.26-1.71-.75-8.4-2.99-15.53-9.64-21.2Z"/>
  <path class="cls-11" d="M801.41,334.63c-4.87-6.62-12.92-7.67-21.16-7.7-19.41-.07-38.3,1.31-57.74,5.66-16.45,3.69-36.16,3.87-51.74,11.14-14.18,6.62-21.75,20.47-18.34,35.7,1.51,6.75,7.24,11.36,13.72,14.08,7.48,3.14,16.73,3.1,24.95,2.13,19.16-2.26,38.05-7.29,56.58-11.89,18.53-4.6,45.97-10.68,50.25-32.35,3.35-5.22,8.01-10.6,3.47-16.78Z"/>
  <path class="cls-12" d="M684.44,100.88c0-.06.07-.1.06-.16-.08-1.03-.24-2.05-.43-3.07.16,1.07.28,2.15.37,3.23Z"/>
  <path class="cls-12" d="M673.8,166.88c-2.83.48-4.95-1.6-7.72-1.49-2.35.09-3.21,2.59-4.38,4.25-.97,1.38-2.02,2.43-3.29,3.47,1.94-.28,3.98-.61,5.84-1.19,4.03-1.26,7.5-3.07,10.91-5.53-.44.2-.89.39-1.35.47Z"/>
  <path class="cls-12" d="M757.57,126.14c.72-2.28,1.15-4.71,1.33-7.12.11-1.52-.22-3.08-.34-4.6-.33-.28-.62-.55-.79-.95-.99-2.37-1.37-4.94-2.36-7.31-9.91-3.34-20.3-5.39-26.78-14.26-3.54-4.85-2.84-10.61-1.23-15.92,1.48-4.87,5.59-8.52,7.39-13.01,3.07-7.69-.41-11.79-6.76-15.84-.36.08-.61.15-.97.13-2.52-.13-5.04-.6-7.16-1.96-1.2-.77-1.67-1.65-2.21-2.87-.5-.23-1.04-.44-1.54-.69-.05-.03-.07-.09-.11-.14-1.23-1.37-2.21-2.88-3.74-3.96-.81-.57-1.7-.84-2.7-1.03-.4-.08-.7.03-1.21-.01-.51-.04-1.37-.15-1.97-.11-3.4-.84-6.45-1.16-9.21,1.5-3.09,2.98-3.94,7.56-3.07,11.62.65,3.07,2.51,4.33,5.09,5.56-.12.09-.25.19-.39.33-2.55,2.51-6.72,4.87-5.36,8.93.96,2.88,4.27,2.77,6.56,4.04.78.43,1.58.88,2.17,1.57.72-.07,1.36-.4.57.42-.48.5-1.38,1.33-1.79,1.82-.68.8-.79,1.75-1.3,2.5-.78,1.16-1.05,1.26-2.34,2.06-2.38,1.47-4.32,4.27-3.33,7.16.86,2.52,3.54,2.94,4.82,4.97.87,1.38-.17,1.44-1.07,2.55-1.11,1.38-1.48,3.14-1.52,5,3.3.87,3.07,4.69.27,5.98-2.8,1.29-5.59,2.13-8.56,2.75-.93.2-1.76-.08-2.6-.47-.21.32-.69.66-.81,1.01-.12.36-.04.72-.07,1.09-.89,11.6-2.73,23.09-3.02,34.73-.15,5.8-.91,11.32-2.1,17.02-.44,2.09-1.03,4.26-2.23,6.08.2-.2.65-.57.79-.75.14-.18.26-.18.29-.32.67-2.6,1.55-4.92,3.18-7.05.69-.9,1.31-1.61,1.77-2.69.14-.33.31-.64.37-1.15.06-.52-.04-1.2.1-1.9.13-.7.6-1.52,1.49-1.61s1.6.37,1.88,1.19c.05.15.04.36.06.44.02.08,0,0,0,.02,0,.03,0,.03,0,.04.09.72.02,1.41-.05,2.12-.04.38.07.75.07,1.13.31-.26.59-.49.93-.73.13.74.64,1.3.8,2.03,1.33,6.33.23,12.4-.15,18.81-.21,3.56-.4,7.1-.51,10.76-.07,2.28-.44,4.9-.05,7.24-.26,1.21-.58,2.37-.88,3.55,1.39-.54,2.89-.3,4.33-.28,2.45.04,4.82-.37,7.24-.51,4.4-.24,8.8-.09,13.19-.14,4.39-.05,8.75-.42,13.12-.37,4.37.05,8.55.28,12.94.5,3.63.18,7.26.49,10.79-.74.54-.19,1-.24,1.54-.06-.05-1.3-.1-2.59-.18-3.89-1.83-2.55-2.76-5.22-3.31-8.3-.79-4.4-1.54-8.83-1.75-13.28-.04-.81.21-1.3.6-1.94-.33-2.78-.83-5.61-.26-8.4,2.36-11.44,8.59-21.22,12.1-32.29Z"/>
  <path class="cls-12" d="M756.98,254.4c-.77-3.52-2.01-6.95-3.15-10.36-.07-.21-.22-.36-.28-.55-.24-.84-.39-1.7-.53-2.54-.52-3.22-1.09-6.34-1.95-9.51-.68-2.49-1.11-5.09-3.5-6.51-1.22-.73-2.7.04-2.74,1.52-.06,2.3,1.03,4.54,1.7,6.72.91,2.98,1.47,5.84,2.12,8.92.82,3.89,2.65,7.65,3.9,11.43.68,2.06.94,4.14,1.05,6.26.01.28.17.48.27.62.1.14.03.21.05.3.52,2.39,3.58,2.65,3.89.07.26-2.17-.38-4.27-.84-6.38Z"/>
  <path class="cls-12" d="M647.87,159.32c-.2-5.88.12-11.69-.35-17.5-.41-5.03-1.3-9.9-1.94-14.88-.13-1.02-1.54-1.77-2.13-.54-2.01,4.21-1.93,9.5-2.1,13.98-.24,6.31-.58,12.06-.54,18.22s.39,12.17.14,18.36c-.2,5-2,10.12.31,14.86,1.22,2.5,5.03,1.94,5.74-.69,1.22-4.48,1.3-9.55,1.4-14.14.13-5.98-.33-11.8-.53-17.67Z"/>
  <path class="cls-12" d="M675.63,171.25c1.02-3.74,1.73-8.1-1.82-10.75-3.07-2.3-6.38-.6-9,1.6-1.02.86-1.86,1.95-2.73,2.93-.14-.16-.19-.27-.37-.43-5.77-5.29-12.76-10.77-19.4-4-.95.97-1.23,2.46-1.81,3.64-2.39,0-3.69,2.11-2.22,4.1-.82-.52-.55.38-.75,1.15-.2.77-.62,1.79-.94,2.66-.75,2.03-1.37,4.04-1.57,6.25-.26,2.87.07,5.79.03,8.7-.04,3.47-.78,6.89-1.12,10.34-.63,6.21-1.42,12.26-2.06,18.53-.52,5.07-.07,9.66,3.97,13.29,4.35,3.91,9.92,6.68,15.25,8.97,5.33,2.28,11.33,2.89,16.09-.26,4.76-3.16,2.25-7.32,1.89-11.82-.24-3.02.5-6.01.97-8.96.58-3.62,1.1-7.1,1.69-10.71.5-3.09.91-5.95.87-9.18-.03-3.23-.78-6.62-.63-9.97.25-5.58,2.17-10.65,3.65-16.08ZM663.71,194.23c.2.19.7.24.87.37.17.13-.03.37.07.52-.32-.3-.63-.59-.94-.89ZM651.04,164.25s.08,0,.08.05-.09.19-.1.26c-1.49-.36-2.74-.18-3.95.78.99-1.89,2.1-1.85,3.97-1.09Z"/>
  <path class="cls-12" d="M702.81,69.54c-.89-3.5-3-4.96-5.61-6.79-1.29-.91-2.65.21-2.77,1.54-.25,2.75,1.73,4.84,1.9,7.61.15,2.38.02,5.26-2.94,5.7-2.6.39-2.3,3.43-.09,3.95,2.21.53,3.74-.4,5.39-1.58.02-.01,0,.03.01.05.28,1.11,1.73,1.44,2.5.64,2.84-2.96,2.5-7.63,1.61-11.13Z"/>
  <path class="cls-12" d="M729.89,70.97c-.74-1.95-.1-3.33.35-5.27.14-.61-.49-1.31-1.15-.89-2.4,1.53-3.92,3.75-3.45,6.56.29,1.73.81,1.66-.06,3.28-.63,1.16-1.31,2.34-2.3,3.43-2.11,2.34.84,4.85,3.32,3.34,1.09-.66,1.41-1.99,2-3.15.6-1.16,1.69-2.38,2.03-3.72.34-1.34-.29-2.37-.75-3.58Z"/>
  <path class="cls-12" d="M754.96,109.3c-2.69-7.24-9.72-9.08-16.79-8.19-1.92.24-1.69,2.49-.51,3.34,2.18,1.56,4.96,1.44,7.42,2.46,1.09.45,2.18.97,3.23,1.7,1.05.73,1.73,2.05,2.6,3.04,1.6,1.85,4.9-.04,4.05-2.34Z"/>
  <path class="cls-9" d="M736.81,59.92c-.03-.94-.23-1.86-.29-2.64-.05-.78-.24-1.03-.62-1.6-.55-1.86-1.75-3.08-3.14-4.36-.44-.41-.73-1.04-1.17-1.4-1.73-1.38-3.29-1.84-5.45-1.99-.66-.3-1.36-.68-1.96-1.01.26-.79-.96-.51-1.85-1-3.2-1.77-5.83-5.32-9.14-7.3-1.45-1.3-2.86-2.05-4.78-2.35-.25-.04-.49.03-.75.07-3.6-.79-7-.89-10.19,1.18-3.19,2.08-4.16,5.23-4.41,8.83-.04.53-.08.99,0,1.51.23,1.6.63,2.78,1.73,4.1,1.97,2.36,4.39,3.05,7.47,2.46.61-.12,1.03-.61,1.19-1.2.54.04,1.01-.05,1.53-.2,2.07.33,4.04.21,6.09-.17.12.12.34.32.48.39.58.32,1.44.42,1.98.59s.83.43,1.21.68c.83.54,1.51.8,2.46.98.04,0,.09-.03.12,0,.96,1.58,2.06,3.01,3.36,4.34-.18,1.17-.18,2.31-.15,3.51-1.03,2.35-1.38,5.28-1.91,7.67-.53,2.39-.9,3.95.65,5.87.58.72,1.73.22,1.79-.73.12-2.01.89-3.96,1.59-5.86.24,0,.42-.05.65-.09.23-.04.01-.09.36-.13.34-.03.6.06,1.12-.35,1.14-.91,3.99-1.41,5.32-1.07s1.73-.34,1.76-1.35c.47-.31.76-.41,1.2-.88,1.09-1.17,1.77-2.75,2.27-4.32.91-.41,1.53-1.28,1.49-2.21Z"/>
  <path class="cls-19" d="M681.03,112c.6.13.83-1.15.97-1.6,4.1-6.19,1.97-14.7-.9-20.79-4.1-8.67-11.92-11.73-20.84-10.85-5.32.53-8.84,4.56-11.56,8.68-1.77,2.69-2.24,5.77-3.05,8.76-.31,1.14-.46,2.33-.65,3.45-.2,1.12-.42,2.18-.63,3.24-.15.73-.08,1.25.12,1.92.02.06.01.1,0,.16-.32,1.23-.02,2.13.86,3.02.38.38.83.42,1.25.72,1.15.82,2.31,1.14,3.62.38.99.07,2.07.21,3.02.34,1.29.17,2.18-.14,3.02-1.09,1.56.18,3.11.43,4.66.75.22.24.41.55.63.77,1.1,1.09,2.2,1.14,3.45.24,1.04.38,2.24.57,3.22,1.07.55.28.92.9,1.38,1.26,1.29.99,2.45,1.11,3.82.23,1.1.2,2.22.28,3.32.24.21,1.11.28,2.1,1.4,2.8,2.75,1.73,5.21-1.24,2.88-3.69Z"/>
  <g>
    <path class="cls-20" d="M757.42,118.26c-.64-4.4-1.52-9.9-4.56-13.23-4.25-4.65-10.64-4.42-15.85-7.23-1.22-.66-2.31-.19-3.1.78-2.75,3.38-5.37,6.69-8.83,9.35-.56.43-1.08.71-1.7,1.08-2.33-.47-5.35.42-7.47.7-5.39.71-9.2.17-12.9-3.73-2-2.11-3.46-3.95-6.61-3.59-3.15.36-6.46,1.6-9.11,3.38-5.3,3.57-6.03,8.96-6.34,14.92-.77,3.36-.64,6.64-.94,10.06-.64,7.45-1.86,14.8-3.52,22.11-.89,2.63-1.59,5.6-2.26,8.21-.42,1.62.63,2.17,1.95,2.34.03.1,0,.22.02.34.14.53.87.58,1.14.15.75-1.21,1.44-2.39,2.05-3.67.35-.73.56-1.52.75-2.31.04-.16.17-.29.25-.43.31-.53.68-1.02.92-1.6.24-.58.27-.97.49-1.63.22-.66.64-1.58.77-2.33.16-.08.54.03.64.03.1,0,.03-.05.04-.08.17-.71-.03-1.22.26-1.98.29-.76,1.14-1.42,2.09-1.12s1.26,1.09,1.2,2.06c-.1,1.5.41,2.75.78,4.22.36,1.46.7,2.99.99,4.52s.58,3.25.75,4.81c.09.78.08,1.65-.05,2.34s-.33,1.24-.38,1.82c-.05.58-.19.77-.52,1.17.17.79.28,1.43.51,2.25.93,3.37,2.08,6.63,1.28,10.17-1.81.54-2.81,1.77-3.7,3.37.09.22.17.45.19.69.07.8-.13,1.6-.36,2.34-.09.31-.22.69-.28.92-.06.23-.07.33-.09.46s-.04.32-.04.37c-.13,1.78-.15,3.48-.45,5.21,0,.01-.02,0,0,.02,2.36,2.85,5.49,3.52,9.13,4.02,4.45.61,9.1-.09,13.7.28,4.6.37,9.17.65,13.82-.15,4.65-.8,9.3-2.62,13.99-3.29s9.04-.72,13.35-2.97c1.1-.57,1.62-2.21.89-3.32-1.63-2.47-2.47-4.87-2.82-7.78,0-.02-.02-.03-.03-.05-1.3-2.96-1.78-5.85-1.67-9.06.05-1.56.2-2.96.14-4.54-.06-1.59-.17-3.31-.02-4.94.05-.53.29-.97.68-1.33.5-2,.86-3.87.95-5.97.04-.98-.15-2.19-.19-3.21.28-.23.52-.42.73-.72,1-1.39,1.92-2.84,2.87-4.26.42-.62.48-1.26.4-1.98,1.58-3.77,3.11-7.36,4.19-11.37,1.46-5.43,2.7-10.89,1.86-16.62Z"/>
    <g class="cls-24">
      <path class="cls-15" d="M758.94,123.07c-.62-4.35-1.2-8.99-2.78-13.04-1.59-4.05-4.02-7.09-7.87-8.94-4.7-2.26-9.8-2.88-14.41-5.26-.78-.4-1.65.4-1.19,1.18,1.98,3.35,5.3,4.81,8.72,6.2,4.9,2,8.42,3.87,10.42,8.97,1.43,3.67,1.69,7.79,2.32,11.68,1.01,6.24,1.73,12.64,2.72,18.84.32,1.98,3.09,2.18,3.17.05.25-6.57-.17-13.17-1.1-19.7Z"/>
      <path class="cls-15" d="M754.79,194.1c-2.92-3.72-5.78-7-7.6-11.55-1.48-3.68-2.86-7.55-1.94-11.61.15-.64-.57-.96-.97-.56-3.3,3.3-1.76,8.44-.55,12.16,1.9,5.85,4.66,9.63,8.99,13.6,1.44,1.32,3.27-.51,2.08-2.03Z"/>
      <path class="cls-15" d="M701.31,153.66c-1.95-3.87-3.88-7.62-5.08-11.84-.99-3.5-1.55-7.24-3.2-10.53-.36-.73-1.5-.41-1.47.39.15,4.27,1.08,8.57,2.24,12.65,1.15,4.09,2.63,7.74,5.44,10.88,1.06,1.18,2.74-.23,2.07-1.55Z"/>
      <path class="cls-15" d="M707.79,153.47c-1.47-1.6-3.08-3.29-4.17-5.17s-1.46-3.9-2.19-5.88c-.18-.48-.88-.69-1.13-.14-1.03,2.34-.14,4.81.91,7,1.27,2.64,2.89,4.76,5.75,5.55.84.23,1.41-.72.82-1.36Z"/>
      <path class="cls-15" d="M737.8,122.69c-4.91.46-6.66,6.28-7.53,10.16-1.34,5.95-1.66,10.86-.12,16.48.28,1,1.86,1.03,1.78-.24-.56-9.14-.34-18.4,6.28-25.45.41-.43.08-.99-.4-.94Z"/>
      <path class="cls-2" d="M725.56,192.59c-3.23.19-6.53.46-9.73,1-.92.16-1.09,1.56-.25,1.92,3.72,1.59,6.93.39,10.45-1.16.91-.4.46-1.81-.47-1.75Z"/>
      <path class="cls-2" d="M736.56,176.04c-4.48-.27-8.9.57-13.36,1.03-4.46.46-8.87.73-13.36,1.19-3.91.4-7.84.62-11.68,1.74-2.89.85-5.57,3.36-8.74,2.81-2.15-.37-3.51,1.93-2.01,3.37,2.21,2.11,4.72,1.25,7.23.09,4.2-1.95,8.36-2.99,12.97-3.65,5.42-.78,10.79-1.46,16.33-2.07,4.41-.49,9.03-.81,13.03-2.96.8-.43.44-1.49-.41-1.54Z"/>
      <path class="cls-2" d="M684.75,140.27c-.38-.9-1.71-.59-1.95.24-.47,1.62-.47,3.42-.72,5.04-.26,1.62-.9,3.14-.88,4.74s2.01,2.02,2.87.76c1.06-1.56,1.17-3.52,1.3-5.37.14-1.85.11-3.68-.62-5.4Z"/>
      <path class="cls-2" d="M728.58,136.42c0-.84-1.03-1.05-1.44-.39-2.26,3.64-2.13,7.9-2.38,11.99-.25,4.1-.93,7.54-2.84,11.07-1.17,2.15,1.41,3.77,3.11,2.38,2.98-2.43,3.32-6.64,3.53-10.19.3-5.08.01-9.89.02-14.86Z"/>
    </g>
  </g>
  <g>
    <path class="cls-21" d="M681.22,116.59c-1.58-2.7-4-3.65-6.76-4.7-1.8-.69-3.47-1.33-5.35-1.58-.74-.1-1.2.06-1.76.5-2.35-.72-4.85-1.02-7.25-1.46-1.05-.19-2.16-.55-3.13-.65-.98-.11-1.44.18-2.05.83-3.29.06-6.43.5-9.59,1.44-.54.16-.75.49-1.08.9-.8,1-1.14,1.77-.95,3.11.5,3.55-.3,6.83-.86,10.4-.56,3.57-.3,7.39-.58,11-.28,3.62-.81,7.19-1.05,10.78-.03.51.01,1.1-.16,1.52-.17.42-.56.73-.7,1.15-.94,2.93-1,5.77-.95,8.79.01.6.05.99.31,1.51-.42,1.36-.99,2.69-1.28,4.09-.73,3.6-.27,7.19-.36,10.83-1.17,1.96-1.49,4.04-1.42,6.27.02.71.26,1.11.62,1.67-.85,3.09-1.78,6.09-2.02,9.32-.14,1.8.11,3.65.18,5.46,0,.24-.12.49-.14.76-.33,3.76-1.68,7.42-1.93,11.18-.08,1.17.54,1.83,1.48,2.35-.39,2.44-.76,4.73-1.03,7.23-.26,2.5-.43,5.18-.29,7.73,0,.1.05.16.1.23-.48,3.09-1.05,6.26-1.59,9.31-.92,5.22-1.5,10.24-1.35,15.54.03,1.13.06,2.3,0,3.44-.9,3.96-1.4,8.02-2.07,12-.19,1.14.36,1.83,1.3,2.33-.68,3.05-1.45,6.1-1.75,9.21-.38,3.92-.27,7.81-.74,11.72-.47,3.91-1.32,7.74-1.18,11.71,0,.26.11.46.15.72-.92,2.63-2.92,5.57-1.86,8.44,2.23,6.02,9.72,6.25,14.98,6.92,4.06.52,7.27,1.04,11.05,1.12,2.46.06,4.29-.4,5.91-2.23,2.23-2.52,2.82-5.95,3.23-9.14.69-5.37,1.49-10.53,2.58-15.76.93-4.45,1.13-8.81,1.1-13.31-.04-5.29.86-10.21,1.81-15.41,1.66-9.1,1.92-18.4,2.79-27.6,1.87-19.85,3.44-39.69,5.7-59.51.7-6.14,1.24-12.34,2.13-18.46.77-5.27,2.1-10.55,2.79-15.78.7-5.23.45-9.71.87-15.17.15-2.02-.27-5.63.4-7.87.21-.11.45-.13.65-.22,1.08-.49,1.75-1.57,1.1-2.67Z"/>
    <g class="cls-22">
      <path class="cls-10" d="M682.62,136.5c-.59-3.71-1.48-7.29-2.13-10.96-.01-.08.05-.24.04-.26,0-.02-.03.22-.04.24,0,0,0-.01,0-.02,0-.1.16-1.05.19-1.07.03-.02,0-.12.03-.14.03-.03.07-.03.12-.05,2.48-1.09,2.56-4.05.04-5.09-.62-.26-1.19-.13-1.8-.26-.54-1.34-1-2.71-1.96-3.87-1.43-1.72-3.71-3.39-5.55-1.14-1.52,1.87-.87,4.83-.88,7.11,0,1.2.05,2.23.07,3.46-1.87,4.79-1.9,11.39-2.19,16.08-.49,7.73-2.8,14.07-3.82,21.26-.96,6.75-.78,13.05-2.66,19.55-.87,3.02-2.01,5.92-2.5,9.02-.61,3.88-.36,7.75-.49,11.65-.1,2.96-1,5.72-1.51,8.61-.71,4.01-1.05,8.14-1.43,12.18-.71,7.48-1.04,15.06-1.3,22.51-.26,7.45-2.05,14.57-2.67,21.93-.73,8.75-1.44,17.47-1.81,26.23-.2,4.7-.3,9.48-.48,14.16-.17,4.68-1.38,9.52.22,13.98,1.46,4.05,6.25,5.14,8.81,1.52,2.19-3.11,2.19-6.8,2.69-10.6.49-3.8.86-7.97,1.23-11.92.7-7.41,1.47-14.93,2.41-22.34.89-7.08,1.62-14.2,3.08-21.17,1.46-6.97,1.18-13.68,1.54-20.8.36-7.12,1.02-14.49,1.83-21.65.35-3.09,1.04-6.18,1.25-9.3.24-3.55-.61-7.03-.44-10.59.29-5.74,3.13-11.01,4.02-16.63,1.01-6.35.66-12.74,1.88-19.05.46-2.36,1.08-4.69,1.57-7.04,1.85-.11,3.44-.73,3.76-2.8.66-4.27-.44-8.54-1.12-12.76Z"/>
      <path class="cls-10" d="M712.14,284.77c-.92-.35-1.7-.99-2.48-1.64-1.64-1.35-3.57.57-2.28,2.23.96,1.24,2.43,2.01,3.89,2.56.82.31,1.78-.23,1.99-1.11.22-.88-.2-1.69-1.12-2.04Z"/>
      <path class="cls-14" d="M647.94,117.38c-1.32-1.59-3.31-1.25-4.73-.06-2.32,1.95-3.02,4.95-3.88,7.77-.96,3.16-1.69,6.41-2.16,9.65-.93,6.43-1.43,13.06-2.27,19.43-.88,6.69-1.38,13.55-2.05,20.1-.67,6.55-2.2,12.62-2.92,19.03-1.54,13.64-1.64,27.1-2.05,40.81-.39,13.04-.29,26.08-2.07,39.09-1,7.31-2.41,14.28-3.73,21.73-1.16,6.57-4.38,13.68-2.29,20.48,1.17,3.8,6.57,4.38,7.84.33.89-2.86.79-6.06,1.41-9.05.62-2.99,1.53-5.98,2.39-8.94,1.84-6.32,4.09-12.55,5.78-18.92,3.37-12.71,3.73-25.58,4.03-38.63.32-13.76.49-27.31,1.49-41.03.48-6.63,2.03-12.89,2.93-19.59.9-6.7,1.48-13.51,2.06-20.43.61-7.28.56-14.16,1.19-21.8.51-6.28,3.71-14.35-.97-19.97Z"/>
    </g>
  </g>
  <path class="cls-3" d="M681.13,117.02c-.29-.93-.94-1.56-1.48-2.37-.31-.46-.84-.86-1.45-.83-.14,0-.3.05-.45.06-4.73-2.84-10.05-4.21-15.38-5.06-3.52-.56-6.64-.12-10.04.16-2.91.25-5.42.22-7.67,2.23-1.2,1.08-.1,2.81,1.47,2.57,5.35-.82,10.9-1.34,16.26-.45,5.99.99,11.23,1.87,15.99,5.75,1.67,1.36,3.32-.27,2.76-2.06Z"/>
  <path class="cls-12" d="M689.01,172.29c-.54-.1-1.02-.09-1.55-.16-.07.51-.37.77-.88.85-2.11.3-4.22.66-6.34.88-.04,0-.04.08-.09.09-.05,0-.14-.07-.21-.06-.64.04-1.35.06-1.98.06-.25,0-.6.02-.75,0-.15-.02-.03-.03-.09-.05-.04-.01-.02,0-.03,0-1.43-1.14-3.3-1.26-4.87-2.11-.26-.14-.51-.13-.72-.26-.43-.26-.66-.77-.98-1.13-.11-.13-.12-.34-.15-.44-.03-.1-.13-.03-.16-.08-.74-1.4-1.56-2.66-2.63-3.83-.06-.06.03-.09.01-.24s-.16-.43-.39-.48-.54,0-.72.04c-.18.05-.34-.13-.45-.06-.1.08.04.28-.05.39-.41.49-.69,1.08-.86,1.7-.17.62-.23,1.16-.1,1.78,0,.04.04.07.04.11-.06.49-.21,1.02-.23,1.5,0,.08.11.06.17.1,1.71,1.23,3.09,2.53,3.48,4.67.01.07.1.05.14.13.04.08.14.16.15.3s.05.33.05.49-.02.29-.05.46c-.02.17-.14.47-.21.61-.08.15-.17.25-.24.35-.07.09-.07.08-.15.15-.08.08-.24.17-.33.23-.09.06-.19.04-.25.11-2.55,3-6.35,4.59-9.82,6.07-1.88.8-3.62,1.17-5.22,2.09-1,.57-1.21,1.03-1.63,1.96.33.7.58,1.43.83,2.16.17-.05.31-.07.48-.05.82.06,1.37.35,2.23.03s1.67-.97,2.6-1.4c.93-.43,2.14-.89,3.07-1.41.93-.52,1.69-1.34,2.67-1.73,1.52-.6,2.9.93,1.78,2.26-.72.85-1.78,1.35-2.64,2.04-.52.42-1.07.76-1.62,1.19-.07.06-.23.17-.36.27s-.22.17-.43.33-.56.44-.83.66c-1.15.94-2.31,1.96-3.33,3.05-.14.15-.29.32-.4.45s-.09.11-.2.24c-.1.13-.41.55-.47.67-.06.11-.08.08-.07.12.34.87.77,1.68.98,2.6,1.02-.07,1.66-.44,2.51-1.07.46-.34,1.2-.74,1.83-.83.87-1.19,1.81-2.26,2.86-3.28.34-.33.75-.42,1.21-.4.72-1.2,1.35-2.37,2.39-3.35.36-.34.85-.3,1.23,0,.38.3.26.94.03,1.19-.23.24-.41.41-.52.54-.11.13-.08.09-.11.13-.06.08-.06.07-.09.11-.03.04-.03.04-.06.08-.03.04-.08.1-.11.15-.24.39-.55.77-.75,1.19-.19.41-.56.75-.66,1.2-.1.44-.09.88-.44,1.24-.35.36-.8.7-1.03,1.12-.09.16.11.34.02.58s-.33.75-.22,1.02c.09.23.5.32.79.52.29.2.95.4,1.3.61.49-.55,1.02-.96,1.66-1.29.01,0,.02.02.03.03.28.25.66.43,1.02.42s.72-.13.98-.23.32-.31.49-.39.3.11.46.1c1.33-2.23,2.48-4.52,4.23-6.46.11-.12.27-.13.35-.23,1.09-1.26,2.15-2.47,3.49-3.46.22-.16.45-.14.7-.07.73-.91,1.39-1.86,1.97-2.87.95-.64,1.85-1.25,2.91-1.71,1.78-.76,3.69-1.05,5.46-1.95,1.15-.58,1.17-2.1.38-3.05.62-.68.58-1.46.68-2.26.1-.86.65-1.55.82-2.39.31-1.47-.65-2.36-2.03-2.63Z"/>
  <path class="cls-3" d="M692.26,176.13c-.14-.54-.32-1.02-.49-1.53-.35-1.06-.77-2.01-1.46-2.9-.22-.29-.73-.24-.95-.14s0,.01-.09.05-.13.04-.19.08c-.48.24-.71.63-.47,1.14.4.83.79,1.62,1.18,2.46.24.52.46,1.04.75,1.57.06.12.16.05.27.23.11.18.13.69.28.99.36.73,1.44.71,1.51-.2.05-.59-.21-1.18-.35-1.72Z"/>
  <path class="cls-11" d="M973.45,400.19c-11.52-.26-22.67,5.49-33.79,9.74-12.97,4.96-26.72,10.57-40.28,14.47-14.04,4.03-29.65,8.55-43.16,12.92-13.05,4.22-28.4,9.75-40,13.44-22.35,7.11-42.59,13.48-63.27,22.21-10.53,4.45-19.95,6.92-30.36,11.14-10.13,4.1-18.31,10.95-27.47,16.97-10.25,6.73-21.92,10.58-32.96,16.19-6.06,3.08-12.02,6.88-17.89,10.67s-12.25,7.55-17.85,11.89c-.68.53-1.26,1.2-1.85,1.8-12.92-4.94-24.62-13.22-36.69-19.56-14.5-7.62-30.13-14.71-43.97-22.76-28.34-16.47-56.38-34.85-82.95-52.95s-53.12-36.42-81.76-48.27c-27.01-11.18-50.47-22.82-78.55-28.08-7.58-1.42-14.47-2.29-21.79-4.23-6.61-1.75-12.2-4.11-18.81-6.12-5.73-1.74-12.27-2.86-18.06-4.84-.59-2.7-1.85-5.09-4.3-6.52-4.34-2.54-8.64-5.15-13.68-5.83-6.24-.85-8.55,4.46-7.63,9.93-.72,2.68-.29,5.57,1.49,7.6,2.09,2.39,4.15,2.56,6.99,1.77,7.49,4.53,16.15,7.04,24.37,9.42,11.63,3.37,22.42,7.8,34.09,10.28,13.27,2.82,25.75,4.92,38.71,9.37,12.97,4.45,25.16,9.54,38.23,15.13,13.69,5.85,27.63,10.28,41.2,18.39s27.33,17.56,41,27.1c27.3,19.07,54.91,38.36,84.02,55.33,16.27,9.49,33.68,18.81,50.89,27.26,15.31,7.52,29.85,17.89,46.11,23.51,2.12.73,3.58.42,5.52-.38,1.74.52,3.57.71,5.27-.09,11.41-5.36,21.89-13.19,32.34-19.73,9.27-5.8,18.92-9.05,28.25-14.14,9.32-5.09,17.1-12.33,26.09-17.76s18.57-7.91,28.28-11.63c10.02-3.84,17.92-7.68,28.51-11.6,11.1-4.11,20.13-6.35,32.83-11.28,24.99-9.69,54.14-18.28,80.86-26.33,15.55-4.69,33.13-9.85,48.09-16.25,11.92-5.1,23.41-11.63,35.14-15.65,7.09-2.43,6.65-12.34-1.22-12.52Z"/>
  <g>
    <path class="cls-23" d="M789.72,333.34c-.23-.82-.45-1.44-.82-2.26-.38-.81-.84-1.6-1.25-2.5s-.7-1.97-.95-3c-.59-2.42-1.1-4.93-1.89-7.32-1.54-4.66-3.84-8.96-6.6-12.97-2.75-4.01-5.78-7.6-8.47-11.6-2.01-2.98-3.84-6.05-5.29-9.34-.41-.92-.47-1.95-.79-2.9-.63-1.88-1.17-3.79-1.7-5.71-.24-.87-.41-1.76-.55-2.65.45-.33.64-.85.52-1.36-.12-.51-.24-.87-.4-1.34-.16-.47-.53-.73-.97-.92-.67-1.79-.73-3.86-1.09-5.68-.51-2.61-1.35-4.95-2.01-7.48.24-.35.33-.66.18-1.09-2.62-7.63-3.76-15.62-6.01-23.36-.54-1.86-1.35-3.62-2.06-5.42-.03-.08-.1-.16-.09-.24.26-1.35.9-2.8,1.06-4.12s-.04-2.36-.16-3.63c-.12-1.27-.1-2.57,0-3.85.23-2.68.02-5.44.05-8.1.02-1.41-.06-3.01.16-4.3.19-1.16.42-2.95.29-3.7-.11-.63.02.04-.02-.14-.03-.15,0-.01,0-.02-.06-.17-.04-.11-.04-.31s-.27-.39-.33-.59c-.11-.4,0-.84-.12-1.28-.22-.75-1.11-1.12-1.78-.75-6.12,3.4-12.47,3.91-19.29,4.32-1.66.1-3.21.27-4.8.31-1.59.05-3.07.05-4.61.28-.82.13-1.47.44-2.22.73-.12.05-.25-.05-.41,0-1.25.33-2.48.22-3.76.06-1.77-.65-3.66-.38-5.48-.67-.61-.1-.93.1-1.3.53-.05.06-.12.02-.19.02-1.97.09-3.88.02-5.83-.3-1.95-.32-3.83-.69-5.81-.96-.92-.13-1.87-.35-2.83-.61-.96-.25-2.29-.57-3.26-.73-.96-.16-1.95-.29-2.71.14s-.67,1.03-.64,1.72c.1,2.06.64,4.04.71,6.11.11,3.33-1.21,6.36-1.73,9.61-.27,1.67,0,3.16.31,4.86.31,1.7.61,3.53.77,5.31.37,3.96.52,8.01.89,11.97.37,3.96,1.07,7.81,1.24,11.78s-.1,8.01.22,11.98c.14,1.77.38,3.72.84,5.35.46,1.63,1.38,2.56,2.24,3.89.86,1.32.99,2.36.6,3.92-.39,1.56-1.04,3.15-1.39,4.77-.81,3.75-2.04,7.38-1.88,11.27.08,1.95.56,3.99.76,5.87.2,1.88.21,3.55.58,5.36.63,3.14,1.74,5.99,3.35,8.77.73,1.26,1.51,2.36,2.17,3.73.41.85,1.06,1.99.51,2.98-.25.46-.68.58-1.08,1.04-.4.46-.91,1.07-1.13,1.77-.39,1.22-.58,2.45-.66,3.79-.08,1.34.06,2.56.56,3.9s1.32,2.73,1.77,4.17c.18.59.36,1.2.21,1.88s-.74,1.32-1.11,1.93c-.79,1.27-1.36,2.68-1.2,4.13.17,1.45.74,2.47,1.22,3.79.24.65.62,1.39.32,2.09-.17.39-.55.46-.89.63-.83.41-1.66.78-1.71,1.83-.06,1.05.5,1.99,1.35,2.61,1.85,1.35,4.03,2.01,6.07,3.03,1.17.58,1.98,1.32,3.18,2.02,1.2.7,2.6,1.46,4.09,1.72,3.67.64,7.35.27,11.1.82,2.14.31,4.47.94,6.28-.8,2.05-1.97,2.15-5.17,2.36-7.83.26-3.28.38-6.14-.72-9.24-.49-1.38-1.36-2.35-1.83-3.89-.47-1.54-.35-3.26-.18-5.01.17-1.76.37-3.73.22-5.58-.15-1.85-.59-3.7-1.12-5.51-.53-1.81-1.3-3.7-1.85-5.49-.55-1.79-.61-3.43-.49-5.26.13-1.83.39-3.45.28-5.34-.11-1.88-.53-3.85-.68-5.8-.15-1.95.06-3.98.22-5.95.16-1.97.34-3.95.5-5.93.34-4.1.59-8.21.5-12.32-.04-1.95-.25-3.89-.68-5.75-.43-1.86-1.17-3.58-1.48-5.43-.61-3.63,1.07-6.82,1.45-10.34.38-3.52-1.14-6.77-1.35-10.24-.02-.33-.04-.66-.07-.98.96,2.82,1.87,5.64,2.89,8.44,1.51,4.15,3.19,8.2,4.72,12.36,1.53,4.16,3.04,8.39,4.84,12.45.16.36.41.5.76.6.44,1.89.81,3.77,1.32,5.66.66,2.43,1.37,4.84,2.53,7.09.93,1.8,2.23,3.25,3.67,4.68s3.01,2.56,4.39,4.11c1.38,1.55,2.31,3.1,2.9,5.23s.72,4.54,1.22,6.84c.51,2.29,1.56,4.51,2.84,6.53,1.28,2.02,2.51,4.05,3.61,6.18,1.09,2.13,1.91,4.41,3.13,6.48.99,1.68,2.22,3.11,3.58,4.53s3.12,2.55,3.67,4.56c.37,1.35-.33,2.78-.71,4.02-.48,1.55-1.13,3.12-1.25,4.67-.12,1.55.4,2.86,1.61,3.66,1.22.81,2.47.76,3.82.61,3.34-.37,6.52-1.41,9.64-2.6,1.48-.57,2.7-1.36,3.97-2.29.52.55,1.25.5,1.66-.09s.66-1.1,1.05-1.66c.44.29.83.37,1.25-.08,1.06-1.16,1.73-2.41,1.77-4.03,0-.09-.09-.19-.04-.26.75-.99,1.36-2.06,1.8-3.22.25-.65.67-1.14.81-1.84s-.14-1.21-.84-1.42ZM715.68,202.69s-.39.52-.43.53c-.03.01-.16-.49-.14-.52.02-.03.57-.05.57-.01Z"/>
    <g class="cls-25">
      <path class="cls-13" d="M727.12,348.96c-.02-5.35-.56-9.98-.77-15.12-.25-6.05-1.21-11.79-2.31-17.72-1.11-5.94-1.46-11.83-1.92-17.89-.5-6.58-1.34-13.29-2.02-19.89.95-.27,1.78-.87,1.75-1.96-.16-7.48-1.48-14.79-2.51-22.18-.06-2.88-.04-5.71-.55-8.56-.99-5.59-2.38-11.18-3.5-16.74-.42-2.09-3.31-1.5-3.45.4-.39,5.26.54,10.46.85,15.72.34,5.59-.69,11.09-.95,16.66-.54,11.5,1.56,22.81,2.15,34.25.29,5.64.01,11.41.68,16.95.67,5.55,2.06,11.18,2.41,16.59.34,5.41.54,10.36,1.36,15.56.35,2.22.82,4.35.75,6.49s-.84,4.14-.36,6.17c.33,1.37,1.51,2.01,2.83,1.65,4.62-1.23,5.55-6.36,5.54-10.39Z"/>
      <path class="cls-13" d="M707.69,303.31c-1-1.68-1.88-3.67-2.72-5.48-1.71-3.68-3.55-7.16-6.92-9.54-2.27-1.6-4.47,1.09-3.5,3.39,1.72,4.09,2.46,7.97,4.3,12.23,1.47,3.42,4.45,8.06,8.93,7.07,1.29-.29,2.17-1.41,2.15-2.72-.03-1.97-1.24-3.28-2.23-4.96Z"/>
      <path class="cls-13" d="M790.98,329.13c-1.49-4.29-3.05-7.95-4.54-12.1.39-1.17.58-2.24.04-3.45-2.57-5.67-6.21-10.37-10.18-15.16-3.98-4.79-7.13-9.78-8.71-15.84-.24-.91-.58-1.35-1.33-1.85-1.05-4.93-2.18-9.86-3.49-14.73-.37-1.37-.83-2.68-1.3-4.02,1.2-.73,1.92-1.92,1.61-3.36-.65-3.03-2.32-5.72-3.45-8.54-1.26-3.14-2.43-6.21-3.58-9.37-.12-.33-.31-.64-.37-.99-1.22-6.57-2.63-13-2.24-19.72.48-8.35,1.25-16.37-1.25-24.43-.97-3.13-4.94-3.22-6.4-.5-1.89.24-3.6.9-5.4,1.32-.68.16-1.36.34-2.02.45-4.99.78-10.16.46-15.12,1.04-4.97.58-9.66,1.46-14.65,1.56-1.11.02-2.14.04-3.3.04-4.82.02-8.86-.69-13.88-.42-4.02.22-2.43,5.11-.34,5.51,1.41.27.29.06.31.07.65.23.86.32,1.32.36,3.19.24,6.35.18,9.52.17,1.68,0,3.37.17,5.03.18,5.57.03,10.95-.44,16.51-1.01,4.86-.5,9.73-1.53,14.55-2.46.13-.02.28-.03.38-.06.1-.03.14-.05.22-.07,1.58-.34,3.13-.72,4.67-1.24-1.35,4.34-2.14,8.37-2.65,12.96-.4,3.61-.47,7.43.8,10.98.43,7.06,2.97,13.17,5.46,19.74,1.08,2.84,2.21,5.93,3.55,8.7,1.42,4.74,3.27,9.16,5.32,13.67,1.68,3.7,2.78,7.66,4.02,11.55.58,1.82,1.21,3.64,1.82,5.46.14,6.91,1.56,13.09,5.1,19.06,3.55,5.97,8.31,10.66,13.01,15.65.53.56,1.06.8,1.74,1.08.11,4.07.44,8.09,1.46,12.05-.14.47-.37.94-.45,1.43-.29,1.8-1.22,3.57-.71,5.43.88,3.26,4.56,3.46,6.6,1.07.71-.84.75-1.8.95-2.83,2.9-1.47,2.23-4.96,1.38-7.39Z"/>
    </g>
  </g>
  <g>
    <path class="cls-17" d="M710.81,331.64c-.74-3.17-3-4.64-5.78-6.03-1.69-.84-3.59-1.64-5.17-2.5s-2.86-2.07-4.34-2.88c-1.03-.56-2.46.29-1.94,1.48,2.95,6.77,11.41,5.29,15.93,10.5.6.69,1.47.22,1.29-.56Z"/>
    <path class="cls-17" d="M696.35,292.42c-.47-1.06-2.03-.43-1.71.67,1.51,5.21,1.79,10.89,4.4,15.74.44.82,1.79.64,1.71-.43-.4-5.52-2.17-10.92-4.4-15.98Z"/>
    <path class="cls-17" d="M711.9,243.75c-1.14,1.04-2.35,2.14-3.77,2.81s-3.04.65-4.48,1.14c-.64.21-.95,1.2-.18,1.5,4.1,1.58,7.69-1.14,9.51-4.77.35-.71-.62-1.08-1.07-.67Z"/>
    <path class="cls-17" d="M707.06,234.44c-.54.54-1.2,1.4-1.74,2.04s-1.24,1.27-1.65,1.99c-.41.72.46,1.35,1.09.85.63-.51,1.14-1.32,1.65-1.98.5-.66,1.2-1.49,1.61-2.14s-.42-1.3-.96-.75Z"/>
    <path class="cls-17" d="M722.76,219.59c-.95-1.4-2.67-2.1-4.01-3.11s-2.25-2.17-3-3.65c.03-.51-.1-.89-.53-1.19-.02-.01-.04-.03-.06-.04-.35-.15-.83-.28-1.15,0-1.93,1.69,0,4.48,1.36,5.87,1.83,1.89,3.83,3.42,6.33,3.91,1.02.2,1.57-1.05,1.07-1.8Z"/>
    <path class="cls-17" d="M696.13,211.02c-1.68-.34-3.52-.82-5.11-1.6-1.22-.6-2.42-1.43-3.77-1.5-.7-.04-1.15.69-.74,1.29,2.07,3.06,6.25,3.39,9.6,3.22,1.14-.06.89-1.23.02-1.41Z"/>
    <path class="cls-17" d="M725.08,339.78c-.97-2.7-1.75-5.19-1.72-8.01.03-2.82.16-5.44-.66-8.09-1.8-5.77-4.46-10.68-4.32-16.88.15-6.2,1.16-12.65.77-18.88-.4-6.23-1.24-12.21-1.3-18.42-.05-5.52.46-10.73.75-16.33.57-11,.37-21.26-4.82-31.25-.62-1.19-2.5-.51-2.12.84,3.07,10.96,2.6,21.67,1.82,32.89-.39,5.54-.6,10.85-.28,16.35.35,6.01,1.38,11.87,1.77,17.91s-.38,12.19-.55,18.23c-.15,5.52,1.92,10.37,3.58,15.47,1.65,5.1.58,10.46,2.3,15.46.76,2.21,1.86,3.87,1.87,6.22,0,2.76-.42,5.47-.11,8.25.14,1.27,2.16,1.22,2.48-.02,1.2-4.65,2.19-9.11.54-13.75Z"/>
    <path class="cls-17" d="M777.01,315.51c-4.06-1.82-8.49-3.03-12.64-4.73-1.94-.8-3.88-1.75-5.54-3.04-1.99-1.54-3.16-3.86-5.34-5.17-1.32-.79-3.61.06-3.3,1.87.86,5.05,5.39,8.41,9.75,10.24,5.42,2.27,10.62,2.69,16.13,3.75,1.99.38,2.74-2.12.94-2.93Z"/>
    <path class="cls-17" d="M765.83,300.59c-4.04-1.23-7.68-2.55-11.05-5.18-1.16-.91-3.3.24-2.23,1.69,3.17,4.27,7.97,4.8,12.97,5.24,1.09.1,1.26-1.46.31-1.75Z"/>
    <path class="cls-17" d="M782.31,325.48c-2.27,1.42-4.62,2.62-7.26,3.22-2.21.5-4.64.2-6.57,1.43-.79.5-.96,1.51-.12,2.01,2.36,1.41,5.32.42,7.69-.48,2.87-1.09,5.13-2.6,7.34-4.59.83-.75-.06-2.22-1.08-1.58Z"/>
    <path class="cls-13" d="M747.82,194.42c-4.96.81-9.97,2.44-14.96,3.21-4.99.77-9.58,1.66-14.69,2.03-5.11.37-10.48.29-15.71-.02-4.49-.26-9.02-1.57-13.55-.96-.75.1-.96,1.09-.41,1.56,3.49,2.93,8.2,3.36,12.47,3.73,5.89.51,11.5.76,17.21.38,5.04-.33,9.87-1.04,14.74-1.76,5.56-.83,10.84-2.02,16.16-3.67,2.93-.91,1.73-4.98-1.26-4.49Z"/>
  </g>
  <path class="cls-1" d="M723.05,359.82c-.64-1.31-2.3-1.64-3.72-1.67-.9-.01-1.7.12-2.65.11-.95-.01-2-.08-3.01-.22-1.97-.26-3.73-.62-5.74-1.13-2.01-.51-4.31-1.16-6.33-1.88-2.02-.71-3.8-1.69-5.68-2.78-.8-.47-1.76-1.04-2.65-1.36-.22-.45-.52-.33-.91-.3-.48.04-1.03-.14-1.52.01-1.1.34-1.9,1.25-3.02,1.46-.57.11-.87.29-1.17.77-.87.16-1.88.3-2.73.43-2.17.31-3.98.51-6.2.7-2.22.19-4.54.3-6.79,1.09-1.84.64-3.53,1.85-3.35,4.06.04.5.44.88.58,1.34.09.29-.11.61.11.94,1.12,1.68,2.91,2.17,4.78,2.65.34.09.68.26.95.33.27.08.44-.02.63.02,1,.16,1.96.39,2.92.65,1.7.45,3.32,1.22,5.03,1.58,3.94.83,7.93.34,11.9.6,1.99.13,3.89.51,5.86.79s4.15.53,6.09.68c1.94.14,4.01.45,5.72.96s2.9.59,4.46.14c1.56-.45,2.86-.96,3.95-2.15,1.09-1.19,1.36-2.76,1.88-4.27.4-1.16,1.26-2.24.62-3.55Z"/>
  <path class="cls-1" d="M792.64,339.41c-.21-1.14-.63-2.15-.51-3.35.12-1.2-1.25-1.81-1.89-.54-2.4,4.7-5.57,8.78-10.16,11.43-2.57,1.48-4.91,1.46-7.69,1.71-1.63.14-3.27.06-4.86.49-.15.04-.29.23-.41.14-.55-.43-1.22-.12-1.26.61,0,.09.08.16.02.24-.81,1.08-.85,2.13-.44,3.41-1.55,3.05-4.52,5.4-6.15,8.31-1.19,2.13-1.26,4.51.65,5.97,1.91,1.46,4.31,1.71,6.59,1.35,5.48-.88,8.94-4.52,12.52-8.48.93-1.03,1.58-2.16,2.18-3.4.6-1.24.95-2.66,1.55-3.89.6-1.23,1.45-2.36,2.27-3.38.83-1.03,1.49-2.06,2.56-2.79,2.06-1.39,4.64-1.53,5.31-4.28.28-1.14-.08-2.39-.29-3.54Z"/>
  <path class="cls-7" d="M721.94,45.6c-7.65-4.93-12.71-15.33-24.16-7.18-2.88,2.05-4.85,5.75-4.64,9.46.19,3.27,2.56,5.86,5.99,5.69.54-.03.85-.83.54-1.26-1.68-2.41-3.62-3.96-2.22-7.09,1.27-2.82,4.43-4.69,7.49-4.23,6.7,1.01,11.93,6.77,18.63,5.89,1-.13.59.16-1.64-1.27Z"/>
  <g>
    <path class="cls-8" d="M487.48,148.25s-.54-1.25-.47-1.03c.06.22.36.67.42.95,0,.03.05.08.05.08Z"/>
    <path class="cls-8" d="M552.52,212.99c-3.3-12.75-10.46-23.53-20.08-32.58-8.71-8.2-18.68-14.4-28.54-20.95-3.41-2.27-6.93-4.1-10.34-6.36-1.59-1.05-3.1-2-4.63-3.33-.17-.14-1.4-1.8-1.16-1.1-.08-.09-.24-.35-.28-.36-.03-.02.13.45.11.43-.02-.02-.12-.49-.18-.54-.18-.15-.41-.87-.48-.96-2.21-2.83-6.7-2.94-8.64.24-5.02,8.19,7.79,14.31,12.84,17.45,9.16,5.7,17.11,10.32,25.21,16.4,9.9,7.43,18.06,15.37,22.8,26.8,5.01,12.1,1.89,22.08-3.31,33.36-1.94,4.2,3.44,8.75,6.72,5.16,4.45-4.89,8.02-10.24,9.81-16.73,1.53-5.54,1.67-11.07.16-16.91Z"/>
  </g>
  <path class="cls-8" d="M481.91,264.97c-8.44-3.42-15.04-5.04-23.48-5.4-5.5-.23-10.32.73-15.57,1.35-2.71.32-5.34.75-7.92,1-2.96.29-5.94.02-8.52,1.43-2.58,1.41-2.16,5.11.46,6.31,4.31,1.97,9.13.82,13.66.28,4.9-.58,9.55-1.62,14.44-1.89,7.52-.4,14.28.7,21.46,3.18,5.96,2.06,11.52,4.62,17.25,7.74,4.36,2.37,9.45,6,10.44,11.17.49,2.57,4.52,3.8,4.65.72.63-14.64-15.6-21.33-26.88-25.9Z"/>
  <path class="cls-8" d="M603.13,268.44c-5.64-.07-11.41.56-17.2.78-5,.19-9.79-.2-14.99.58-8.15,1.23-15.9,5.12-20.35,12.31-1.12,1.81.89,3.62,2.7,2.73,3.27-1.62,5.91-4.47,9.15-6.39,3.69-2.19,7.22-3.61,11.71-3.93,4.49-.31,9.34.39,13.99.48,5.01.1,10.01.81,15.08,1.06,5.07.26,5.1-7.56-.08-7.63Z"/>
  <path class="cls-6" d="M681.48,98.54c-.22-3.44-1.21-6.98-4.28-8.74-3.41-1.95-7.12,1.77-5.33,5.09,1.01,1.86,2.2,3.19,2.7,5.14.51,1.95.58,3.78,1.6,5.47.45.75,1.3.97,2.07.53,2.6-1.52,3.41-4.65,3.23-7.5Z"/>
  <path class="cls-6" d="M671.37,84.01c-.91-1.77-2.73-3.04-4.61-3.5-1.88-.46-3.52.59-3.84,2.5-.31,1.92,1.1,3.15,2.9,3.47.28.05.65.04.85.08.21.04.54.12.62.13.81.15,1.53.37,2.31.32,1.55-.11,2.48-1.59,1.76-3Z"/>
  <path class="cls-18" d="M818.46,373.29c-8.99-3.59-17.52-.79-25.38,3.85-8.26,4.87-14.63,11.5-23.1,15.54-8.47,4.04-17.41,3.78-26.44,4.99-4.43.59-8.66,1.4-12.69,3.13-4.04,1.74-7.34,4.26-10.58,7.09-6.48,5.66-11.94,12.21-19.51,16.5-6.98,3.95-14.27,5.73-22.23,7.29-15.67,3.07-31.29,4.66-44.77,14.1-7.21,5.05-11.66,13.23-18.93,18.34-8.21,5.77-17.28,6.25-27.05,6.02-2.37-.06-4.6-.47-6.93-.62-.9-.06-.86,1.32.03,1.42,9.36,1.06,18.72,2.04,27.71-1.47,8.47-3.3,13.72-10.53,19.87-16.77,2.97-3.02,6.11-5.93,9.63-8.08,3.51-2.14,7.07-3.68,10.83-4.9,7.63-2.48,15.27-3.72,23.09-5.12s15.47-2.7,22.93-5.55c3.6-1.37,6.93-3.14,10.15-5.33,3.49-2.38,6.53-5.34,9.65-8.26,3.12-2.92,5.93-6.08,9.43-8.71,3.5-2.63,7.49-4.74,11.8-5.81,8.66-2.15,17.48-1.73,26.23-3.57,4.33-.91,8.29-2.67,12.21-5,3.92-2.33,7.45-5.11,11.32-7.9,7.85-5.67,15.51-10.58,25.51-10.99,2.3-.09,4.34.57,6.44,1.19.85.25,1.7-1,.8-1.36Z"/>
  <path class="cls-18" d="M520.03,313.51c-5.22.99-10.56,2.86-15.22,5.22s-8.62,5.31-12.66,8.27c-4.04,2.96-7.58,5.96-11.95,8.3-4.37,2.34-8.78,3.66-13.8,3.91-9.78.49-20.25-1.73-29.26,2.8-8.06,4.05-11.39,12.17-18.2,17.62-4.21,3.38-9.13,5.16-14.47,6.29-5.34,1.13-11.01,1.17-16.42,2.05-.32.05-.22.5.08.5,4.85-.03,9.92-.23,14.66-1,4.74-.77,9.35-2.05,13.43-4.23s6.7-5.3,9.68-8.52,5.01-6.75,8.74-9.24c8.75-5.83,18.59-4.44,28.59-4.29,5.09.08,9.75-.46,14.37-2.25,4.63-1.79,8.2-4.61,12.14-7.52,3.94-2.91,7.66-6.13,11.93-8.7,4.65-2.81,9.66-4.94,14.87-6.57,1.3-.41,2.64-.69,3.94-1.1.99-.31.53-1.72-.46-1.53Z"/>
  <path class="cls-18" d="M487.12,391.47c-3.08-2.31-6.33-4.42-9.61-6.45-1.61-1-3.25-1.97-4.89-2.9-1.64-.93-3.22-1.91-4.96-2.6-.41-.16-.62.39-.28.63,1.55,1.07,3.25,1.9,4.9,2.83s3.29,1.87,4.94,2.84c1.65.97,3.3,1.97,4.94,3.01.04.03-.03.01.13.13s.9.64,1.08.8c.18.15.22,0,.31.06,1.08.67,2.1,1.43,3.16,2.11.31.2.58-.24.28-.46Z"/>
  <path class="cls-18" d="M491.03,384.17c-2.14-2.3-4.5-4.38-7.03-6.25-1.12-.83-2.43-1.78-3.73-1.98-1.3-.2-2.07.38-2.55,1.42-.17.38.39.67.64.33.77-1.03,1.89-.92,3.01-.38,1.12.54,2.22,1.32,3.26,2.06,2.15,1.54,4.14,3.29,6.03,5.14.25.24.6-.08.36-.33Z"/>
  <path class="cls-18" d="M528.74,375.32c-3.11-1.89-6.5-3.17-9.94-1.21-2.93,1.67-3.83,4.83-2.87,7.97.13.43.8.2.7-.26-.57-2.77.26-5.57,2.82-6.98,3.12-1.72,6.11-.59,8.98.99.37.21.67-.3.31-.52Z"/>
  <path class="cls-18" d="M561.76,413.67c-1.26-2.01-2.89-4.15-4.47-5.82s-3.31-3.16-5.37-3.7c-2.06-.53-3.53.03-4.83,1.54-1.3,1.51-1.47,3.61-1.77,5.52-.06.38.54.51.63.13.39-1.63.59-3.44,1.62-4.8,1.25-1.65,2.94-1.94,4.84-1.24s3.26,1.99,4.73,3.47c1.47,1.48,2.91,3.38,4.15,5.14.2.28.64.05.46-.25Z"/>
  <path class="cls-18" d="M492.34,438.92c-.68,1.15-1.31,2.34-1.95,3.5s-1.29,2.33-1.81,3.54c-.15.36.37.63.57.32.73-1.09,1.32-2.28,1.93-3.44.61-1.16,1.24-2.35,1.82-3.5.2-.4-.32-.82-.56-.42Z"/>
  <path class="cls-18" d="M578.56,368.68c0-.61-.79-.63-.86-.04-.46,3.54-1.61,6.52-4.01,9.18-.41.46.16,1.13.62.67,2.72-2.74,4.21-5.92,4.26-9.81Z"/>
  <path class="cls-18" d="M595.25,371.06c-1.7-1.15-3.69-.41-5.11.84-.97.86-1.53,2.03-2.14,3.12-.16.29.22.57.43.27,1.32-1.92,2.56-3.95,5.13-3.96,1.06,0,1.88.61,2.21,1.69.33,1.07-.11,2.37-.46,3.44-.13.41.45.6.61.19.74-1.91,1.33-4.24-.66-5.59Z"/>
  <path class="cls-18" d="M709.26,155.51c-5.45-3.43-7.93-8.31-9.89-14.26-.18-.56-.98-.37-.82.22,1.8,6.37,4.19,11.76,10.36,14.84.48.24.79-.51.34-.79Z"/>
  <path class="cls-18" d="M700.11,155.61c-1.37-1.35-2.37-2.91-3.13-4.67-.91-2.09-1.7-4.19-2.45-6.32-1.46-4.17-2.6-8.39-3.6-12.68-.08-.33-.56-.19-.5.14.91,4.6,2.06,9.17,3.54,13.62.67,2.02,1.45,4.09,2.28,5.98s1.77,3.32,3.35,4.57c.39.31.84-.3.5-.64Z"/>
  <path class="cls-18" d="M744.59,188.46c-1.48-3.38-2.56-6.82-3.23-10.45-.07-.37-.59-.21-.53.15.59,3.71,1.63,7.2,3.27,10.59.17.35.65.06.49-.28Z"/>
  <path class="cls-18" d="M727.18,192.16c-3.16.63-6.25,1.33-9.47,1.79-3.22.46-6.53.45-9.78.49-.43,0-.59.7-.11.76,3.26.39,6.32.13,9.59-.37,3.28-.5,6.67-1.33,9.91-2.16.34-.09.21-.58-.14-.51Z"/>
  <path class="cls-18" d="M705.17,81.56c-3.55.58-7.57,1.91-11.24.63-1.51-1.64-2.98-3.67-.06-4.37.77-.18,1.23-.21,1.97-.45.74-.25,1.52-.49,2.22-1,3.31-2.42,4.5-5.6,3.67-9.62-.1-.46-.83-.38-.79.1.21,2.69-.37,5.47-2.23,7.31s-4.01,1.64-6.08,2.58c-1.4.64-3.1,1.74-2.55,3.48,1.92,6.07,10.77,3.53,15.35,2.42.99-.24.58-1.22-.27-1.08Z"/>
  <path class="cls-18" d="M699.26,71.11c0-.12,0,.06,0-.11s-.19-.66-.32-.77c-.12-.12,0,0-.09-.11-.08-.11-.39-.2-.49-.18s-.06,0-.09-.01c-.39-.05-.67.26-.84.48s-.23.34-.32.54c-.26.6.13,1.19.39,1.56.26.37.47.4.71.37s.28-.15.36-.19c.09-.04.04-.01.05-.02.46-.27.58-.65.6-1.14,0-.16.02-.3.02-.43Z"/>
  <path class="cls-18" d="M707.43,72.22c.08-.17.12-.57.09-.79-.04-.22-.15-.43-.26-.52-.11-.09-.07-.07-.13-.12s-.06-.05-.1-.08,0,0-.05-.04c-.06-.04.04.04-.11-.06-.15-.11-.47-.28-.79-.13s-.58.11-.82.57c-.24.46-.43,1.33.06,1.81.06.06.12,0,.15.07.18.64.89.74,1.38.36.16-.13.23-.34.34-.47.11-.13.16-.19.2-.32.04-.14-.03-.1.05-.27Z"/>
  <path class="cls-18" d="M712.7,66.12c-2.33-2.12-5.35-2.84-8.04-.95-.68.47-.03,1.51.7,1.29,1.12-.34,2.1-.85,3.34-.82,1.23.03,2.41.52,3.45,1.19.45.29.97-.33.55-.72Z"/>
  <path class="cls-18" d="M724.62,163.14c.29-.39-.15-.86-.51-.52-1.05,1-1.69,2.24-1.91,3.7-.22,1.46-.03,2.92.8,4.12.25.36.79.07.67-.4-.12-.47-.42-1.17-.49-1.75-.07-.58-.11-1.22-.02-1.84.18-1.24.72-2.32,1.46-3.31Z"/>
  <path class="cls-18" d="M793.91,341.82c-.12-.83-.34-1.92-.5-2.86-.3-1.82-.7-3.72-.99-5.57-.03-.16.01-.34-.13-.51-1.79-2.16-3.46-4.42-5.02-6.76-.03-.05,0-.12,0-.18-.2-1.21.27-2.43.26-3.62,0-1.2-.53-2.16-1.03-3.19-1.03-2.13-1.77-4.36-2.61-6.56-.83-2.19-1.62-4.19-2.89-6.2-1.28-2.01-2.99-3.76-4.48-5.67-3.15-4.03-5.59-8.54-8.04-13.04-1.26-2.33-2.52-4.65-3.45-7.13-.94-2.48-1.4-4.9-1.87-7.54-.7-3.96-1.48-7.79-3.97-11.09.09-.13.16-.23.16-.39.03-3.5-.69-6.9-1.52-10.27-.83-3.37-1.82-6.62-2.77-9.94-2-6.97-3.95-13.94-6.29-20.8-.11-.32-.57-.21-.5.13,1.62,6.98,3.65,13.89,5.54,20.79.91,3.31,1.8,6.66,2.54,9.99.37,1.65.69,3.44.96,5s.38,2.78.61,4.28c-.39-.29-.81-.64-1.22-.84-.41-.2-.83.27-.49.61,3.51,3.5,4.67,7.81,5.5,12.51.47,2.66.93,5.16,1.76,7.57.83,2.41,1.8,4.5,2.94,6.67,2.28,4.38,4.71,8.63,7.63,12.57,1.51,2.03,3.35,3.65,4.83,5.67,1.48,2.02,2.44,4.23,3.32,6.55.89,2.32,1.57,4.71,2.64,6.96.56,1.18,1.37,2.28,1.37,3.62s-.43,2.47,0,3.76c.1.3.37.33.63.26,1.12,2.23,2.39,4.32,3.89,6.32-.91,1.44-1.46,3.06-2.29,4.53s-1.75,2.84-2.76,4.21c-.52.71-1.03,1.41-1.67,2.05-.65.63-1.47,1.07-2.31,1.42-1.66.68-3.38,1.31-5.09,1.8-1.71.49-3.48.87-5.18,1.16s-3.26.53-4.96.53c-.44,0-.82-.07-1.24-.19-.04-.01,0,0-.08-.11s-.31-.03-.46-.1c-.81-.39-1.46-.9-1.63-1.91-.25-1.45.22-2.88.81-4.27,1.21-2.86,2.72-5.58.96-8.5-.28-.47-1,.05-.76.56,1.5,3.26-.76,6.22-1.72,9.28-.45,1.43-.48,2.66.03,3.99.38.99,1.2,1.42,2.07,1.87.07,1.33.14,2.36-.34,3.69-.49,1.33-1.33,2.67-2.23,3.87-1.35,1.8-2.84,3.56-3.88,5.58-.38,0-.66.2-.74.56-.08.36.02.62.16.93-.23,1.1-.57,2.26-.08,3.34.49,1.08,1.62,1.65,2.71,2.01,2.34.78,4.54,1.16,7.02.67,5.46-1.09,9.61-4.14,13.13-8.36,1.81-2.17,3.21-4.64,4.49-7.01,1.29-2.37,2.05-4.77,3.58-6.9.84-1.17,1.97-1.67,3.23-1.97,1.26-.29,2.14-.47,2.56-1.74.23-.72-.02-1.27-.14-2.1ZM792,344.32c-.47.17-1.03.15-1.54.29-.95.27-1.83.69-2.54,1.41-1.54,1.55-2.27,3.51-3.16,5.44-1.15,2.48-2.21,4.81-3.76,7.09-3.06,4.49-6.72,8.01-11.92,9.81-2.42.84-4.63.8-7.14.35-1.18-.21-2.69-.68-3.48-1.7-.54-.7-.31-1.62-.16-2.41.31.11.63.24.96.28,1.56.2,3.1.45,4.69.37,3.19-.15,5.95-.93,8.45-2.98s4.4-4.49,6.23-7.17c1.63-2.38,2.53-5.12.9-7.72-.23-.36-.65.04-.54.4.82,2.79.12,4.99-1.63,7.31-1.54,2.04-2.88,3.89-4.93,5.65s-3.73,2.83-6.98,3.25c-.99.13-5.32.31-6.64-.57-.05-.11.05-.22.1-.33,1.49-2.75,3.73-4.74,5.41-7.41,1.14-1.81,1.93-3.92,1.53-6.11,1.43.14,2.86.07,4.28-.15,1.91-.3,3.89-.7,5.71-1.25,1.82-.55,3.67-1.21,5.35-1.87,1.68-.66,2.93-1.26,4.12-2.58,1.43-1.59,2.55-3.31,3.7-5.16.92-1.48,1.87-3.11,2.44-4.79.07.05.14.09.23.11.39,2.93.8,5.85,1.16,8.78.1.8.02,1.34-.81,1.64Z"/>
  <path class="cls-18" d="M712.25,351.63c-2.42-1.78-4.86-3.54-7.25-5.4-1.17-.91-2.32-1.8-3.52-2.74s-2.39-2.03-3.65-2.93c-.32-.23-.74.23-.46.51,1.09,1.1,2.38,2.11,3.56,3.06,1.18.95,2.3,1.84,3.49,2.71,2.46,1.83,4.94,3.6,7.47,5.31.34.23.68-.3.35-.54Z"/>
  <path class="cls-18" d="M720.77,337.34c-1.12.22-2.23.37-3.37.35-.55,0-1.11-.03-1.65-.1-.54-.07-1.17-.31-1.68-.21-.51.1-.43.66-.16.9.27.24.54.22.88.29s.51.09.96.13c.45.04,1.13.09,1.69.04,1.15-.1,2.37-.35,3.47-.77.39-.15.27-.71-.15-.63Z"/>
  <path class="cls-18" d="M718.24,334.62c-1.22.33-2.46.52-3.72.39-1.26-.14-2.41-.57-3.57-.98-.41-.15-.61.44-.27.65,2.44,1.55,5.04,1.57,7.73.67.48-.16.31-.85-.16-.72Z"/>
  <path class="cls-18" d="M712.44,327.28c-2.6-.41-5.02-1.04-7.39-2.26-1.13-.58-2.16-1.3-3.2-2.09-1.03-.79-1.99-1.83-3.07-2.59-.46-.32-1.03.26-.74.73.74,1.2,1.76,2.13,2.9,2.96s2.37,1.63,3.66,2.19c2.55,1.1,5.08,1.59,7.83,1.61.37,0,.36-.5.01-.55Z"/>
  <path class="cls-18" d="M706.08,309.39c-1.36-1.02-2.27-2.33-3.11-3.83s-1.68-3.03-2.39-4.62c-1.48-3.29-2.62-6.68-3.53-10.16-.1-.37-.63-.24-.55.14.81,3.77,1.83,7.21,3.41,10.82,1.35,3.09,2.84,6.37,5.75,8.35.47.32.87-.36.42-.7Z"/>
  <path class="cls-18" d="M712.68,240.22c-1.23,2.1-2.62,4.01-4.33,5.74-.85.86-1.76,1.61-2.72,2.33-.97.72-2.03,1.33-2.98,2.05-.3.23-.16.84.28.67,2.36-.94,4.27-2.47,6.03-4.3,1.76-1.83,3.12-3.91,4.23-6.18.17-.34-.31-.66-.51-.31Z"/>
  <path class="cls-18" d="M708.96,230.92c-1.15,2.57-2.23,5.21-3.67,7.63-1.44,2.42-3.29,4.32-5.37,6.18-.38.34.1.94.53.68,2.52-1.52,4.25-3.64,5.7-6.21,1.45-2.57,2.44-5.34,3.38-8.12.13-.38-.42-.51-.57-.16Z"/>
  <path class="cls-18" d="M724.3,218.49c-2.03-.65-3.73-1.58-5.27-3.13-1.55-1.55-2.76-3.48-3.94-5.33-.24-.37-.74-.07-.56.32,1.02,2.18,2.2,4.21,3.88,5.96.77.81,1.65,1.49,2.62,2.05.97.56,2.06.89,3.17,1.02.53.06.65-.73.12-.9Z"/>
  <path class="cls-18" d="M697.36,209.71c-1.45-.21-2.89-.56-4.24-1.12-.66-.27-1.32-.64-1.91-.98-.59-.33-1.35-.97-1.85-1.2-.49-.23-.82.15-.46.59.37.43,1.2.95,1.82,1.3.63.35,1.39.73,2.12.99,1.45.52,2.97.87,4.52.97.37.02.35-.5,0-.55Z"/>
  <path class="cls-18" d="M695.43,205.78c-1.05-.49-2.08-1.08-3-1.81-.92-.73-1.76-1.53-2.56-2.39-.24-.26-.69.06-.48.36.73,1.01,1.57,1.94,2.59,2.67,1.02.73,2.13,1.29,3.3,1.71.37.13.48-.39.15-.55Z"/>
  <path class="cls-18" d="M777.16,314.69c-4.36-1.13-8.48-2.57-12.39-4.83-1.94-1.12-3.68-2.44-5.4-3.86-.85-.7-1.6-1.44-2.38-2.23-.78-.79-1.5-1.76-2.33-2.52-.4-.36-1.1.07-.77.58,1.26,1.95,2.95,3.6,4.7,5.12s3.49,2.85,5.52,3.99c4.07,2.28,8.3,3.78,12.93,4.44.42.06.52-.6.12-.7Z"/>
  <path class="cls-18" d="M763.87,301.31c-3.63-1.53-7.06-3.41-10.39-5.53-.38-.24-.72.33-.35.59,3.32,2.25,6.84,4.03,10.58,5.47.34.13.49-.39.16-.53Z"/>
  <path class="cls-18" d="M781.69,324.11c-2.85,3.07-6.17,4.77-10.17,5.85-.42.11-.29.68.12.6,4.24-.85,7.61-2.82,10.45-6.1.22-.26-.17-.59-.4-.34Z"/>
  <path class="cls-18" d="M781.59,339.79c-2.29,1.6-4.75,2.59-7.5,2.98-.38.05-.45.62-.05.58,2.96-.32,5.51-1.41,7.89-3.19.29-.21-.05-.58-.35-.37Z"/>
  <path class="cls-18" d="M688.92,171.37c.01-.05-.21.1-.19.04.09-.24.3-.66.4-.9.09-.24.04-.31-.09-.49,1.05-2.31,1.05-4.85.67-7.27-.49-3.16-1.47-6-2.04-9.06-1.25-6.7-1.74-13.31-1.4-20.1.19-3.87.86-7.61,1.38-11.42.06-.48-.59-.69-.72-.2-1.63,6.33-2.19,13-2,19.41.05,1.69.53,3.91.36,4.93-.13.77-.02.13-.03.16-.03.18-.02.07-.02.09.07.24.12.43.14.67-1.97,2.89-3.51,5.96-4.85,9.18-.74,1.79-1.43,3.55-2.32,5.27-.42.81-.84,1.56-1.33,2.37-.49.81-1.18,1.68-1.58,2.56-.2.42.28.86.66.5,1.36-1.29,2.21-2.92,3.1-4.59s1.78-3.4,2.59-5.13c1.3-2.78,2.45-5.64,3.73-8.42,0,0,0,.07,0,.05,0-.02.02-.09.04-.14s.06-.13.09-.19c.12.78.23,1.55.37,2.33.58,3.13,1.41,6.18,2.17,9.28.41,1.67.77,3.35.82,5.08.06,1.73-.41,3.32-.98,4.93-.03.1-.05.19,0,.26.05.07.03,0,.13.07.1.07.35.28.41.41.06.13.07.19.13.29s.02.39.03.45c.01.06.18-.05.22-.05.03,0,.09.04.09-.01,0-.05.01-.32.02-.37Z"/>
  <path class="cls-18" d="M738.92,117.22c-1.17.85-2,2.01-2.9,3.14s-1.85,2.24-2.67,3.47c-1.62,2.42-3.01,4.89-3.83,7.72-.92,3.2-.98,6.33-1.18,9.7-.2,3.37-.62,6.89-1.26,10.26-.35,1.84-.74,3.72-1.15,5.56-.26,1.19-.56,2.42-.82,3.58-.01.06-.12,0-.19.01-7.28,1.87-14.5,4-21.7,6.18-3.78,1.15-7.57,2.34-11.34,3.56.1.09.18.18.26.29.08.11.13.33.14.43s0,.05.01.12c3.71-1.22,7.42-2.45,11.15-3.59,7.14-2.19,14.35-4.11,21.54-6.13-.04.33-.11.74-.11,1.06,0,.31.21.39.46.44.08.54.17,1.04.35,1.57s.44,1.09.72,1.58c.29.49.68,1.09,1.11,1.38s.8-.16.6-.58c-.19-.43-.63-.81-.87-1.29-.25-.48-.53-.83-.68-1.46-.15-.63-.62-1.59-.47-2.35.23-1.14.69-2.34.96-3.52.38-1.66.86-3.29,1.19-4.98.63-3.2,1.15-6.31,1.44-9.6.29-3.29.17-6.72.84-10.01.6-2.91,1.89-5.52,3.36-8.09.8-1.4,1.73-2.71,2.69-4.03s2.15-2.51,2.84-4c.14-.3-.26-.59-.52-.4Z"/>
  <path class="cls-18" d="M758.75,125.01c-.05-.12-.02-.02,0-.24.01-.22.02-.64.07-.97.3-2,.31-3.97.05-6.01-.33-2.55-.81-5.05-1.55-7.54-.58-1.95-1.51-3.66-2.68-5.32-.57-.8-1.08-1.59-1.86-2.18-.26-.19-.57-.33-.73-.51-.16-.18-.16-.29-.38-.36-5.3-1.72-11.06-2.24-16.11-4.64-6.05-2.88-8.09-7.62-9.21-13.92-.08-.45-.78-.65-.83-.13-.6,6.63,2.02,10.57,7.49,14.12-1.85,4.83-4.5,8.72-9.58,10.55-5.99,2.16-11.9,1.29-17.65-1.13-1.54-.64-2.67-1.64-3.76-2.82-.84-.91-1.19-2.06-1.66-3.16,2.1.06,3.49.09,5.65-.51,8.44-2.32,20.05-6.45,18.33-17.08.3.05.44.16.73-.07,4.21-3.23,7.73-7.55,6.49-13.1-.03-.15-.25-.29-.15-.36s.39-.06.53-.31c1.1-1.94,2.34-3.79,3.63-5.64.98-1.42,2.28-2.61,2.42-4.46.18-2.42-1.23-4.12-3.13-5.47.12-.19.22-.33.13-.57-2.49-6.42-9.5-5.86-14.59-8.84-3.62-2.11-4.82-6.08-8.42-8-2.61-1.38-5.46-1.94-8.43-1.4-5.42,1-10.02,3.77-11.26,9.53-.98,4.55,1.51,9.03,6.1,10.17-3.04,2.14-4.75,4.58-5.13,8.34-.02.23.22.35.29.42.07.07-.25,0-.25.08,0,.3.04.78.07,1.06.03.28.09.11.2.37s.36.59.78.5c.96-.22,1.82-.58,2.82-.72,1-.13,2.09-.02,3.08.14.6.1,1.09-.67.43-1.03-1.88-1.04-3.96-1.18-5.95-.3-.04-.06.22-.41.14-.41-.16-.02-.66.24-.83.22-.04,0,.08-.12.12-.21,3.02-7.83,9.99-10.29,17.85-8.79,5.32,1.01,7.7,3.84,7.73,9.19.02,2.78-1.19,5.48-1.56,8.55-.22,1.77-1.23,6.44,1.98,6.44.81,0,1.35-.7,1.71-1.39.36-.69.08-1.47.2-2.24.21-1.3.53-2.58,1.2-3.73.03,0,0,.19.04.16.2-.21.53-.45.78-.63.25-.17.7-.25.9-.29.19-.04.22.03.3-.03.56-.46,1.04-.9,1.73-1.12.09-.03.15-.02.24-.01.1,0,.16-.08.27-.07.7.06,1.23.15,1.75.77,1.37,1.63.68,4.01-.19,5.67-1.34,2.55-3.06,4.25-5.01,6.18-.12.12-.13.37-.21.34-.13-.06-.14-.33-.35-.57-.21-.24-.7-.11-.67.31.34,4.53.1,7.8-3.68,10.78-2.48,1.96-5.62,3.3-8.64,4.3-2.43.81-4.92,1.78-7.46,2.04-3.94.41-6.6-2.48-5.01-6.26.66-1.57,2.26-2.48,3.46-3.58.06-.06.11-.1.15-.17,3.53.81,6.37.1,8.71-2.73.37-.45-.27-.84-.71-.56-4.65,3.04-8.84,3.16-12.52-1.29-.33-.4-.93-.07-.68.39.87,1.59,2.15,2.67,3.7,3.59-2.92,2.45-5.07,5.19-4.01,9.09.42,1.55,1.47,2.14,2.71,2.88.02.17.01.37.03.55-2.31,1-4.63,1.88-7.11,2.39-2.06.43-4.05.56-5.86,1.73-.12.08-.16.21-.25.28-.53.42-.98.83-1.3,1.44-.12.23-.07.5.16.64.23.14.53.03.64-.15s.23-.39.31-.5c.08-.11.06-.09.1-.14s-.01-.02.05-.06c.06-.04.1-.19.19-.21.09-.02-.08-.13.13-.07.21.06.48.13.84-.11,2.21-1.5,4.99-1.65,7.53-2.37.37-.11.67-.24,1.02-.35.02,1.24.5,2.48,1.23,3.44.96,1.28,1.97,2.33,3.32,3.15,2.94,1.78,5.97,3,9.41,3.58,7.13,1.19,13.72.63,19.66-3.73,3.57-2.62,5.45-6.33,7.66-9.99.22-.36-.28-.63-.53-.31-2.11,2.69-3.91,5.74-6.46,8.05s-5.15,3.9-8.6,4.65c-6.52,1.41-12.76.43-18.8-2.35-1.56-.72-2.74-1.72-3.91-2.88-.58-.58-1-1.34-1.32-2.03-.33-.69-.4-1.29-.68-1.97.91-.37,1.8-.79,2.67-1.21.76,2.08,2.04,3.91,3.91,5.12,2.95,1.91,6.02,3.03,9.52,3.41,6.64.73,12.31-.71,17.28-5.26,2.21-2.03,3.19-4.61,3.89-7.44,4.76,2.29,9.73,3.63,14.92,4.66,1.14.56,2.35,1.13,3.35,1.9.42.32.84.79,1.14,1.1.29.3.44.44.63.71,1.16,1.7,1.87,3.25,2.45,5.27.58,2.02,1.01,4.35,1.36,6.49.16,1,.26,2.06.3,3.05.01.29,0,.67,0,.86s0,.18,0,.27.01.13-.01.18c-1.31,3.55-3.47,5.97-6.63,7.99-.38.25-.06.75.33.56,2.58-1.27,4.36-3.13,5.81-5.62-.13.28.13.37.17.59.04.22-.02.57-.12.83-.4,1.11-.76,2.29-1.13,3.42-.36,1.13-.78,2.23-1.16,3.35-1.57,1.51-3.29,2.82-5.07,4.07-.37.26-.06.83.34.59,1.57-.94,2.95-2.12,4.28-3.38-.06.15-.1.31-.16.46-1.27,3.44-2.57,6.84-4,10.23-2.85,6.75-5.85,13.38-9.04,20.01-1.64,3.41-3.43,6.69-6,9.5-.12.13-.16.24-.19.41-5.57.91-11.18,1.27-16.81,1.66-3.42-.22-6.78-.77-10.14-1.4-.39-.07-.56.46-.16.58,1.95.6,3.96.95,5.99,1.21-1.92.19-3.85.43-5.77.65-.05,0-.08-.04-.14-.05-3.48-.22-6.9-.77-10.3-1.46-.39-.08-.54.46-.16.56,2.61.69,5.27,1.06,7.97,1.3-3.24.48-6.45,1.05-9.66,1.71-.53.11-1.06.23-1.58.34,0,.34-.09.79-.17,1.09-.09.3-.16.44-.26.7.4-.09.8-.19,1.2-.28,3.33-.7,6.66-1.37,10.02-1.86,6.73-.99,13.46-1.52,20.23-2.1,3.47-.3,6.8-.86,10.12-1.92.32.14.6.21.87-.1,2.22-2.63,3.83-5.29,5.38-8.45s3.17-6.63,4.71-9.86c.11-.24.23-.49.34-.73-1.06,5.09-1.67,9.77-1.62,15.07.06,5.3.67,10.77,2.63,15.83.82,2.1,2.17,3.78,3.71,5.37-.45.11-.91.24-1.37.34-.04,0-.05-.01-.12-.02s-.21-.01-.32.02c-.11.03-.25.1-.33.21-7.44,1.75-14.81,3.46-22.42,4.32-8.97,1.02-17.88,1.08-26.89.46-4.66-.32-9.27-1.01-13.84-1.92.29-.82.26-1.81.33-2.61.1-1.17.22-2.22.32-3.34.18-2.08.34-4.13.48-6.21,0-.06-.06-.09-.05-.16,0-.07,0-.26-.03-.3-.04-.04,0,0,0,0-.01-.01,0,0,0,0,0,0,0-.01,0-.01-.23.06-.46.12-.69.16-.29,2.13-.6,4.27-.86,6.4-.13,1.07-.25,2.15-.37,3.2-.06.49-.11,1.03-.17,1.47-.06.44-.08.76-.09,1.16,0,.04-.06-.01-.09-.02-.67-.07-.9.68-.45.99.45.3.7.31,1.12.52-.42,2.43-.44,4.64-.53,7.16-.09,2.52-.15,5.25-.2,7.85-.1,5.17-.37,10.47-.05,15.63.32,5.16,1.32,10.14,2.03,15.22.36,2.57.62,5.18.61,7.75s-.38,4.99-.36,7.55c.02,2.56.57,5.01,1.47,7.39.9,2.39,1.75,4.7,2.38,7.17.07.26.32.39.56.42-1.96,5.3-3.34,10.51-3.42,16.2-.09,6.13,1.19,11.73,3.25,17.49.86,2.41,1.99,4.8,3.08,7.12-.5,1.72-.9,3.58-1.2,5.32-.3,1.74-.63,3.66-.67,5.31s.44,2.81,1.02,4.2c.32.76.79,1.56.98,2.24.2.68.3,1.15.24,1.72-.01.15-.26.11-.3.29-.55,2.45-2.11,4.5-2.15,7.04-.02.96.49,1.78.85,2.63.01.03-.02.06-.03.1-.19,1.22-1.4,2.13-1.89,3.12-.49.99-.5,1.8-.02,2.72.88,1.69,2.51,2.46,4.14,3.29-3.73,2.74-7.62,4.61-12.19,5.39-2.26.39-4.49.28-6.69.03-1.11-.12-2.34-.44-3.28-.72-.93-.28-2.63-.92-3.14-1.02-.51-.1-.14-.02-.13-.02.84-.6,1.97-.82,3.03-.91,3.14-.26,6.25-.35,9.31-1.06s6-1.79,8.87-3.06c.59-.26.14-1.03-.45-.81-3.04,1.15-6.18,2.14-9.38,2.74-1.61.31-3.3.5-4.88.66-1.58.16-2.87.02-4.43.3-2.37.42-4.38,1.67-4.63,4.26,0,.03-.06.03-.08.06-.31.41-.21.94-.13,1.39.08.45.25.95.39,1.3.14.36.35.7.47.93.12.23-.17.37-.07.49.25.3.67.44.98.69.05.04.07.07.12.13.05.06.17.07.24.11.41.21.82.49,1.23.69,1.69.85,3.4,1.63,5.21,2.14,3.68,1.05,7.43,1.57,11.22,1.73,4.74.19,9.46,0,14.16.24,2.34.12,4.64.44,6.89.86,2.25.42,3.99,1.13,6.35,1.16,3.59.05,6.99-1.4,8.12-5.09.6-.61.92-1.27,1.06-2.1.28-1.57.43-3.18.61-4.76.49-.09.89-.07,1.41-.2s.54-.83-.01-1.01c.17-4.46.28-8.32.56-12.92.19-3.13.27-7.4-3.54-8.53-.44-.13-.69.41-.32.73,2.88,2.54,2.74,6,2.68,9.49-.07,3.94-.24,7.46-.4,11.32-.16-.02-.36.07-.52.04-.16-.03-.26.03-.4.04-6.92.46-13.3-.6-19.87-2.69-1.73-.55-3.37-1.21-4.99-1.91-1.62-.7-3.3-1.41-4.72-2.35s-2.3-1.97-1.64-3.61c.34-.84,1.08-1.44,1.39-2.29.72,1.29,1.31,2.64,2.28,3.75.34.39,1.04.05.89-.44-.39-1.3-1.25-2.54-1.9-3.69-.65-1.15-1.41-2.31-1.45-3.56-.04-1.25.48-2.21.87-3.24.38-1.03.58-1.89.78-2.9.02-.09.18-.05.22-.16.48-1.29.16-2.38-.31-3.61-.64-1.64-1.5-2.87-1.57-4.75-.06-1.88.44-4.02.72-5.95.2-1.39.48-2.82.68-4.21.28.46.46.87.8,1.33s1.24.25,1.01-.41c-1.24-3.61-3.2-6.98-4.41-10.58s-2.22-7.1-2.62-10.89c-.8-7.51.23-14.44,2.64-21.58.09-.26-.12-.44-.36-.48.08-2.08-.59-3.85-1.34-5.75-.89-2.24-1.78-4.25-1.98-6.71-.2-2.46.2-4.97.32-7.49.12-2.51.05-5.08-.21-7.62-.52-5.12-1.49-10.15-1.92-15.3s-.47-10.45-.43-15.63c.02-2.86.09-5.81.11-8.6.02-2.79.11-5.29-.23-8.01,1.51.47,3,.8,4.56,1.03,2.25.32,4.5.65,6.77.84,4.51.39,9.01.69,13.55.63,9.15-.11,18.14-1.07,27.12-2.8,3.81-.73,7.42-1.84,11.1-2.99.1.07.29.16.39.2.1.04.11.04.2.07-.01,4.17.12,8.34-.03,12.52-.08,2.18-.23,4.36-.39,6.54-.08,1.12-.2,2.23-.31,3.36-.11,1.14-.42,2.38-.31,3.52.07.66.87.83,1.11.17.36-.99.35-2.02.47-3.13.12-1.11.24-2.35.34-3.53.18-2.29.32-4.59.37-6.92.1-4.12.1-8.26-.27-12.38.24,0,.4-.02.65-.08.25-.06.5-.25.74-.38s.24-.43.45-.55c.29-.17.55-.37.46-.79,0-.02.03,0,.05-.02.35-.24.28-.7-.18-.67-.12,0-.24.09-.37.08-.01,0,.04.08-.02-.04-.06-.11-.33-.25-.49-.43-4.11-4.57-5.21-10.28-5.7-16.18-.32-3.87-.34-7.15-.08-10.94.26-3.78,1.04-7.57,1.75-11.31.02-.11,0-.18-.04-.27,2.47-5.39,4.84-10.82,6.99-16.35.67-1.72,1.28-3.45,1.88-5.19,0-.02.02-.03.03-.05.39-.77.58-1.59.84-2.41.43-1.39.85-2.71.79-4.17,0-.16-.11-.2-.16-.32ZM719.45,56.56c-4.43-4.26-10.55-4.53-16.31-3.67-1.6.24-2.5.74-3.91,1.31.01-.11-.08-.21-.19-.29-4.53-3.28-6.51-8.12-2.52-12.85,3.73-4.42,9.97-5.77,15.14-3.12,3.8,1.95,5.29,6.24,9.22,8.08,4.65,2.18,9.97,2.14,12.76,7.13-5.63-1.86-10.33-.6-13.49,4.55-.26-.4-.33-.78-.7-1.14ZM725.25,67.87c-.17.07-.27.21-.4.26-.13.05-.21.14-.28.17-.07.04.04-.07-.03-.03-.08.04-.38.13-.47.14-.08.02-.02,0-.07.03-.05.02-.14-.02-.18.03-.26.3-.6.56-.9.8-.09.07.12.26.04.35-.33.35-.71.69-.98,1.12-.04.07-.12.09-.13.23,0,.13-.07.58-.14.69-.07.11,0,.01-.05.09-.04.08-.04.1-.08.22-.04.12-.11.37-.15.53-.04.15-.1.44-.12.56s-.01.07-.02.14c-.01.07-.02.13-.03.19-.1.73-.09,1.57-.14,2.28s-.51,1.13-1.19,1.17-1.11-.56-1.17-1.17c-.02-.24,0-.57-.01-.72-.02-.15.01-.05,0-.12-.01-.07.01.03-.02-.07s0-.14-.08-.33c-.07-.19.03-.5.06-.76.2-1.68.8-3.57,1.17-5.14s.63-2.94.83-4.43c.2-1.48.2-2.76.07-4.21.35-.13.43-.24.61-.59,2.87-5.54,8.88-7.6,13.85-3.34,1.04.7,1.27,1.51.96,2.71.32,1.39-.06,2.29-1.03,3.28-.43.45-.77.97-1.14,1.47-1.23,1.66-2.24,3.43-3.17,5.26-.03.07-.04.13-.05.2-1.64-1.45-3.52-1.81-5.55-1.01ZM718.88,368.34c-1.87.92-3.72.96-5.74.66-2.02-.3-3.96-.95-5.98-1.26-2.01-.31-3.95-.54-6.01-.61-7.98-.27-15.92.16-23.78-1.54-2-.43-3.92-1.22-5.74-2.1-.96-.46-1.82-1.09-2.63-1.71-.28-.22-.36-.73-.48-.93-.12-.2-.03-.15-.1-.29,1.26,1.3,3.14,2.32,4.71,2.98,6.04,2.54,11.66,3.35,18.09,2.81,3.35-.28,6.37-1.03,9.73-1.4,3.35-.37,6.81-.42,10.22-.12,1.94.17,3.82.45,5.78.73,1.45.2,2.96.53,4.45.25-.6,1.09-1.4,1.98-2.53,2.54ZM697.49,353.44c5.78,2.43,11.64,4.12,17.86,4.9,2.66.33,5.32.24,7.99.09-.2,1.14-.39,2.26-.59,3.42-.11.66-.18,1.38-.51,1.99-.01.02.05.06-.07.05-.12-.01-.42.28-.4.4.02.12,0,.03,0,.03-.4.47-1.03.3-1.56.26-2.93-.23-5.84-.81-8.75-1.08-2.92-.27-5.76-.3-8.67-.04-2.91.26-5.72.82-8.65,1.16-5.79.67-11.26.57-16.92-1.02-1.35-.38-2.62-.92-3.88-1.5-1.26-.58-2.51-1.14-3.52-2.08-1.02-.93-1.16-2.02-.44-3.16.02-.03.07-.13.08-.07s.01.3.15.41c.96.73,2.1,1.15,3.26,1.47,1.15.32,2.24.6,3.42.72,2.44.24,4.74.33,7.2-.13,4.92-.91,8.97-3.04,12.71-6.37.42.17.89.38,1.3.55Z"/>
  <path class="cls-18" d="M687.04,105.43c-.11-.14-.23-.18-.45-.09s-.54.25-.79.37-.58.37-.82.55c-.23.17-.56.49-.68.66-.12.17-.06.09-.13.2-.07.11-.12.27-.13.38,0,.07,0-.02,0,.03,0,.05-.01.03-.03.12-.02.09-.04.25.04.38.07.13.26.18.39.16.13-.02.22-.12.28-.17s.05-.05.07-.07c.02-.02,0,0,0,0,.03-.02.02,0,.05-.03.03-.02.08-.06.12-.09s.02-.03.08-.09c.05-.06.03-.03.14-.15.12-.12.39-.43.56-.6.18-.17.44-.38.62-.55s.47-.4.63-.55.15-.31.04-.45Z"/>
  <path class="cls-18" d="M686.56,105.16c-.17.04-.14.04-.26.08-.12.04-.1.03-.25.07-.14.04-.41.23-.54.34-.13.11-.29.24-.38.33-.09.09-.12.12-.18.19s-.1.11-.14.17c-.04.06-.02.07-.05.14s-.06.12-.11.23c-.06.11-.14.36-.07.48.07.13.14.14.25.15.11,0,.21-.07.27-.13.06-.06.06-.07.1-.12.05-.05.13-.14.18-.18s.02,0,.06-.03.04-.03.08-.08.01-.02,0,0c0,.01,0,0,.03-.04.03-.04.09-.11.16-.19.06-.08.25-.28.33-.35.08-.07.11-.11.18-.16.06-.05.16-.13.2-.18.04-.05.08-.1.09-.11,0-.01-.01.02.02-.02.03-.03,0,.01.05-.05.06-.06.08-.06.2-.18s-.04-.41-.21-.37Z"/>
  <path class="cls-18" d="M758.79,117.61c-.08-.24-.44-.29-.5,0-.38,1.92-.41,3.88-.58,5.83-.09.97-.24,1.89-.38,2.87s-.36,2.03-.3,3.02c.03.45.59.65.84.23,1.06-1.81,1.29-3.81,1.46-5.89s.1-4.07-.54-6.07Z"/>
  <path class="cls-18" d="M689.95,182.26c-.79,0-1.59.2-2.34.42-.36.11-.81.24-1.11.31-.3.07-.4.07-.63.11-.23.05-.38.02-.61.13-.23.11-.34.46.02.58.37.12.84.02,1.23-.09.39-.11.77-.24,1.15-.38.76-.29,1.52-.57,2.33-.73.21-.04.15-.34-.05-.34Z"/>
  <g>
    <path class="cls-18" d="M687.02,172.42c-.89-.14-1.78.02-2.67.14-.89.12-1.75.25-2.63.39s-1.69.27-2.61.42c-.38.06-.95.13-1.35.25-1.82-.86-3.72-1.63-5.54-2.44-.79-.35-1.38-.68-1.95-1.32,0,.11.01.09,0,.23,0,.14-.07.41-.17.55.56.52,1.21.81,1.9,1.11,1.71.76,3.42,1.52,5.16,2.19-.08.1-.15.17-.18.3-.03.13,0,.27.1.36s.28.14.38.18c.1.04.17.04.24.03.07-.02,0,0,.06-.02.07-.01.17-.02.27-.04.4-.08.82-.18,1.24-.25.88-.15,1.79-.27,2.68-.41.88-.14,1.74-.29,2.62-.44s1.74-.27,2.53-.68c.24-.12.21-.52-.08-.57Z"/>
    <path class="cls-18" d="M670.47,175.47c-.27.6-.7,1.12-1.18,1.58-.06.06-.14.14-.21.19-.61.51-1.33,1.04-1.96,1.48-1.24.86-2.41,1.61-3.73,2.31-2.66,1.43-5.2,2.53-8.03,3.84-2.01.92-5,2.08-4.21,4.89.26.91,1.05,1.46,2.11,1.53,1.06.06,2.1-.82,3.13-1.31,1.48-.71,3.15-1.04,4.7-1.71,1.55-.67,2.94-1.79,4.73-1.78.65,0,.61-.9-.01-.94-1.65-.1-2.79.9-4.25,1.61-1.46.7-3.11,1.07-4.66,1.67-.73.28-1.33.61-2.07,1.06-.74.45-1.83,1.05-2.54.09-1.47-1.98,1.4-3.31,2.8-3.98,3.22-1.53,6.15-2.84,9.16-4.51,1.42-.79,2.75-1.68,4-2.62s2.25-1.77,2.63-3.29c.07-.26-.28-.36-.39-.1Z"/>
    <path class="cls-18" d="M668.92,188.94c-2.04.8-3.57,2.15-5.03,3.76-.78.86-1.43,1.76-2.23,2.62-.8.86-1.71,1.63-2.67,2.36-.42.32-.73.64-1.15,1.05-.42.41-1.06.67-1.71.62-1.81-.14-1.52-1.89-.8-3.01s1.6-1.75,2.52-2.61c.92-.86,1.87-1.62,2.86-2.41s2.2-1.6,3.16-2.4c.96-.8,1.68-1.5,2.21-2.58.09-.19-.18-.29-.31-.18-.94.89-1.87,1.83-2.91,2.6-1.04.77-2.02,1.45-3.05,2.27s-2.29,1.88-3.22,2.74c-.93.86-1.85,1.65-2.33,2.69s-.41,2.06.24,2.89c.65.83,1.62.7,2.56.58.48-.06.75-.14,1.2-.54.45-.4,1.04-.98,1.63-1.42.95-.72,1.84-1.5,2.67-2.46,1.95-2.24,3.72-4.58,6.59-5.68.58-.22.32-1.08-.23-.86Z"/>
    <path class="cls-18" d="M671.15,190.78c-.69.66-1.02,1.44-1.45,2.33-.42.9-.88,1.94-1.38,2.85s-1.12,1.8-1.6,2.72c-.24.47-.22,1.03-.46,1.48-.25.44-.6.64-1.1.76-.5.12-1.2.16-1.55-.32s-.12-1.08.13-1.56c.54-1.03,1.08-2.03,1.63-3.03,1.13-2.09,2.3-4.16,3.31-6.3.11-.22-.2-.41-.33-.19-1.16,1.84-2.22,3.75-3.27,5.65-.53.95-1.1,1.89-1.6,2.85-.36.69-.9,1.43-.73,2.23.32,1.53,2.05,1.58,3.24.99.76-.38.86-.81,1.15-1.66s.99-1.72,1.52-2.59c.53-.87,1.01-1.97,1.47-2.92.46-.95.88-1.96,1.51-2.81.26-.35-.15-.8-.49-.48Z"/>
    <path class="cls-18" d="M673.72,192.11c-1.14,1.54-2.12,3.17-2.88,4.95-.35.82-.53,1.74-1.22,2.39-.33.32-.76.5-1.24.4-.48-.1-.8-.47-.81-.97,0-.14-.24-.18-.25-.03-.01.8.4,1.47,1.35,1.49s1.72-.77,2.13-1.63c.25-.52.39-1.01.62-1.54.23-.53.56-1.06.87-1.57.65-1.06,1.36-2.11,2.06-3.15.26-.39-.35-.73-.63-.35Z"/>
    <path class="cls-18" d="M676.56,190.33c-.17.1-.23.17-.37.3-.14.13-.13.14-.33.31-.2.17-.37.34-.7.6-.33.26-.94.69-1.49.68-.15,0-.19.23-.04.27.6.14,1.31-.21,1.72-.48s.53-.38.81-.61c.28-.23.54-.46.72-.72s-.15-.45-.32-.35Z"/>
    <path class="cls-18" d="M687.72,181.11c-.3.04-.94.22-1.3.49-.35.27-.75.76-1.02,1.12-.28.36-.7.8-1.03.98-.33.18-.47.13-.74.13-.27,0-.58-.11-.77,0-.2.12-.2.24-.05.41.15.17.45.23.74.23.29,0,.46.05.83-.09.37-.14.87-.51,1.18-.9.3-.38.69-.91,1.01-1.27.32-.36,1.01-.61,1.31-.77.3-.16.15-.39-.15-.35Z"/>
    <path class="cls-18" d="M682.94,184.03c-1.46.9-2.46,2.28-3.61,3.51-.58.62-1.23,1.12-1.89,1.59s-1.24.92-1.24,1.75c0,.35.42.39.57.09.33-.67.84-1.02,1.47-1.46.63-.44,1.25-.99,1.77-1.59,1.04-1.21,2.02-2.5,3.1-3.68.1-.11-.03-.29-.16-.21Z"/>
  </g>
  <path class="cls-18" d="M691.2,180.18c-.26-1.42-.62-2.92-.98-4.34-.36-1.42-.78-2.76-1.62-3.95,0-.01-.02-.07-.03,0s-.08.29-.13.39c-.06.1-.24.27-.3.32s-.11.03-.1.07c.26.89.61,1.56.92,2.49.31.93.61,2.01.88,3.03.27,1.02.51,2.19.67,3.25.07.45.16,1.05.13,1.43-.03.38-.15.64-.47.66-.32.02-.4-.37-.61-.55s-.58,0-.5.29c.3.96,1.28,1.28,1.99.51.37-.4.37-.84.37-1.45s-.11-1.44-.24-2.14Z"/>
  <path class="cls-18" d="M694.59,175.47c-.22-.89-.55-1.71-.87-2.53-.32-.82-.66-1.54-1.28-2.12-.07-.07-.21-.09-.23-.04s.09.25.1.36c0,.11,0,.37-.02.45-.02.08-.05.06-.04.09.2.49.35.68.58,1.23s.53,1.32.72,2c.41,1.43.7,2.93.83,4.44.01.17.01.31.03.53.02.22.01.55-.02.82-.08.67-.22,1.26-.63,1.83-.04.05,0,.03-.09.17-.08.14-.48.46-.68.51-.21.05-.28.02-.45.04-.52.06-.82.08-1.4.07-.58,0-1.36-.16-1.91-.46-.31-.17-.77.16-.38.54s1.08.65,1.77.68c.69.03,1.58.13,2.29-.13,1.42-.51,2.13-1.69,2.28-3.15.19-1.83-.17-3.58-.6-5.32Z"/>
  <path class="cls-18" d="M689.13,172.59c-.05-.1-.02-.07-.06-.14-.04-.07-.05-.09-.14-.17s-.14-.13-.31-.23c-.17-.09-.5-.19-.75-.21s-.48.03-.75.1c-.27.07-.68.34-.73.58-.05.24-.01.25.07.38.08.14.17.16.34.17.16.01.52-.22.62-.27.1-.05,0,0,.05-.02.04-.02,0,0,.04-.01s.09-.03.13-.04c.04-.01.1-.02.13-.03.03,0,0,0,.03,0,.03,0,.1-.01.12-.02.02,0,.04,0,.05,0,.01,0,0,0,0,0,.05,0,.09,0,.14,0,.04,0,.1,0,.14,0,.04,0,.04,0,.08,0,.04,0-.03,0-.02,0,0,0,.07,0,.09.01.02,0,.04,0,.06,0,0,0,0,0,.01,0,0,0,0,0,0,0,.04,0,.09.01.13.03s.1.02.14.04.19.06.2.01c0-.05-.12-.04-.1,0,.02.03.03.01.12.03.09.02.21-.12.16-.21Z"/>
  <path class="cls-18" d="M687.38,172.46c-.07-.06-.15-.09-.22-.1-.07-.01-.03,0-.09,0-.05,0,.02,0-.05,0-.08,0-.23-.02-.41.04-.18.05-.34.08-.63.18-.29.1-.89.28-1.09.63-.06.1-.02.21.14.22.16.01.41-.02.59-.08.18-.06.41-.12.59-.17.18-.04.44-.09.58-.11.14-.02.28-.05.33-.08.05-.03,0,0,.05-.02.05-.02.02,0,.08-.03.06-.03.13-.07.18-.15s.03-.24-.04-.3Z"/>
  <path class="cls-18" d="M687.16,172.17c-.03-.06-.09-.1-.16-.08-.07.02-.17.06-.23.08-.06.02-.07.02-.13.04s-.09.02-.15.06-.1.12-.06.2.12.11.19.09c.07-.01.1-.04.15-.06.05-.02.06-.03.12-.06.06-.03.16-.08.22-.11.06-.04.08-.1.05-.16Z"/>
  <path class="cls-18" d="M692.72,170.25c-.61,0-1.18.15-1.8.23s-1.17.07-1.82.21c-1.05.21-2.27.66-2.62,1.79-.07.24.07.51.42.39s.87-.52,1.3-.75c.43-.22.94-.37,1.46-.43,1.14-.14,2.32-.18,3.26-.94.21-.17.05-.49-.21-.49Z"/>
  <path class="cls-18" d="M692.68,171.57c-.08-.13-.14-.2-.24-.29-.1-.09-.2-.16-.31-.24-.11-.08-.23-.12-.35-.18s-.31-.11-.42-.08c-.1.03-.11.06-.15.12-.04.06-.02.13,0,.19.03.05.08.1.13.12.04.02.07.03.1.04.03.01.06.02.07.03.01,0,0,0,0,0,0,0,0,0,0,0,.02,0,.01,0,.04.02s.11.05.15.07c.03.02.09.04.11.05.02,0,0,0,0,0,.04.02,0,0,.06.03.06.03.19.1.29.15.09.05.18.11.3.16.12.06.28-.07.2-.2Z"/>
  <path class="cls-18" d="M691.04,181.94c-.09-.14-.22-.18-.41-.1s-.51.22-.71.33c-.2.11-.52.28-.68.37-.16.09-.16.19-.11.3.05.11.12.2.3.14.18-.06.51-.2.74-.29.22-.09.58-.25.76-.36s.2-.25.11-.4Z"/>
  <path class="cls-18" d="M671.08,190.69c-.52.42-.72,1.18-.98,1.87s-.68,1.42-1.14,2.07c-.46.65-.97,1.29-1.44,1.98-.47.68-.81,1.53-1.2,2.27-.39.74-.66,1.57-1.65,1.66-.99.1-.97-.99-.7-1.72.59-1.58,1.41-2.93,2.31-4.32.51-.78,1.02-1.54,1.49-2.33s.92-1.55,1.02-2.48c.03-.33-.43-.53-.65-.27-.59.72-.92,1.56-1.4,2.37-.48.81-1.01,1.6-1.52,2.42-.96,1.56-1.91,3.13-2.32,4.95-.17.77-.04,1.59.65,2.03.69.44,1.39.45,2.16.04.77-.41,1.23-1.21,1.61-2.06.38-.85.8-1.73,1.35-2.54.55-.81,1.2-1.66,1.7-2.53.25-.44.47-.9.65-1.4s.34-1.01.72-1.41c.38-.41-.15-1.03-.66-.61Z"/>
  <path class="cls-18" d="M672.22,190.7c-.05-.09-.1-.11-.2-.15-.1-.04-.31-.1-.43-.12-.11-.02-.21-.04-.3-.04-.09,0-.03-.02-.13,0-.1.01-.1,0-.26.08-.16.09-.16.44,0,.53.16.09.18.07.28.09s.06,0,.14,0,.11,0,.21.02.2.03.33.07c.13.04.36-.08.39-.21.03-.14.02-.17-.03-.26Z"/>
  <path class="cls-18" d="M674.33,191.59c-.95.15-1.46.85-1.95,1.68-.49.84-.91,1.91-1.31,2.83-.21.5-.38,1.07-.62,1.54-.24.46-.56.87-.93,1.19-.37.32-.67.74-1.21.62s-.48-1.08-.47-1.47c0-.4-.51-.46-.6-.09-.24,1.01.03,2.48,1.28,2.4,1.24-.08,1.98-1.12,2.56-2.02.38-.59.49-1.22.76-1.81.27-.58.6-1.27.88-1.77.28-.5.57-1.04.81-1.39.24-.35.33-.45.54-.68.21-.22.43-.34.56-.56s-.02-.53-.29-.49Z"/>
  <path class="cls-18" d="M667.11,190.25c-1.88.41-3.06,1.86-4.26,3.23-1.52,1.72-2.81,3.29-4.65,4.7-.68.52-2.29,1.55-2.98.58-.7-.97.34-2.15.89-2.92,1.35-1.92,3.03-3.41,4.84-4.79,1.06-.81,2.27-1.52,3.26-2.26.99-.75,1.77-1.37,1.92-2.56.07-.54-.7-.65-.9-.11s-.7,1.07-1.17,1.49c-.47.41-.96.84-1.46,1.23-1.01.8-2.03,1.53-3.03,2.38-1.81,1.53-3.54,3.12-4.84,5.12-.54.82-.86,1.83-.41,2.72.44.89,1.35,1.18,2.28.95,2.29-.56,3.83-2.32,5.37-3.95.95-1,1.67-2.06,2.52-3.04s1.76-1.66,2.78-2.4c.2-.14.07-.4-.16-.35Z"/>
  <path class="cls-18" d="M665.49,185.77c-1.31-.16-2.49.29-3.77.78-1.27.49-2.72,1.14-4,1.66-1.28.52-2.52,1.41-3.86,1.61-1.69.26-2.36-1.24-1.23-2.43.34-.36-.14-.91-.52-.64-1.09.75-1.69,2-.77,3.24.92,1.24,2.39,1.35,3.95.79s3.23-1.42,4.87-2.18,3.43-1.69,5.34-1.66c.81.01.74-1.07-.02-1.16Z"/>
  <path class="cls-18" d="M687.3,181.22c-1.31.17-1.83,1.48-2.92,2.07-.64.35-1.31.39-1.92.86-.61.47-1.26.99-1.83,1.54-1.1,1.08-2.11,2.29-3.19,3.4-.54.56-1.13,1.1-1.73,1.6s-1.27.91-1.81,1.45c-.2.2-.02.55.28.46,1.41-.45,2.37-1.42,3.38-2.5,1.01-1.08,1.99-2.29,3.03-3.37.53-.55,1.13-1.1,1.78-1.48.65-.38,1.4-.59,2.04-.89.64-.31,1.13-.59,1.57-1.11.45-.52.75-1.1,1.4-1.37.35-.15.31-.7-.09-.65Z"/>
  <path class="cls-18" d="M690.39,181.86c-.32,0-.48.02-.76.08s-.38.12-.72.21c-.34.09-.88.25-1.29.34-.41.1-.89.23-1.32.3-.42.07-1.03.26-1.3.48s-.13.45.05.54c.45.24.99.17,1.47.1.48-.06.98-.17,1.43-.26.45-.1,1.02-.27,1.37-.39.35-.12.44-.14.71-.27.27-.13.4-.22.65-.44.25-.22.03-.71-.3-.7Z"/>
  <path class="cls-18" d="M689.02,169.75c-.02-.1-.23-.22-.33-.18s-.08.02-.14.05-.06.04-.12.09c-.06.05-.1.1-.17.2s-.11.15-.21.3-.27.4-.4.6c-.13.2-.01.54.16.63.18.09.24.09.38.06.15-.04.21-.08.3-.22.09-.15.23-.49.31-.64.08-.15.13-.29.17-.4.05-.11.05-.17.06-.24.01-.07.01-.04.01-.1,0-.06,0-.05-.03-.15Z"/>
  <path class="cls-18" d="M658.11,318.19c-4.13,8.42-8.2,16.88-12.34,25.29-.22-.35-.36-.59-.8-.74-5.04-1.72-9.52-1.5-14.51.37-.39-1.8-.76-3.55-1.15-5.36-1.8-8.38-3.51-16.77-6.23-24.9-.19-.55-1.16-.58-1.07.1.98,8.28,3.15,16.47,4.85,24.58,1.69,8.11,3.37,15.98,4.99,24.06.05.26.07.49.16.77.09.28.13.7.21.98.07.28.14.42.34.63-9.71,6.22-18.82,12.68-28.75,18.73-11.34,6.92-22.87,10.79-36.25,8.79-5.99-.9-11.21-2.95-17.26-2.38-4.8.46-8.91,2.1-13.12,4.27,4.38-7.05,7.19-14.58,7.78-22.84.45-6.33-.72-11.98-2.96-17.73-2.43-6.21-8.79-9.69-10.43-16.33-3.19-12.95,4.58-22.86,13.59-31.51,13.11,6.91,25.8,5.64,38.14-1.83,6.5-3.94,10.4-8.92,15.04-14.45,2.58-3.07,4.45-6.21,6.54-9.68s3.75-6.89,7.44-9.05c1.29-.76.36-2.34-.96-2.28-.14,0-.27.08-.41.08-4.49.05-8.68.08-13.25-.21-4.56-.29-9.35-1.31-14.04-1.36-8.08-.1-15.74,0-22.95,4.42-11.89,7.27-16.85,18.1-17.12,31.86-5.84,4.93-10.61,10.08-14.07,16.92-.51-11.23,2.52-21.49,5.53-32.11,3.25-11.45,4.86-22.26,4.36-34.1.41.24.95.29,1.4-.1,16.91-14.79,20.26-38.07,9.29-57.49-11.68-20.67-34.22-27.66-53.2-39.61-5.62-3.54-10.76-7.22-15.26-12.06-4.5-4.84-7.05-10.54-9.93-16.4-.4-.81-1.79-.5-1.72.43.17,2.22.87,4.28,1.61,6.36-.88-.08-1.81.58-1.29,1.57,10.46,19.81,7.18,40.12,9.72,61.69,2.3,19.51,11.88,33.66,27.25,45.6.55.43,1.27.75,1.8,1.13-.48.22-.99.49-1.46.74-1.31.71-2.45,1.55-3.68,2.39-2.52,1.72-4.87,3.46-7.89,4.25-3.47.91-7.09.67-10.65.7-3.57.03-7.02.19-10.55.81-3.97.69-7.82,1.79-11.49,3.51-.15.07-.18.19-.19.33-4.36-.38-8.38-.54-12.82-.27-9.4.56-18.96,1.07-27.63,5.07-1.44.66-.32,2.68,1.18,2.31,8.14-2.02,15.99-3.58,24.62-4,9.5-.46,17.61-.61,27.31,2.75,16.28,5.63,32.79,13.85,34.94,33.04,0,.02.04.06.03.05-2.33-1.68-4.61-3.42-7.03-4.98-7.85-5.02-15.86-8.98-24.62-12.28-8.75-3.3-17.67-5.99-27.03-6.88-1.03-.1-1.09,1.38-.11,1.62,8.21,2.02,16.25,3.3,24.29,6.44,8.05,3.13,15.76,7.39,23.07,12.31,6.96,4.68,13.87,9.85,19.18,16.43,5.09,6.32,6.76,13.45,8.25,21.22-.05,5.08,1.09,9.36,3.97,13.54,1.93,2.81,4.49,5.09,6.14,8.11,1.65,3.02,2.9,6.23,3.33,9.68.87,7.05-.15,13.78-2.68,20.31-2.39,6.16-6.16,11.2-9.03,17.04-15.07-6.31-27.53-1.48-39.39,8.78-.58.51.02,1.45.71,1.08,12.57-6.73,23.72-10.9,38.08-7.98-.01.02.03.05.01.06-1.47,1.47-2.81,2.81-4.21,4.42-3.72,4.3-7.46,8.69-9.57,14-.44,1.1.9,1.89,1.69,1.2,4.44-3.91,7.07-9.13,11.08-13.51,4.01-4.38,8.46-8.28,13.94-10.85s10.82-3.3,16.89-2.5c6.07.8,12,3.51,18.33,3.05,11.48-.84,20.21-6.61,29.65-12.84,9.44-6.23,18.84-12.76,28.21-19.11,1.01.26,1.82.08,2.62-.59.52-.44.93-.96,1.36-1.47.65.41,1.39.51,1.79-.32,6.79-14.25,13.39-28.65,19.54-43.2.28-.67-.82-1.18-1.14-.53ZM564.8,272.36c7.51-3.66,15.05-3.18,23.12-3.2,6.44-.02,13.03,1.04,19.52.27-3.15,2.64-4.71,6.55-6.89,9.8-4.32,6.45-7.76,12.17-14.03,17.17-11.69,9.32-24.56,11.97-38.76,6.41,9.71-7.23,20.4-12.27,31.36-17.33.6-.28.18-1.29-.45-1.05-11.48,4.37-22.4,9.21-32.59,16.14-.59.4-1.11.87-1.69,1.24,2-13.27,8.21-23.51,20.41-29.46ZM484.85,206.12c-5.31-22.08-1.01-44-9.56-65.23,2.92,3.68,6.18,7.25,9.65,10.15,8.23,6.9,17.25,11.64,26.54,16.77,9.68,5.35,19.73,10.32,27.49,18.36,8.47,8.77,13.58,19.26,14.01,31.42.48,13.59-5.6,23.64-13.71,33.86-3.53-24.17-14.26-45.13-28.63-64.55-.96-1.3-3.12-.27-2.17,1.12,13.19,19.38,23.66,39.69,26.41,63.22-24.26-4.55-44.21-20.9-50.03-45.14ZM525.94,312.17c-.6-1.02-1.12-1.96-1.83-2.92-3.54-4.81-7.68-8.84-12.34-12.57.28-.07.59-.17.58-.55-.43-19.45-15.82-27.8-31.87-34.67-5.69-2.43-10.13-3.21-15.94-4.31,3.29-.92,6.17-1.87,9.58-2.5,3.42-.63,7.29-.87,10.82-.86,3.53,0,7,.27,10.44-.39,3.03-.58,5.5-1.99,8.03-3.65,1.41-.92,2.67-1.94,4.11-2.8.68-.41,1.37-.8,2.1-1.13.42-.19.85-.33,1.28-.49,7.75,4.1,15.54,6.69,24.22,7.98.03.69.11,1.41.11,2.1.03,12.32-2.59,23.9-5.65,35.76-1.8,6.98-3.29,13.78-3.63,21.01ZM639.03,349.05s.02-.16.01-.33-.04-.69-.14-.9c.12.14.27.47.3.61s.06.21.04.3c-.02.08-.19.34-.22.32Z"/>
  <path class="cls-18" d="M506.39,297.91c-8.52,1.62-16.86,2.76-25.67,2.33-8.81-.44-17.41-1.69-25.4-5.89-7.15-3.76-12.54-9.66-17.88-15.65-4.59-5.14-8.78-10.27-14.93-13.54-1.28-.68-2.16.96-.94,1.77,4.87,3.24,8.71,7.4,12.4,11.94-4.78.98-9.75,1.74-14.5,2.8-4.36.98-8.9,1.99-12.69,4.24-6.8,4.04-10.23,10.73-15.9,15.97-3.12,2.88-6.68,4.33-10.99,5.09-4.31.75-9.28.18-13.72.39s-8.67.88-12.61,2.93c-3.94,2.05-6.87,4.58-10.24,7.59-7.78,6.95-14.82,13.78-25.83,14.24-.48.02-.51.78-.03.82,9.69.84,16.4-4.45,23.33-10.41,3.57-3.07,6.28-5.93,10.09-8.47,3.81-2.55,7.69-4.21,12.33-4.66,8.85-.86,18.03.98,25.94-3.83,6.66-4.05,9.58-11.27,15.6-16.06,3.95-3.14,8.83-4.66,13.79-5.81,5.49-1.27,11.19-2.15,16.71-3.25,1.26,1.37,2.24,2.89,3.58,4.2,5.77,5.62,10.9,11,18.74,13.96,16.41,6.19,32.58,6.05,49.3.94,1.15-.35.65-1.84-.48-1.63Z"/>
  <path class="cls-18" d="M978.22,399.7c.11-1.74,0-3.24-.48-4.98-.3-1.07-1.01-1.98-2.28-1.82-.08,0-.1-.11-.17-.13-.07-.03-.15-.11-.23-.16-14.6-8.43-30.16-16.47-44.94-24.31-14.78-7.84-30.8-16.19-44.95-23.91-28.13-15.34-55.14-30.22-83.32-44.66-12.73-6.52-24.99-12.55-37.92-18.57.16.4.24.69.34,1.12s.22,1.1.35,1.51c.13.41.12.38.41.67.28.29.58.72.67,1.15,8.75,4.16,17.19,8.21,25.85,12.6,27.76,14.08,54.26,28.66,81.71,44.11,15.74,8.87,33.09,18.85,49.8,27.53,15.78,8.2,33.05,16.63,49.32,24.07-24.11,8.33-50.23,17.07-74.59,23.98-25.24,7.15-56.73,14.73-79.51,21.71-46.03,14.08-83.76,36.09-124.63,58.58-23.14,12.73-46.32,26.35-70.01,38.6-.31.16-.53.36-.76.6-.78-.49-1.56-.99-2.35-1.47.19-.08.11-.31-.05-.33-.16-.01-.13.11-.16.2-12.91-7.6-27.18-14.23-40.4-20.99-14.23-7.27-28.76-15.48-42.23-23.29-26.94-15.6-53.93-32.79-79.65-49.61-51.21-33.5-98.1-55.98-155.36-74.45-31.11-10.03-57.37-16.98-87.4-27.39,41.05-24.93,79.07-52.64,122.93-72.2,22.63-10.09,44.48-18.12,67.63-27.6,21.78-8.92,44.67-19.09,66.28-29.33,3.53-1.67,7.36-3.57,10.88-5.26-.08-.13-.2-.25-.27-.39-.38-.74-.66-1.48-.88-2.27-.08.04-.36.17-.5.24-22.09,10.6-46.39,21.77-68.64,31.01-44.86,18.63-89.01,34.72-130.72,59.18-23.71,13.9-45.75,30.17-68.32,45.85-.16.11-.11.29-.26.43-1.09.98-.72,2.44.49,3.14.08.05.19.06.28.11,2.36,5.78,3.49,11.43,3.58,17.67-1.36.32-1.6,1.75-.5,2.54.12.09.39.08.43.2.18.64,1.38,1.33,1.41.51,52.14,19.35,99.75,33.18,151.89,55.9,52.47,22.87,104.51,64.9,156.69,95.31,29.34,17.1,65.1,35.35,96.78,49.56.06.03.35.11.38.16.42.81,1.45,1.46,2.32.85,19.13-13.45,39.72-22.01,60.27-32.81,21.03-11.06,35.3-19.13,57.57-31.97,44.83-25.86,83.72-40.64,135.99-53.84,29.95-7.56,63.96-16.42,94.34-24.15,1.4-.36,1.9-1.36,1.67-2.55-.01-.05.03-.09.03-.13.45-3.26.39-6.57.43-9.86.01-1.11.19-2.22.26-3.33.16-2.46.38-4.89.53-7.35ZM215.8,343.54c25.67,9.84,51.13,16.14,77.37,24.65,26.75,8.67,50.07,16.32,77.19,28.01,55.05,23.73,104.69,61.98,156.91,92.94,14.78,8.76,31.52,18.75,47.18,27.36,15,8.25,31.43,17.07,47.62,23.43.4,1.76.75,3.59.95,5.28-28.03-13.92-57.15-29.03-83.9-44.67-27.11-15.85-53.78-32.62-79.27-49.19-25.49-16.58-50.97-33.34-77.43-45.18-26.46-11.84-51.41-20.12-77.68-29.12-26.27-9-52.05-15.78-77.61-26.24-3.11-1.27-6.77-2.69-9.97-4.01-.45-1.12-.8-2.07-1.37-3.26ZM217.71,348.42c25.37,10.2,51.02,17.95,77.03,26.48,26.41,8.66,50.38,17.21,77.17,27.9,26.79,10.69,51.93,26.81,77.53,43.03,25.6,16.22,52.08,33.66,79.17,49.47,27.09,15.81,55.96,31.7,84.45,45.78,3.29,1.63,6.82,3.39,10.13,5.01.23,1.57.42,3.16.56,4.73.06.69.17,1.41.11,2.03-28.49-14.24-58.4-29.24-85.62-45.23s-54.54-32.98-79.91-49.77c-25.37-16.79-50.37-34.7-76.82-46.16-26.45-11.45-50.7-20.35-76.71-29.46-26.01-9.11-50.81-17.1-76.55-26.44-3.03-1.1-6.47-2.74-9.55-4-.3-1.17-.57-2.23-.97-3.4ZM624.2,560.01c-.02.64.05,1.37,0,1.98-28.09-14.16-58-28-84.95-43.74-27.43-16.02-54.75-32.62-80.66-49.84-51.82-34.44-95.58-56.64-152.86-76.6-31.81-11.08-55.82-18.91-86.22-30.5.63-.49.14-1.37.21-2.07,25.29,10.04,50.19,18.29,76.08,27.06,25.89,8.76,49.24,17.17,75.7,28.29s51.75,27.9,77.09,44.67c25.34,16.76,51.89,33.73,79.06,49.61,27.17,15.87,56.73,31.29,85.38,45.31,3.57,1.75,7.43,3.57,10.99,5.26.06.03.14-.02.17.07.03.09.02.34.02.51ZM624.11,558.36c-28.41-14.13-58.44-28.67-85.59-44.53-27.15-15.86-54.33-32.41-79.69-49.16-25.36-16.75-50.84-35.49-77.25-46.89-26.41-11.41-50.12-20.1-76.05-29.18-25.93-9.08-50.73-17.51-76.42-26.88-3.05-1.11-6.39-2.38-9.45-3.7-.15-1.57-.36-3.14-.64-4.68,12.63,4.91,25.71,9.51,38.36,14.04,12.96,4.65,24.5,8.2,37.53,12.62,26.31,8.93,49.82,17.56,76.45,28.52s51.54,27.17,76.79,44.03c25.25,16.86,51.99,34.21,79.17,50.16,27.18,15.95,56.48,31.84,85.22,45.73,3.58,1.73,7.44,3.6,11.01,5.28.16.08.3.06.45,0,.06,1.08.14,2.18.16,3.25.01.48.08.99-.02,1.41ZM625.27,541.29c.68-.23.38,0,.69-.17,41.96-23.72,77.35-44.93,121.42-68.21,43.63-23.06,89.97-36.56,140.03-49.25,27.91-7.08,60.17-15.72,87.3-26.42.49.77.28,1.79.43,2.66-.11,0-.25.02-.39.07-25.55,9.83-52.83,18.13-79.09,25.34s-56.33,15.05-80.67,22.32c-24.34,7.27-42.69,17-63.41,27.58s-38.82,20.35-58.97,31.34-40.42,22.75-60.77,33.76c-1.96,1.06-4.14,2.25-6.13,3.3-.16-.76-.23-1.57-.45-2.31ZM973.42,419.45c-50.67,13.74-114.62,27-161.77,43.66-47.98,16.95-78.06,41.75-120.85,62.8-11.66,5.73-21.25,11.31-33.41,17.14-10.67,5.11-20.97,11.06-30.43,18.42.06-1.91.03-3.81,0-5.77,20.69-10.21,41.1-22.42,60.97-33.67,19.87-11.25,37.9-21.88,58.32-32.09,20.42-10.21,36.31-20.21,59.79-28.67,23.48-8.46,53.76-15.12,79.99-22.31,26.23-7.18,54.66-14.51,80.9-22.74,2.67-.84,5.18-1.45,7.71-2.4-.03,1.85-.06,3.56-.61,5.36-.03.09.62.13-.62.26ZM626.59,549.96c20.69-10.03,41-22.36,60.93-33.37,19.93-11.01,38.04-21.24,58.42-31.43,20.37-10.2,36.44-20.49,60.15-28.36s54.04-14.86,80.26-22.15,54.27-15.29,80.21-24.24c2.94-1.02,5.32-2,8.05-3.16-.1,1.64.03,3.23-.03,4.89-25.25,8.17-52.14,15.62-77.66,22.38-26.37,6.99-56.8,14.92-81.1,22s-42.06,17.41-62.52,28.12c-20.46,10.72-38.31,20.53-58.38,31.74-20.07,11.21-40.47,23.73-60.98,34.79-2.2,1.19-4.73,2.64-7.01,3.77-.09-1.66-.21-3.28-.34-4.99ZM974.77,405.35s-.1.02-.15.04c-25.04,10.56-52.85,18.06-78.96,25.08s-56.24,14.98-80.46,21.95c-24.22,6.97-42.07,16.99-62.54,27.55-20.47,10.56-38.51,20.35-58.55,31.3-20.04,10.95-40.48,22.63-60.67,33.79-2.2,1.21-4.66,2.66-6.97,3.71-.17-1.4-.39-2.77-.57-4.21,20.38-9.96,40.33-22.12,59.99-32.93,20.13-11.06,38.32-21.07,58.8-31.54,20.48-10.47,37.36-20.68,61.26-28.5,23.89-7.82,54.01-15.07,80.31-22.19,26.29-7.12,54.5-15.13,80.29-24.56,3.14-1.15,5.74-2.21,8.69-3.44-.04.35.06.71,0,1.06-.14.96-.34,1.93-.47,2.87Z"/>
  <path class="cls-18" d="M536.97,179.87c1.12.53,1.67,1.3,1.75,2.54,3.07-.89,6.17-1.72,9.28-2.46.07-.02.14-.06.19-.06.05,0,.08.04.12.05,28.2,10.83,55.91,23,82.7,37,.3.16.57.32.88.47-1.58,16.85-3.1,33.56-4.82,50.44-1.43,14.09-3.17,28.36-4.49,42.5-.39.03-.8.12-.88.59-1.05,6.45,6.76,6.74,11.24,7.47,4.48.74,8.04,1.59,12.3,2.27,3.09.5,6.44,2.01,9.5,1.06,6.04-1.87,5.38-9.79,5.95-14.56,1.13-9.46,2.2-18.21,3.24-27.33,1.59-13.89,3.1-27.47,4.63-41.31,6.76,4.06,13.57,8.02,20.44,11.89-.02-.4-.05-.79-.06-1.19-.02-.95,0-1.9.12-2.85-6.74-3.83-13.42-7.73-20.09-11.68,1.5-13.62,2.97-27.25,4.45-40.87-.08.16-.16.32-.25.48-.49.86-1.23,1.53-1.76,2.36-.13.2-.21.42-.29.63s-.24.34-.36.49c-.13.15-.15.33-.28.47-1.28,11.7-2.52,23.41-3.75,35.11,0,.05-.05-.09-.04,0s.02.3,0,.45c-.15.79-.29,1.67-.35,2.47-.02.27-.24.56-.29.72-.05.16.26.1.28.22-2.07,19.73-4.22,39.45-6.6,59.17-.55,4.52-1.07,9.07-1.69,13.61-.28,2.03-.08,4.5-.92,6.37-1.59,3.53-4.65,3.33-8,2.89,3.22-28.88,6.42-57.73,9.59-86.61.08.05.17.1.25.15-.1-1.31-.05-2.51.43-3.75-.09-.05-.18-.1-.27-.16,1.25-11.4,2.49-22.79,3.77-34.19-.12.12-.24.24-.36.36-.41.39-.82.76-1.29,1.07-1.15,10.67-2.24,21.36-3.36,32.03-.02.02-.11-.1-.11-.05-.07,1.17-.24,2.36-.51,3.52-.01.05-.07.08-.04.13.03.05.21.12.27.16-1.48,14.08-2.99,28.09-4.6,42.17-1.7,14.92-3.46,29.93-5.52,44.82-2.42-.46-4.84-.93-7.25-1.4,2.96-30.23,5.89-60.45,8.66-90.69.08.04.15.09.23.13-.05-1.28-.03-2.53.24-3.77.01-.05-.11-.04-.12-.08,1.95-21.33,3.94-42.53,6.12-63.88,1.52-14.88,3.14-30.01,4.68-44.94.04,0,.09,0,.13,0,3.7.31,7.19,1.04,10.7,2.26-2.01,12.59-3.38,25.27-4.81,37.93-.43,3.79-.88,7.53-1.31,11.32.05-.08.22,0,.26-.09.26-.52.59-.97,1.05-1.32.11-.08.32-.06.34-.18.17-.96.24-1.97.36-2.97,1.73-14.78,3.66-29.55,4.94-44.39,2.41.98,4.68,2.26,6.87,3.63.89.55,1.77-.8.82-1.39-5.74-3.53-11.15-5.93-18.08-6.85-5.27-.7-11.19-.21-16.33,1.7-.01-.05.02-.11.02-.18.04-.9.07-1.78.08-2.7,5.77-.24,11.34-1.46,17.17-1.06,6.63.45,12.57,2.79,18.52,5.67-2.58,18.72-4.96,37.41-7.19,56.16.11.02.19.05.3.09.62.27,1.25.5,1.8.91.06-.26.14-.51.24-.76,2.11-18.88,4.43-37.73,6.47-56.62.34-.17.6-.32.74-.75,5.62-17.36,2.25-33.23-16.79-38.01-8.48-2.13-14.33,2.89-18.82,9.46s-4.64,15.36-4.45,23.17c-.08.18-.18.24-.21.41-2.23,12.8-3.31,26.02-4.51,38.86-1.26,13.6-2.42,26.92-3.68,40.4-.78,8.36-1.53,16.54-2.3,24.87-26.9-14.01-54.66-26.3-82.96-37.21-.3-.12-.48-.04-.87-.14-.39-.11-.85-.3-1.4-.14-3.54,1.03-7.15,2.12-10.66,3.3.2.06.44.11.63.2ZM648.2,89.12c3.51-6.94,9.69-11.55,17.75-10.59,7.61.91,13.21,5.98,15.91,12.96s1.14,13.61-.46,20.57c-.23.17-.29.29-.35.55-.05.26-.08.64-.13.88-.06.25-.14.4-.2.63-11.44-6.29-23.16-9.19-35.79-4.75.41-6.97-.01-13.8,3.26-20.26ZM651.7,114.5c2.21-.23,4.41-.32,6.63-.28-4.14,35.77-7.45,71.62-10.57,107.49,0,.1,0,.25-.03.32-.02.07,0,0,0,.05,0,.06-.01.17-.02.24,0,.01-.02-.02-.02,0-.05.26-.15.76-.18.96-.03.2-.03.1-.02.25,0,.15-.08.34-.11.49-.11.6-.26,1.23-.32,1.8-.01.12.29.11.32.21-1.37,15.61-2.81,31.13-4.35,46.74-1.46,14.77-3.12,29.63-4.77,44.4-.82-.14-.8-.16-1.81-.34s-3.08-.42-4.29-.61c-.01-.08.03-.15.03-.22,3.17-30.18,5.78-60.41,8.31-90.65-.14-.2-.24-.42-.22-.67.1-1.9.32-3.76.66-5.63.05-.27.12-.53.14-.81,1.63-19.63,3.26-39.12,5.05-58.78.66-7.25,1.38-14.53,2.12-21.94.75-7.4,1.76-15.2,1.94-22.73,0-.02-.03-.06,0-.07.5-.1,1-.18,1.52-.24ZM641.45,192.42c-.71,8.43-1.35,16.87-2.01,25.3-.03,0-.11-.09-.13-.06-.02.03.01,0,0,.1-.01.1-.04.32-.05.49-.06,1-.16,2.04-.21,3.05,0,.04.09.04.1.06-1.31,16.54-2.82,32.91-4.72,49.43-1.71,14.92-2.71,30.09-4.23,45.06-1.84-.39-3.62-.86-5.28-1.76.06-.13.1-.25.12-.4,1.82-13.19,2.8-26.56,4-39.78,1.2-13.23,2.35-26.34,3.48-39.53.46-5.33.88-10.6,1.31-15.92.02-.01.1.09.11.05.07-.58.17-1.27.22-1.85s.11-1.11.16-1.66c0-.08-.18-.07-.2-.12,1.58-19.92,3.2-39.53,5.39-59.49,1.41-12.84,3.38-26.16,4.23-39.16,1.84-.38,3.62-.86,5.43-1.29"/>
  <path class="cls-18" d="M663.51,188.65c.13-.1.04-.31.07-.46.08-.48.09-.99.15-1.48-.4.29-1.08.3-1.42.62-.2.18-.02.53-.12.88-.1.35-.13,1.07-.3,1.46.25-.27.76-.64,1-.84.24-.21.49-.08.63-.18Z"/>
  <path class="cls-18" d="M662.81,181.68c.41-.31.88-.57,1.29-.87.1-.07.25-.07.32-.15.07-.08.03-.38.07-.46.04-.08.17,0,.18-.06.05-.34.03-.7.01-1.06,0-.02-.06.06-.07,0,0-.06.05-.24.03-.35s.04.03-.02-.15.07-.56.11-.83c.28-2.24.53-4.57.74-6.82.02-.22-.22-.43-.3-.6-.08-.17-.25-.18-.32-.37-.07-.19-.25-.4-.36-.57-.11-.17-.19-.32-.27-.5-.41,3.48-.78,6.96-1.17,10.43-.02.03-.1-.02-.11.02-.03.38-.05.8-.07,1.19,0,.02.05-.02.05,0-.04.39-.09.78-.13,1.17Z"/>
  <path class="cls-18" d="M777.25,334.42c-2.34.24-4.62.6-6.99.34-2.37-.26-4.73-.94-6.84-2.03-2.11-1.1-3.93-2.45-5.07-4.5-1.15-2.04-1.27-4.19-1.67-6.43.17.29.17.34.36.69.19.35,1.03.14.82-.36-1.78-4.16-5.97-6.04-8.24-9.89-1.32-2.25-1.64-4.81-1.82-7.48-.12-1.79.39-3.96-.56-5.69.31.15.35.24.71.42.36.19.96-.34.55-.72-1.83-1.69-3.79-2.66-5.86-4.11-2.07-1.45-3.68-2.96-4.89-5.43s-2.29-5.43-3.39-8.09c-1.1-2.67-2.24-5.49-3.32-8.2-.4-.99-.8-2.02-1.18-3,0-.03.24.14.21.07-.22-.38-.28-.91-.54-1.32-.26-.41-.61-.71-.77-1.24-.16-.54-.41-1.2-.56-1.78,0,0-.01,0-.02,0-3.32-8.59-6.45-17.26-9.07-26.09-1.88-6.34-3.28-12.76-4.89-19.15-.09-.37-.7-.32-.66.08.7,5.89,2.07,11.61,3.61,17.34.45,1.68.96,3.33,1.44,5-.12.08-.19.14-.2.3-.37,4.69-.23,9.39-.09,14.09.04,1.23.09,2.42.15,3.66,0,.07,0,.09.02.21.02.12.06.34.08.52.11,1.35.1,2.72.14,4.08.05,1.88.18,3.74.29,5.62.27,4.69.71,9.36,1.01,14.06.15,2.31.2,4.59.02,6.92-.18,2.33-.58,4.42-.82,6.84-.23,2.42-.35,5.16-.27,7.69.07,2.14.26,4.31.76,6.4-.08.14-.1.23-.04.39,1.39,3.67,2.71,7.25,2.93,11.2s-.52,7.91.16,11.84c.14.78,1.26.46,1.14-.33-.65-4.16,0-8.26-.28-12.5-.24-3.51-1.24-6.85-2.95-9.95-.05-2.21-.32-4.27-.41-6.49-.09-2.22-.02-4.53.16-6.78.35-4.57,1.11-9.1.95-13.7-.17-4.61-.69-9.23-.94-13.83-.13-2.45-.24-4.89-.37-7.34,2.62,1.13,5.24,2.26,7.87,3.38,2.59,6.53,5.2,13.1,8.01,19.53,1.16,2.66,2.68,4.75,4.95,6.54,1.69,1.33,3.64,2.22,5.46,3.33-.16.18-.2.36-.06.59.69,1.11.53,2.41.53,3.63s0,2.36.17,3.52c.33,2.29.79,4.6,1.99,6.56,2.01,3.29,5.25,5.32,7.42,8.45-.22.02-.46.18-.42.45.35,2.43.41,4.88,1.65,7.09,1.24,2.21,2.95,3.62,5.32,4.76,4.64,2.25,9.43,2.8,14.47,1.52.47-.12.33-.71-.12-.67ZM720.07,262.17c-.07-.03-.2-.03-.21-.1-.07-.96-.11-1.94-.15-2.92-.18-4.73-.18-9.48-.47-14.21,1.06,3.37,2.18,6.77,3.35,10.09,1.17,3.31,2.39,6.54,3.64,9.81-2.05-.89-4.13-1.76-6.16-2.66Z"/>
  <path class="cls-18" d="M671.62,171c-1.32-1.13-2.33-2.4-2.73-4.11-.19-.81-.21-1.72-.81-2.23s-1.23-.54-1.87-.18c-1.49.85-1.87,2.68-1.92,4.26-.03.84.19,1.55.59,2.19.4.64,1.15,1.04,1.66,1.42.5.38.84.65,1.12,1.09.28.45.33.86.48,1.31.34.97.36,1.84.13,2.83-.07.31.36.5.51.21.39-.8.57-1.63.52-2.53-.02-.42-.08-.84-.27-1.23s-.49-.7-.78-1.02c-1.39-1.47-3.25-2.28-3.26-4.53,0-.62.32-1.21.57-1.74s.3-.82.75-1.29c.45-.47,1.24-.49,1.53.3.18.49.15,1.01.3,1.53.52,1.82,1.52,3.17,3.21,4.05.22.11.49-.15.27-.34Z"/>
  <path class="cls-18" d="M640.5,348.53c.18-1.66-1.51-2.62-2.65-1.21-1.78,2.21-3.71,4.63-3.22,7.67.2,1.27,1.4,2.14,2.67,2.18,1.27.04,2.35-.76,2.81-1.99.79-2.09.15-4.5.39-6.66Z"/>
  <path class="cls-18" d="M638.61,361.25c.43-.78.81-1.37,1.2-2.22.39-.85-.55-1.79-1.37-1.12-.51.41-.87.71-1.47.94-.91-.21-1.75-.17-2.62.28-1.26.65-1.79,2.26-1.04,3.55.75,1.29,2.18,1.67,3.54,1.06.65-.29,1.12-.82,1.49-1.41.12-.19.19-.48.2-.63s.11-.53.03-.25,0-.11.02-.15c0-.05,0-.04.01-.06Z"/>
</svg>