<?xml version="1.0" encoding="UTF-8"?>
<svg id="Layer_6" data-name="Layer 6" xmlns="http://www.w3.org/2000/svg" xmlns:xlink="http://www.w3.org/1999/xlink" viewBox="0 0 1200 600">
  <defs>
    <style>
      .cls-1, .cls-2 {
        fill: #4e57af;
      }

      .cls-3 {
        opacity: .31;
      }

      .cls-4 {
        fill: #d2d7ff;
      }

      .cls-4, .cls-2, .cls-5, .cls-6, .cls-7, .cls-8, .cls-9, .cls-10, .cls-11, .cls-12, .cls-13, .cls-14, .cls-15, .cls-16 {
        stroke-width: 0px;
      }

      .cls-5 {
        fill: #cad0e0;
      }

      .cls-7, .cls-17 {
        fill: #6870ee;
      }

      .cls-8 {
        fill: #123c4f;
      }

      .cls-8, .cls-10 {
        fill-rule: evenodd;
      }

      .cls-9 {
        fill: #e9ecff;
      }

      .cls-10 {
        fill: #29abe2;
      }

      .cls-18 {
        clip-path: url(#clippath-1);
      }

      .cls-11 {
        fill: #ffc32c;
      }

      .cls-12 {
        fill: #fff;
      }

      .cls-13 {
        fill: #9da6fc;
      }

      .cls-19 {
        clip-path: url(#clippath);
      }

      .cls-14 {
        fill: #5663d8;
      }

      .cls-15 {
        fill: #7f8def;
        opacity: .78;
      }

      .cls-16 {
        fill: #1b1c26;
      }
    </style>
    <clipPath id="clippath">
      <path class="cls-7" d="M356.6,469.89c-1.61-3.73-2.3-7.96-1.99-12.31.27-3.75,1.54-7.74.58-11.31-.92-3.4-3.94-5.47-5.67-8.38-3.02-5.08-5.48-13.77-13.82-12.11-4.51.9-7.91,4.53-11.24,7.56-3.31,3.02-7.56,5.23-10.04,8.98-1.65,2.49-2.45,5.18-3.06,7.91-.08.07-.14.16-.18.27-1.37,4.25-2.89,8.5-5.04,12.5-2.21,4.13-4.62,8.07-7.09,12.04-.81,1.31-1.57,2.76-1.5,4.21.08,1.76,1.33,3.02,2.34,4.29,2.56,3.23,5.06,6.49,7.67,9.65,2.11,2.54,4.56,4.78,8.1,5.51,1.83.38,3.78.43,5.68.57,2.33.17,4.42.65,6.47,1.49,3.13,1.27,6.22,2.87,10.02,2.28,3.16-.48,5.55-2.46,6.95-5.23.78-1.55,1.28-3.17,1.99-4.73.95-2.09,2.21-4.08,3.74-5.92,2.29-2.75,5.9-4.97,7.52-8.16,1.76-3.47-.21-6.28-1.43-9.1Z"/>
    </clipPath>
    <clipPath id="clippath-1">
      <path class="cls-2" d="M598.07,380.49c-20.78,0-28.4,7.62-28.4,28.4s7.62,28.4,28.4,28.4c20.78,0,28.4-7.62,28.4-28.4,0-20.78-7.62-28.4-28.4-28.4"/>
    </clipPath>
  </defs>
  <path id="BG-2" data-name="BG" class="cls-5" d="M196.49,521.51c6.18-161.17,96.84-295.19,234.87-358.63,153.63-70.61,297.77-12.74,317.94-4.26,144.49,60.77,241.21,195.84,251.51,362.89"/>
  <path id="line" class="cls-6" d="M1043.17,520.56c-32.57-1.86-63.9-.95-96.51-1.02-32.66-.07,21.28-.01-11.39-.02-65.32,0-130.64-.02-195.96-.02-129.97-.02-259.96-.51-389.93,0-73.32.29-116.68-.2-190,.6-1.66.02-1.66,4.53,0,4.54,130.64,1.43,231.32.89,361.96.72,129.98-.17,259.95-.12,389.93-.14h-6.04c36.59-.02,101.39,1.05,137.93-1.04,2.24-.13,2.25-3.49,0-3.62Z"/>
  <g>
    <polygon class="cls-6" points="455.25 393.94 457.78 387.37 457.99 387.46 455.25 393.94"/>
    <polygon class="cls-6" points="460.67 380.93 463.88 374.65 464.47 374.98 461.07 381.13 460.67 380.93"/>
    <polygon class="cls-6" points="467.42 368.54 471.27 362.61 472.18 363.25 468.18 369.02 467.42 368.54"/>
    <path class="cls-6" d="M475.41,356.87c1.47-1.85,2.97-3.66,4.48-5.48l1.08.94c-1.49,1.8-2.97,3.6-4.5,5.37l-1.06-.83Z"/>
    <polygon class="cls-6" points="484.67 346.17 489.69 341.18 490.65 342.2 485.68 347.14 484.67 346.17"/>
    <polygon class="cls-6" points="494.94 336.44 500.41 331.95 501.28 333.06 495.86 337.51 494.94 336.44"/>
    <polygon class="cls-6" points="506.1 327.74 511.98 323.8 512.73 324.99 506.91 328.89 506.1 327.74"/>
    <polygon class="cls-6" points="518.04 320.15 524.27 316.8 524.91 318.05 518.74 321.37 518.04 320.15"/>
    <polygon class="cls-6" points="530.66 313.76 537.2 311.04 537.71 312.35 531.24 315.04 530.66 313.76"/>
    <polygon class="cls-6" points="543.86 308.64 550.61 306.54 551 307.89 544.3 309.97 543.86 308.64"/>
    <polygon class="cls-6" points="557.46 304.75 564.37 303.27 564.64 304.65 557.78 306.12 557.46 304.75"/>
    <polygon class="cls-6" points="571.35 302.1 578.38 301.25 578.52 302.66 571.55 303.5 571.35 302.1"/>
    <polygon class="cls-6" points="585.43 300.73 592.51 300.52 592.52 301.93 585.51 302.13 585.43 300.73"/>
    <polygon class="cls-6" points="599.58 300.62 606.64 301.04 606.53 302.44 599.53 302.03 599.58 300.62"/>
    <polygon class="cls-6" points="613.68 301.76 620.68 302.79 620.45 304.18 613.51 303.16 613.68 301.76"/>
    <polygon class="cls-6" points="627.63 304.12 634.51 305.76 634.16 307.12 627.34 305.5 627.63 304.12"/>
    <polygon class="cls-6" points="641.32 307.71 648.02 309.99 647.54 311.31 640.9 309.05 641.32 307.71"/>
    <polygon class="cls-6" points="654.59 312.65 660.99 315.68 660.35 316.94 654.02 313.94 654.59 312.65"/>
    <polygon class="cls-6" points="667.23 319.02 673.31 322.64 672.56 323.84 666.54 320.24 667.23 319.02"/>
    <polygon class="cls-6" points="679.2 326.56 684.91 330.74 684.05 331.86 678.4 327.71 679.2 326.56"/>
    <polygon class="cls-6" points="690.41 335.19 695.71 339.88 694.75 340.92 689.5 336.26 690.41 335.19"/>
    <polygon class="cls-6" points="700.78 344.81 705.63 349.97 704.59 350.91 699.78 345.8 700.78 344.81"/>
    <path class="cls-6" d="M710.26,355.32c1.46,1.85,2.92,3.71,4.34,5.59l-1.05.79c-1.49-1.81-2.95-3.63-4.39-5.47l1.1-.91Z"/>
    <polygon class="cls-6" points="718.66 366.7 722.47 372.65 721.73 373.12 717.76 367.32 718.66 366.7"/>
    <polygon class="cls-6" points="726.02 378.75 729.31 385 728.92 385.2 725.45 379.08 726.02 378.75"/>
    <polygon class="cls-6" points="732.32 391.38 734.89 397.57 732.13 391.47 732.32 391.38"/>
  </g>
  <g>
    <path class="cls-13" d="M250.96,415.91c2.33.14,2.32-3.62,0-3.76-6.48-.38-12.99-.75-19.48-.71-4.11.02-7.7,1.02-9.52,5.24-2.26,5.23,0,11.52,1,16.8,1.25,6.6,2.36,13.23,3.37,19.88,2.05,13.57,3.44,27.25,4.36,40.96.39,5.77.39,11.66,1.22,17.38.58,3.97,1.85,7.84,5.5,9.72"/>
    <path class="cls-6" d="M250.96,412.15c-6.48-.38-12.99-.75-19.48-.71-4.11.02-7.7,1.02-9.52,5.24-2.26,5.23,0,11.52,1,16.8,1.25,6.6,2.36,13.23,3.37,19.88,2.05,13.57,3.44,27.25,4.36,40.96.39,5.77.39,11.66,1.22,17.38.58,3.97,1.85,7.84,5.5,9.72.85.44,1.91-.74,1.08-1.46-3.47-3-3.79-7.59-3.83-11.98-.05-5.49-.16-10.96-.45-16.45-.59-11.07-1.71-22.1-3.17-33.08-1.46-11.01-3.69-21.79-5.66-32.7-.48-2.65-1.11-6.07.59-8.45,1.84-2.57,5.44-1.97,8.11-1.95,5.63.04,11.26.22,16.88.55,2.33.14,2.32-3.62,0-3.76Z"/>
    <g>
      <g>
        <path class="cls-12" d="M369.02,374.8c-5.96-.1-8,.11-10.9-.1-30.91-2.31-61.95-2.76-92.9-1.35-5.74.26-8.85.2-17.65.43-.26,4.52-.72,13.03-.87,17.17-.57,16.12-.73,32.26-.49,48.39-.1,2.82-.12,5.84-.12,8.97,2.87-.03,6.27.41,9.49.4,8.71-.02,17.42-.04,26.13-.07,24.45-.06,48.9-.12,73.35-.19,3.59,0,7.77-.32,9.8-3.39,1.01-1.52,1.26-3.44,1.46-5.27,1.97-17.48,2.86-35.09,2.66-52.68.03-3.74.03-7.3.03-12.3Z"/>
        <path class="cls-6" d="M369.02,373.93c-20.77-.25-41.49-2.06-62.28-2.23-19.74-.16-39.45.71-59.18,1.21-.49.01-.85.39-.88.88-1.43,24.83-1.44,49.66-1.47,74.52,0,.48.4.87.88.88,34.99.44,70,.24,105.01.15,4.74-.01,11.32.75,14.45-3.75,1.19-1.71,1.38-3.8,1.65-5.8.61-4.51.95-9.08,1.32-13.62,1.38-17.11,1.37-34.21,1.37-51.36,0-1.13-1.75-1.13-1.75,0,0,12.57.11,25.14-.49,37.71-.28,5.86-.69,11.71-1.21,17.55-.29,3.24-.54,6.5-.98,9.72-.87,6.34-4.81,7.67-10.39,7.79-26.91.61-53.9.14-80.82.21-5.6.01-11.2.06-16.8.04-2.57,0-5.84.39-8.34-.3s-1.85-.18-2.13-2.91c-.18-1.72.09-3.55.1-5.27.08-12.91-.13-25.8.19-38.71.13-5.31.31-10.61.57-15.91.12-2.42.25-4.85.38-7.27,0,0-.03-2.36.14-2.55.82-.9,4.39-.35,5.53-.38,10.36-.19,20.71-.73,31.08-.94,28.1-.56,56,1.76,84.04,2.1,1.13.01,1.13-1.74,0-1.75Z"/>
      </g>
      <path class="cls-6" d="M354.7,386.01c-2.97-.48-6.06-.44-9.06-.49-3.05-.05-6.09-.1-9.14-.15-6.15-.1-12.3-.17-18.45-.23-12.24-.11-24.48-.17-36.72-.19-6.95,0-13.91.02-20.86.08-.65,0-.65,1.06,0,1.05,12.24-.1,24.48-.12,36.72.03,12.24.15,24.48.41,36.72.61,3.39.05,6.78.11,10.17.17,3.48.06,7.06.3,10.52-.14.37-.05.55-.68.1-.75Z"/>
      <path class="cls-6" d="M353.47,397.06c-3.03-.2-6.09-.03-9.12.02-2.98.05-5.97.12-8.95.19-6.08.13-12.16.25-18.25.35-12.05.2-24.1.27-36.15.31-6.83.02-13.66.08-20.49-.03-.65-.01-.65,1.06,0,1.05,12.11-.11,24.22,0,36.33-.09,12.05-.08,24.1-.22,36.15-.39,3.39-.05,6.77-.09,10.16-.17,3.43-.08,6.91-.03,10.33-.42.5-.06.52-.78,0-.82Z"/>
      <path class="cls-6" d="M351.3,410.18c-5.98-.67-12.05-.74-18.06-.94-5.96-.2-11.93-.36-17.9-.46-11.99-.21-23.99-.21-35.98.01-6.77.12-13.54.27-20.31.49-.62.02-.62,1.03,0,1,11.99-.44,23.98-.61,35.97-.6,11.99,0,23.99.22,35.97.63,6.76.23,13.54.77,20.3.72.54,0,.51-.79,0-.85Z"/>
      <path class="cls-6" d="M351.3,422.57c-5.98-.67-12.05-.74-18.06-.94-5.96-.2-11.93-.36-17.9-.46-11.99-.21-23.99-.21-35.98.01-6.77.12-13.54.27-20.31.49-.62.02-.62,1.03,0,1,11.99-.44,23.98-.61,35.97-.6,11.99,0,23.99.22,35.97.63,6.76.23,13.54.77,20.3.72.54,0,.51-.79,0-.85Z"/>
      <path class="cls-6" d="M351.3,435.5c-5.98-.67-12.05-.74-18.06-.94-5.96-.2-11.93-.36-17.9-.46-11.99-.21-23.99-.21-35.98.01-6.77.12-13.54.27-20.31.49-.62.02-.62,1.03,0,1,11.99-.44,23.98-.61,35.97-.6,11.99,0,23.99.22,35.97.63,6.76.23,13.54.77,20.3.72.54,0,.51-.79,0-.85Z"/>
    </g>
    <g>
      <g>
        <path class="cls-12" d="M387.29,362.14c-5.96-.1-8,.11-10.9-.1-30.91-2.31-61.95-2.76-92.9-1.35-5.74.26-8.85.2-17.65.43-.26,4.52-.72,13.03-.87,17.17-.57,16.12-.73,32.26-.49,48.39-.1,2.82-.12,5.84-.12,8.97,2.87-.03,6.27.41,9.49.4,8.71-.02,17.42-.04,26.13-.07,24.45-.06,48.9-.12,73.35-.19,3.59,0,7.77-.32,9.8-3.39,1.01-1.52,1.26-3.44,1.46-5.27,1.97-17.48,2.86-35.09,2.66-52.68.03-3.74.03-7.3.03-12.3Z"/>
        <path class="cls-6" d="M387.29,361.26c-20.77-.25-41.49-2.06-62.28-2.23-19.74-.16-39.45.71-59.18,1.21-.49.01-.85.39-.88.88-1.43,24.83-1.44,49.66-1.47,74.52,0,.48.4.87.88.88,34.99.44,70,.24,105.01.15,4.74-.01,11.32.75,14.45-3.75,1.19-1.71,1.38-3.8,1.65-5.8.61-4.51.95-9.08,1.32-13.62,1.38-17.11,1.37-34.21,1.37-51.36,0-1.13-1.75-1.13-1.75,0,0,12.57.11,25.14-.49,37.71-.28,5.86-.69,11.71-1.21,17.55-.29,3.24-.54,6.5-.98,9.72-.87,6.34-4.81,7.67-10.39,7.79-26.91.61-53.9.14-80.82.21-5.6.01-11.2.06-16.8.04-2.57,0-5.84.39-8.34-.3s-1.85-.18-2.13-2.91c-.18-1.72.09-3.55.1-5.27.08-12.91-.13-25.8.19-38.71.13-5.31.31-10.61.57-15.91.12-2.42.25-4.85.38-7.27,0,0-.03-2.36.14-2.55.82-.9,4.39-.35,5.53-.38,10.36-.19,20.71-.73,31.08-.94,28.1-.56,56,1.76,84.04,2.1,1.13.01,1.13-1.74,0-1.75Z"/>
      </g>
      <path class="cls-6" d="M372.97,373.35c-2.97-.48-6.06-.44-9.06-.49-3.05-.05-6.09-.1-9.14-.15-6.15-.1-12.3-.17-18.45-.23-12.24-.11-24.48-.17-36.72-.19-6.95,0-13.91.02-20.86.08-.65,0-.65,1.06,0,1.05,12.24-.1,24.48-.12,36.72.03,12.24.15,24.48.41,36.72.61,3.39.05,6.78.11,10.17.17,3.48.06,7.06.3,10.52-.14.37-.05.55-.68.1-.75Z"/>
      <path class="cls-6" d="M371.74,384.4c-3.03-.2-6.09-.03-9.12.02-2.98.05-5.97.12-8.95.19-6.08.13-12.16.25-18.25.35-12.05.2-24.1.27-36.15.31-6.83.02-13.66.08-20.49-.03-.65-.01-.65,1.06,0,1.05,12.11-.11,24.22,0,36.33-.09,12.05-.08,24.1-.22,36.15-.39,3.39-.05,6.77-.09,10.16-.17,3.43-.08,6.91-.03,10.33-.42.5-.06.52-.78,0-.82Z"/>
      <path class="cls-6" d="M369.57,397.51c-5.98-.67-12.05-.74-18.06-.94-5.96-.2-11.93-.36-17.9-.46-11.99-.21-23.99-.21-35.98.01-6.77.12-13.54.27-20.31.49-.62.02-.62,1.03,0,1,11.99-.44,23.98-.61,35.97-.6,11.99,0,23.99.22,35.97.63,6.76.23,13.54.77,20.3.72.54,0,.51-.79,0-.85Z"/>
      <path class="cls-6" d="M369.57,409.91c-5.98-.67-12.05-.74-18.06-.94-5.96-.2-11.93-.36-17.9-.46-11.99-.21-23.99-.21-35.98.01-6.77.12-13.54.27-20.31.49-.62.02-.62,1.03,0,1,11.99-.44,23.98-.61,35.97-.6,11.99,0,23.99.22,35.97.63,6.76.23,13.54.77,20.3.72.54,0,.51-.79,0-.85Z"/>
      <path class="cls-6" d="M369.57,422.84c-5.98-.67-12.05-.74-18.06-.94-5.96-.2-11.93-.36-17.9-.46-11.99-.21-23.99-.21-35.98.01-6.77.12-13.54.27-20.31.49-.62.02-.62,1.03,0,1,11.99-.44,23.98-.61,35.97-.6,11.99,0,23.99.22,35.97.63,6.76.23,13.54.77,20.3.72.54,0,.51-.79,0-.85Z"/>
    </g>
    <g>
      <g>
        <path class="cls-12" d="M405.85,349.14c-5.96-.1-8,.11-10.9-.1-30.91-2.31-61.95-2.76-92.9-1.35-5.74.26-8.85.2-17.65.43-.26,4.52-.72,13.03-.87,17.17-.57,16.12-.73,32.26-.49,48.39-.1,2.82-.12,5.84-.12,8.97,2.87-.03,6.27.41,9.49.4,8.71-.02,17.42-.04,26.13-.07,24.45-.06,48.9-.12,73.35-.19,3.59,0,7.77-.32,9.8-3.39,1.01-1.52,1.26-3.44,1.46-5.27,1.97-17.48,2.86-35.09,2.66-52.68.03-3.74.03-7.3.03-12.3Z"/>
        <path class="cls-6" d="M405.85,348.26c-20.77-.25-41.49-2.06-62.28-2.23-19.74-.16-39.45.71-59.18,1.21-.49.01-.85.39-.88.88-1.43,24.83-1.44,49.66-1.47,74.52,0,.48.4.87.88.88,34.99.44,70,.24,105.01.15,4.74-.01,11.32.75,14.45-3.75,1.19-1.71,1.38-3.8,1.65-5.8.61-4.51.95-9.08,1.32-13.62,1.38-17.11,1.37-34.21,1.37-51.36,0-1.13-1.75-1.13-1.75,0,0,12.57.11,25.14-.49,37.71-.28,5.86-.69,11.71-1.21,17.55-.29,3.24-.54,6.5-.98,9.72-.87,6.34-4.81,7.67-10.39,7.79-26.91.61-53.9.14-80.82.21-5.6.01-11.2.06-16.8.04-2.57,0-5.84.39-8.34-.3s-1.85-.18-2.13-2.91c-.18-1.72.09-3.55.1-5.27.08-12.91-.13-25.8.19-38.71.13-5.31.31-10.61.57-15.91.12-2.42.25-4.85.38-7.27,0,0-.03-2.36.14-2.55.82-.9,4.39-.35,5.53-.38,10.36-.19,20.71-.73,31.08-.94,28.1-.56,56,1.76,84.04,2.1,1.13.01,1.13-1.74,0-1.75Z"/>
      </g>
      <path class="cls-6" d="M391.53,360.35c-2.97-.48-6.06-.44-9.06-.49-3.05-.05-6.09-.1-9.14-.15-6.15-.1-12.3-.17-18.45-.23-12.24-.11-24.48-.17-36.72-.19-6.95,0-13.91.02-20.86.08-.65,0-.65,1.06,0,1.05,12.24-.1,24.48-.12,36.72.03,12.24.15,24.48.41,36.72.61,3.39.05,6.78.11,10.17.17,3.48.06,7.06.3,10.52-.14.37-.05.55-.68.1-.75Z"/>
      <path class="cls-6" d="M390.3,371.4c-3.03-.2-6.09-.03-9.12.02-2.98.05-5.97.12-8.95.19-6.08.13-12.16.25-18.25.35-12.05.2-24.1.27-36.15.31-6.83.02-13.66.08-20.49-.03-.65-.01-.65,1.06,0,1.05,12.11-.11,24.22,0,36.33-.09,12.05-.08,24.1-.22,36.15-.39,3.39-.05,6.77-.09,10.16-.17,3.43-.08,6.91-.03,10.33-.42.5-.06.52-.78,0-.82Z"/>
      <path class="cls-6" d="M388.13,384.51c-5.98-.67-12.05-.74-18.06-.94-5.96-.2-11.93-.36-17.9-.46-11.99-.21-23.99-.21-35.98.01-6.77.12-13.54.27-20.31.49-.62.02-.62,1.03,0,1,11.99-.44,23.98-.61,35.97-.6,11.99,0,23.99.22,35.97.63,6.76.23,13.54.77,20.3.72.54,0,.51-.79,0-.85Z"/>
      <path class="cls-6" d="M388.13,396.91c-5.98-.67-12.05-.74-18.06-.94-5.96-.2-11.93-.36-17.9-.46-11.99-.21-23.99-.21-35.98.01-6.77.12-13.54.27-20.31.49-.62.02-.62,1.03,0,1,11.99-.44,23.98-.61,35.97-.6,11.99,0,23.99.22,35.97.63,6.76.23,13.54.77,20.3.72.54,0,.51-.79,0-.85Z"/>
      <path class="cls-6" d="M388.13,409.84c-5.98-.67-12.05-.74-18.06-.94-5.96-.2-11.93-.36-17.9-.46-11.99-.21-23.99-.21-35.98.01-6.77.12-13.54.27-20.31.49-.62.02-.62,1.03,0,1,11.99-.44,23.98-.61,35.97-.6,11.99,0,23.99.22,35.97.63,6.76.23,13.54.77,20.3.72.54,0,.51-.79,0-.85Z"/>
    </g>
    <g>
      <path class="cls-13" d="M426.76,387.38c-1.26-2.99-4.01-3.92-6.86-4.31-4.73-.64-9.5-.08-14.23.03-5.08.11-9.97.05-15.08.21-4.77.15-9.54-.76-14.33.62-8.22,2.36-11.71,10.89-17.69,16.53-3.83,3.62-9.88,2.68-14.55,2.86-5.3.2-10.18.17-15.32,0-20.55-.64-40.92-2.83-61.5-1.61-4.04.24-8.09.76-11.39,3.44-3.12,2.53-4.78,6.23-5.74,10.16-2.62,10.7-3.47,21.82-5.01,32.67-1.74,12.2-3.48,24.35-5.19,36.49-.81,5.74-1.69,11.64-2.22,17.24s-.43,10.36-.08,15.86c-1.75.55-2.35,3.21-.16,4.01,9,3.26,18.45,2.38,28.02,2.06,10.39-.34,21.17-.6,31.59-.97,20.84-.75,41.27.45,62.2.04,10.35-.2,21.34-.68,31.91-.83,3.84-.06,8.4.84,12.04-.86,3.19-1.48,4.08-4.45,4.67-7.82,3.83-21.58,6.28-43.78,9.73-65.31,1.76-11.01,3.49-21.09,5.39-31.91.91-5.17,1.78-9.96,2.79-15.27.78-4.12,2.77-9.19,1.02-13.35Z"/>
      <path class="cls-6" d="M426.76,387.38c-1.26-2.99-4.01-3.92-6.86-4.31-4.73-.64-9.5-.08-14.23.03-5.08.11-9.97.05-15.08.21-4.77.15-9.54-.76-14.33.62-8.22,2.36-11.71,10.89-17.69,16.53-3.83,3.62-9.88,2.68-14.55,2.86-5.3.2-10.18.17-15.32,0-20.55-.64-40.92-2.83-61.5-1.61-4.04.24-8.09.76-11.39,3.44-3.12,2.53-4.78,6.23-5.74,10.16-2.62,10.7-3.47,21.82-5.01,32.67-1.74,12.2-3.48,24.35-5.19,36.49-.81,5.74-1.69,11.64-2.22,17.24s-.43,10.36-.08,15.86c-1.75.55-2.35,3.21-.16,4.01,9,3.26,18.45,2.38,28.02,2.06,10.39-.34,21.17-.6,31.59-.97,20.84-.75,41.27.45,62.2.04,10.35-.2,21.34-.68,31.91-.83,3.84-.06,8.4.84,12.04-.86,3.19-1.48,4.08-4.45,4.67-7.82,3.83-21.58,6.28-43.78,9.73-65.31,1.76-11.01,3.49-21.09,5.39-31.91.91-5.17,1.78-9.96,2.79-15.27.78-4.12,2.77-9.19,1.02-13.35ZM422.13,398.33c-.45,2.85-1,5.52-1.5,8.33-1.75,9.83-3.41,19.15-5.07,29.12-3.31,19.93-6.12,40.19-9.06,60.3-.66,4.49-1.33,9.13-1.97,13.69-.3,2.12-.18,4.72-1.39,6.57-1.74,2.65-5.25,2.07-7.85,2.12-9.64.17-19.55.06-28.98.27-21.41.46-42.45-.82-63.81-.28-10.91.28-22.06.54-32.96.83-9.89.26-19.84,1.34-29.55-.87.27-9.18,1.08-18.25,2.36-27.41,1.39-9.99,3.02-19.97,4.5-30.09,1.45-9.89,2.87-19.18,4.36-29.47,1.09-7.51.92-17.62,7.19-23.11,3.59-3.14,8.5-2.55,12.78-2.85,4.98-.35,9.85-.26,14.76-.18,9.38.14,18.75.83,28.08,1.31,9.33.49,18.61.96,27.93.79,4.31-.08,8.68-.16,12.9-.78,3.84-.56,6.06-2.57,8.7-5.37,2.79-2.96,5.34-6.32,8.13-9.36,1.37-1.49,2.7-2.97,4.7-3.64,2.33-.78,4.98-.54,7.39-.59,9.76-.2,18.95-.33,28.87-.54,3.47-.07,9.85-1.45,10.67,3.79.37,2.34-.8,5.12-1.17,7.44Z"/>
    </g>
    <g>
      <path class="cls-12" d="M284.11,463.16c-3.98,26.28,13.94,48.11,40.13,48.11s49.68-21.84,52.38-48.11c2.63-25.57-15.49-45.8-40.43-45.8s-48.21,20.23-52.09,45.8Z"/>
      <g>
        <path class="cls-17" d="M356.6,469.89c-1.61-3.73-2.3-7.96-1.99-12.31.27-3.75,1.54-7.74.58-11.31-.92-3.4-3.94-5.47-5.67-8.38-3.02-5.08-5.48-13.77-13.82-12.11-4.51.9-7.91,4.53-11.24,7.56-3.31,3.02-7.56,5.23-10.04,8.98-1.65,2.49-2.45,5.18-3.06,7.91-.08.07-.14.16-.18.27-1.37,4.25-2.89,8.5-5.04,12.5-2.21,4.13-4.62,8.07-7.09,12.04-.81,1.31-1.57,2.76-1.5,4.21.08,1.76,1.33,3.02,2.34,4.29,2.56,3.23,5.06,6.49,7.67,9.65,2.11,2.54,4.56,4.78,8.1,5.51,1.83.38,3.78.43,5.68.57,2.33.17,4.42.65,6.47,1.49,3.13,1.27,6.22,2.87,10.02,2.28,3.16-.48,5.55-2.46,6.95-5.23.78-1.55,1.28-3.17,1.99-4.73.95-2.09,2.21-4.08,3.74-5.92,2.29-2.75,5.9-4.97,7.52-8.16,1.76-3.47-.21-6.28-1.43-9.1Z"/>
        <g class="cls-19">
          <path class="cls-15" d="M360.21,476.34c-.68-4.45-4.64-6.84-6.34-10.75-1.84-4.23,2.3-8.62,3.24-13.11,1.13-5.38-2.11-9.74-6.54-11.86-.99-.48-1.43-.27-1.47-1.5-.04-1.34.34-2.9.53-4.27.22-1.54.43-3.06.34-4.57,0-.07,0-.14,0-.21.42-.43.76-.97.96-1.62.45-1.48,0-2.78-.97-3.73-.36-.35-.79-.52-1.23-.53-1.88-1-4.88.62-4.76,3.33.07,1.54-.44,3.14-.33,4.7.12,1.67.27,3.22.1,4.94-.3,3.01-.29,5.19,1.22,7.56,1.49,2.35,5.54,3.04,6.17,5.99.53,2.45-1.74,5.7-2.82,8.02-2.94,6.28-.7,11.58,3.05,15.86.8.91,1.88,1.8,2.23,3.01.32,1.1-.21,2.06-.77,3.15-1.73,3.36-3.04,6.68-3.63,10.2-.46,2.78,3.95,3.55,5.11.67,1.04-2.59,2.11-5.24,3.6-7.72,1.5-2.49,2.74-4.85,2.33-7.56Z"/>
          <path class="cls-14" d="M341.8,473.94c-2.45-1.74-5.48-2.78-8.66-3.25.81-.62,1.32-1.61.89-2.65-.48-1.17-.31-2.63-.41-3.92-.15-1.93-.51-3.82-.61-5.77-.19-3.55.55-7.3,2.05-10.84,1.44-3.39,3.8-6.3,5.57-9.57,1.97-3.62,1.93-7,1.2-10.53-.37-1.79-3.53-1.72-3.72.49-.15,1.76-.09,3.56-.41,5.32-.34,1.88-1.37,3.65-2.46,5.31-2.27,3.48-4.31,6.86-5.5,10.68-1.15,3.68-1.61,7.38-1.32,10.97.15,1.88.49,3.71.61,5.59.1,1.56.09,3.09.67,4.5.03.06.05.12.08.18-2.45,0-5.43.41-7.42,1.69-.75-2.56-2.05-5.05-3.3-7.14-2.02-3.38-5.07-6.33-9.07-7.6-1.73-.55-3.21,1.71-2.23,2.96,2.01,2.55,4.79,4.32,6.46,7.16,1.51,2.56,3.2,5.59,3.63,8.64.42,2.94-.7,6.65-2.03,9.52-1.64,3.55-4.85,5.5-7.46,8.34-1.43,1.56.59,3.84,2.4,2.69,3.45-2.19,6.79-5.93,8.69-9.39,1.83-3.33,3.58-7.73,3.53-11.38.05,0,.11,0,.16-.01,1.38-.21,2.74-.85,4.15-1.06,1.21-.18,2.43-.23,3.6-.13,3.09.26,5.94,1.37,8.32,2.97,4.38,2.95,5.5,8.2,5.95,13.3.12,1.34,2.31,1.04,2.57-.32,1.23-6.62-.74-13.01-5.95-16.72Z"/>
        </g>
      </g>
      <path class="cls-16" d="M356.6,469.89c-1.61-3.73-2.3-7.96-1.99-12.31.27-3.75,1.54-7.74.58-11.31-.92-3.4-3.94-5.47-5.67-8.38-3.02-5.08-5.48-13.77-13.82-12.11-4.51.9-7.91,4.53-11.24,7.56-3.31,3.02-7.56,5.23-10.04,8.98-1.65,2.49-2.45,5.18-3.06,7.91-.08.07-.14.16-.18.27-1.37,4.25-2.89,8.5-5.04,12.5-2.21,4.13-4.62,8.07-7.09,12.04-.81,1.31-1.57,2.76-1.5,4.21.08,1.76,1.33,3.02,2.34,4.29,2.56,3.23,5.06,6.49,7.67,9.65,2.11,2.54,4.56,4.78,8.1,5.51,1.83.38,3.78.43,5.68.57,2.33.17,4.42.65,6.47,1.49,3.13,1.27,6.22,2.87,10.02,2.28,3.16-.48,5.55-2.46,6.95-5.23.78-1.55,1.28-3.17,1.99-4.73.95-2.09,2.21-4.08,3.74-5.92,2.29-2.75,5.9-4.97,7.52-8.16,1.76-3.47-.21-6.28-1.43-9.1ZM312.87,448.85c.99-3.63,2.65-6.79,5.8-9.38,3.01-2.47,6.06-4.72,8.96-7.38,3.17-2.91,7.2-6.1,11.39-5.09,1.32.32,2.42.95,3.35,1.77-.09.1-.14.23-.14.39,0,.52-.03,1.08.05,1.6-.2,3.9-1.92,7.1-4.16,10.7-1.86,3-3.46,6-4.42,9.26-2.02,6.86-1.16,13.55-.45,20.02-3.53-.53-7.35-.15-10.43,1.81-1-6.89-5.93-11.88-11.85-15.47.76-2.71,1.15-5.54,1.88-8.23ZM311.13,494.21c-2.63-2.39-4.63-5.53-6.8-8.28-1.34-1.71-2.78-3.38-4.05-5.15-1.57-2.19-.06-4.25,1.42-6.49,2.19-3.32,4.11-6.78,5.79-10.34,1.51-1.71,2.44-3.61,3.11-5.61,2.56,1.94,5.26,3.67,7.34,6.1,2.5,2.92,3.91,6.59,3.88,10.62-.06,7.43-4.35,14.27-10.69,19.15ZM346.95,489.84c-1.8,2.99-2.31,6.59-4.48,9.37-2.68,3.43-7.23,2.76-10.29,1.55-3.19-1.26-5.93-2.82-9.57-3.18-3.86-.38-7.61-.29-10.57-2.61,6.5-4.89,11-12.43,11-19.85,0-.47-.02-.94-.05-1.4,2.98-.81,5.66-1.69,8.72-1.57,3.23.13,6.19,1.12,8.63,2.81,4.6,3.19,6.25,8.05,7.8,13.13-.41.56-.81,1.14-1.17,1.75ZM353.57,482.24c-1.57,1.44-3.04,2.88-4.35,4.44-.66-5.43-4.14-10.54-8.63-13.35-1.58-.99-3.63-1.83-5.86-2.32-.95-7.14-1.69-14.82.98-22.41,1.96-5.58,8.39-11.83,7.77-17.81.03-.32,0-.64-.05-.96,1.19,1.38,2.09,3.04,2.85,4.63,1.42,2.94,2.9,5.56,4.98,8.02,1.18,1.39,2.3,2.85,2.7,4.71.39,1.8.16,3.77-.11,5.67-.51,3.57-.92,7-.51,10.42.39,3.27,1.4,6.23,2.75,9.07.71,1.49,1.5,3.12,1.11,4.95-.41,1.94-2.14,3.55-3.65,4.93Z"/>
    </g>
  </g>
  <g>
    <g>
      <path class="cls-11" d="M938.98,415.91c-2.33.14-2.32-3.62,0-3.76,6.48-.38,12.99-.75,19.48-.71,4.11.02,7.7,1.02,9.52,5.24,2.26,5.23,0,11.52-1,16.8-1.25,6.6-2.36,13.23-3.37,19.88-2.05,13.57-3.44,27.25-4.36,40.96-.39,5.77-.39,11.66-1.22,17.38-.58,3.97-1.85,7.84-5.5,9.72"/>
      <path class="cls-6" d="M938.98,412.15c6.48-.38,12.99-.75,19.48-.71,4.11.02,7.7,1.02,9.52,5.24,2.26,5.23,0,11.52-1,16.8-1.25,6.6-2.36,13.23-3.37,19.88-2.05,13.57-3.44,27.25-4.36,40.96-.39,5.77-.39,11.66-1.22,17.38-.58,3.97-1.85,7.84-5.5,9.72-.85.44-1.91-.74-1.08-1.46,3.47-3,3.79-7.59,3.83-11.98.05-5.49.16-10.96.45-16.45.59-11.07,1.71-22.1,3.17-33.08,1.46-11.01,3.69-21.79,5.66-32.7.48-2.65,1.11-6.07-.59-8.45-1.84-2.57-5.44-1.97-8.11-1.95-5.63.04-11.26.22-16.88.55-2.33.14-2.32-3.62,0-3.76Z"/>
      <path class="cls-11" d="M764.2,400.73c1.01,5.31,1.88,10.09,2.79,15.27,1.9,10.82,3.63,20.9,5.39,31.91,3.45,21.53,5.91,43.73,9.73,65.31.6,3.37,1.49,6.34,4.67,7.82,3.64,1.69,8.19.8,12.04.86,10.57.15,21.56.63,31.91.83,20.92.41,41.35-.78,62.2-.04,10.42.37,21.2.63,31.59.97,9.57.31,19.02,1.2,28.02-2.06,2.19-.79,1.6-3.45-.16-4.01.36-5.5.45-10.26-.08-15.86-.53-5.6-1.41-11.51-2.22-17.24-1.72-12.13-3.45-24.28-5.19-36.49-1.55-10.85-2.4-21.97-5.01-32.67-.96-3.93-2.62-7.63-5.74-10.16-3.3-2.68-7.34-3.2-11.39-3.44-20.58-1.22-40.95.97-61.5,1.61-5.13.16-10.02.19-15.32,0-4.67-.18-10.72.76-14.55-2.86-5.98-5.64-9.47-14.17-17.69-16.53-4.8-1.38-9.57-.47-14.33-.62-5.12-.17-10-.1-15.08-.21-4.73-.1-9.5-.67-14.23-.03-2.85.39-5.6,1.31-6.86,4.31-1.75,4.16.23,9.23,1.02,13.35Z"/>
      <path class="cls-6" d="M764.2,400.73c1.01,5.31,1.88,10.09,2.79,15.27,1.9,10.82,3.63,20.9,5.39,31.91,3.45,21.53,5.91,43.73,9.73,65.31.6,3.37,1.49,6.34,4.67,7.82,3.64,1.69,8.19.8,12.04.86,10.57.15,21.56.63,31.91.83,20.92.41,41.35-.78,62.2-.04,10.42.37,21.2.63,31.59.97,9.57.31,19.02,1.2,28.02-2.06,2.19-.79,1.6-3.45-.16-4.01.36-5.5.45-10.26-.08-15.86-.53-5.6-1.41-11.51-2.22-17.24-1.72-12.13-3.45-24.28-5.19-36.49-1.55-10.85-2.4-21.97-5.01-32.67-.96-3.93-2.62-7.63-5.74-10.16-3.3-2.68-7.34-3.2-11.39-3.44-20.58-1.22-40.95.97-61.5,1.61-5.13.16-10.02.19-15.32,0-4.67-.18-10.72.76-14.55-2.86-5.98-5.64-9.47-14.17-17.69-16.53-4.8-1.38-9.57-.47-14.33-.62-5.12-.17-10-.1-15.08-.21-4.73-.1-9.5-.67-14.23-.03-2.85.39-5.6,1.31-6.86,4.31-1.75,4.16.23,9.23,1.02,13.35ZM766.64,390.89c.82-5.24,7.2-3.86,10.67-3.79,9.92.2,19.11.34,28.87.54,2.41.05,5.06-.19,7.39.59,1.99.67,3.32,2.15,4.7,3.64,2.79,3.04,5.34,6.4,8.13,9.36,2.64,2.8,4.86,4.8,8.7,5.37,4.22.62,8.59.7,12.9.78,9.32.17,18.59-.3,27.93-.79,9.33-.49,18.7-1.17,28.08-1.31,4.91-.07,9.78-.16,14.76.18,4.28.3,9.19-.29,12.78,2.85,6.28,5.49,6.1,15.6,7.19,23.11,1.49,10.28,2.91,19.58,4.36,29.47,1.48,10.12,3.11,20.1,4.5,30.09,1.28,9.17,2.09,18.23,2.36,27.41-9.71,2.2-19.66,1.13-29.55.87-10.9-.29-22.06-.55-32.96-.83-21.36-.55-42.4.74-63.81.28-9.44-.2-19.35-.1-28.98-.27-2.59-.04-6.11.54-7.85-2.12-1.21-1.84-1.1-4.45-1.39-6.57-.64-4.56-1.31-9.2-1.97-13.69-2.94-20.1-5.75-40.37-9.06-60.3-1.65-9.97-3.31-19.29-5.07-29.12-.5-2.81-1.05-5.48-1.5-8.33-.37-2.33-1.54-5.1-1.17-7.44Z"/>
    </g>
    <g>
      <path class="cls-10" d="M889.04,448.15c-4.44-7.81-11.49-12.62-19.28-16.38-3.75-1.81-7.61-3.61-11.63-4.17-4.49-.62-8.7.61-12.82,1.73-9.06,2.45-15.46,6.74-19.33,15.47-3.38,7.64-7.18,16.92-4.36,25.94-.24,14.89,11.12,29.5,25.73,33.46,7.85,2.13,17.45,2.33,24.68-.02,3.43-1.12,6.41-2.95,9.4-4.83,2.75-1.73,5.9-3.84,7.54-6.77,1.62-2.89,2.24-6.52,3.5-9.66,1.43-3.55,2.98-7.17,3.27-11.19.55-7.48-2.8-16.72-6.71-23.58Z"/>
      <path class="cls-8" d="M857.86,425.75c-2.85-.6-6.19-.26-8.66.08-9.49,1.32-19.16,6.39-23.93,14.64-5.88,10.16-7.77,25.64-3.98,39.01,2.52,8.89,7.54,16.85,15.48,21.91,3.63,2.32,7.69,3.83,11.71,4.8,16.91,4.11,35.35-.19,43.74-14.93,8.19-14.4,6.36-36.58-6.25-50.99-3.92-4.48-9.05-7.5-14.17-10.16-4.52-2.34-9.09-4.02-13.93-4.38h0ZM856.91,429.04c-2.29-.34-4.87.02-6.82.29-8.64,1.2-17.5,5.74-21.87,13.25-5.52,9.49-7.32,23.97-3.81,36.49,2.25,8.01,6.68,15.23,13.83,19.81,3.3,2.11,7,3.47,10.65,4.37,15.71,3.84,32.9.02,40.65-13.68,7.55-13.33,5.86-33.84-5.81-47.11-3.61-4.1-8.35-6.81-13.06-9.24-3.48-1.79-6.98-3.17-10.65-3.74-.36.19-.81.22-1.26.04-.27-.1-.56-.19-.84-.27l-.33-.02c-.24,0-.47-.08-.68-.19h0Z"/>
      <path class="cls-8" d="M822.88,471.94c.52-.02,1.68-.06,1.76-.06,1.88-.03,3.75-.1,5.61-.18,5.82-.24,11.61-.58,17.39-.86,10.42-.52,20.66-1.72,30.97-2.22,5.69-.28,11.74.51,17.32-.29.84-.12,1.36-.94,1.17-1.82-.19-.89-1.02-1.51-1.87-1.39-5.5.79-11.48-.02-17.1.25-10.34.5-20.62,1.7-31.07,2.21-5.79.28-11.58.62-17.42.85-1.84.07-3.69.15-5.54.17-.12,0-1.95.05-2.31.09-.72.08-.97.49-1.02.57-.22.3-.27.62-.25.92.02.37.15.74.46,1.11.05.06.45.66,1.46.71.15,0,.31,0,.44-.04h0ZM822.8,468.88c-.18-.1-.41-.17-.69-.18.24.01.48.08.69.18Z"/>
      <path class="cls-8" d="M851.88,426.16c-.33.85-.37,2.03-.19,3.31.2,1.41.63,2.96.78,3.96.79,5.45,1.6,10.84,2.33,16.18,2.64,19.34,7.29,37.88,9.62,55.85.11.84.88,1.5,1.72,1.48s1.44-.72,1.33-1.55c-2.27-17.97-6.86-36.49-9.44-55.82-.71-5.35-1.5-10.75-2.28-16.2-.12-.85-.44-2.08-.66-3.3-.15-.83-.31-1.66-.1-2.19.34-.85-.08-1.93-.94-2.4-.85-.48-1.82-.18-2.16.68h0Z"/>
      <path class="cls-8" d="M845.28,426.65c-.66.28-1.33.93-1.9,1.76-.62.89-1.15,1.99-1.55,2.61-3.15,4.86-4.94,10.66-5.9,16.55-3.3,20.48,1.59,46,19.17,59.71.7.55,1.66.48,2.15-.15.49-.63.31-1.59-.4-2.14-16.55-12.98-20.81-37.11-17.66-56.39.89-5.46,2.55-10.83,5.48-15.33.39-.6.91-1.66,1.51-2.53.24-.34.45-.68.72-.8.8-.34,1.09-1.36.65-2.27-.45-.91-1.46-1.37-2.27-1.02h0Z"/>
      <path class="cls-8" d="M872.26,502.81c-.31.05-.61.19-.82.44-.54.6-.44,1.56.22,2.15.4.36,1,.62,1.73.39.47-.14,1.3-.83,1.42-.93,1.25-1.07,2.13-2.6,2.94-4.02,3.12-5.49,5.06-12,5.64-18.62,1.53-17.49-3.21-40.62-18.26-54.91-.72-.69-1.75-.69-2.31,0s-.42,1.8.3,2.47c14.24,13.46,18.58,35.33,17.18,51.87-.53,6.22-2.33,12.34-5.25,17.5-.66,1.17-1.33,2.46-2.36,3.33-.03.03-.27.22-.42.34h0ZM873.49,503.15l.02.02h-.01s0-.02,0-.02Z"/>
      <path class="cls-8" d="M827.78,442.26c.41.26,1.26.8,1.59.97,1.38.68,2.79,1.27,4.2,1.79,3.87,1.43,7.88,2.7,11.82,3.38,9.26,1.62,17.83-.5,26.09-3.17,1.81-.58,4.33-1.36,6.43-2.53,1.59-.88,2.95-1.99,3.76-3.36.45-.76.2-1.83-.58-2.4-.77-.56-1.76-.41-2.21.35-.58.97-1.59,1.72-2.71,2.34-1.95,1.09-4.28,1.78-5.96,2.33-7.84,2.53-15.95,4.62-24.72,3.08-3.75-.66-7.55-1.88-11.24-3.25-1.29-.48-2.58-1.02-3.83-1.64-.44-.22-1.5-.96-1.66-1.04-1.25-.69-1.93.2-2.02.33-.05.06-.85,1.42.64,2.57.13.1.27.18.41.25h0ZM829.66,440.04c-.1-.21-.27-.44-.56-.67.24.19.43.41.56.67Z"/>
      <path class="cls-8" d="M833.19,494.19c-.17.07-.33.17-.46.31-.63.65-.35,1.33-.29,1.49.08.23,1.01,1.81,2.43,1.07.43-.22,3.74-2.52,4.55-2.92,3.43-1.68,7.19-2.83,11.06-3.48,12.04-2.03,25.87-4.03,37.35,3.01.75.45,1.67.25,2.06-.47.39-.72.11-1.67-.64-2.14-12.18-7.5-26.87-5.65-39.66-3.5-4.16.7-8.19,1.93-11.87,3.74-.74.37-3.93,2.49-4.52,2.89h0ZM835.53,495.72c.04.4-.08.8-.36,1.09.38-.4.41-.8.36-1.09Z"/>
    </g>
  </g>
  <g>
    <path class="cls-12" d="M513.85,211.92c-13.46-3.29-26.73-8.14-39.54-13.49-13.2-5.51-25.43-12.52-37.87-19.63-.81-.47-1.44.68-.77,1.26-19.87,28.69-44.81,53.39-74.87,70.29-.65.37-.64,1.22-.22,1.75,17.54,21.8,38.26,40.36,63.04,52.75,2.72,1.36,5.48,2.64,8.27,3.85,2.65,1.15,5.92,3.06,8.83,3.22,2.42.13,3.75-1.56,5.24-3.3,2.86-3.36,5.72-6.73,8.55-10.11,10.72-12.77,21.64-25.38,32.18-38.32,11.16-13.7,18.48-30.45,27.08-45.91.07-.13.11-.25.12-.38.79-.29.98-1.74-.05-1.99Z"/>
    <path class="cls-6" d="M513.85,211.92c-13.46-3.29-26.73-8.14-39.54-13.49-13.2-5.51-25.43-12.52-37.87-19.63-.81-.47-1.44.68-.77,1.26-19.87,28.69-44.81,53.39-74.87,70.29-.65.37-.64,1.22-.22,1.75,17.54,21.8,38.26,40.36,63.04,52.75,2.72,1.36,5.48,2.64,8.27,3.85,2.65,1.15,5.92,3.06,8.83,3.22,2.42.13,3.75-1.56,5.24-3.3,2.86-3.36,5.72-6.73,8.55-10.11,10.72-12.77,21.64-25.38,32.18-38.32,11.16-13.7,18.48-30.45,27.08-45.91.07-.13.11-.25.12-.38.79-.29.98-1.74-.05-1.99ZM489.88,252.9c-4.37,6.12-9.43,11.73-14.3,17.42-5.22,6.1-10.33,12.29-15.49,18.44-4.9,5.84-9.84,11.66-14.73,17.51-1.69,2.02-2.68,4.02-5.71,3.43-1.23-.24-2.45-.92-3.61-1.39-3.42-1.38-6.8-2.89-10.12-4.51-11.6-5.66-22.57-12.72-32.67-20.9-11.2-9.07-21.61-19.58-30.31-31.27,28.93-17.94,54.94-41.63,73.81-70.78,10.99,8.03,23.64,13.97,36.02,19.22,12.82,5.43,26.02,9.35,39.26,13.45-3.74,7.04-7.6,14.01-11.42,21.01-3.39,6.23-6.62,12.61-10.73,18.37Z"/>
    <path class="cls-6" d="M493.38,228.64c-10.8-3.36-21.49-7.11-31.87-11.69-10.15-4.49-19.53-10.28-29.4-15.3-.65-.33-1.15.57-.56,1,9.12,6.67,20,11.55,30.25,16.03,10.16,4.45,20.61,8.21,31.32,10.96.62.16.87-.8.26-.99Z"/>
    <path class="cls-6" d="M481.73,237.55c-10.46-2.94-20.7-6.62-30.51-11.43-9.59-4.7-18.41-10.46-27.16-16.64-.5-.35-1.13.48-.65.87,16.79,13.5,37.44,23.17,58.07,28.15.59.14.84-.78.25-.94Z"/>
    <path class="cls-6" d="M474.8,248.06c-20-6.42-38.98-15.74-56.14-28.22-.59-.43-1.14.57-.56,1,17.15,12.61,36.18,22.33,56.44,28.19.6.17.85-.78.26-.97Z"/>
    <path class="cls-6" d="M464.17,259.17c-9.46-3.97-18.85-7.99-27.83-13.05-8.7-4.89-16.98-10.52-24.91-16.66-.71-.55-1.37.68-.69,1.22,15.78,12.58,34.06,23.41,53.18,29.41.58.18.78-.7.25-.92Z"/>
    <path class="cls-6" d="M453.47,273.03c-8.62-4.08-17.06-8.58-25.15-13.73-8.39-5.35-16.01-11.54-23.77-17.8-.6-.48-1.45.33-.86.89,14.08,13.46,31.71,24.16,49.39,31.59.52.22.91-.71.39-.96Z"/>
    <path class="cls-6" d="M442.59,282.61c-10.3-4.7-19.66-10.61-28.87-17.28-.51-.37-1.16.49-.67.91,8.65,7.38,18.78,13.08,29.18,17.29.5.2.87-.69.37-.92Z"/>
  </g>
  <g>
    <path class="cls-12" d="M845.33,272.3c-31.06-23.03-56.72-53.85-74.44-88.93-.4-.79-1.36-.45-1.63.22-5.24,12.89-16.98,21.36-27.52,29.27-10.14,7.61-20.74,17.11-32.98,20.85-.23-.24-.58-.39-1.04-.32l-2.48.37c-.54.08-.93.85-.74,1.36,2.82,7.82,5.29,15.83,8.45,23.51,3.01,7.33,7.5,13.77,11.86,20.27,4.7,7.01,9.4,14.01,14.1,21.02,4.63,6.91,8.99,14.07,13.82,20.83,4.09,5.72,10.69,5.32,16.48,8.15,2.3,1.12,4.54,3.26,7.15,3.51,2.95.28,6.28-1.57,8.93-2.7,11.75-5.03,22.41-12.48,31.86-21.26,10.9-10.12,20.42-22.04,28.58-34.62.35-.53.06-1.2-.39-1.53Z"/>
    <path class="cls-6" d="M845.33,272.3c-31.06-23.03-56.72-53.85-74.44-88.93-.4-.79-1.36-.45-1.63.22-5.24,12.89-16.98,21.36-27.52,29.27-10.14,7.61-20.74,17.11-32.98,20.85-.23-.24-.58-.39-1.04-.32l-2.48.37c-.54.08-.93.85-.74,1.36,2.82,7.82,5.29,15.83,8.45,23.51,3.01,7.33,7.5,13.77,11.86,20.27,4.7,7.01,9.4,14.01,14.1,21.02,4.63,6.91,8.99,14.07,13.82,20.83,4.09,5.72,10.69,5.32,16.48,8.15,2.3,1.12,4.54,3.26,7.15,3.51,2.95.28,6.28-1.57,8.93-2.7,11.75-5.03,22.41-12.48,31.86-21.26,10.9-10.12,20.42-22.04,28.58-34.62.35-.53.06-1.2-.39-1.53ZM790.53,325.1c-2.74,1.4-5.54,2.65-8.38,3.79-1.35.54-2.89,1.31-4.33,1.53-2.28.36-3.95-1-5.82-2.08-2.57-1.49-5.3-2.64-8.14-3.43-3.83-1.07-6.89-1.71-9.35-5.23-8.8-12.58-17.23-25.46-25.79-38.22-4.64-6.92-9.72-13.75-13.2-21.41-3.52-7.77-5.96-16.13-8.59-24.27.36-.04.71-.08,1.07-.12.3-.04.53-.15.7-.31,6.23-1.29,11.74-4.55,17-8.21,6.41-4.47,12.7-9.16,18.91-13.92,9.86-7.56,20.18-15.58,25.56-27.3,17.9,34.44,42.91,64.24,73.14,87.6-13.8,20.82-30.63,40.24-52.79,51.58Z"/>
    <path class="cls-6" d="M778.11,329.93c-2-1.95-3.98-3.89-5.75-6.08-1.05-1.3-2.05-2.64-2.97-4.04-.55-.83-1.04-2.1-1.83-2.71-1.31-1.03-2.53-.11-3.82.52-2.77,1.35-5.56,2.66-8.27,4.14-.62.34-.19,1.46.49,1.2,2.09-.82,4.13-1.74,6.17-2.66,1.1-.5,2.54-1.54,3.78-1.33,1.35.23,1.68,1.5,2.49,2.69,2.45,3.61,5.35,6.92,8.74,9.6.73.58,1.64-.68.98-1.32Z"/>
    <path class="cls-6" d="M770.1,212.09c-5.65,6.78-11.81,13.01-19,18.03-7.24,5.05-15.06,8.49-23.33,11.26-.94.31-.56,1.79.41,1.54,16.62-4.31,32.84-15.67,42.73-30.18.33-.49-.43-1.1-.81-.65Z"/>
    <path class="cls-6" d="M775.12,222.48c-6.42,6.86-13.35,13.2-21.05,18.47-3.6,2.46-7.34,4.69-11.19,6.68-4.82,2.48-9.91,5.05-15.38,5.14-.91.02-.9,1.41,0,1.46,4.82.29,9.23-1.75,13.52-3.8,4.51-2.16,8.88-4.65,13.05-7.45,8.14-5.46,15.57-12.03,21.73-19.81.38-.48-.24-1.15-.67-.69Z"/>
    <path class="cls-6" d="M781.54,236.99c-6.63,6.25-13.43,12.5-21.08,17.38-7.47,4.76-15.52,7.68-24.19,8.91-.82.12-.62,1.53.2,1.5,18.28-.63,33.77-13.98,45.88-26.95.51-.55-.26-1.34-.8-.83Z"/>
    <path class="cls-6" d="M790.96,251.73c-13.71,11.66-27.8,22.8-45.59,26.38-.86.17-.48,1.48.36,1.35,17.74-2.82,32.9-14.93,45.91-27.02.47-.44-.21-1.11-.68-.71Z"/>
    <path class="cls-6" d="M803.56,261.09c-11.64,16.53-29.68,23.75-48,29.13-.83.25-.49,1.55.36,1.35,18.45-4.42,37.79-12.93,48.63-29.87.42-.65-.57-1.22-1-.61Z"/>
    <path class="cls-6" d="M812.53,278.45c-13,9.95-25.96,19.73-41.04,26.03-.92.38-.56,1.93.42,1.58,15.44-5.55,28.66-16.23,41.36-26.62.54-.44-.18-1.42-.74-.99Z"/>
  </g>
  <g>
    <path class="cls-12" d="M685.31,148.64c-13.89-27.63-32.61-52.38-54.37-73.82-.45-.44-1.25-.39-1.55.21-10.45,20.33-19.59,42.11-33.08,60.54-12.37,16.9-28.01,30.54-45.06,42.06-.82.55-.71,1.9.28,2.19,24.86,7.21,46.31,22.51,67.7,36.94,2.53,1.71,5.11,3.91,7.89,5.13,2.24.98,4.53.29,6.73-.51,5.5-2.01,10.27-5.76,14.67-9.65,8.69-7.69,16.14-16.9,22.05-27.04,6.27-10.76,11.1-22.83,13.44-35.22.49.87,1.77.08,1.31-.82Z"/>
    <path class="cls-6" d="M685.31,148.64c-13.89-27.63-32.61-52.38-54.37-73.82-.45-.44-1.25-.39-1.55.21-10.45,20.33-19.59,42.11-33.08,60.54-12.37,16.9-28.01,30.54-45.06,42.06-.82.55-.71,1.9.28,2.19,24.86,7.21,46.31,22.51,67.7,36.94,2.53,1.71,5.11,3.91,7.89,5.13,2.24.98,4.53.29,6.73-.51,5.5-2.01,10.27-5.76,14.67-9.65,8.69-7.69,16.14-16.9,22.05-27.04,6.27-10.76,11.1-22.83,13.44-35.22.49.87,1.77.08,1.31-.82ZM650.99,206.57c-4.3,4.19-8.93,8.26-14.2,11.08-3.51,1.88-7.2,3.62-10.86,1.17-2.49-1.67-4.95-3.37-7.42-5.08-10.03-6.93-20.01-13.93-30.47-20.15-10.64-6.32-21.73-11.78-33.49-15.39,16.01-11.23,30.91-24.66,42.74-40.54,6.51-8.75,11.85-18.28,16.85-28.02,5.53-10.77,10.98-21.58,16.38-32.41,20.78,20.17,38.04,43.82,52.01,69.53-.03.06-.05.14-.06.21-4.64,22.81-15,43.55-31.48,59.59Z"/>
    <path class="cls-6" d="M673.69,163.22c-6.5-10.02-13.95-19.42-22.08-28.05-8.04-8.53-16.82-17.08-26.51-23.58-.57-.38-1.27.53-.74.99,8.8,7.62,17.69,14.87,25.77,23.36,8.25,8.67,15.77,17.97,22.76,27.76.35.48,1.13.04.8-.48Z"/>
    <path class="cls-6" d="M667.92,170.72c-13.33-18.26-29.64-34.2-47.73-47.3-.54-.39-1.03.51-.51.9,17.85,13.42,33.59,29.26,47.49,46.99.33.43,1.06-.15.74-.59Z"/>
    <path class="cls-6" d="M657.99,180.57c-12.56-16.88-28.37-30.96-46.19-41.54-.75-.45-1.43.75-.68,1.21,17.63,10.72,33.06,24.64,46.01,41.03.39.49,1.24-.18.86-.69Z"/>
    <path class="cls-6" d="M648.82,189.36c-13.88-15.74-31.09-28.82-49.71-37.86-.79-.38-1.48.81-.69,1.22,18.55,9.66,35.02,22.12,49.61,37.45.51.53,1.27-.27.79-.82Z"/>
    <path class="cls-6" d="M638.7,199.35c-7.31-7.35-15.32-13.88-23.88-19.59-8.34-5.56-17.64-11.19-27.15-14.28-.55-.18-.92.7-.4.98,8.96,4.6,17.96,8.61,26.46,14.18,8.66,5.67,16.74,12.24,24.29,19.42.46.43,1.13-.26.68-.71Z"/>
  </g>
  <g id="_لوگو" data-name="لوگو" class="cls-3">
    <g>
      <path class="cls-1" d="M598.07,380.49c-20.78,0-28.4,7.62-28.4,28.4s7.62,28.4,28.4,28.4c20.78,0,28.4-7.62,28.4-28.4,0-20.78-7.62-28.4-28.4-28.4"/>
      <g class="cls-18">
        <path class="cls-4" d="M583.24,400.5h-2.61c-1.54,0-2.78,1.25-2.78,2.78h0c0,9.59,7.78,17.37,17.37,17.37h.28v16.62h5.11v-19.41c0-9.59-7.78-17.37-17.37-17.37Z"/>
        <path class="cls-9" d="M615.51,395.51h-2.61c-6.31,0-11.84,3.37-14.88,8.41,1.67,1.77,3,3.8,3.95,6.04.75,1.77,1.24,3.62,1.46,5.53,8.4-1.21,14.86-8.45,14.86-17.19h0c0-1.54-1.25-2.78-2.78-2.78Z"/>
      </g>
    </g>
  </g>
</svg>