<?xml version="1.0" encoding="UTF-8"?>
<svg id="Layer_6" data-name="Layer 6" xmlns="http://www.w3.org/2000/svg" xmlns:xlink="http://www.w3.org/1999/xlink" viewBox="0 0 1200 600">
  <defs>
    <style>
      .cls-1, .cls-2 {
        fill: #fff;
      }

      .cls-3, .cls-4, .cls-5, .cls-6, .cls-7, .cls-8, .cls-9, .cls-2, .cls-10, .cls-11, .cls-12, .cls-13, .cls-14, .cls-15, .cls-16 {
        stroke-width: 0px;
      }

      .cls-3, .cls-17 {
        fill: #fc3;
      }

      .cls-4 {
        fill: #e6e6e6;
      }

      .cls-18 {
        clip-path: url(#clippath-2);
      }

      .cls-6 {
        fill: #dfe1ea;
      }

      .cls-7, .cls-19 {
        fill: #6870ee;
      }

      .cls-8 {
        fill: none;
      }

      .cls-20 {
        clip-path: url(#clippath-1);
      }

      .cls-21 {
        clip-path: url(#clippath-4);
      }

      .cls-9 {
        fill: #ccc;
      }

      .cls-10 {
        fill: #535fd3;
      }

      .cls-22 {
        clip-path: url(#clippath);
      }

      .cls-11 {
        fill: #fff9e9;
      }

      .cls-12 {
        fill: #5663d8;
      }

      .cls-23 {
        clip-path: url(#clippath-3);
      }

      .cls-13 {
        fill: #8491f7;
      }

      .cls-14 {
        fill: #ccd2ea;
      }

      .cls-24 {
        clip-path: url(#clippath-5);
      }

      .cls-15 {
        fill: #7f8def;
        opacity: .78;
      }

      .cls-16 {
        fill: #1b1c26;
      }
    </style>
    <clipPath id="clippath">
      <path class="cls-2" d="M853.54,152.84c-8.6-13.69-24.35-20.32-39.81-22.45-9.49-1.31-19.09-1.16-28.65-.94-10.49.24-20.97.5-31.46.74-41.61.98-83.21,1.96-124.82,3-19.66.49-39.36.6-59,1.48-14.24.63-29.86,2.17-42.2,9.96-13.21,8.33-18.99,22.26-20.58,37.31-.99,9.37-.81,18.87-.77,28.28.05,10.42.28,20.84.58,31.26.15,5,.33,9.99.51,14.99.17-.06.35-.11.53-.16-.63,10.06-1.15,20.08-1.21,30.2-.07,12.15.11,24.31.61,36.45.41,10.1,0,20.87,3.42,30.54,2.95,8.33,9.22,14.62,17.35,18.02,5.1,2.14,10.59,3.27,16.09,3.73,4.44.37,9.31.65,13.96.34,0,.1,0,.19,0,.29,19.29.27,38.58.42,57.87.45,4.99,0,9.98.01,14.97,0-1.75,2.12-1.71,5.16-.4,7.63,1.89,3.57,5.79,4.78,9.58,5.02,4.91.32,9.96-.14,14.92-.4.58,4.03.88,7.93.91,11.84-8.97-1.73-17.99-1.69-26.73,1.26-7.25,2.45-15.27,6.8-18.24,14.32-2.76,6.98.75,14.1,6.63,18.18,7.64,5.31,17.96,5.09,26.85,5.46,22.36.95,44.66.19,66.95-1.69,9.25-.78,19.83-.9,28.25-5.27,6.56-3.41,11.77-10.23,10.18-17.96-1.99-9.71-13.68-11.3-21.75-12.77-11.51-2.1-23.7-3.2-35.36-1.89-.2.02-.36.09-.5.19.04-4.07.36-8.14.92-12.17,1.1,0,2.21,0,3.31.02,5.91.06,11.97.58,17.87.21,3.59-.22,7.43-1.25,9.23-4.65,1.43-2.7,1.28-6.07-1.23-8.02-.15-.12-.31-.19-.47-.22,6.14-.13,12.28-.26,18.42-.41,20.69-.52,41.4-.97,62.08-1.81,14.14-.57,29.68-1.91,41.58-10.39,13.22-9.42,16.15-25.23,16.11-40.53-.04-19.63-1.38-39.24-1.37-58.88.01-20.76.51-41.51,1.66-62.23.89-16.14,2.16-33.99-6.83-48.31Z"/>
    </clipPath>
    <clipPath id="clippath-1">
      <path class="cls-2" d="M898.37,493.34c-1.63-3.54-4.1-6.65-6.31-9.84-2.37-3.41-4.83-6.76-7.49-9.94-4.93-5.9-10.68-11.33-17.58-14.85-7.3-3.73-15.53-5.11-23.64-5.57-9.42-.54-18.91-.2-28.35-.17-10.29.03-20.59.07-30.88.1-40.49.13-80.97.33-121.46.62-22.87.16-45.75.14-68.62.23-19.99.08-40.03-.24-60.02.18-19.76-2.71-40.09,4.38-53.87,19.02-6.85,7.28-12.02,16.17-14.82,25.78-.86,2.95-1.68,6.44-.89,9.51,0,.01-.01.02-.02.03-1.93,4.12-.22,8.75,3.37,11.39,4.67,3.44,11.08,3.02,16.57,3.07,16.02.13,32.03-.07,48.05.11,32.03.35,64.06.43,96.09.6,64.06.33,128.12.57,192.18,1,9.15.06,18.3.13,27.45.16,8.18.03,16.48.44,24.65-.17,10.76-.81,24.35-6.77,25.11-18.76,2.43-3.55,2.45-8.21.48-12.49Z"/>
    </clipPath>
    <clipPath id="clippath-2">
      <path class="cls-3" d="M887.73,106.79c-5.27-7.55-12.8-11.43-21.32-14.3-9.57-3.23-19.83-3.4-28.86,1.14-16.93,5.76-23.3,26.82-21.49,43.27.94,8.58,6.63,17.55,12.9,23.32,6.92,6.37,16.38,9.44,25.71,9.19,9.26-.25,19.72-3.57,26.77-9.75,6.97-6.11,11.23-17.06,12.43-26.06,1.25-9.36-.69-19.02-6.13-26.81Z"/>
    </clipPath>
    <clipPath id="clippath-3">
      <path class="cls-7" d="M727.69,269.27c-4.17-7.06-6.81-15.05-7.65-23.22-.72-7.01.29-14.44-2.6-21.07-2.75-6.28-8.85-10.11-12.88-15.46-7.01-9.31-14.07-25.11-28.49-22.1-7.8,1.62-12.85,8.22-17.95,13.74-5.1,5.51-12.12,9.58-15.55,16.47-2.29,4.6-2.98,9.59-3.33,14.65-.12.13-.21.29-.24.5-1.29,7.92-2.88,15.88-5.67,23.41-2.9,7.81-6.2,15.27-9.65,22.84-1.14,2.5-2.13,5.28-1.6,8.07.64,3.37,3.29,5.81,5.5,8.24,5.64,6.23,11.19,12.56,16.95,18.69,4.65,4.95,9.87,9.32,16.68,10.77,3.53.75,7.16.84,10.74,1.12,4.39.34,8.42,1.28,12.5,2.92,6.22,2.5,12.49,5.63,19.4,4.49,5.73-.95,9.53-4.84,11.24-10.26.95-3.02,1.34-6.18,2.14-9.24,1.07-4.06,2.75-7.93,4.98-11.48,3.33-5.3,9.24-9.58,11.15-15.7,2.07-6.65-2.49-12-5.65-17.37Z"/>
    </clipPath>
    <clipPath id="clippath-4">
      <path class="cls-7" d="M584.77,189.14c-.39-7.91-.22-17.23-7.07-22.6-5.88-4.6-14.02-4.98-21.17-5.12-11.43-.22-22.85-.33-34.28-.47-22.85-.29-45.71-.53-68.56-.58-12.77-.03-25.54-.01-38.31.1-5.99.05-11.98.18-17.95.73-4.7.43-10.09.82-14.35,3.02-3.76,1.95-5.4,5.48-6.19,9.48-.4,2.01-.71,4.05-.97,6.11.1-.04.21-.08.32-.11-.32,2.46-.49,4.95-.67,7.4-.38,5.14-.8,10.28-1.2,15.42-.39,5.02-.78,10.06-1.11,15.09-.15,2.21-.44,4.39-.54,6.56-.05,0-.09,0-.14,0-.14,6.71.03,13.52,1.27,19.94,1.49,7.69,6.35,11.89,14.17,12.28,11.01.54,22.19-.05,33.21-.08,22.78-.06,45.55-.31,68.33-.3,11.38,0,22.78.11,34.17-.15,11.27-.26,22.62.15,33.88-.67,7.76-.56,16.2-2,21.1-8.7,5.07-6.94,5.33-16.72,5.91-24.96.76-10.78.7-21.61.17-32.4Z"/>
    </clipPath>
    <clipPath id="clippath-5">
      <path class="cls-2" d="M407.04,231.81c-.71-2.49-2.46-5.34-4.67-7.34-.38-.78-.94-1.48-1.63-1.96-6.64-4.62-13.87,3.5-15.27,9.47-.42,1.8-.54,3.67-1.17,5.43-.03.08-.07.16-.1.24-.31.61-.62,1.23-.93,1.84-.65,1.04-1.41,2.02-2.12,3.02-1.23,1.74-2.38,3.59-2.93,5.56-2.05,2.9-4.25,5.67-6.03,8.75-1.12,1.94-1.94,4.12-3.26,5.94-1.36,1.87-3.73,2.54-5.44,4.08-.32.29-.64.58-.96.86-.73-1.52-2.13-2.9-3.61-3.68-1.83-.96-3.93-1.33-5.98-1.11-1.22.13-2.18.57-3.12,1.08-.78,0-1.53.01-2.24.05-1.48.09-2.61.92-3.29,2.01-.33.12-.65.29-.97.54-.06.05-.1.1-.16.14-.63.01-1.25.09-1.85.22-1.73-2.05-5.33-2.21-7.79-1.79-3.11.54-4.86,2.98-7.33,4.66-2.51,1.7-5.7,3.13-8.59,4-3.05.92-4.7,2.1-6.15,5.03-2.05,4.14-2.64,8.38-2.06,12.62-.22.56-.43,1.12-.66,1.66-2.37,5.74-4.49,11.69-7.4,17.19-.07.05-.15.1-.22.15-1.67,1.1-3.54,1.69-4.98,3.15-1.31,1.32-2.37,2.81-3.8,4.04-3.61,3.11-9.65,5.44-13.59,9-2.91.52-5.81,1.11-8.74,1.74-3.23.7-4.2,4.47-2.89,7.09,4.51,9,10.79,17.32,18.03,24.28,3.62,3.48,7.6,6.68,11.83,9.4,3.46,2.23,8.36,4.05,11.93,1.01,1.93-1.64,1.93-3.43,2.56-5.65.47-1.63,1.69-2.56,3.02-3.55,3.58-2.68,6.62-4.96,8.45-9.18.35-.8.63-2.14,1.25-2.78.89-.92-.32-.64,1.41-.41,2.77.36,4.7.16,7.3-.82,1.3-.49,2.62-.62,3.96-.65.36.21.71.43,1.05.67,1.14,1.71,3.58,2.3,5.37,1.24.06-.04.13-.08.19-.11.01,0,.02-.01.03-.02,2.58-.66,5.2-.85,7.67-2.12,1.2-.62,2.25-1.39,3.27-2.21,3.65-1.21,7.2-2.87,10.35-4.95,3.47,1.05,8.6.65,11.54-1.76,2.24.74,4.46,1.55,6.65,2.44,3.12,1.27,6.75,3.99,10.22,3.96,3.01-.02,5.43-2.25,6.2-5.07,1.59-5.81-2.67-11.75-6.6-15.6-2.08-2.04-4.54-3.88-7.14-5.2-1.42-.72-2.91-1.3-4.39-1.85-1.35-.51-2.64-1.48-3.91-1.95-.02,0-.06-.05-.1-.11.11,0,.22-.02.35-.03,1.24-.08,2.75-.8,3.76-1.46,2.96-1.94,4.05-5.39,3.48-8.77-.45-2.72-1.81-5.15-3.43-7.34-.45-.61-4.46-6.05-6.52-8.72.25-.21.48-.42.66-.57,1.33-1.03,2.62-2.09,3.87-3.22,2.64-2.38,5.06-4.98,7.27-7.75.24-.3.46-.61.69-.91,5.03-3.64,8.59-11.1,10.74-15.92.91-2.03,1.55-4.12,2.26-6.21,2.79-3.9,5.75-7.65,6.08-12.61,1.03-2.96,1.44-6.08.56-9.18Z"/>
    </clipPath>
  </defs>
  <path class="cls-14" d="M326.62,287.24c.46,8.5,1.57,16.9,3.56,25.08.24.97.48,1.94.72,2.92.54,7.24,1.47,14.43,3.05,21.34,3.16,13.79,7.15,28.29,13.82,40.49,6.63,12.12,13.19,23.55,22.41,33.15,9.22,9.6,18.22,18.81,29.23,25.61,11.21,6.92,22.71,13.53,34.97,17.79,13.27,4.61,27.14,7.54,40.91,9.67,18.57,2.87,37.69,3.49,56.45,2.05,13.86-1.06,27.7-1.97,41.29-5.61,2.08-.56,4.16-1.17,6.23-1.81,6.14-.81,12.22-2.05,18.07-4.19,12.31-4.51,24.75-9.21,36.17-16.33,11.3-7.04,22.2-15.38,32.24-24.6,10.2-9.36,18.79-20.62,27.36-31.85,5.47-7.17,10.43-14.81,14.81-22.87,6.95-12.77,13.35-26.27,18.26-40.17,3.13-8.85,5.8-17.87,7.87-27.1,3.34-14.87,6.54-30.34,7.49-45.7.3-4.9.34-9.8.14-14.7-.43-10.45-.53-21.24-2.33-31.56-1.72-9.84-4.81-19.54-7.85-28.83-1.37-4.18-3.04-8.23-5.01-12.08-11.96-23.45-27.7-43.51-47.73-58.43-9.98-7.44-20.89-13.5-31.84-18.86-7.2-3.52-14.68-6.31-22.29-8.51-19.5-5.64-39.91-9.9-60.23-10.18-3.15-.51-6.31-.95-9.49-1.3-21.21-2.31-43.15-1.07-64.24,2.8-8.19,1.51-16.3,3.67-24.23,6.53-11.12,4.01-22.33,8.34-32.92,14.06-6.61,3.57-12.96,7.69-19.08,12.28-9.76,7.32-19.47,14.56-28.2,23.45-8.64,8.81-16.44,18.85-23.78,29.03-4.61,6.39-8.76,13.23-12.33,20.43-5.82,11.73-11.47,23.9-15.27,36.69-3.87,13.02-6.42,26.73-8.08,40.27-1.69,13.75-.9,27.24-.15,41.04Z"/>
  <g>
    <path class="cls-1" d="M853.54,152.84c-8.6-13.69-24.35-20.32-39.81-22.45-9.49-1.31-19.09-1.16-28.65-.94-10.49.24-20.97.5-31.46.74-41.61.98-83.21,1.96-124.82,3-19.66.49-39.36.6-59,1.48-14.24.63-29.86,2.17-42.2,9.96-13.21,8.33-18.99,22.26-20.58,37.31-.99,9.37-.81,18.87-.77,28.28.05,10.42.28,20.84.58,31.26.15,5,.33,9.99.51,14.99.17-.06.35-.11.53-.16-.63,10.06-1.15,20.08-1.21,30.2-.07,12.15.11,24.31.61,36.45.41,10.1,0,20.87,3.42,30.54,2.95,8.33,9.22,14.62,17.35,18.02,5.1,2.14,10.59,3.27,16.09,3.73,4.44.37,9.31.65,13.96.34,0,.1,0,.19,0,.29,19.29.27,38.58.42,57.87.45,4.99,0,9.98.01,14.97,0-1.75,2.12-1.71,5.16-.4,7.63,1.89,3.57,5.79,4.78,9.58,5.02,4.91.32,9.96-.14,14.92-.4.58,4.03.88,7.93.91,11.84-8.97-1.73-17.99-1.69-26.73,1.26-7.25,2.45-15.27,6.8-18.24,14.32-2.76,6.98.75,14.1,6.63,18.18,7.64,5.31,17.96,5.09,26.85,5.46,22.36.95,44.66.19,66.95-1.69,9.25-.78,19.83-.9,28.25-5.27,6.56-3.41,11.77-10.23,10.18-17.96-1.99-9.71-13.68-11.3-21.75-12.77-11.51-2.1-23.7-3.2-35.36-1.89-.2.02-.36.09-.5.19.04-4.07.36-8.14.92-12.17,1.1,0,2.21,0,3.31.02,5.91.06,11.97.58,17.87.21,3.59-.22,7.43-1.25,9.23-4.65,1.43-2.7,1.28-6.07-1.23-8.02-.15-.12-.31-.19-.47-.22,6.14-.13,12.28-.26,18.42-.41,20.69-.52,41.4-.97,62.08-1.81,14.14-.57,29.68-1.91,41.58-10.39,13.22-9.42,16.15-25.23,16.11-40.53-.04-19.63-1.38-39.24-1.37-58.88.01-20.76.51-41.51,1.66-62.23.89-16.14,2.16-33.99-6.83-48.31Z"/>
    <g class="cls-22">
      <g>
        <path class="cls-4" d="M527.21,294.45c.02.18.05.36.08.53.02.13.04.26.06.38.03.23.07.46.11.69,0,.03-.07-.53-.32-2.21,0,.03,0,.07.01.1.02.15.04.32.07.51Z"/>
        <g>
          <path class="cls-4" d="M667.88,431.34c-6.42-3.36-12.87-4.98-19.75-6.99-3.17-.93-6.3-2-9.42-3.1-.68-.24-1.34-.52-2.03-.75,0,0-.01,0-.02,0-1.41-.68-2.8-1.36-4.15-2.14-.56-.32-1.1-.67-1.64-1,1.09.54-.49-.59-1.46-1.39.4.63.66,1.27-.19-.16-.33-.28-.54-.49-.45-.52.05-.01.12.03.2.1-.16-.27-.32-.54-.48-.8.4.56-.33-.84-.51-1.32-.05-.14-.09-.24-.13-.33-.01-.16-.03-.32-.04-.48-.03-.53-.01-1.04-.02-1.57,0-.1,0-.2-.02-.32,0,.02,0,.04,0,.06.31,1.84.08.08.21-.67.14-1.06.29-2.13.43-3.19-.07.53-.14,1.06-.21,1.6.99.12.46-6.9.36-7.49-.55-3.22-3.75-5.92-6.75-6.75-2.45-.68-4.77-.62-6.92-.04,1.54-5.11-.04-11.18-4.88-14.69-4.14-4.31-10.02-6.13-15.9-7.55-4.72-1.14-9.41-2.43-14.01-3.99-1.99-.67-3.94-1.43-5.9-2.18-.08-.04-.17-.08-.27-.12-1.1-.5-2.21-.96-3.31-1.45-4.19-1.87-8.28-3.98-12.17-6.41-1.44-.9-2.86-1.84-4.25-2.83-.01,0-.02-.02-.04-.03.25.21.52.44.83.71-.67-.57-1.38-1.1-2.05-1.67-2.81-2.37-5.45-4.95-7.87-7.72-1.09-1.25-3.87-5.36-.23-.1-.92-1.33-1.9-2.61-2.79-3.96-1.9-2.9-3.54-5.94-5.08-9.05-.47-.95-.92-1.92-1.37-2.88-.19-.49-.39-.99-.57-1.48-1.21-3.28-2.24-6.62-3.12-10-1.65-6.35-2.9-12.87-3.98-19.34-.18-1.1-.35-2.2-.52-3.3,0-.02-.05-.31-.11-.69,0-.04-.01-.09-.02-.13-.01-.08-.02-.17-.04-.25-.03-.18-.05-.36-.08-.53-.08-.57-.16-1.14-.24-1.71.06.41.12.77.16,1.1-.45-3.65-.82-7.31-1.19-10.97-.26-2.58-.62-5.15-1.11-7.69-.06-.31-.1-.52-.13-.65-.05-.36-.09-.73-.14-1.09-.47-3.71-.93-7.42-1.4-11.12-.22-1.7-.44-3.4-.66-5.1-.23-1.77-.48-3.54-.71-5.31-.2-1.46-.15-1.1.15,1.08-.15-1.46-.36-2.92-.62-4.37-.59-3.75-1.05-7.62-1.95-11.31-.3-1.24-.8-2.35-1.3-3.52.06.14.13.3.21.47-.14-.52-.28-1.04-.42-1.55-.65-2.39-1.26-4.76-2.32-7.01-1.47-3.14-3.27-6.09-5.27-8.91-2.75-3.89-9.68-3.97-10.9,1.42-.66,2.93-1.32,5.85-1.9,8.79-.43,2.19-.6,4.34-.73,6.56-.04.74-.16,1.52-.16,2.27-.1.31-.2.61-.21.69-.8,4.12-.63,8.51-.9,12.69-.23,3.52-.45,7.04-.7,10.56-.98,14.26-2.19,28.3-1.51,42.6.79,16.64,4.16,32.35,10.91,47.57,6.66,15.01,18.6,27.44,32.09,36.53,9.43,6.35,20.27,11.06,31.23,13.96,5.27,1.39,10.63,2.41,16.02,3.21,7.21,1.07,14.31,2.16,20.75-.37-1.96,3.52-3.06,7.53-3.03,11.18.07,8.62,4.3,17.37,10.47,23.28,6.51,6.22,15.35,10.68,23.86,13.39,8.35,2.65,17.19,4.76,25.96,3.63,5.36-.69,10.78-3.39,12.1-9.22,1.2-5.26-.72-11.53-5.77-14.18Z"/>
          <path class="cls-4" d="M629.22,415.79c.06.05.12.1.19.16-.14-.23-.31-.45-.44-.58.06.1.12.2.18.31.03.04.04.07.07.12Z"/>
        </g>
        <path class="cls-4" d="M554.19,354.84c-3.07-2.62-1.04-.75,0,0h0Z"/>
      </g>
    </g>
  </g>
  <g>
    <path class="cls-1" d="M898.37,493.34c-1.63-3.54-4.1-6.65-6.31-9.84-2.37-3.41-4.83-6.76-7.49-9.94-4.93-5.9-10.68-11.33-17.58-14.85-7.3-3.73-15.53-5.11-23.64-5.57-9.42-.54-18.91-.2-28.35-.17-10.29.03-20.59.07-30.88.1-40.49.13-80.97.33-121.46.62-22.87.16-45.75.14-68.62.23-19.99.08-40.03-.24-60.02.18-19.76-2.71-40.09,4.38-53.87,19.02-6.85,7.28-12.02,16.17-14.82,25.78-.86,2.95-1.68,6.44-.89,9.51,0,.01-.01.02-.02.03-1.93,4.12-.22,8.75,3.37,11.39,4.67,3.44,11.08,3.02,16.57,3.07,16.02.13,32.03-.07,48.05.11,32.03.35,64.06.43,96.09.6,64.06.33,128.12.57,192.18,1,9.15.06,18.3.13,27.45.16,8.18.03,16.48.44,24.65-.17,10.76-.81,24.35-6.77,25.11-18.76,2.43-3.55,2.45-8.21.48-12.49Z"/>
    <g class="cls-20">
      <g>
        <path class="cls-9" d="M497,484.58c.34-.16.81-.54,1.01-1.07-.02.02-.05.03-.07.05-.17.21-.51.58-.94,1.03Z"/>
        <path class="cls-9" d="M491.36,493.14c.9-1.59,1.04-1.97.88-1.78-.28.58-.56,1.15-.86,1.7,0,.03-.02.05-.03.08Z"/>
        <path class="cls-9" d="M906.73,510.26c-3.09-5.28-9.04-5.99-14.18-3.72,2.03-.9-.87.28-1.08.35-.77.26-1.55.5-2.32.73-1.59.48-3.2.88-4.83,1.19-.54.1-1.08.19-1.62.28-.31.02-1.82.21-2.01.23-1.93.17-3.86.32-5.79.44-7.66.48-15.34.19-23.01.22-17.09.05-34.14,2.22-51.24,2.36-19.17.15-38.37-1.45-57.55-1.71-19.3-.26-38.6-.03-57.89.35-38.56.75-77.12,1.95-115.69,1.24-17.41-.32-34.86-1.15-52.27-.59-3.63.12-7.27.21-10.91.15-1.81-.03-3.63-.1-5.44-.22-.43-.03-2.49-.46-3.08-.33-1.64-.31-3.26-.7-4.85-1.19-.19-.06-.44-.16-.7-.28-.09.08-.46.02-1.2-.36-.18-.1-.36-.2-.54-.31-.1-.02-.2-.03-.28-.04,0,0,0,0,0,0,.08,0,.15,0,.22,0-.12-.07-.25-.14-.37-.21.02.03.03.06.04.08-.03-.04-.07-.08-.1-.12-.03-.02-.05-.03-.08-.05-.03-.05-.06-.09-.09-.14,0,0,0,0,0,0,0,0,0,0,0,0-.03-.05-.07-.11-.1-.16-.23-.39-.42-.81-.62-1.22,0-.02,0-.04,0-.06.14.23.27.45.38.64-.04-.12-.08-.24-.12-.37-.11-.39-.19-.79-.28-1.19-.05-1.5-.09-2.98,0-4.48,0-.01,0-.02,0-.03-.06.29-.14.61-.22.97.19-.82.27-1.68.44-2.51.34-1.66.77-3.31,1.27-4.93.22-.71.47-1.42.72-2.12-.09.15-.17.31-.28.48.11-.18.2-.37.3-.56.02-.06.04-.12.06-.18.23-.64.65-1.34.8-1.52.32-.66.63-1.33.98-1.96.4-.73.78-1.47,1.21-2.18.06-.09.11-.18.17-.27.57-.5,1.6-1.53,2.39-2.35-.46.22-.66.02.5-.74.15-.1.29-.19.44-.29.06-.08.11-.14.11-.16-.01.04-.03.08-.04.11.69-.46,1.38-.93,2.09-1.36,2.98-1.82,5.97-3.62,8.93-5.47,4.11-2.57,8.39-5.27,11.05-9.38,2.01-3.11,3.69-6.29,5.12-9.7,1.5-3.6-1.01-8.31-4.12-10.13-3.71-2.17-7.71-1.1-10.87,1.4,1.53-1.21-.62.29-.79.41-.06.05-.11.08-.16.12-.08,0-.16.01-.27.02-.01,0-.17.02-.36.05-1.73.07-3.38.49-4.92,1.25-.73.25-2.03.74-2.49.88-1.91.59-3.84,1.11-5.76,1.64-8.28,2.3-15.81,5.94-22.32,11.59-6.4,5.56-10.16,13.31-13.01,21.13-2.44,6.71-3.85,14.38-3.33,21.52.67,9.24,3.58,17.98,10.18,24.73,7.37,7.54,17.47,10.21,27.61,11.33,8.26.91,16.57.2,24.82-.47,8.54-.69,17.06-.72,25.61-.88,40.18-.77,80.31-1.79,120.46-3.58,40.16-1.79,80.32-3.38,120.52-1.72,10.93.45,21.96.3,32.86-.75,5.2-.5,10.39-1.13,15.57-1.78,3.61-.45,4.73-.61,8.47-.9,1.97-.15,3.95-.24,5.93-.29,18.07-.5,38.32,1.75,54.2-8.74,4.66-3.08,6.65-9.16,3.72-14.18Z"/>
        <path class="cls-9" d="M490.04,508.8s.04.03.06.04c-.11-.23-.3-.57-.58-1.04.1.3.23.58.34.81.06.07.12.13.17.2Z"/>
        <path class="cls-9" d="M489.14,501.73c.76-3.4.09-1.3,0,0h0Z"/>
        <path class="cls-9" d="M492.27,509.75c.15-.13-.56-.66-1.8-.71.02.01.05.03.07.04.52.11,1.17.42,1.73.67Z"/>
      </g>
    </g>
  </g>
  <g>
    <path class="cls-17" d="M887.73,106.79c-5.27-7.55-12.8-11.43-21.32-14.3-9.57-3.23-19.83-3.4-28.86,1.14-16.93,5.76-23.3,26.82-21.49,43.27.94,8.58,6.63,17.55,12.9,23.32,6.92,6.37,16.38,9.44,25.71,9.19,9.26-.25,19.72-3.57,26.77-9.75,6.97-6.11,11.23-17.06,12.43-26.06,1.25-9.36-.69-19.02-6.13-26.81Z"/>
    <g class="cls-18">
      <path class="cls-11" d="M896.15,126.38c-1.46-9.88-6.11-18.64-13.56-25.35-4.83-4.35-10.29-7.58-16.52-9.46-3.03-.92-6.13-1.55-9.21-2.28-3.21-.75-6.35-2.39-9.55-2.92-3.17-.53-5.23,2.8-3.1,5.32,3.08,3.64,9.25,5.11,13.68,6.42,4.92,1.46,9.6,2.81,13.85,5.8,7.51,5.29,12.99,13.26,14.6,22.32,2.53,14.21.31,29.64-4.87,43-2.79,7.19-7.06,12.35-12.8,17.37-3.35,2.93.23,8.21,4.18,7.19,7.87-2.04,13.47-9.3,17.01-16.2,4.11-8.02,5.92-16.91,6.85-25.81.88-8.44.67-17.01-.57-25.4Z"/>
    </g>
  </g>
  <path class="cls-6" d="M810.35,169.93c-10.2-6.83-23.79-5.89-35.47-5.73-32.78.43-65.55,1.06-98.32,1.59-32.77.53-65.56.73-98.32,1.54-.85.02-1.69.04-2.54.06-10.78-2.19-22.29-2.82-30.94,5.19-4.39,4.06-6.12,9.67-6.62,15.47-.66,7.55-.15,15.29-.04,22.87.47,33.01.82,66.02,1.39,99.03.19,11.1.71,24.33,10.19,31.85,9.88,7.85,24.5,6.62,36.33,6.89,32.85.75,65.69,1.5,98.54,2.25,32.52.74,65.13,1.68,97.59-1.03,11.64-.97,26.6-1.11,33.24-12.55,2.88-4.97,3.74-10.83,4.09-16.47.47-7.58.41-15.21.58-22.79.7-32.25,1.94-64.51,2.22-96.77.1-11.63-1.44-24.38-11.91-31.39Z"/>
  <g>
    <path class="cls-19" d="M727.69,269.27c-4.17-7.06-6.81-15.05-7.65-23.22-.72-7.01.29-14.44-2.6-21.07-2.75-6.28-8.85-10.11-12.88-15.46-7.01-9.31-14.07-25.11-28.49-22.1-7.8,1.62-12.85,8.22-17.95,13.74-5.1,5.51-12.12,9.58-15.55,16.47-2.29,4.6-2.98,9.59-3.33,14.65-.12.13-.21.29-.24.5-1.29,7.92-2.88,15.88-5.67,23.41-2.9,7.81-6.2,15.27-9.65,22.84-1.14,2.5-2.13,5.28-1.6,8.07.64,3.37,3.29,5.81,5.5,8.24,5.64,6.23,11.19,12.56,16.95,18.69,4.65,4.95,9.87,9.32,16.68,10.77,3.53.75,7.16.84,10.74,1.12,4.39.34,8.42,1.28,12.5,2.92,6.22,2.5,12.49,5.63,19.4,4.49,5.73-.95,9.53-4.84,11.24-10.26.95-3.02,1.34-6.18,2.14-9.24,1.07-4.06,2.75-7.93,4.98-11.48,3.33-5.3,9.24-9.58,11.15-15.7,2.07-6.65-2.49-12-5.65-17.37Z"/>
    <g class="cls-23">
      <path class="cls-15" d="M736.46,281.55c-2.73-8.49-10.79-13.03-15.18-20.44-4.72-7.97,1.38-16.2,1.64-24.59.31-10-6.96-18.06-15.62-21.98-1.94-.88-2.66-.51-3.11-2.76-.49-2.45-.3-5.32-.38-7.82-.08-2.81-.17-5.6-.82-8.34-.03-.13-.05-.25-.08-.38.62-.77,1.06-1.77,1.21-2.94.34-2.69-.88-5.05-2.9-6.77-.76-.64-1.58-.94-2.37-.97-3.67-1.82-8.55,1.11-7.5,6.02.59,2.8.17,5.71.85,8.55.73,3.05,1.47,5.88,1.7,9.04.39,5.52,1.07,9.54,4.53,13.93,3.43,4.34,10.97,5.64,13.05,11.11,1.74,4.56-1.34,10.63-2.58,14.97-3.36,11.83,2.43,21.87,10.68,30,1.76,1.74,4.04,3.44,5.09,5.75.95,2.1.29,3.95-.38,6.04-2.08,6.46-3.41,12.87-3.33,19.69.06,5.4,8.51,6.91,9.69,1.31,1.06-5.03,2.15-10.15,4.06-14.93,1.92-4.8,3.42-9.32,1.75-14.5Z"/>
      <path class="cls-12" d="M701.86,276.96c-5.04-3.32-10.93-5.3-16.89-6.19,1.29-1.18,1.92-3.06.82-5.03-1.24-2.21-1.37-4.98-1.95-7.42-.87-3.64-2.09-7.19-2.87-10.85-1.41-6.65-1.21-13.64.45-20.22,1.57-6.27,4.95-11.63,7.17-17.64,2.44-6.62,1.34-12.8-1.03-19.21-1.2-3.25-6.84-3.12-6.52.88.26,3.2.9,6.47.86,9.69-.04,3.43-1.38,6.67-2.83,9.73-3.05,6.4-5.73,12.65-6.75,19.73-.99,6.84-.73,13.75.87,20.49.84,3.54,2.02,6.99,2.8,10.53.65,2.95,1.1,5.85,2.59,8.52.07.12.14.23.21.33-4.5.01-9.83.78-13.1,3.21-2.13-4.86-5.25-9.59-8.15-13.55-4.68-6.38-11.08-11.93-18.72-14.32-3.31-1.03-5.36,3.21-3.23,5.55,4.4,4.81,9.97,8.15,13.84,13.51,3.5,4.85,7.49,10.63,9.18,16.44,1.63,5.63.67,12.75-.93,18.3-1.98,6.87-7.37,10.65-11.37,16.17-2.2,3.04,2.21,7.51,5.25,5.25,5.76-4.28,10.84-11.56,13.33-18.26,2.39-6.44,4.28-14.89,3.09-21.87.1,0,.19,0,.29-.03,2.46-.41,4.77-1.63,7.3-2.02,2.16-.33,4.39-.43,6.57-.24,5.75.5,11.35,2.62,16.21,5.67,9,5.65,12.77,15.77,15.25,25.64.66,2.61,4.63,2.03,4.65-.63.1-12.8-5.6-25.07-16.36-32.16Z"/>
    </g>
  </g>
  <path class="cls-2" d="M804.88,225.94c-.19-1.47-.52-3-1.06-4.44-1.15-6.94-6.76-13.9-12.79-17.02-.04-.02-.08-.03-.12-.05-1.19-1.48-2.53-2.78-4.03-3.57-.45-1.13-1.54-2.03-2.83-2.31-.42-.41-.83-.84-1.25-1.25-1.03-1.02-3.11-1.23-4.11,0-1.75,2.16-2.31,4.83-.51,7.19.49.64,1.07,1.02,1.67,1.21.27.15.55.27.84.35.37.62.83,1.2,1.31,1.76,1.84,2.11,3.89,4.05,6.09,5.8-.61.73-.97,1.7-.8,2.85.09.64.2,1.27.33,1.89-.32,2.16.1,4.28,1.48,6.29.01.02.03.03.04.05.01,3.01.9,5.9,2.82,8.44,1.24,1.65,3.71,1.91,5.08.74.87,0,1.79-.29,2.73-1.01.29-.22.56-.47.79-.73,1.25-.52,2.3-1.8,2.41-3.14,0-.06,0-.13.01-.2,1.19-.38,2.11-1.33,1.91-2.86Z"/>
  <path class="cls-2" d="M772.74,191.17c.18-.5.31-1.04.38-1.61.31-2.7-.87-5.06-2.71-6.51-.31-.57-.67-1.1-1.08-1.57-1.26-5-9.45-7.22-13.77-6.44-.17.03-.34.07-.5.11-1.37.12-2.7.58-3.67,1.54-1.12.08-2.24.42-3.26,1.03-1.61.58-2.97,1.77-3.7,3.77-1.82,4.96,1.57,8.27,5.81,9.56.12.5.4.99.9,1.43,3.34,2.93,9.06,7.14,13.65,4.49.33-.19.62-.42.89-.67,1.69-.01,3.39-.16,5.09-.43,2.42-.39,2.86-2.9,1.97-4.7Z"/>
  <g>
    <path class="cls-19" d="M584.77,189.14c-.39-7.91-.22-17.23-7.07-22.6-5.88-4.6-14.02-4.98-21.17-5.12-11.43-.22-22.85-.33-34.28-.47-22.85-.29-45.71-.53-68.56-.58-12.77-.03-25.54-.01-38.31.1-5.99.05-11.98.18-17.95.73-4.7.43-10.09.82-14.35,3.02-3.76,1.95-5.4,5.48-6.19,9.48-.4,2.01-.71,4.05-.97,6.11.1-.04.21-.08.32-.11-.32,2.46-.49,4.95-.67,7.4-.38,5.14-.8,10.28-1.2,15.42-.39,5.02-.78,10.06-1.11,15.09-.15,2.21-.44,4.39-.54,6.56-.05,0-.09,0-.14,0-.14,6.71.03,13.52,1.27,19.94,1.49,7.69,6.35,11.89,14.17,12.28,11.01.54,22.19-.05,33.21-.08,22.78-.06,45.55-.31,68.33-.3,11.38,0,22.78.11,34.17-.15,11.27-.26,22.62.15,33.88-.67,7.76-.56,16.2-2,21.1-8.7,5.07-6.94,5.33-16.72,5.91-24.96.76-10.78.7-21.61.17-32.4Z"/>
    <g class="cls-21">
      <path class="cls-10" d="M465.87,254.23c-12.54-3.16-25.45-3.41-38.29-4.38-6.41-.49-12.74-1.72-19.06-2.87-4.91-.89-10.02-1.27-14.61-2.27-3.18-.69-4.27-3.67-5.58-7.02-2.18-5.56-3.63-11.01-4.74-16.87-2.18-11.5.38-23.69-4.51-34.7-1.21-2.71-5.29-1.19-5.32,1.44-.08,6.59.1,13.16-.12,19.76-.22,6.58-1.11,13.31-.73,19.88.33,5.75,1.64,11.34,3.36,16.83,1.77,5.65,4.6,11.1,10.09,13.88,5.42,2.75,11.66,2.72,16.78,3.62,6.79,1.2,13.58,2.46,20.45,3.09,7.02.65,14.12.8,21.16,1.17,7.28.38,14.16.06,21.14-2.25,4.34-1.44,4.83-8.09,0-9.31Z"/>
      <path class="cls-10" d="M225.89,164.67c-2.25-5.85-4.75-11.62-6.8-17.53-1.84-5.3-2.65-10.77-6.19-15.28-2.29-2.92-5.9.82-4.71,3.63,2.05,4.82,1.76,10.74,3.07,15.82,1.4,5.42,2.62,10.88,3.85,16.33,1.84,8.18,4.42,16.97,4.78,24.99.31,6.94,9.75,8.17,11.97,1.62,3.33-9.85-2.49-20.56-5.97-29.58Z"/>
      <path class="cls-13" d="M587.28,222.88c-.35-5.84-.35-11.71-.82-17.54-.5-6.2-1.54-12.31-3.13-18.32-1.28-4.82-2.74-9.87-5.44-14.12-4.58-7.2-11.85-10.7-20.1-11.89-24.96-3.61-50.44-1.86-75.56-2.56-25.76-.72-51.53-3.69-77.13-6.53-14.61-1.62-29.18-3.32-43.84-4.46-13.31-1.03-27-3.46-40.3-1.4-5.17.8-3.38,8.16,1.16,8.56,11.09.96,22.02,3.33,33.07,4.69,12.35,1.51,24.67,3.35,37.02,4.83,24.35,2.91,48.81,5.61,73.28,7.25,24.35,1.64,48.74.4,73.11,1.54,5.49.26,11.08.44,16.53,1.19,3.03.42,6.03,1.2,8.17,2.5,1.22.74,1.32.82,2.53,2.31.37.45,1.54,2.4,2.07,3.61,2.03,4.58,3.13,9.8,4.14,14.68,1.27,6.14,2.02,12.2,2.68,18.42.66,6.24,1.77,12.5,1.51,18.79-.5,12.04-8.74,22.02-12.08,33.27-1.13,3.8,4.68,6.41,6.51,2.74,4.95-9.93,13.14-18.93,15.73-29.89,1.37-5.78,1.24-11.79.89-17.68Z"/>
    </g>
  </g>
  <g>
    <path class="cls-1" d="M407.04,231.81c-.71-2.49-2.46-5.34-4.67-7.34-.38-.78-.94-1.48-1.63-1.96-6.64-4.62-13.87,3.5-15.27,9.47-.42,1.8-.54,3.67-1.17,5.43-.03.08-.07.16-.1.24-.31.61-.62,1.23-.93,1.84-.65,1.04-1.41,2.02-2.12,3.02-1.23,1.74-2.38,3.59-2.93,5.56-2.05,2.9-4.25,5.67-6.03,8.75-1.12,1.94-1.94,4.12-3.26,5.94-1.36,1.87-3.73,2.54-5.44,4.08-.32.29-.64.58-.96.86-.73-1.52-2.13-2.9-3.61-3.68-1.83-.96-3.93-1.33-5.98-1.11-1.22.13-2.18.57-3.12,1.08-.78,0-1.53.01-2.24.05-1.48.09-2.61.92-3.29,2.01-.33.12-.65.29-.97.54-.06.05-.1.1-.16.14-.63.01-1.25.09-1.85.22-1.73-2.05-5.33-2.21-7.79-1.79-3.11.54-4.86,2.98-7.33,4.66-2.51,1.7-5.7,3.13-8.59,4-3.05.92-4.7,2.1-6.15,5.03-2.05,4.14-2.64,8.38-2.06,12.62-.22.56-.43,1.12-.66,1.66-2.37,5.74-4.49,11.69-7.4,17.19-.07.05-.15.1-.22.15-1.67,1.1-3.54,1.69-4.98,3.15-1.31,1.32-2.37,2.81-3.8,4.04-3.61,3.11-9.65,5.44-13.59,9-2.91.52-5.81,1.11-8.74,1.74-3.23.7-4.2,4.47-2.89,7.09,4.51,9,10.79,17.32,18.03,24.28,3.62,3.48,7.6,6.68,11.83,9.4,3.46,2.23,8.36,4.05,11.93,1.01,1.93-1.64,1.93-3.43,2.56-5.65.47-1.63,1.69-2.56,3.02-3.55,3.58-2.68,6.62-4.96,8.45-9.18.35-.8.63-2.14,1.25-2.78.89-.92-.32-.64,1.41-.41,2.77.36,4.7.16,7.3-.82,1.3-.49,2.62-.62,3.96-.65.36.21.71.43,1.05.67,1.14,1.71,3.58,2.3,5.37,1.24.06-.04.13-.08.19-.11.01,0,.02-.01.03-.02,2.58-.66,5.2-.85,7.67-2.12,1.2-.62,2.25-1.39,3.27-2.21,3.65-1.21,7.2-2.87,10.35-4.95,3.47,1.05,8.6.65,11.54-1.76,2.24.74,4.46,1.55,6.65,2.44,3.12,1.27,6.75,3.99,10.22,3.96,3.01-.02,5.43-2.25,6.2-5.07,1.59-5.81-2.67-11.75-6.6-15.6-2.08-2.04-4.54-3.88-7.14-5.2-1.42-.72-2.91-1.3-4.39-1.85-1.35-.51-2.64-1.48-3.91-1.95-.02,0-.06-.05-.1-.11.11,0,.22-.02.35-.03,1.24-.08,2.75-.8,3.76-1.46,2.96-1.94,4.05-5.39,3.48-8.77-.45-2.72-1.81-5.15-3.43-7.34-.45-.61-4.46-6.05-6.52-8.72.25-.21.48-.42.66-.57,1.33-1.03,2.62-2.09,3.87-3.22,2.64-2.38,5.06-4.98,7.27-7.75.24-.3.46-.61.69-.91,5.03-3.64,8.59-11.1,10.74-15.92.91-2.03,1.55-4.12,2.26-6.21,2.79-3.9,5.75-7.65,6.08-12.61,1.03-2.96,1.44-6.08.56-9.18Z"/>
    <g class="cls-24">
      <path class="cls-4" d="M381.62,342.18c-.95-.92-1.56-1.47-.19-.05,0,0,0,0,0,0-.7-.72-1.45-1.42-2.19-2.08-3.48-3.12-7.65-4.99-12.37-5.07-5.42-.1-10.86,1.78-15.87,3.68-4.38,1.65-8.11,4.26-12.13,6.58-.23.13-.46.26-.69.39-4.25-1.54-9.35-.91-12.96,1.88-6.5,5.02-6.6,13.8-1.34,19.76,4.72,5.35,12.78,6.44,19.26,4.19,5.16-1.79,9.51-4.83,14.07-7.73.74-.47,1.49-.95,2.26-1.37.12-.07.23-.13.32-.18,1.16-.41,2.3-.87,3.46-1.27.49-.17,1.61-.68,2.61-1,.3.12.52.22.68.28.16.07.32.15.49.22,2.48,1.09,4.91,2.23,7.69,2.23,1.01-.14,2.02-.27,3.03-.41.86-.11.87-.14.03-.09-1.09.05-.84,0,.75-.17.77-.05,1.51-.18,2.25-.41,4.31-1.11,7.45-5.38,7.45-9.79,0-3.85-2.71-8.39-6.58-9.58Z"/>
      <path class="cls-4" d="M392.96,301.31c-.41-2.04-1.31-3.54-2.5-4.81-1.1-1.93-2.2-3.84-3.92-5.43-2.97-2.75-7.84-3.79-11.43-1.47-3.31,2.14-5.81,6.65-4.33,10.65,1.12,3.05,1.7,6.22,2.32,9.4.87,4.43,5.81,7.06,9.96,6.5,3.16-.42,6.55-2.93,7.59-6.16,2.17-2.28,2.96-5.39,2.31-8.68Z"/>
      <path class="cls-4" d="M299.05,296.96c-4.05-5.41-10.65-5.43-14.69,0-1.12,1.51-1.87,3.47-2.69,5.18.07-.15-1.4,4.59-1.84,4.92.65-1.49.72-1.7.19-.63-.12.21-.24.42-.36.63-.09.16-.2.31-.3.46-.02.02-.04.04-.06.07-.06.05-.91.8-1.33,1.21-.31.21-.63.41-.95.6-.81.49-1.65.93-2.5,1.35-.39.19-1.84.84-1.96.9-1.33.55-2.67,1.09-3.97,1.72-2.57,1.24-5.11,2.63-7.55,4.1-6.01,3.63-11.17,7.39-14.25,13.83-1.4,2.92-.89,6.66,2.19,8.36,4.06,2.24,7.75,3.01,12.36,2.39,3.96-.53,8.1-2.41,11.7-4.06,1.69-.77,3.35-1.59,5.05-2.35.16-.07.35-.15.53-.23,1.24-.53,2.52-1,3.73-1.6,2.19-1.08,4.31-2.36,6.28-3.79,4.48-3.25,8.58-7.07,10.86-12.23,2.85-6.46,4.13-14.74-.42-20.83Z"/>
    </g>
  </g>
  <path class="cls-2" d="M875.3,125.32c-1.62-.46-5.05.76-3.04-2.11.96-1.36,2.39-1.9,3.01-3.61,1.29-3.53-2.02-6.6-4.98-7.98-1.73-.8-2.99-.6-4.74-.28-.27.05-.5.36-.74.4-1.09.18-2.73-.07-3.33-1.11-.54-.95-.36-2.39-.83-3.43-1.64-3.55-5.83-3.76-9.17-3.09-1.48.3-3.46.6-4.29,2.04-.65,1.12-.67,2.74-.54,4.23-.52.23-.91.76-.77,1.48.09.45-1.43,1.73-1.82,1.86-.55.18-1.76.12-2.27-.16-.67-.37-1.03-1.32-1.7-1.75-.84-.54-1.39-.6-2.26-.22-1.47.64-3.03,2.84-4.09,4.03-.95,1.07-1.83,2.31-1.93,3.79-.09,1.28.36,2.59,1.31,3.44.73.66,1.51.4.86,1.36-.78,1.16-2.98.89-4.25,1.23-3.1.84-2.81,3.58-2.7,6.39.09,2.2-.02,7.26,3.47,6.98.48-.04.85-.44,1.3-.5,2.28-.29,3.29,1.58,1.75,3.38-.81.94-2.37,1.08-2.43,2.61-.1,2.32,5.08,5.91,7.06,6.56,1.21.39,2.29.26,3.4-.31.69-.35,1.27-1.12,1.96-1.42.2-.16.41-.32.61-.48,1.25.95,2.49,1.89,3.74,2.84.12.27-.21.77-.1,1.06.97,2.55,2.41,3.43,5.22,3.7,2.27.22,7.41.62,7.98-2.44.23-1.26.29-5.44,2.97-3.08.36.31.46.99.85,1.35.81.73,1.77.87,2.8.54,1.72-.55,3.08-2.5,4.28-3.73.75-.77,1.69-1.52,1.68-2.68-.02-1.68-1.84-2.69-2.56-3.99-.4-.73-.78-2.7.2-3.41.22-.16,1.45.25,1.76.3.78.13,1.56.33,2.35.24,2.95-.35,3.56-3.35,3.77-5.83.26-3.13-.26-7.19-3.81-8.2ZM862.54,134.04c-4.85,9.12-21.13.06-15.97-8.62.62-1.04,1.63-1.54,2.75-1.59,5.65-4.25,17.36,2.43,13.22,10.21Z"/>
  <path class="cls-2" d="M467.35,97.29c-4.8-2.1-5.54-8.26-8.45-12.13-1.83-2.44-6.43-1.18-5.34,2.25.91,2.87.3,5.83-2.1,7.77-1.42,1.15-3.59,1.37-4.66,2.92-2.15,3.11.31,7.05,2.79,9.23-.03,1.16,0,2.33.08,3.51.14,1.9,2.34,3.75,4.2,2.41,4.07-2.93,5.71-11.38,12.05-10.68,2.73.3,3.95-4.17,1.43-5.27ZM458.62,96.38c-.22-.05-.43-.07-.63-.08.11-.17.21-.34.31-.51.11.2.21.4.32.6Z"/>
  <path class="cls-3" d="M446.58,63.87s.01-.09.02-.13c.16-1.44-1.34-2.67-2.67-2.67s-2.3.94-2.59,2.15c-.07.07-.22.19-.53.34-.31.15-.69.22-.98.4-1.06.64-1.72,1.75-1.58,3.01.12,1.17.92,1.97,1.64,2.84.8.98,1.57,2.01,2.46,2.91,2.07,2.1,4.93-.58,3.83-2.88.31-.21.58-.46.82-.76.57-.73.88-1.67.84-2.6-.05-1.03-.52-1.95-1.24-2.6Z"/>
  <path class="cls-5" d="M484.11,74.04c-.51-.9-1.16-1.63-1.93-2.28-.12-.21-.24-.41-.36-.62-.72-1.25-2.26-.74-2.63.31-.18-.06-.37-.08-.56-.08-.64-.15-1.34.08-1.51.87-.15.68-.09,1.25.15,1.79.15.99.31,1.98.46,2.97.21,1.32,2.22,1.45,2.82.43.06-.04.13-.08.19-.12.49-.08.93-.45,1.1-.95.64.32,1.38.09,1.77-.42.62-.33.98-1.06.5-1.9Z"/>
  <path class="cls-3" d="M845.41,482.71c-.23-.83-.5-1.65-.79-2.45.46-2.07-1.13-4.31-2.74-5.96-1.1-1.92-2.37-3.75-3.83-5.5-.99-1.19-2.6-.64-3.28.47-1.65-.7-3.42-1.09-5.46-1.02-5.05.16-10.11.89-15.16,1.28-3.01-.57-6.03-1.09-9.05-1.39-2.33-.23-4.68.15-5.93,1.95-1.54.01-3.07.02-4.61.01-.38,0-.71.1-.98.25-.97-.38-2.41-.08-2.61,1.16-.38,2.33.59,3.1,1.74,4.87.67,1.03,1.19,1.95,1.76,2.78.51,3.18,3.32,6.29,6.21,7.36.71.26,1.32.12,1.8-.25,1.17.06,2.37-.06,3.51-.11,2.71-.11,5.43-.25,8.14-.43,5.88-.38,11.74-.92,17.59-1.59,1.16-.13,2.32-.27,3.48-.41.4.05.78,0,1.13-.14.16-.02.33-.04.49-.06,1.99.68,3.95,1.44,6.05,1.75,1.51.22,3.03-.89,2.57-2.57Z"/>
  <g>
    <path class="cls-2" d="M404.77,226.84h-.8c-1.85-.21-2.99-.76-3.4-1.67-.21-.37-.31-.8-.31-1.3,0-.7.19-1.5.56-2.41.99-3.13,1.54-6.51,1.67-10.13l.19-2.04c.12-2.1.47-5.72,1.05-10.87l.12-.19c.04-.16.29-.35.74-.56.66-.33,1.48-.49,2.47-.49,1.89.29,2.88.91,2.97,1.85-.17,1.61-.39,3.27-.68,5-.78,5.48-1.17,9.39-1.17,11.74,0,1.69.12,3.27.37,4.76.16.78.25,1.52.25,2.22,0,.91-.17,1.73-.49,2.47-.49,1.07-1.67,1.61-3.52,1.61ZM407.92,192.86c-.62,0-1.4-.24-2.35-.71-.95-.47-1.69-1.47-2.22-3-.08-.41-.12-.78-.12-1.11,0-1.03.38-1.86,1.14-2.5.76-.64,1.68-.96,2.75-.96.21,0,.7.05,1.48.15.78.1,1.52.81,2.22,2.13.25.54.37,1.09.37,1.67,0,.08-.03.18-.09.28-.06.1-.16.22-.28.34v.19c0,2.35-.97,3.52-2.9,3.52Z"/>
    <path class="cls-2" d="M420.52,227.03h-.74c-2.14-.08-3.34-.64-3.58-1.67-.08-.37-.12-.76-.12-1.17,0-.78.14-1.65.43-2.59l.12-.49c.53-2.84.8-5.68.8-8.52l.06-.25c.04-2.1.19-6.03.43-11.8l.06-.12c.16-.29.43-.53.8-.74.66-.33,1.44-.49,2.35-.49.29,0,.67.04,1.14.12.47.08.91.24,1.3.46.39.23.63.57.71,1.02-.04.45-.06.86-.06,1.24s-.02.62-.06.74l.62-.31c1.32-.58,2.72-.86,4.2-.86,1.81,0,3.62.69,5.44,2.07,1.81,1.38,3.03,3.66,3.64,6.83.21,1.24.35,2.45.43,3.65.12,2.35.54,4.74,1.24,7.17.25.78.37,1.46.37,2.04,0,.66-.23,1.28-.68,1.85-.58.82-1.67,1.24-3.27,1.24-.62,0-1.32-.11-2.1-.34-.78-.23-1.31-.61-1.58-1.14-.27-.54-.4-1.15-.4-1.85,0-.12,0-.42.03-.9.02-.47.09-1.1.22-1.88.12-.78.21-1.46.25-2.04,0-2.47-.27-4.92-.8-7.35-.21-.95-.47-1.62-.8-2.01-.33-.39-.99-.67-1.98-.83h-.25c-1.07,0-2.13.53-3.18,1.58-1.05,1.05-1.64,2.11-1.76,3.18-.04.74-.1,1.42-.19,2.04-.12,1.61-.19,3.25-.19,4.94,0,1.24.1,2.57.31,4.02l.06.86c0,1.07-.33,1.73-.99,1.98-.66.25-1.42.37-2.29.37Z"/>
    <path class="cls-2" d="M450.67,225.61c-1.4,0-2.68-.23-3.83-.68-1.44-.58-2.16-1.85-2.16-3.83l.06-1.17c.33-1.48,1.07-2.33,2.22-2.53.41-.08.82-.12,1.24-.12.74,0,1.48.12,2.22.37,1.61.53,3.03.8,4.26.8.74,0,1.61-.08,2.59-.25.66-.04,1.32-.17,1.98-.37.95-.25,1.42-.64,1.42-1.17,0-.33-.19-.72-.56-1.17-.12-.21-.29-.37-.49-.49-1.4-1.28-3.27-2.35-5.62-3.21-1.57-.49-2.93-1.18-4.11-2.07-1.17-.89-1.99-2.4-2.44-4.54-.08-.53-.12-1.09-.12-1.67,0-2.47.93-4.86,2.78-7.17,2.68-3.01,5.68-4.82,9.02-5.44.49-.08.97-.12,1.42-.12,2.76,0,5.33,1.5,7.72,4.51.62.95.93,1.81.93,2.59,0,.54-.27,1.2-.8,2.01-.54.8-1.5,1.33-2.9,1.58l-.74.06c-1.03,0-1.85-.41-2.47-1.24-.33-.49-.6-.95-.8-1.36-.37-1.11-.93-1.67-1.67-1.67-.41,0-.95.12-1.61.37-2.22.99-3.64,2.45-4.26,4.39-.12.41-.19.8-.19,1.17,0,2.27,2.06,4,6.18,5.19,1.15.33,2.23.8,3.24,1.42,1.01.62,2.05,1.77,3.12,3.46.45.78.74,1.63.86,2.53l-.37.43c.25.37.37.78.37,1.24,0,.49-.14,1.03-.43,1.61-1.28,2.59-3.89,4.32-7.85,5.19l-.25.06c-1.52.41-3.44.78-5.75,1.11-.78.12-1.52.19-2.22.19Z"/>
    <path class="cls-2" d="M487.86,227.33h-.8c-3.13,0-5.35-1.15-6.67-3.46-1.15-2.27-1.73-4.72-1.73-7.35,0-2.47.27-5.04.8-7.72l-3.21.25c-.74-.08-1.24-.74-1.48-1.98-.12-.53-.19-1.05-.19-1.54v-.8c.04-1.11.41-1.77,1.11-1.98l5-.43c1.07-4.9,1.92-8.57,2.53-11l.06-.37c.37-.74,1.15-1.11,2.35-1.11,1.11,0,2.12.33,3.03.99.49.41.74.95.74,1.61,0,.17-.25,1.34-.74,3.52-.49,2.02-.95,3.95-1.36,5.81,2.1,0,3.81-.1,5.13-.31,1.03-.16,2.29-.64,3.77-1.42.49-.16.95-.25,1.36-.25.66,0,1.26.37,1.79,1.11s.8,1.85.8,3.34c0,2.55-.74,4-2.22,4.32-.5.12-1.01.19-1.54.19-.82,0-1.85-.13-3.09-.4-1.24-.27-2.16-.4-2.78-.4-2.02,0-3.54.1-4.57.31-.49,2.22-.74,4.53-.74,6.92,0,1.4.08,2.8.25,4.2.25,1.24.72,1.85,1.42,1.85l.62-.06c.53-.04,1.56-.68,3.09-1.92.66-.49,1.35-.98,2.07-1.45.72-.47,1.35-.71,1.88-.71,1.07.08,2,.72,2.78,1.92.54.82.8,1.69.8,2.59,0,.41-.11,1.08-.34,2.01s-1.51,1.78-3.86,2.56c-1.98.58-4,.97-6.05,1.17Z"/>
    <path class="cls-2" d="M510.96,224.68c-2.18,0-3.97-.68-5.38-2.04-1.73-1.69-2.59-3.93-2.59-6.73l.06-1.11c.33-2.39,1.18-4.52,2.56-6.39,1.38-1.87,3.05-3.47,5-4.79,1.96-1.32,4.07-2.22,6.33-2.72.7-.12,1.4-.19,2.1-.19h.56c2.88.7,4.53,1.77,4.94,3.21.21.74.31,1.54.31,2.41,0,.78-.09,1.62-.28,2.5-.18.89-.28,1.8-.28,2.75,0,.62.04,1.21.12,1.79.25.86.71,1.43,1.39,1.7.68.27,1.41.46,2.19.59.99.08,1.8.32,2.44.71.64.39.96,1.16.96,2.32v.68c-.33,2.06-1.24,3.42-2.72,4.08-.58.25-1.17.37-1.79.37-.99,0-2.04-.33-3.15-.99-.91-.58-1.63-1.15-2.16-1.73-2.43,1.24-5.07,2.31-7.91,3.21l-.12.06c-.91.21-1.77.31-2.59.31ZM511.33,217.95c1.44,0,3.89-.84,7.35-2.53l.12.74c-.41-1.15-.62-2.24-.62-3.27,0-1.28.08-2.47.25-3.58l.06-.93c0-1.03-.29-1.54-.86-1.54-.08,0-.35.03-.8.09-.45.06-1.31.66-2.56,1.79-1.26,1.13-2.4,2.45-3.43,3.95-1.03,1.5-1.54,2.81-1.54,3.92,0,.91.68,1.36,2.04,1.36Z"/>
    <path class="cls-2" d="M538.76,226.9l-.99-.06c-1.81-.25-2.84-.84-3.09-1.79-.12-.45-.19-.93-.19-1.42,0-.62.08-1.26.25-1.92.08-.41.14-.84.19-1.3.12-1.03.27-2.04.43-3.03.49-2.59.74-6.86.74-12.79,0-.74-.02-1.46-.06-2.16l-.56-5.19c-.25-2.31-.37-3.89-.37-4.76,0-2.51.68-3.93,2.04-4.26.45-.12.91-.19,1.36-.19.49,0,.97.06,1.42.19,1.32.29,2.12.78,2.41,1.48.21.54.31,1.15.31,1.85,0,1.48-.08,3.19-.25,5.13l-.12,2.9-.31,11.68c-.17,3.13-.25,4.96-.25,5.5,0,2.1.16,4.2.49,6.3.08.37.12.72.12,1.05,0,1.85-1.2,2.78-3.58,2.78Z"/>
    <path class="cls-2" d="M552.35,226.9l-.99-.06c-1.81-.25-2.84-.84-3.09-1.79-.12-.45-.19-.93-.19-1.42,0-.62.08-1.26.25-1.92.08-.41.14-.84.19-1.3.12-1.03.27-2.04.43-3.03.49-2.59.74-6.86.74-12.79,0-.74-.02-1.46-.06-2.16l-.56-5.19c-.25-2.31-.37-3.89-.37-4.76,0-2.51.68-3.93,2.04-4.26.45-.12.91-.19,1.36-.19.49,0,.97.06,1.42.19,1.32.29,2.12.78,2.41,1.48.21.54.31,1.15.31,1.85,0,1.48-.08,3.19-.25,5.13l-.12,2.9-.31,11.68c-.17,3.13-.25,4.96-.25,5.5,0,2.1.16,4.2.49,6.3.08.37.12.72.12,1.05,0,1.85-1.2,2.78-3.58,2.78Z"/>
  </g>
  <path class="cls-16" d="M727.69,269.27c-4.17-7.06-6.81-15.05-7.65-23.22-.72-7.01.29-14.44-2.6-21.07-2.75-6.28-8.85-10.11-12.88-15.46-7.01-9.31-14.07-25.11-28.49-22.1-7.8,1.62-12.85,8.22-17.95,13.74-5.1,5.51-12.12,9.58-15.55,16.47-2.29,4.6-2.98,9.59-3.33,14.65-.12.13-.21.29-.24.5-1.29,7.92-2.88,15.88-5.67,23.41-2.9,7.81-6.2,15.27-9.65,22.84-1.14,2.5-2.13,5.28-1.6,8.07.64,3.37,3.29,5.81,5.5,8.24,5.64,6.23,11.19,12.56,16.95,18.69,4.65,4.95,9.87,9.32,16.68,10.77,3.53.75,7.16.84,10.74,1.12,4.39.34,8.42,1.28,12.5,2.92,6.22,2.5,12.49,5.63,19.4,4.49,5.73-.95,9.53-4.84,11.24-10.26.95-3.02,1.34-6.18,2.14-9.24,1.07-4.06,2.75-7.93,4.98-11.48,3.33-5.3,9.24-9.58,11.15-15.7,2.07-6.65-2.49-12-5.65-17.37ZM641.59,229.72c.77-6.72,2.87-12.57,7.84-17.34,4.72-4.54,9.57-8.65,14.01-13.51,4.85-5.3,11.13-11.08,18.94-9.25,2.46.58,4.61,1.73,6.54,3.21-.12.18-.18.42-.14.71.15.94.27,1.97.58,2.91.82,7.12-1.3,12.99-4.24,19.61-2.46,5.54-4.45,11.09-5.2,17.14-1.6,12.8,2,25.4,5.28,37.65-6.64-1-13.52-.29-18.57,3.44-3.87-13.07-14.34-22.49-26.15-29.23.62-5.07.53-10.35,1.1-15.35ZM651.44,316.03c-5.58-4.65-10.19-10.75-14.99-16.08-2.97-3.3-6.08-6.52-8.92-9.93-3.5-4.21-1.29-8.15.8-12.43,3.09-6.33,5.65-12.89,7.71-19.62,2.27-3.21,3.44-6.8,4.1-10.55,5.22,3.64,10.63,6.9,15.14,11.49,5.43,5.52,9.1,12.49,10.24,20.17,2.12,14.24-3.77,27.45-14.09,36.95ZM716.48,307.54c-2.36,5.8-2.12,12.83-5.25,18.26-3.88,6.74-12.56,5.42-18.66,3.05-6.33-2.47-11.92-5.53-18.81-6.23-7.29-.74-14.25-.56-20.43-5.1,10.6-9.51,16.65-24.09,14.42-38.32-.14-.91-.32-1.79-.52-2.67,5.23-1.55,9.88-3.22,15.52-2.98,5.96.25,11.71,2.13,16.72,5.36,9.48,6.1,14.08,15.43,18.6,25.23-.58,1.09-1.12,2.21-1.6,3.39ZM726.21,292.86c-2.42,2.77-4.66,5.54-6.56,8.56-2.99-10.47-11.04-20.26-20.19-25.62-3.21-1.89-7.23-3.48-11.47-4.43-3.93-13.52-7.62-27.96-5.07-42.1,1.86-10.33,11.53-21.82,8.6-32.74-.04-.58-.19-1.17-.38-1.74,2.55,2.51,4.67,5.54,6.54,8.45,3.46,5.39,6.94,10.2,11.47,14.74,2.57,2.57,5.06,5.26,6.37,8.71,1.28,3.35,1.5,6.99,1.62,10.54.23,6.66.59,13.1,2.44,19.54,1.77,6.17,4.59,11.78,8,17.18,1.8,2.85,3.8,5.95,3.69,9.45-.11,3.72-2.75,6.81-5.07,9.46Z"/>
  <path class="cls-16" d="M810.35,169.93c-10.2-6.83-23.79-5.89-35.47-5.73-32.78.43-65.55,1.06-98.32,1.59-32.7.53-65.42.73-98.12,1.53.46.74.6,1.68.44,2.56l4.38-.03c51.36-.36,102.72-1.22,154.07-1.81,15.01-.17,30.02-.46,45.03-.55,11.63-.07,25.95.75,32.55,11.96,3.19,5.41,3.89,11.92,4.05,18.08.18,7.07-.17,14.17-.32,21.25-.32,15.14-.63,30.28-.95,45.42-.32,15.14-.64,30.28-.98,45.42-.27,12.1.72,28.74-12.98,33.98-6.36,2.43-13.54,2.59-20.26,3.14-7.6.62-15.2,1.08-22.82,1.37-15.02.58-30.06.59-45.09.38-30.65-.41-61.29-1.32-91.93-2.04-15.05-.35-30.11-.7-45.16-1.05-12.1-.28-26.44-1.07-32.19-13.7-2.54-5.59-2.97-11.97-3.15-18.02-.21-7.16-.24-14.34-.35-21.5-.21-12.83-.42-25.66-.66-38.49-1.07.48-2.27.46-3.47.16.24,18.7.5,37.4.82,56.09.19,11.1.71,24.33,10.19,31.85,9.88,7.85,24.5,6.62,36.33,6.89,32.85.75,65.69,1.5,98.54,2.25,32.52.74,65.13,1.68,97.59-1.03,11.64-.97,26.6-1.11,33.24-12.55,2.88-4.97,3.74-10.83,4.09-16.47.47-7.58.41-15.21.58-22.79.7-32.25,1.94-64.51,2.22-96.77.1-11.63-1.44-24.38-11.91-31.39Z"/>
  <path class="cls-16" d="M515.44,161.45c.19-.37.39-.73.6-1.09,7.46-13.1,22.06-18.71,36.24-21.03,16.56-2.72,33.74-2.11,50.46-2.52,39.77-.97,79.55-1.78,119.33-2.74,19.66-.48,39.32-.94,58.98-1.41,11.79-.28,24.1-.77,35.82,1.36-.45-.92-.62-1.96-.37-3.2-.92-.16-1.85-.3-2.77-.43-9.49-1.31-19.09-1.16-28.65-.94-10.49.24-20.97.5-31.46.74-41.61.98-83.21,1.96-124.82,3-19.66.49-39.36.6-59,1.48-14.24.63-29.86,2.17-42.2,9.96-6.75,4.26-11.56,9.98-14.86,16.57,1-.43,1.95-.26,2.7.26Z"/>
  <path class="cls-16" d="M859.39,167.61c-.6.56-1.42.9-2.34,1.01-.19.02-.37.03-.54.04.78,3.74,1.19,7.56,1.39,11.37.46,8.64-.2,17.28-.61,25.9-.46,9.79-.87,19.6-1.08,29.4-.43,19.84-.34,39.69.25,59.52.49,16.35,3.57,34.88-2.35,50.59-5.8,15.39-20.64,21.67-35.88,23.86-8.17,1.17-16.44,1.35-24.67,1.65-9.79.35-19.57.74-29.36,1-39.39,1.04-78.78,1.73-118.18,1.85-19.59.06-39.17.01-58.75-.16-7.9-.07-15.81-.17-23.71-.28-.18-.22-.42-.39-.74-.42-6.83-.64-13.72.45-20.61-.38-6.18-.75-12.08-2.52-17.39-5.81-11.59-7.2-13.8-19.93-14.47-32.55-.58-10.86-.79-21.74-.81-32.62.29.22.7.28.97-.04,1.75-2.07,3.76-3.88,6.1-5.27.79-.46.09-1.66-.71-1.22-2.49,1.36-4.62,3.12-6.36,5.35,0-2.61,0-5.22.02-7.82.08-12.1.16-24.26.52-36.36.09.02.18.02.27.04-.03-.89-.07-1.77-.1-2.66-.88.3-1.87.25-2.73-.26-.1-.06-.2-.13-.3-.2.04,1.11.08,2.21.12,3.32.17-.06.35-.11.53-.16-.63,10.06-1.15,20.08-1.21,30.2-.07,12.15.11,24.31.61,36.45.41,10.1,0,20.87,3.42,30.54,2.95,8.33,9.22,14.62,17.35,18.02,5.1,2.14,10.59,3.27,16.09,3.73,4.44.37,9.31.65,13.96.34,0,.1,0,.19,0,.29,19.29.27,38.58.42,57.87.45,4.99,0,9.98.01,14.97,0-1.75,2.12-1.71,5.16-.4,7.63,1.89,3.57,5.79,4.78,9.58,5.02,4.91.32,9.96-.14,14.92-.4.58,4.03.88,7.93.91,11.84-8.97-1.73-17.99-1.69-26.73,1.26-7.25,2.45-15.27,6.8-18.24,14.32-2.76,6.98.75,14.1,6.63,18.18,7.64,5.31,17.96,5.09,26.85,5.46,22.36.95,44.66.19,66.95-1.69,9.25-.78,19.83-.9,28.25-5.27,6.56-3.41,11.77-10.23,10.18-17.96-1.99-9.71-13.68-11.3-21.75-12.77-11.51-2.1-23.7-3.2-35.36-1.89-.2.02-.36.09-.5.19.04-4.07.36-8.14.92-12.17,1.1,0,2.21,0,3.31.02,5.91.06,11.97.58,17.87.21,3.59-.22,7.43-1.25,9.23-4.65,1.43-2.7,1.28-6.07-1.23-8.02-.15-.12-.31-.19-.47-.22,6.14-.13,12.28-.26,18.42-.41,20.69-.52,41.4-.97,62.08-1.81,14.14-.57,29.68-1.91,41.58-10.39,13.22-9.42,16.15-25.23,16.11-40.53-.04-19.63-1.38-39.24-1.37-58.88.01-20.76.51-41.51,1.66-62.23.6-10.94,1.38-22.66-.98-33.54ZM693.03,412.51c-.49-3.5-.73-7.02-.76-10.55.13.07.29.11.49.11,8.73-.11,17.34-.23,26.03.81,4.64.55,9.26,1.34,13.82,2.36,3.59.8,7.46,1.57,10.57,3.63,9.04,5.99,3.28,17.41-4.25,21.5-7.6,4.13-17.08,4.18-25.5,4.99-17.8,1.72-35.67,2.45-53.55,2.28-8.71-.08-17.47-.31-26.15-1.14-8.14-.78-18.37-3.49-20.91-12.49-.51-1.8-.56-3.5-.27-5.11.17.37.6.63,1.07.39,3.55-1.8,7.04-3.63,10.71-5.2.65-.28.18-1.41-.48-1.15-3.75,1.45-7.5,3.02-10.99,5.03-.04.02-.08.05-.11.08.32-1.21.83-2.35,1.49-3.44,3-.9,5.98-1.9,8.97-2.85.89-.28.52-1.68-.39-1.41-2.33.71-4.67,1.38-6.99,2.09,3.09-3.58,7.74-6.26,11.76-7.83,8.89-3.47,19.07-4.4,28.34-2.02-.07,3.27-.33,6.55-.81,9.92-.2,1.39,1.85,2.04,2.17.6,1.74-7.96,1.65-16.7-.38-24.62.36-.01.72-.03,1.08-.04,6.53-.19,13.05-.29,19.58-.37,4.59-.05,9.17-.05,13.76-.03-1.88,8.31-1.96,16.66-.57,25.07.25,1.5,2.46.84,2.25-.62ZM715.74,385.57c-3.87.5-7.95-.03-11.83-.15-8.78-.28-17.56-.38-26.34-.37-8.56.02-17.11.22-25.66.53-3.9.14-7.9.6-11.79.35-2.32-.15-5.12-.71-6.53-2.77-1.19-1.73-1.37-3.98.18-5.52.42-.42.52-.9.41-1.32,29.05-.04,58.11-.32,87.16-.91-.77.2-1.31,1.12-.54,1.76,4.48,3.71-1.59,7.96-5.06,8.4Z"/>
  <path class="cls-16" d="M898.37,493.34c-1.63-3.54-4.1-6.65-6.31-9.84-2.37-3.41-4.83-6.76-7.49-9.94-4.93-5.9-10.68-11.33-17.58-14.85-7.3-3.73-15.53-5.11-23.64-5.57-9.42-.54-18.91-.2-28.35-.17-10.29.03-20.59.07-30.88.1-40.49.13-80.97.33-121.46.62-22.87.16-45.75.14-68.62.23-19.99.08-40.03-.24-60.02.18-19.76-2.71-40.09,4.38-53.87,19.02-6.85,7.28-12.02,16.17-14.82,25.78-.86,2.95-1.68,6.44-.89,9.51,0,.01-.01.02-.02.03-1.93,4.12-.22,8.75,3.37,11.39,4.67,3.44,11.08,3.02,16.57,3.07,16.02.13,32.03-.07,48.05.11,32.03.35,64.06.43,96.09.6,64.06.33,128.12.57,192.18,1,9.15.06,18.3.13,27.45.16,8.18.03,16.48.44,24.65-.17,10.76-.81,24.35-6.77,25.11-18.76,2.43-3.55,2.45-8.21.48-12.49ZM474.84,483.61c11.07-17.18,29.87-27.03,49.69-27.76.15.3.44.53.89.55,3.79.09,7.58.14,11.36.17.67.1,1.34.21,2.01.34.4.07.72-.07.93-.31,14.44.06,28.9-.23,43.34-.28,19.21-.07,38.43-.1,57.64-.21,38.43-.23,76.85-.16,115.28-.33,19.21-.09,38.43-.17,57.64-.26,9.09-.04,18.22-.3,27.31.06,8.85.35,17.88,1.52,25.83,5.69,7.05,3.7,12.69,9.43,17.63,15.58,2.59,3.23,5.05,6.59,7.42,9.99,2.57,3.7,5.85,8.01,5.87,12.72,0,.96-.13,1.83-.36,2.63-.65-.37-1.64-.1-1.54.82.08.68.09,1.35.07,2.02-3.13,3.96-9.63,5.33-14.43,5.68-8.83.65-17.83.24-26.69.3-21.58.15-43.16.28-64.73.44-21.56.17-43.19-.19-64.73.54-.16,0-.3.05-.42.11-47.13-.31-94.29.11-141.42.28-25.09.09-50.19.23-75.28.24-6.39,0-12.77,0-19.16.02-2.97.01-5.93.02-8.9.04-2.73.01-5.65.3-8.32-.36-11.87-2.93-.79-22.7,3.07-28.7ZM887.52,518.41c-5.91,3.67-13.34,4.1-20.11,4.17-14.43.15-28.87-.16-43.3-.21-29.51-.1-59.03-.26-88.54-.41-59.03-.29-118.06-.44-177.08-.86-16.7-.12-33.4-.05-50.11-.28-8.24-.12-16.47-.11-24.71-.12-3.81,0-7.83.21-11.49-1-3.68-1.22-7.29-4.74-6.61-8.78.08.12.16.25.25.37,2.54,3.35,7.15,3.81,11.05,3.89,27.5.62,55.1-.26,82.61-.31,27.37-.05,54.75-.12,82.12-.27,31.02-.18,62.05-.05,93.07-.52.22,0,.39-.07.54-.17,17.12.07,34.28-.4,51.39-.53,19.99-.15,39.98-.34,59.96-.51,9.99-.08,19.99-.17,29.98-.25,5.96-.05,12.77-.3,17.97-3.58.28-.18.54-.36.79-.55-1.17,4.09-4.08,7.62-7.79,9.92Z"/>
  <path class="cls-16" d="M768.37,530.34c-23.03-1.72-46.44-2.99-69.53-1.97-1.3.06-1.32,2.02,0,2.04,23.22.31,46.34.26,69.53,1.7,1.14.07,1.13-1.68,0-1.77Z"/>
  <path class="cls-16" d="M759.3,535.88c-17.98-.12-35.97-.41-53.95-.07-1.18.02-1.18,1.8,0,1.83,17.98.35,35.97.06,53.95-.05,1.1,0,1.1-1.7,0-1.71Z"/>
  <path class="cls-16" d="M847.08,479.8c-1.35-2.86-2.65-5.74-4.05-8.57-2.02-4.12-6.1-3.48-10.26-3.8-11.98-.91-24.17-1.11-36.16,0-2.78-.23-6.02-.37-7.33,2.36-1.63,3.39,2.25,8.49,3.65,11.44.88,1.85,1.65,4.72,3.31,6.09,1.43,1.18,3.43.9,5.14.82,6.11-.29,12.22-.64,18.33-.97,5.88-.31,11.76-.62,17.65-.94,2.45-.13,9.32.85,10.74-2.01.75-1.5-.36-3.07-1.01-4.43ZM844.81,483.5c-.43.33-3.51.19-4.07.22-10.86.58-21.72,1.15-32.58,1.73-2.49.13-5.68.83-8.14.43-3.17-.51-3.84-3.19-5.09-5.82-.57-1.19-1.14-2.39-1.7-3.58-.93-1.95-1.5-2.62-.99-4.82.25-1.05.5-1.58.88-1.85,1.03-.06,2.06-.11,3.09-.16.63,0,1.21-.02,1.81-.09,8.65-.42,17.29-.69,25.98-.42,2.71.08,5.41.21,8.11.38,2.84.18,7.13-.43,8.82,2.16,1.43,2.19,2.28,5.02,3.37,7.41.51,1.12,2.01,3.25.53,4.42Z"/>
  <path class="cls-16" d="M855.26,491.23c-2.61.05-5.2.92-7.84.56-1.29-.18-1.35-.51-1.61-1.73-.16-.76-.34-1.24-.84-1.85-.62-.75-1.94.25-1.36,1.05.67.94.26,2.15.74,3.17.42.88,1.1,1.19,2.01,1.37,2.8.56,6.75.31,9.37-.86.85-.38.4-1.72-.46-1.7Z"/>
  <path class="cls-16" d="M831.94,489.38c-1.16-.45-2,1.51-.85,2.03,1.7.76-.04,2.55-1.25,2.64-1.37.1-4.4-1.16-3.52-3,.46-.96-.95-1.81-1.45-.85-1.83,3.56,2.9,6.11,5.88,5.65,1.6-.24,2.91-1.24,3.17-2.9.25-1.58-.49-2.99-1.98-3.57Z"/>
  <path class="cls-16" d="M813.03,489.8c-.87-.71-2.13.51-1.25,1.25.64.53.9,1.29.68,2.11-.31,1.15-1.29,1.35-2.36,1.32-.93-.03-6.28-.82-6-2.16.25-1.22-1.42-1.66-1.85-.51-1.44,3.85,6.83,4.91,9.11,4.5,3-.53,4.06-4.57,1.68-6.51Z"/>
  <path class="cls-16" d="M816.4,502.49c-1.02,1.11-2.3,1.94-3.88,1.47-1.58-.47-2.49-2.01-2.47-3.59.01-1.15-1.69-1.12-1.77,0-.16,2.35,1.19,4.73,3.48,5.51,2.24.76,4.99-.12,6.22-2.17.58-.96-.79-2.07-1.58-1.22Z"/>
  <path class="cls-16" d="M835.2,500.11c-.27-1.09-2.1-.89-2,.27.06.72.2,1.42.33,2.13.05.27.14.67.06.79-.16.24-1.33.18-1.56.19-1.78.1-3.78-.38-4.32-2.3-.3-1.06-1.91-.61-1.65.45.69,2.83,3.57,3.89,6.23,3.77,1.06-.05,2.6-.02,3.19-1.07.62-1.1,0-3.13-.28-4.24Z"/>
  <path class="cls-16" d="M857.74,497.54c-.73-.78-1.85.37-1.16,1.16.83.96.89,2.6-.15,3.47-1.08.9-3.19.44-4.41.26-2.19-.32-4.29-.92-6.42-1.5-1.16-.32-1.56,1.34-.49,1.76,2.3.9,4.75,1.43,7.2,1.77,1.59.22,3.43.45,4.86-.49,2.19-1.45,2.29-4.62.58-6.44Z"/>
  <path class="cls-16" d="M773.64,479.01c-1.14-.16-1.86,1.23-.81,1.92,2.22,1.45-1.76,2.58-2.3,2.71-1.4.35-2.83.6-4.27.37-2.52-.41-4.5-2.12-5.44-4.47-.43-1.07-2.18-.62-1.76.49,1.93,5.09,6.5,6.59,11.54,5.69,1.87-.33,4.29-.85,4.98-2.92.54-1.6-.18-3.53-1.93-3.78Z"/>
  <path class="cls-16" d="M778.8,494.96c-.02,1.81.07,3.97-2.08,4.85-1.01.41-2.35.26-3.42.22-3.12-.13-5.86-.69-7.09-3.86-.37-.97-2-.94-1.94.26.22,4.72,5.7,5.77,9.47,5.88,5.06.16,7.21-2.4,7.09-7.35-.03-1.31-2.02-1.31-2.04,0Z"/>
  <path class="cls-16" d="M733.85,481.19c-.1,3.98-3.09,4.85-6.6,4.96-3.39.11-6.6-.91-7.53-4.51-.35-1.35-2.29-.76-2.05.57.89,5.08,6.44,6.25,10.81,5.85,4.82-.44,7.29-1.7,7.47-6.86.05-1.35-2.06-1.35-2.1,0Z"/>
  <path class="cls-16" d="M738,495.61c-.39,3.21-3.69,4.92-6.65,4.41-2.95-.52-4.69-2.53-6.73-4.49-.81-.78-2.16.22-1.58,1.22,1.97,3.37,6.09,6.07,10.09,5.64,3.58-.38,6.5-3.12,6.59-6.77.03-1.15-1.61-1.08-1.74,0Z"/>
  <path class="cls-16" d="M694.9,494.6c-1.19-.92-2.88.74-1.67,1.67,1.57,1.23-2.82,2.77-3.13,2.85-1.37.35-2.83.36-4.22.1-2.63-.51-4.51-1.95-6.23-3.92-.81-.92-2.27.26-1.67,1.29,2.34,3.97,7.38,5.77,11.8,5.02,2.65-.45,9.17-3.88,5.13-7.02Z"/>
  <path class="cls-16" d="M692.14,481.06c-1.09-.61-1.91.92-.95,1.63,3.91,2.9-2.71,3.96-3.49,3.98-.93.03-1.89-.14-2.8-.27-2.45-.34-6.16-1.33-5.24-4.66.45-1.63-1.97-2.27-2.52-.69-2.23,6.43,6.63,8.12,11.06,7.86,2.21-.13,4.66-.97,5.56-3.2.73-1.79.04-3.73-1.62-4.66Z"/>
  <path class="cls-16" d="M651.57,479.96c-.43-.85-1.94-.24-1.56.66.29.69,1.43,2.43,1.05,3.16-.15.29-3.84,0-4.33,0-3,0-7.55.79-9.18-2.42-.6-1.17-2.34-.14-1.76,1.03,2.29,4.59,8.59,3.48,12.8,3.46,1.24,0,3.64.46,4.48-.89.92-1.48-.89-3.81-1.5-5Z"/>
  <path class="cls-16" d="M650.43,495.33c-.13,1.07-.27,2.72-1.02,3.58-1.28,1.48-3.47.97-5.11.87-1.1-.07-2.94.16-3.94-.26-1.46-.6-1.59-2.1-2.12-3.38-.49-1.17-2.35-.76-1.96.54.46,1.56.84,3.74,2.39,4.59,1.94,1.07,5.43.73,7.61.84,4.5.21,5.95-2.68,6.26-6.79.1-1.37-1.94-1.31-2.1,0Z"/>
  <path class="cls-16" d="M598.66,495.47c-.46-1.12-2.3-.65-1.85.51.34.87.92,2.07.7,3.02-.41,1.8-2.1,1.74-3.61,1.77-.95.02-8.53.45-6.5-2.05.67-.82-.17-2.18-1.2-1.55-1.5.92-1.53,2.89-.51,4.23,1.4,1.84,4.1,1.56,6.12,1.5,2.19-.06,5.36.39,6.93-1.55,1.37-1.7.66-4.09-.08-5.88Z"/>
  <path class="cls-16" d="M546.83,495.45c-.67-.8-2.07.27-1.46,1.13.56.79,1.21,1.63,1.46,2.59.18.7.14,1.87-.65,2.21-.04,0-.09-.02-.14-.02-1.76-.11-3.51-.21-5.27-.33-.89-.06-1.81-.08-2.68-.31-.72-.19-3.75-1.51-1.67-2.7,1.15-.66.14-2.25-1.01-1.73-2.36,1.05-1.95,4.02-.11,5.37,2.69,1.98,7.4,1.3,10.58,1.37.19.15.44.21.76.1,1.36-.49,2.25-1.61,2.33-3.07.11-1.84-1.02-3.27-2.14-4.6Z"/>
  <path class="cls-16" d="M500.66,496.98c-.98-.8-2.4.55-1.42,1.42,2.46,2.18-2.14,3.09-3.44,2.85-1.11-.2-2.16-.66-3.25-.93-.93-.23-1.86-.19-2.77-.38-.9.35-1.22.01-.98-1.01.35-.53.66-1.07.93-1.64.67-1.27-1.12-2.3-1.92-1.12-1.02,1.52-3.1,4.2-.83,5.65,1.03.66,2.33.34,3.47.44,1.78.15,3.41.97,5.17,1.26,2.06.34,4.45.07,5.66-1.86.95-1.52.8-3.52-.61-4.67Z"/>
  <path class="cls-16" d="M513.53,481.61c-.74.12-1.23.4-1.79.9-1.19,1.07-1.79,1.69-3.54,1.92-1.15.15-2.48.24-3.64.19-1.99-.09-3.97-1.33-2.62-3.43.79-1.23-1.14-2.32-1.94-1.13-1.61,2.37-.58,5.96,2.3,6.77,2.09.58,5.03.03,7.17-.22.8-.1,1.48-.24,2.15-.69.91-.62,1.39-1.78,2.5-2.13,1.41-.44.81-2.39-.6-2.17Z"/>
  <path class="cls-16" d="M527.94,469.03c-.99.1-1.69.39-2.26,1.25-.28.42-.25,1.02-.49,1.39-.46.72-1.4.95-2.16,1.14-4.4,1.1-5.47-2.49-5.39-6.1.02-.97-1.57-1.23-1.74-.23-.56,3.26.04,7.39,3.61,8.65,1.92.67,4.03.3,5.91-.32.77-.25,1.56-.51,2.05-1.21.53-.76.24-1.62,1.12-2.13,1.05-.61.68-2.56-.66-2.43Z"/>
  <path class="cls-16" d="M549.42,470.17c-.58-.9-1.93-.53-1.98.54-.09,1.88-2.21,1.82-3.66,1.8-1.41-.03-4-.5-3.46-2.52.27-1.01-1.29-1.76-1.75-.74-1.55,3.42,1.85,5.59,4.91,5.59,1.64,0,3.72-.02,5.06-1.08,1.11-.87,1.68-2.33.88-3.59Z"/>
  <path class="cls-16" d="M572.26,470.33c-.02.49-.02.96-.01,1.43-1.93.3-3.87.46-5.82.45-.95,0-.37-.02-.26-.85.08-.55.03-.92-.23-1.42-.54-1.03-1.96-.12-1.53.89.18.43-.55,1.39-.44,1.99.12.67.55,1.11,1.2,1.32,1.14.37,2.67.2,3.84.18,1.51-.02,3.01-.15,4.5-.33.72-.09,1.12-.49,1.22-1.22.11-.83.14-1.62.14-2.45,0-1.68-2.54-1.67-2.61,0Z"/>
  <path class="cls-16" d="M603.01,469.46c-.73-1.27-2.46-.16-1.92,1.12.49,1.13-4.67.97-5.1.96-1.26-.02-2.5-.12-3.74-.26-.02-.32-.05-.63-.07-.95-.09-1.13-1.71-1.15-1.77,0-.03.61-.06,1.22-.09,1.83-.02.41.32.88.73.96,2.14.42,15.25,2.05,11.95-3.66Z"/>
  <path class="cls-16" d="M650.37,469.97c-.09-1.49-2.11-1.43-2.28,0-.02.11-.03.22-.04.32-1.83.46-3.77.57-5.63.7-1.2.08-1.88.34-2.75-.44-.64-.57-.88-1.56-1.35-2.28-.6-.93-1.86-.3-1.7.72.29,1.79.92,4.06,2.97,4.36,3.11.46,6.51-.81,9.61-.95.66-.03,1.16-.52,1.19-1.19.04-.41.04-.82-.01-1.23Z"/>
  <path class="cls-16" d="M694.39,467.89c-.34-1-1.6-.92-1.96,0-.23.58-.21,1,.05,1.58.08.19.44.5.46.67.08.62-.33.61-1.18.75-2.04.33-7.62.94-8.39-1.47-.35-1.1-2.01-.65-1.73.48,1.03,4.16,6.87,3.47,10.13,3.27,1.22-.07,2.74-.34,3.46-1.45,1.02-1.56-.37-2.45-.83-3.83Z"/>
  <path class="cls-16" d="M737.24,467.73c-1.18-.04-1.21,1.53-.26,1.91-1.67-.68-4.65.89-6.38,1.15-.98.14-2,.28-3,.25-.24,0-.49-.01-.73-.02-1.55.12-1.86-.71-.94-2.47.95-.09,1.33-1.57.24-1.79-2.2-.45-4.38,1.08-4,3.53.4,2.54,3.27,3.16,5.43,3.15,3.06-.01,8.29-.49,10.65-2.61,1.26-1.12.71-3.04-1.01-3.1Z"/>
  <path class="cls-16" d="M598.84,482.04c-1.32-.54-1.93,1.46-.82,2.15-.34-.13-.7.06-1.07.56-.39.01-.77.02-1.16.03-.64.01-1.28.02-1.93.03-.42,0-1.41.16-1.82.02-1.05-.39-.8-1.41-.66-2.2.25-1.39-1.87-2-2.14-.59-.27,1.42-.44,3.12.67,4.24,1.38,1.39,4.14.77,5.87.72,1.61-.05,3.69-.09,4.42-1.83.57-1.34-.1-2.6-1.37-3.13Z"/>
  <path class="cls-16" d="M549.29,485.05c-.66-.7-1.23-1.29-2.01-1.83-.83-.57-1.9.55-1.37,1.37.13.21.27.4.42.59-1.38.3-2.77.55-4.18.75-1.32.18-7.04.77-5.52-2.3.64-1.29-1.22-2.41-1.94-1.13-1.32,2.34.06,5.13,2.6,5.86,3.48,1,8.13-.68,11.51-1.4.87-.18,1.06-1.32.5-1.91Z"/>
  <path class="cls-16" d="M571.81,485.11c-2.63.43-5.29.52-7.91,1.02-1.11.21-.74,1.76.25,1.85,2.74.25,5.54-.29,8.23-.79,1.37-.26.78-2.3-.57-2.08Z"/>
  <path class="cls-16" d="M571.82,497.91c-1.71,1.87-3.8,2.22-6.22,2.07-1.24-.08-1.43,1.79-.29,2.12,2.86.83,6.05-.62,7.82-2.88.71-.91-.49-2.22-1.31-1.31Z"/>
  <path class="cls-16" d="M405.43,248.05c2.92-8.61,5.7-22.61-4.91-27.4-12.12-5.48-16.23,10.96-20.05,18.81-4.68,9.61-9.8,18.91-17.68,25.51-.09-.21-.26-.37-.53-.43-3.09-.7-6.19-1.23-9.33-1.62-2.58-.32-5.79-1.27-8.38-.52-1.65.47-2.84,1.65-3.93,2.92-.1-.12-.23-.23-.41-.27-4.3-1.06-8.92-1.73-12.96.6-2.28,1.31-4.12,3.61-5.72,6.07-3.4.94-9.07,1.33-11.29,4.45-.95,1.34-1.04,2.99-1.21,4.57-.28,2.56-.6,5.09-1.15,7.6-2.1,9.67-6.51,18.28-12.57,26.02-.11.02-.23.06-.35.13-9.42,5.38-19.3,10.4-28.22,16.6-1.25.87-.18,2.74,1.2,2.04,1.03-.52,2.06-1.06,3.08-1.61.09.1.22.18.4.21,3.73.75,7.5.99,11.25.27.8-.16.63-1.49-.19-1.43-3.18.23-6.3.29-9.44-.16,1.66-.93,3.31-1.9,4.95-2.88.04.31.25.58.66.56,4.21-.22,8.3.13,12.49.55.83.08,1.02-1.3.2-1.46-3.89-.74-7.89-.8-11.84-.56,1.58-.96,3.15-1.94,4.71-2.93,4-.37,8.03-.65,12.01-1.19.86-.12.66-1.59-.21-1.52-3.04.23-6.07.62-9.1,1.01,2.12-1.35,4.23-2.69,6.35-4.02-.07.36.12.77.6.78,3.08.04,6.15.03,9.23.01.84,0,.84-1.3,0-1.3-3.01-.02-6.02-.03-9.03.01.4-.25.79-.5,1.19-.75.25.05.52-.02.75-.29,5.29-6.11,9.26-13.39,11.83-21.04,1.23-3.66,2.11-7.44,2.64-11.26.16-1.13.26-2.25.38-3.38.26-2.37,1.59-3.86,3.63-4.88,1.66-.83,3.71-1.32,5.63-1.83-.81,1.4-1.57,2.77-2.3,3.99-.65,1.09.93,1.92,1.66.97,2.56-3.38,4.93-8.74,8.54-11.04,3.33-2.12,7.66-1.56,11.44-1.26-.03.04-.07.08-.1.12-2.28,2.64-4.61,5.24-6.81,7.94-.73.89.44,2.14,1.29,1.29,1.85-1.84,3.63-3.75,5.43-5.64,1.92-2.01,3.9-4.81,6.77-5.29,4.8-.81,10.4.41,15.26,1.05-2.74,2.08-5.8,3.86-9.28,5.22-1.24.49-.78,2.44.57,2.05,9.22-2.69,16.15-9.95,21.46-17.65,3.18-4.61,5.73-9.57,8.16-14.6,2.43-5.02,4.42-10.63,7.45-15.31,4.5-6.97,13.09-3.09,15.39,3.52,1.95,5.6.28,11.68-1.46,17.1-3.03,9.45-7.54,18.49-13.49,26.44-6.79,9.09-15.53,16.56-25.75,21.53-1.23.6-.15,2.44,1.07,1.84,2.01-.99,3.96-2.07,5.85-3.24-3.23,6.76-.45,16.46,3.44,22.46-1.58-.16-3.12-.24-4.55-.24-.91,0-1.18,1.5-.22,1.65,6.63,1.03,13.44,1.45,19.4,4.85,5.66,3.22,11.17,10.3,9.6,17.19-2.32,10.21-14.08,1.26-19.45-1.16-6.01-2.7-12.18-4.42-18.81-3.73-1.16.12-1.21,1.92,0,1.86,4.82-.26,9.55.66,14.08,2.28-6.95.14-13.27,2.3-19.33,5.9-3.94,2.34-7.6,4.36-12.34,4.33-4.64-.04-9.13-1.35-13.53-2.72-.77-.24-1.41.34-1.6,1-.07.04-.14.08-.21.14-7.46,6.41-15.94,14.05-19.14,23.65-.39,1.17,1.51,2.01,2.03.85,4.17-9.32,11.65-15.61,18.27-23.11,7.16,3.03,14.8,4.37,22.15,1.08,4.04-1.81,7.5-4.66,11.57-6.42,4.52-1.97,9.39-2.9,14.31-2.99.39,0,.64-.23.74-.5,3.69,1.66,7.14,3.75,10.86,5.36,6.09,2.63,11.9.67,12.98-6.32,2.15-13.94-11.31-20.51-23.44-22.5,2.34-2.4,4.53-4.95,6.68-7.52,1.35-1.61,2.71-3.19,2.33-5.43-.39-2.35-2.26-4.67-3.5-6.63-1.75-2.78-3.66-5.43-5.66-8.02,12.88-10.21,22.21-24.73,27.49-40.3ZM380.6,295.35c1.23,1.86,3.06,4,3.76,6.12.9,2.71.22,4.04-1.51,5.97-.88.98-1.8,1.93-2.68,2.91-1.29,1.44-2.53,2.93-3.73,4.45-1.95-3.16-3.71-7.66-4.29-12.1,2.27,0,4.46.53,6.49,1.57,1.13.57,2.12-1.1,1-1.71-2.39-1.29-4.96-1.83-7.66-1.67-.2-3.5.44-6.84,2.4-9.3.18-.23.24-.49.21-.73.65-.46,1.28-.94,1.92-1.41,1.41,1.93,2.78,3.9,4.09,5.9Z"/>
  <g>
    <path class="cls-8" d="M582.84,190.49c-.21-4.72-.16-9.77-1.35-14.38-2.34-9.06-10.82-11.78-19.21-12.43-9.62-.75-19.41-.41-29.06-.54-10.06-.14-20.11-.27-30.17-.37-20.57-.22-41.14-.4-61.71-.45-9.94-.02-19.88-.08-29.82.05-5.47.07-10.96.25-16.38,1.03-4.22.61-10.16,1.03-13.34,4.22-1.43,1.43-2.26,3.38-2.78,5.48.02.1.02.2,0,.32-.93,4.91-.9,10.01-1.37,14.98-.45,4.71-.89,9.42-1.26,14.14-.36,4.67-.59,9.3-.44,13.98.07,2.29-.3,4.7-.55,7.08.01,0,.03-.01.04-.02-.09,1.63-.09,3.26.11,4.84.02,1.9.06,3.81.1,5.72.1,4.72-.06,10.02,2.06,14.37,0,.02.02.03.03.05.45-.23,1-.35,1.65-.31.58.04,1.08.13,1.57.28,1.91.49,3.37,1.48,4.33,2.97,1.12-.05,2.24,0,3.34.2,2.28-.97,4.59-1,6.98-1.7,2.3-.67,4.21,1.25,4.17,3.4.18.27.32.57.43.88,2.44-.02,4.88-.05,7.32-.07,11.39-.08,22.78-.13,34.17-.17,20.5-.07,41-.27,61.5-.42,10.02-.07,20.04.03,30.07.02,10.13,0,20.74.65,30.75-1.19,4.37-.8,8.66-2.34,11.79-5.62,2.93-3.07,4.32-7.28,5.16-11.35,1.92-9.34,2.08-19.26,2.17-28.76.05-5.4-.07-10.81-.31-16.21Z"/>
    <path class="cls-16" d="M584.77,189.14c-.39-7.91-.22-17.23-7.07-22.6-5.88-4.6-14.02-4.98-21.17-5.12-11.43-.22-22.85-.33-34.28-.47-22.85-.29-45.71-.53-68.56-.58-12.77-.03-25.54-.01-38.31.1-5.99.05-11.98.18-17.95.73-4.7.43-10.09.82-14.35,3.02-3.76,1.95-5.4,5.48-6.19,9.48-.4,2.01-.71,4.05-.97,6.11.1-.04.21-.08.32-.11-.32,2.46-.49,4.95-.67,7.4-.38,5.14-.8,10.28-1.2,15.42-.39,5.02-.78,10.06-1.11,15.09-.15,2.21-.44,4.39-.54,6.56-.05,0-.09,0-.14,0-.14,6.71.03,13.52,1.27,19.94.48,2.48,1.32,4.59,2.48,6.33.18-.81.66-1.51,1.44-1.9,0-.02-.02-.03-.03-.05-2.12-4.35-1.96-9.65-2.06-14.37-.04-1.91-.07-3.81-.1-5.72-.2-1.58-.2-3.21-.11-4.84-.01,0-.03.01-.04.02.25-2.38.62-4.79.55-7.08-.15-4.68.08-9.31.44-13.98.36-4.72.81-9.43,1.26-14.14.47-4.97.44-10.07,1.37-14.98.02-.11.02-.22,0-.32.52-2.1,1.35-4.05,2.78-5.48,3.18-3.18,9.11-3.61,13.34-4.22,5.42-.78,10.91-.95,16.38-1.03,9.94-.13,19.88-.07,29.82-.05,20.57.05,41.14.23,61.71.45,10.06.11,20.11.24,30.17.37,9.65.13,19.43-.21,29.06.54,8.39.65,16.87,3.38,19.21,12.43,1.19,4.6,1.14,9.65,1.35,14.38.24,5.4.36,10.8.31,16.21-.08,9.5-.25,19.42-2.17,28.76-.84,4.07-2.23,8.28-5.16,11.35-3.13,3.27-7.42,4.81-11.79,5.62-10.01,1.84-20.62,1.19-30.75,1.19-10.02,0-20.04-.09-30.07-.02-20.5.15-41,.35-61.5.42-11.39.04-22.78.09-34.17.17-2.44.02-4.88.04-7.32.07.25.75.22,1.58-.21,2.36,7.07-.04,14.17-.28,21.2-.3,22.78-.06,45.55-.31,68.33-.3,11.38,0,22.78.11,34.17-.15,11.27-.26,22.62.15,33.88-.67,7.76-.56,16.2-2,21.1-8.7,5.07-6.94,5.33-16.72,5.91-24.96.76-10.78.7-21.61.17-32.4Z"/>
  </g>
  <path class="cls-16" d="M471.81,99.3c-5.71-4.43-10.03-10.21-12.73-16.91-.15-.37-.48-.51-.8-.5-.28-.35-.81-.54-1.31-.32-2.74,1.2-3.67,4.21-4.62,6.82-.79,2.18-1.62,4.18-3.33,5.81-1.55,1.48-3.51,2.48-5.12,3.9-2.24,1.98-1.87,3.34-.05,5.46,3.66,4.25,7.77,8.82,6.77,14.88-.19,1.12,1.35,1.99,1.97.83,4.14-7.81,9.56-16.61,18.85-18.58.57-.12.86-1.01.37-1.39ZM452.95,114.52c-.19-1.63-.68-3.22-1.45-4.79-.83-1.7-1.94-3.23-3.1-4.71-1.73-2.2-4.34-4.04-1.35-6.36,2.65-2.06,5.08-3.71,6.49-6.88,1.36-3.05,2.02-5.89,4.34-8.34,2.44,6.36,6.35,11.72,11.55,16.06-7.73,2.29-12.38,8.42-16.49,15.02Z"/>
  <path class="cls-16" d="M486.69,75.96c-1.68-2.06-3.31-4.18-4.93-6.29.25-.22.51-.43.75-.66.91-.86-.46-2.22-1.37-1.37-1.94,1.79-3.94,3.43-6.15,4.87-.47.31-.52.88-.17,1.3,1.66,1.96,2.64,4.17,3.12,6.68.14.73,1.31.9,1.64.21,1.14-2.41,3.58-3.76,6.23-3.23.92.18,1.45-.81.88-1.51ZM479.15,78.07c-.57-1.68-1.41-3.21-2.51-4.64,1.35-.84,2.66-1.74,3.9-2.73,1.14,1.67,2.34,3.3,3.58,4.9-1.93.15-3.7,1.01-4.97,2.48Z"/>
  <path class="cls-16" d="M451.58,67.53c-1.28-1.76-2.64-3.44-4.09-5.06-.64-1.03-1.23-2.09-1.75-3.23-.3-.67-1.3-.71-1.77-.23-2.3,2.35-4.77,4.36-7.54,6.12-.53.34-.66,1.08-.2,1.54,2.81,2.8,5.43,5.62,5.99,9.7.12.86,1.46.95,1.83.24.72-1.39,3.78-9.28,6.32-7.87.72.4,1.77-.46,1.22-1.22ZM443.47,73.21c-1.02-2.72-2.91-4.94-5.01-7.07,2.07-1.39,4.06-2.91,5.96-4.54,1.04,1.93,2.27,3.73,3.8,5.32-2.08.87-3.62,3.86-4.76,6.29Z"/>
  <path class="cls-16" d="M558.35,118.75c-16.74-.56-35.31,4.06-48.81,14.31-.96.73-.13,2.33.98,1.68,7.36-4.34,14.6-8.27,22.83-10.76,8.12-2.45,16.53-3.56,25-3.61,1.05,0,1.04-1.59,0-1.63Z"/>
  <path class="cls-16" d="M540.98,107.4c-7.07-.77-14.31-1.11-21.38-.17-1.08.14-1.16,1.81,0,1.76,7.16-.31,14.22-.59,21.38.01,1.03.09,1.01-1.49,0-1.6Z"/>
  <path class="cls-16" d="M860.71,123.8c-1.85-1.7-4.27-2.56-6.72-2.65-.06-.02-.11-.06-.18-.07-6.84-1.2-12.16,4.7-9.4,11.22,2.41,5.67,9.33,9.51,15.14,6.15,5.22-3.02,5.4-10.75,1.15-14.65ZM858.9,135.77c-3.92,2.81-8.94.97-11.3-2.92-1.33-2.19-2.01-4.85-.27-6.99,1.11-.86,2.29-1.58,3.53-2.05.89-.23,1.81-.38,2.7-.58,1.35-.05,2.76.27,4.21,1.11,4.12,2.38,5.27,8.47,1.13,11.44Z"/>
  <path class="cls-16" d="M875.3,125.32c-1.62-.46-5.05.76-3.04-2.11.96-1.36,2.39-1.9,3.01-3.61,1.29-3.53-2.02-6.6-4.98-7.98-1.73-.8-2.99-.6-4.74-.28-.27.05-.5.36-.74.4-1.09.18-2.73-.07-3.33-1.11-.54-.95-.36-2.39-.83-3.43-1.64-3.55-5.83-3.76-9.17-3.09-1.48.3-3.46.6-4.29,2.04-.65,1.12-.67,2.74-.54,4.23-.52.23-.91.76-.77,1.48.09.45-1.43,1.73-1.82,1.86-.55.18-1.76.12-2.27-.16-.67-.37-1.03-1.32-1.7-1.75-.84-.54-1.39-.6-2.26-.22-1.47.64-3.03,2.84-4.09,4.03-.95,1.07-1.83,2.31-1.93,3.79-.09,1.28.36,2.59,1.31,3.44.73.66,1.51.4.86,1.36-.78,1.16-2.98.89-4.25,1.23-3.1.84-2.81,3.58-2.7,6.39.09,2.2-.02,7.26,3.47,6.98.48-.04.85-.44,1.3-.5,2.28-.29,3.29,1.58,1.75,3.38-.81.94-2.37,1.08-2.43,2.61-.1,2.32,5.08,5.91,7.06,6.56,1.21.39,2.29.26,3.4-.31.69-.35,1.27-1.12,1.96-1.42.2-.16.41-.32.61-.48,1.25.95,2.49,1.89,3.74,2.84.12.27-.21.77-.1,1.06.97,2.55,2.41,3.43,5.22,3.7,2.27.22,7.41.62,7.98-2.44.23-1.26.29-5.44,2.97-3.08.36.31.46.99.85,1.35.81.73,1.77.87,2.8.54,1.72-.55,3.08-2.5,4.28-3.73.75-.77,1.69-1.52,1.68-2.68-.02-1.68-1.84-2.69-2.56-3.99-.4-.73-.78-2.7.2-3.41.22-.16,1.45.25,1.76.3.78.13,1.56.33,2.35.24,2.95-.35,3.56-3.35,3.77-5.83.26-3.13-.26-7.19-3.81-8.2ZM874,137.03c-1.35.11-2.41-.78-3.84-.35-1.77.54-2.57,2.23-2.35,3.99.15,1.21.78,2.12,1.48,3.08.24.28.48.55.72.83,1.43,1.08,1.52,1.97.28,2.69-.36.53-1.86,2.09-2.42,2.39-2.58,1.43-1.94-.85-3.28-1.95-.63-.51-1.37-.74-2.17-.7-2.21.1-3.45,2.17-3.7,4.13-.27,2.16,1.01,2.3-2.46,2.96-1.08.2-2.4.09-3.48-.08-2-.32-2.43-.26-2.65-2.71-.04-.43.15-.89.04-1.33-.61-2.37-2.19-4.25-4.89-4.06-1.19.08-2.06.64-3.02,1.29-2.62,1.75-4.08,1.24-6.4-.72-1.92-1.63-1.68-2,.26-3.69.82-.71,1.6-1.42,1.45-2.62-.21-1.81-2.84-4.31-4.61-4.58-.76-.12-1.85.87-2.29.78-1.31-.26-1.78-6.44-1.31-7.54,1.3-3.06,7.68-.18,8.42-4.37.19-1.07-.32-1.71-.99-2.45-.27-.29-.78-.27-1.02-.54-2.26-2.59-.3-4.31,1.57-6.08.07-.07,1.24-1.42,1.69-1.34.53.1,1.37,1.58,1.93,1.9,1.07.62,2.13.54,3.31.31,1.9-.37,3.46-1.29,4-2.81.31-.12.56-.41.58-.88.13-2.8,0-5.38,3.29-6,3.46-.64,6.15-.06,6.91,3.71.43,2.14,1.28,4.9,3.97,4.93,1.83.02,2.94-1.77,4.76-1.84,3.48-.13,6.64,4.54,3.94,7.36-1.42,1.49-4.55,3.12-2.79,5.62,2.01,2.85,5.85-.65,7.58,3.45.93,2.2.47,7-2.51,7.24Z"/>
  <path class="cls-16" d="M887.73,106.79c-5.27-7.55-12.8-11.43-21.32-14.3-9.57-3.23-19.83-3.4-28.86,1.14-16.93,5.76-23.3,26.82-21.49,43.27.94,8.58,6.63,17.55,12.9,23.32,6.92,6.37,16.38,9.44,25.71,9.19,9.26-.25,19.72-3.57,26.77-9.75,6.97-6.11,11.23-17.06,12.43-26.06,1.25-9.36-.69-19.02-6.13-26.81ZM885.45,151.26c-4.93,8.47-13.25,12.91-22.64,15.05-9.14,2.08-18.99,1.16-27.17-3.61-7.33-4.27-12.74-11.73-15.9-19.51-2.83-6.98-2.4-16-.52-23.76.44.13.96-.03,1.12-.63,2.1-7.89,6.17-15.34,12.91-20.21,1.82-1.32,3.8-2.44,5.88-3.36.39-.12.77-.24,1.17-.33.26-.06.44-.2.56-.37,5.57-2.11,11.72-2.82,17.53-1.9,8.16,1.29,17.34,4.62,23.42,10.35,6.11,5.76,9.67,13.78,10.3,22.11.71,9.31-2.02,18.19-6.67,26.17Z"/>
  <path class="cls-16" d="M885.09,293.69c-.08-1.1-1.79-1.12-1.73,0,.8,14.14,1.72,28.34.97,42.5-.39,7.41-1.87,13.85-7.1,19.38-4.32,4.57-9.79,10.1-16.4,10.53-1.22.08-1.24,1.87,0,1.91,6.08.23,10.7-4.25,14.84-8.15,5.28-4.97,8.93-10.13,10.02-17.43,2.38-15.91.51-32.79-.6-48.74Z"/>
  <path class="cls-16" d="M487.75,279.51c-.07-.97-1.56-.99-1.52,0,.57,13.02.84,26.15,2.1,39.13.11,1.17,1.88,1.22,1.86,0-.25-13.04-1.5-26.12-2.44-39.13Z"/>
  <path class="cls-16" d="M476.81,277.92c-.09-.96-1.59-.98-1.52,0,.47,6.34.85,12.69,1.54,19.01.12,1.07,1.77,1.11,1.7,0-.4-6.35-1.11-12.68-1.72-19.01Z"/>
  <path class="cls-16" d="M767.7,176.08c-5.05-3.1-13.16-4-18.63-.92-1.45.53-2.76,1.37-3.78,2.72-2.58,3.4-1.37,7.81.86,11.04,4.86,7.02,16.55,12.2,24.29,6.57,7.02-5.1,3.83-15.39-2.74-19.42ZM770.11,192.76c-4.94,4.52-14.73,2.3-19.23-1.98-2.88-2.74-6.87-8.17-3.27-11.94,2.57-2.69,6.85-2.2,10.19-1.94.88.07,1.21-.72,1.03-1.38,1.75.17,3.46.54,4.99,1.07,5.84,2.03,12.12,10.84,6.3,16.16Z"/>
  <path class="cls-16" d="M793.16,203.3c-3.41-2.71-14.09-12.92-17.58-4.57-1.29,3.08.86,6.15,3.07,8.11,4.07,3.62,7.31,6.35,8.25,12.07.16.97,1.85.75,1.73-.23-.66-5.25-3.18-8.95-7.24-12.23-1.35-1.1-2.96-2.28-3.58-3.96-1.38-3.76,1.79-5.74,5.08-4.64,3.4,1.14,6.41,4.35,9.2,6.53.76.59,1.84-.46,1.08-1.07Z"/>
  <path class="cls-16" d="M804.92,220.83c-1.89-6.34-5.59-11.85-10.39-16.36-.68-.63-1.69.37-1.02,1.02,3.86,3.72,7.07,8.13,8.92,13.2,1.65,4.5,3.82,13.27-2.82,14.6-1.82.37-5.4.44-7.03-.48-2.99-1.66-3.26-5.56-3.58-8.54-.43-4.09-.67-8.22-2.97-11.78-.65-1.01-2.08-.14-1.58.93,1.69,3.64,1.92,7.47,2.44,11.39.35,2.63.67,5.84,2.27,8.06,2.44,3.37,9.93,3.62,13.29,1.71,4.84-2.75,3.79-9.31,2.47-13.75Z"/>
  <path class="cls-16" d="M803.82,193.16c-1.81-5.54-5.76-9.97-10.84-12.76-.87-.48-1.64.84-.78,1.34,4.69,2.72,8.03,6.86,10.05,11.85.38.94,1.9.59,1.57-.43Z"/>
  <path class="cls-16" d="M589.63,402.22c-13.18,4.62-26.59,8.03-40.11,11.47-1.49.38-.85,2.56.63,2.28,13.63-2.62,27.03-6.95,40.05-11.69,1.28-.46.74-2.52-.57-2.06Z"/>
  <path class="cls-16" d="M583.37,416.19c-15.78,1.22-31.52,5.1-45.71,12.2-1.48.74-.18,2.86,1.29,2.2,14.18-6.41,28.88-10.7,44.42-12.01,1.52-.13,1.54-2.52,0-2.4Z"/>
  <path class="cls-16" d="M588.83,426.71c-13.62,3.94-27.69,7.22-41.02,12.05-1.66.6-1.02,3.1.74,2.67,13.79-3.31,27.34-8.34,40.88-12.56,1.37-.43.8-2.57-.6-2.17Z"/>
  <path class="cls-16" d="M452.71,493.27c-12.24,3.68-24.86,8.88-35.54,15.98-1.41.93-.19,3.03,1.32,2.26,11.49-5.85,22.72-11.49,34.83-16.01,1.38-.51.84-2.68-.62-2.24Z"/>
  <path class="cls-16" d="M446.16,504.59c-10.17,3.81-20.36,8.22-29.5,14.14-1.27.82-.15,2.76,1.19,2.04,9.49-5.07,18.86-10.09,28.89-14.05,1.3-.51.76-2.63-.59-2.13Z"/>
  <path class="cls-16" d="M448.41,513.8c-7.11,3.89-14.59,7.45-21.35,11.92-1.32.87-.18,2.76,1.23,2.1,7.34-3.43,14.28-7.95,21.31-11.99,1.32-.76.14-2.77-1.19-2.04Z"/>
  <path class="cls-16" d="M451.11,524.29c-5.3,2.11-10.6,4.18-15.81,6.51-1.26.57-.35,2.77.95,2.26,5.31-2.09,10.5-4.43,15.71-6.75,1.13-.5.32-2.48-.85-2.02Z"/>
  <path class="cls-16" d="M473.06,523.37c-9.93,2.69-20.27,6.41-28.84,12.23-1.39.95-.19,3.04,1.32,2.26,9.21-4.75,18.14-9.31,28.13-12.25,1.43-.42.83-2.63-.62-2.24Z"/>
  <path class="cls-16" d="M481.86,525.3c-7.85,4.15-16.41,7.81-23.76,12.8-1.31.89-.19,2.66,1.21,2.07,8.17-3.48,15.88-8.68,23.62-13.03,1.2-.67.14-2.48-1.08-1.84Z"/>
  <path class="cls-16" d="M488.29,528.44c-6.41,2.96-12.57,6.4-18.08,10.84-1.04.84.32,2.58,1.43,1.85,5.82-3.8,11.64-7.5,17.91-10.52,1.46-.7.19-2.84-1.27-2.17Z"/>
  <path class="cls-16" d="M623.2,336.89c-1.94,1.06-3.89,2.13-5.83,3.19-.72.4-.08,1.5.65,1.11,1.94-1.06,3.89-2.13,5.83-3.19.72-.4.08-1.5-.65-1.11Z"/>
  <path class="cls-16" d="M606.93,333.32c-3.9,2.14-7.79,4.58-11.11,7.57-.79.71.35,1.77,1.14,1.14,3.46-2.69,6.87-5.3,10.67-7.51.78-.45.08-1.64-.7-1.2Z"/>
  <path class="cls-16" d="M594.22,323.1c-4.62,3.51-9.36,6.83-14.11,10.14-.77.54-.06,1.81.75,1.28,4.9-3.22,9.59-6.72,14.21-10.33.62-.48-.21-1.57-.84-1.09Z"/>
  <path class="cls-16" d="M578.01,318.01c-4.27,4.29-8.91,7.96-13.67,11.68-.7.55.21,1.73.95,1.24,5.04-3.33,9.59-7.51,13.8-11.83.69-.7-.39-1.78-1.08-1.08Z"/>
  <path class="cls-16" d="M578.7,305.42c-6.01,4.56-12.1,9.32-17.29,14.81-.78.83.4,1.98,1.24,1.24,5.67-4.96,11.07-10.17,16.91-14.93.62-.5-.22-1.6-.86-1.11Z"/>
  <path class="cls-16" d="M565.86,294.27c-4.25,4.93-8.97,9.03-13.88,13.27-.67.58.2,1.72.95,1.24,5.44-3.51,10.13-8.53,13.96-13.7.45-.6-.55-1.37-1.04-.8Z"/>
  <path class="cls-16" d="M563.8,278.21c-3.93,2.78-8.1,5.6-11.55,8.97-.7.68.25,2.01,1.08,1.39,3.9-2.91,7.48-6.27,11.33-9.25.63-.49-.2-1.58-.86-1.11Z"/>
  <path class="cls-16" d="M558.27,266.06c-3.68,2.94-7.42,5.83-10.96,8.94-.65.57.24,1.76.94,1.22,3.79-2.91,7.39-6.06,11.04-9.14.71-.6-.31-1.59-1.02-1.02Z"/>
  <path class="cls-16" d="M514.59,280.06c-1.47.93-2.99,1.8-4.39,2.82-.71.52-.1,1.65.7,1.2,1.51-.85,2.95-1.86,4.4-2.8.76-.49.06-1.71-.71-1.22Z"/>
  <path class="cls-16" d="M517.24,286.91c-1.79,1.46-3.66,2.87-5.37,4.42-.62.56.23,1.71.91,1.18,1.88-1.45,3.65-3.06,5.46-4.6.7-.6-.3-1.57-1-1Z"/>
  <path class="cls-16" d="M515.38,300.79c-2.33,1.64-4.55,4.18-5.02,7.09-.18,1.1,1.26,1.51,1.67.46.99-2.55,2.01-4.69,4.18-6.47.6-.49-.19-1.52-.83-1.08Z"/>
  <path class="cls-16" d="M518.17,307.88c-3.44,2.62-6.12,6.36-6.52,10.75-.08.87,1.24.98,1.48.2,1.18-3.84,2.79-7.19,5.89-9.84.6-.51-.22-1.6-.86-1.11Z"/>
  <path class="cls-16" d="M516.45,318.98c-1.94,3.12-3.13,6.47-3.3,10.15-.04.93,1.3.88,1.42,0,.43-3.34,1.37-6.54,3.03-9.48.42-.75-.69-1.39-1.14-.67Z"/>
  <path class="cls-16" d="M518.28,327.32c-2.72,3.94-4.74,8.55-4.84,13.4-.02.91,1.43,1.14,1.61.22.92-4.6,2.03-8.81,4.53-12.85.52-.83-.76-1.55-1.3-.76Z"/>
  <path class="cls-16" d="M517.8,342.47c-1.33,2.74-2.29,5.67-2.21,8.74.02.8,1.31,1.05,1.46.2.47-2.8.95-5.54,2.09-8.16.39-.9-.9-1.69-1.34-.78Z"/>
  <path class="cls-16" d="M522.38,348.89c-2.37,3.43-3.57,7.85-2.4,11.94.26.92,1.74.77,1.7-.23-.15-3.9.17-7.41,2.08-10.91.5-.91-.8-1.64-1.38-.81Z"/>
  <path class="cls-16" d="M528.87,365.68c-.52-3.9-1.11-7.63-.81-11.58.07-.98-1.61-1.23-1.74-.24-.55,4-.63,8.22.81,12.05.32.85,1.89.83,1.74-.24Z"/>
  <path class="cls-16" d="M539.15,368.9c-1.48-3.12-2.67-6.15-3.29-9.56-.16-.88-1.64-.69-1.57.21.3,3.59,1.34,7.21,3.46,10.17.61.85,1.85.13,1.4-.82Z"/>
  <path class="cls-16" d="M546.2,368.65c-.89-1.62-1.8-3.21-2.76-4.78-.49-.8-1.72-.09-1.26.74.9,1.61,1.85,3.18,2.82,4.75.47.76,1.64.08,1.2-.7Z"/>
  <path class="cls-16" d="M396.07,332.37c-.55-.9-1.84-.11-1.4.82.88,1.84-.39,4.38-2.5,4.5-1.03.06-1.05,1.67,0,1.62,3.25-.15,5.68-4.05,3.9-6.94Z"/>
  <path class="cls-16" d="M621.91,416.43c-3.59.3-7.5,2.94-8.04,6.75-.14,1.02,1.19,1.43,1.56.43,1.11-2.97,3.14-5.38,6.47-5.79.87-.11.91-1.47,0-1.39Z"/>
  <path class="cls-16" d="M622.79,420.58c-3.79.98-6.88,4.29-7.02,8.3-.03.83,1.32,1.04,1.48.2.62-3.29,2.62-6.09,5.94-7.07.91-.27.53-1.67-.39-1.43Z"/>
  <path class="cls-16" d="M623.05,423.52c-2.27,1.93-3.19,5.21-1.94,7.97.37.82,1.68.24,1.44-.61-.67-2.33-.32-4.65,1.51-6.36.67-.63-.32-1.58-1-1Z"/>
  <path class="cls-16" d="M631.38,433.99c-2.35-2.43-3.5-5.47-2.4-8.79.32-.99-1.18-1.37-1.54-.42-1.38,3.68-.37,8.21,2.95,10.51.78.54,1.62-.64.99-1.29Z"/>
  <path class="cls-16" d="M639.72,432.98c-3.16-1.7-5.55-3.79-7.04-7.13-.34-.76-1.64-.22-1.36.57,1.28,3.55,4.11,6.82,7.76,8.06.88.3,1.45-1.06.63-1.5Z"/>
  <path class="cls-16" d="M652.12,434.26c-3.41-1.62-6.72-3.21-9.84-5.35-.71-.49-1.35.65-.67,1.14,3.06,2.23,6.37,4.28,9.93,5.58.79.29,1.35-1.01.58-1.38Z"/>
</svg>