<?xml version="1.0" encoding="UTF-8"?>
<svg xmlns="http://www.w3.org/2000/svg" xmlns:xlink="http://www.w3.org/1999/xlink" viewBox="0 0 1200 600">
  <defs>
    <style>
      .cls-1 {
        opacity: .62;
      }

      .cls-1, .cls-2, .cls-3, .cls-4, .cls-5, .cls-6, .cls-7, .cls-8, .cls-9, .cls-10, .cls-11, .cls-12, .cls-13, .cls-14, .cls-15, .cls-16, .cls-17, .cls-18, .cls-19, .cls-20, .cls-21, .cls-22, .cls-23, .cls-24, .cls-25, .cls-26, .cls-27 {
        stroke-width: 0px;
      }

      .cls-1, .cls-2, .cls-4, .cls-7, .cls-8, .cls-13, .cls-14, .cls-15, .cls-16, .cls-21, .cls-22 {
        fill: #fff;
      }

      .cls-2 {
        opacity: .39;
      }

      .cls-3, .cls-28 {
        fill: #8ac430;
      }

      .cls-4 {
        opacity: .47;
      }

      .cls-5 {
        fill: #cad0e0;
      }

      .cls-6, .cls-29, .cls-30 {
        fill: #fc3;
      }

      .cls-31 {
        clip-path: url(#clippath-2);
      }

      .cls-7 {
        opacity: .33;
      }

      .cls-32 {
        isolation: isolate;
      }

      .cls-8 {
        opacity: .15;
      }

      .cls-9, .cls-33 {
        fill: #6870ee;
      }

      .cls-29 {
        stroke: #fff;
        stroke-width: .81px;
      }

      .cls-29, .cls-34, .cls-35 {
        stroke-miterlimit: 10;
      }

      .cls-10 {
        fill: #1a1a1a;
      }

      .cls-36 {
        clip-path: url(#clippath-6);
      }

      .cls-11 {
        fill: #a67c52;
        opacity: .66;
      }

      .cls-12, .cls-37 {
        fill: #754c24;
      }

      .cls-34 {
        stroke-width: .79px;
      }

      .cls-34, .cls-23, .cls-35 {
        fill: #1b1c26;
      }

      .cls-34, .cls-35 {
        stroke: #1b1c26;
      }

      .cls-38 {
        clip-path: url(#clippath-7);
      }

      .cls-13 {
        opacity: .22;
      }

      .cls-39 {
        clip-path: url(#clippath-1);
      }

      .cls-40 {
        clip-path: url(#clippath-4);
      }

      .cls-14 {
        mix-blend-mode: screen;
        opacity: .27;
      }

      .cls-16 {
        opacity: .34;
      }

      .cls-17 {
        fill: #9197a8;
      }

      .cls-18 {
        fill: #b4b9cc;
      }

      .cls-41 {
        clip-path: url(#clippath-9);
      }

      .cls-42 {
        clip-path: url(#clippath);
      }

      .cls-43 {
        clip-path: url(#clippath-3);
      }

      .cls-44 {
        clip-path: url(#clippath-8);
      }

      .cls-19 {
        fill: #ccd2ea;
      }

      .cls-20 {
        fill: #603813;
      }

      .cls-45 {
        clip-path: url(#clippath-5);
      }

      .cls-21 {
        opacity: .19;
      }

      .cls-22 {
        opacity: .29;
      }

      .cls-46 {
        clip-path: url(#clippath-10);
      }

      .cls-24 {
        fill: #4b58a3;
      }

      .cls-25 {
        fill: #474d5b;
      }

      .cls-26 {
        fill: #e2c086;
      }

      .cls-27 {
        fill: #8c6239;
      }

      .cls-35 {
        stroke-width: 1.22px;
      }
    </style>
    <clipPath id="clippath">
      <path class="cls-6" d="M728.78,180.51c-1.8-2.98-4.31-5.6-6.84-7.4-7.48-5.32-17.67-5.5-26.46-5.99-11.46-.63-22.94-.44-34.41-.68-13.14-.27-26.25-1.26-39.4-1.59-9.17-.23-18.57-1.5-27.73-.5-8-1.87-16.43-3.96-24.23-1.57-1.48.3-2.92.93-4.22,1.94-3.18,2.48-3.66,5.61-2.62,8.5-1.67,2.36-2.62,5.16-2.36,8.25.37,4.36,4.05,8.59,8.41,9.73,1.39,2.48,4.2,3.31,7.07,2.93,1.36-.33,4.2,1.4,5.73,1.74,2.45.54,4.97.57,7.46.63,6.01.15,11.98.9,17.97,1.38,11.77.94,23.64,1.54,35.45,1.79,7.57.16,15.26.1,22.86-.31.84.49,1.85.79,3.05.81,2.18.04,4.37.24,6.55.23,7.17.38,14.29,1.07,21.51.9,3.97-.1,7.93-.14,11.9-.08.97.07,1.94.12,2.92.15,2.38.06,5.01-.02,7.57-.43.27.02.54.04.8.08.17.05.34.1.51.13,2.73,2.12,6.51.54,8.16-2.25-.12-6.13.1-12.25.37-18.38Z"/>
    </clipPath>
    <clipPath id="clippath-1">
      <path class="cls-9" d="M433.32,455.89c-.64-2.44-2.74-4.03-3.57-6.48-.95-2.81-1.18-5.67-2.52-8.37-2.41-4.86-4.87-6.71-10.31-6.99-6.99-.35-13.9-.27-20.89-.4-7.18-.14-14.34-.75-21.52-.84-7.39-.09-14.78-.34-22.17-.26-7.18.08-14.29.94-21.46,1.29-6.53.32-13.05.19-19.58,0-1.47-.04-2.73.22-4.17.38-1.29.13-.09.04-1.37-.06-2.51-.2-3.97.14-5.71,2.02-2.19,2.36-4.67,3.93-7.1,5.99-1.78,1.51-2.4,3.32-1.42,5.53,1.27,2.87,3.09,5.32,4.17,8.34.8,2.23,1.69,4.2,2.91,6.04-.41,1.82.95,4.06,3.02,3.92,1.09-.07,1.88-.28,2.86-.76.69-.34,1.11-.86,1.32-1.47,1.91-.98,4.13-1.53,6.04-2.36,2.35-1.01,3.24-2.44,4.53-4.23.44-.19.88-.37,1.33-.53,1.4-.49,3-1.02,4.68-1.49.96.16,1.91.18,2.88.17.17,0,.34-.03.5-.06.71.48,1.58.7,2.53.47,1.22-.3,2.45-.48,3.69-.68,1.47-.04,2.96.1,4.41.11,3.33.02,6.63-.31,9.96-.4,6.79-.17,13.55-.26,20.34-.51,6.69-.24,13.35.54,20.04.45,6.67,2.19,13.23,1.63,20.14,2.72,3.98.63,7.82.51,11.82.74,3.32.19,6.53,1.15,9.85,1.39,2.19,1.14,5.59-.57,4.78-3.68Z"/>
    </clipPath>
    <clipPath id="clippath-2">
      <path class="cls-9" d="M699.24,494.13c.01-.06.02-.12.05-.18.29-.77.59-1.55.95-2.29-.14-1.77-.39-3.55-.57-5.34-.1-.94-.2-1.89-.31-2.83-.04-1.16-.05-2.33.02-3.52.29-4.9-.01-9.51-.19-14.4-.1-2.77-.46-5.27-3.49-6.08-3.07-.81-7.55-1.17-10.54-.05-2.16.81-3,3.43-1.6,5.1-.7,1.87-.52,4.25-.58,6.14-.16,5.25-1.45,10.02-.6,15.36.38,2.39.22,4.27.14,6.66-.03.96.06,1.84.48,2.59.03.16.05.32.07.49.31,2.82,3.73,3.56,5.2,2,.23,0,.47.01.71,0,1.1-.05,2.18-.25,3.27-.37.46-.05.91-.08,1.37-.12,1.13.96,2.92,1.13,4.03-.11.28-.32.52-.62.71-.95.17,0,.34.02.51.03.03-.72.16-1.43.38-2.15Z"/>
    </clipPath>
    <clipPath id="clippath-3">
      <path class="cls-9" d="M732.62,468.38c-.69-6.6-.49-13.23-1.25-19.83-.57-4.95.54-10.35-1.71-15.03-2.2-4.57-6.76-4.18-11.14-4.14-4.11.04-8.59-.19-9.7,4.8-.56,2.53-.34,5.64-.33,8.22.02,3.22.16,6.52.32,9.74.33,6.73.96,13.5,1.73,20.2.45,3.87-.23,7.65.21,11.47.23,2.01.74,3.91.59,5.93-.09,1.17-.15,2.2-.14,3.25-.07.1-.15.19-.22.29-.24.38-.37.79-.39,1.23-.1.44-.08.88.06,1.31.1.43.3.8.59,1.12.23.36.54.64.92.85.26.11.52.22.79.33.58.16,1.17.16,1.75,0,.26-.11.52-.22.79-.33.06-.03.1-.08.16-.12,1.6.31,3.15.95,4.85.97,1.5.01,3-.36,4.49-.34,1.29.02,2.55.38,3.83.28,5.45-.41,4.17-6.61,4.45-10.5.47-6.51.04-13.21-.64-19.68Z"/>
    </clipPath>
    <clipPath id="clippath-4">
      <path class="cls-9" d="M763.72,490.13c-.14-2.88-1.14-5.62-1-8.51.15-3.07.29-5.89.13-8.96-.17-3.22.19-6.43,0-9.67-.21-3.56-.78-7.1-.69-10.68.08-3.17.53-6.32.62-9.5.09-3.32,1.15-6.52,1.03-9.83-.14-4.04-.4-10.38-4.75-11.99-2.34-.87-5.17-1.11-7.64-1.42-2.04-.26-4.47-.85-6.31.41-3.92,2.68-2.6,10.56-2.43,14.54.12,2.81.68,5.58.75,8.39.08,3.54-.86,6.9-1.34,10.38-.5,3.61.84,6.68,1.08,10.22.25,3.69-.41,7.36-.51,11.03-.1,3.54.3,7.03.17,10.59-.13,3.42.13,6.79,0,10.23-.09,2.64,2.41,3.55,4.33,2.78,1.29.67,2.7.79,4.32.67,3.03-.22,5.34-.4,8.37.09,2.54.41,4.78-2.58,3.57-4.5.32-1.36.36-2.89.29-4.3Z"/>
    </clipPath>
    <clipPath id="clippath-5">
      <path class="cls-9" d="M600.23,306.66c-.71-10.26.13-20.56.12-30.83,0-2.41.07-4.8-.17-7.2-.22-2.16-1.1-4.09-1.43-6.18-.31-2.03.49-3.99.44-6.02-.06-2.41-.84-4.81-1.95-6.93-4.06-7.67-11.51-11.43-19.8-12.68-8.3-1.25-18.93-2.92-26.39,1.9-8.12,5.25-11.41,15.07-8.72,24.19-.09.31-.15.64-.17,1.01-.18,4.64-.57,9.79-.2,14.41.17,2.12.81,4.16,1.09,6.25.41,3.06.22,6.2.27,9.28.08,4.99.62,9.9.61,14.89-.01,4.36.75,9.06,2.09,13.22,2.92,9.08,11.14,10.08,19.53,10.13,4.8.03,9.61.31,14.38-.41,2.46-.37,4.84-1.22,7.33-1.39,2.37-.16,4.7.12,6.88-1.04,7.89-4.17,6.58-15.38,6.08-22.61Z"/>
    </clipPath>
    <clipPath id="clippath-6">
      <path class="cls-9" d="M679.03,270.27c.62-6.1,1.58-12.34.21-18.42-3.85-17.03-26.04-16.43-39.7-16.12-4.24.1-10.14-1.01-14.04,1.02-3.08,1.6-4.29,5.24-4.4,8.51-.09,2.66.33,5.27.15,7.95-.15,2.22-.29,4.26.01,6.48.38,2.74.45,4.94.22,7.66-.18,2.07.05,3.77,1.02,5.61-.12,1.65-.21,3.31-.18,4.99.08,5.14-.17,10.33.07,15.47.25,5.19,2.19,9.66,3.23,14.67.36,1.74.63,3.5.87,5.26-.21.63-.21,1.36.12,2.18.08.2.17.41.26.62.34,2.49.7,4.98,1.29,7.43.45,1.88,2.41,2.74,4.13,2.47,2,2.07,4.6,3.36,7.42,3.89,6.08,1.13,12.87.13,19.05.1,6.13-.02,12.69-1.19,15.97-6.98,1.99-3.52,2.59-8,3.27-11.94.86-4.99,1.45-10.08,1.49-15.14.07-8.62-1.33-17.09-.46-25.71Z"/>
    </clipPath>
    <clipPath id="clippath-7">
      <path class="cls-9" d="M760.82,283.06c-.74-7.42-.1-14.84-1.25-22.25-1.7-11.01-11.51-15.9-21.4-18.21-7.07-1.65-14.36-2.93-21.63-2.65-2.26.09-4.56.23-6.73.68-1.39-1.58-4.44-1.59-5.68.46-.31.51-.63,1.75-1.04,2.72-.73.66-1.4,1.44-1.99,2.36-1.1,1.73-.11,3.71,1.45,4.5-.78,6.22-1.28,12.42-.98,18.76-.59.87-.76,2.06-.13,2.97.1.14.15.2.18.24,0,0,0,0,0,0,.03.07.09.32.11.4.07.51.05,1.04.07,1.55.04.93.16,1.82.49,2.64-.2,1.26-.43,2.51-.65,3.77-.43,2.48-.07,4.82-.21,7.31-.05.94.33,1.67.92,2.19-.62,1.96-1.2,3.97-1.19,6.02.02,2.7.94,5.4,1.24,8.07.42,3.83,1.68,6.72,3.25,9.73.06.17.13.34.19.5-.24.82-.21,1.72.23,2.5,1.14,2.03,2.86,3.83,5.18,4.04,0,0,0,.01.01.02,1.63,2.3,3.46,4.39,6.04,5.64,2.82,1.36,6.01,1.41,9.08,1.49,3.65.09,7.33.77,10.98.61,6.97-.32,14.1-.61,19.37-5.63,5.22-4.97,5.78-10.27,6.13-17.19.39-7.97-1.24-15.37-2.02-23.24Z"/>
    </clipPath>
    <clipPath id="clippath-8">
      <path class="cls-3" d="M868.92,452.59c.89-1.41,1.18-3.17.55-5.08-1.44-4.38-5.95-7.12-9.64-9.38-4.65-2.84-9.49-5.35-15.12-4.68-2.31.27-4.82.6-7.09,1.19-1.15.3-4.64,3.15-5.49,3.1-.3-.04-.6-.09-.91-.11-1.27-.1-2.17.57-2.67,1.5-.51-.24-1.03-.44-1.58-.58-.99-.25-1.48,1.05-.67,1.6.61.41,1.24.82,1.87,1.24.17,1.14.87,2.17,2.21,2.48.36.08.71.12,1.04.15.28.04.55.09.82.15.12.09.24.18.36.27.62.61,1.24,1.21,1.85,1.75.39.34.79.66,1.19.99.12.13.22.27.33.41-.15.37,0,.75.32.97.05.03.1.07.15.1-.15.25-.18.55.01.86.57.9,1.3,1.62,2.08,2.33.08.07.17.12.27.16,1.29,1.32,2.64,2.6,4.2,3.54,2.29,1.38,5.06,1.47,7.62,1.95.43.08.81-.13,1-.45,1.9.35,3.86.49,5.81.47.42,0,.68-.25.78-.55.29,0,.58-.01.87-.03,1.59-.11,3.1-.47,4.51-1.04.44-.11.87-.22,1.29-.35.24-.07.48-.16.7-.25.03,0,.05.02.08.03.98.18,2.16.18,2.82-.7.31-.41.37-.85.29-1.28.18-.24.21-.49.14-.73Z"/>
    </clipPath>
    <clipPath id="clippath-9">
      <path class="cls-3" d="M922.68,440.3c-3.05-.88-5.86-2.29-8.98-2.94-1.58-.33-3.17-.61-4.74-.99-1.5-.36-2.96-.87-4.43-1.31-2.72-.82-5.31-.9-8.13-.84-2.39.05-4.98.08-7.15,1.21-.39.2-.57.52-.61.86-2.62,1.13-5.14,2.96-6.76,5.12-1.85,2.46-4.17,5.61-4.16,8.83,0,.68.41,1.08.9,1.23.09.13.21.24.37.32,2.43,1.3,5.13,2.23,7.74,3.09,2.92.97,6.35,2.17,9.47,1.74.98-.14,1.73-.54,2.17-1.24.16-.01.32-.02.48-.03,3.17-.27,6.23-1.14,9.03-2.65,2.61-1.41,5.3-2.88,7.63-4.73.64-.51,1.25-1.04,1.73-1.71.35-.48.59-1.01.88-1.53.67-.44,1.23-.94,1.64-1.48.92-.37,2.03-.46,2.93-.63,1.21-.22,1.07-2.01,0-2.31ZM907.29,450.17c.07-.13.13-.26.18-.4.37-.09.74-.19,1.1-.3-.43.24-.85.48-1.28.71Z"/>
    </clipPath>
    <clipPath id="clippath-10">
      <path class="cls-12" d="M911.36,497.34s0-.03-.01-.04c-.59-1.34-2.08-2.03-3.49-2.1-.28-.01-.56,0-.84.05-.07,0-.13.01-.2.02-.96-.09-1.92.2-2.71.76-.01-.67-.15-1.33-.42-1.98-.22-2.16-1.45-4.22-3.35-5.41-1.52-.95-3.17-1.37-4.95-1.11-.79.12-1.56.38-2.28.75-1.1.17-2.05.85-2.47,1.94-.11.1-.21.22-.32.32,0,.03,0,.07,0,.1,0,0-.01,0-.02.01-.1.06-.18.15-.23.25-.06.1-.11.19-.17.29,0,.02-.03.02-.04.04-.04.08-.09.16-.13.24-.04.06-.07.13-.09.21-.12.05-.26.07-.39.08-.14,0-.28-.02-.4-.09-.13-.04-.24-.11-.34-.22-.19-.19-.31-.47-.31-.74,0-.25.02-.51.05-.76,0-.04.01-.07.02-.11-.47-.41-.99-.81-1.56-1.18-.02-.02-.03-.04-.05-.07-.83-1.05-1.82-1.95-2.92-2.71-2.41-1.65-5.43-2.41-8.34-2.2,0,0,0,0,0,0-.2-.12-.45-.16-.75-.08-.8.21-1.59.43-2.39.64-.75.2-1.58.34-2.24.79-.32.22-.57.48-.76.78-.49.28-.98.58-1.43.92-1.87,1.4-3.37,3.11-4.06,5.38-.03.11-.04.23-.02.34-.03.03-.05.07-.07.11-.48-.4-1-.76-1.54-1.06-.11-.28-.36-.5-.66-.62l-.8-.33c-.14-.04-.28-.05-.42-.02-1.01-.53-2.13-.83-3.25-.43-.57.2-1.08.53-1.51.96-1.16.56-2.03,1.46-2.53,2.53-.23.02-.45.05-.68.1-.33-.66-.79-1.12-1.32-1.42,0,0,0,0-.01-.01-.62-.56-1.39-.99-2.23-1.13-.23-.04-.47-.06-.7-.06-.87-.05-1.73.2-2.47.66-.2.03-.4.05-.59.09-1.03.24-1.83,1.31-1.87,2.38-.21.19-.4.39-.55.62-.93,1.37-.73,3.32.41,4.5.21.22.45.39.72.53-.06.86.32,1.73,1.34,2.29,12.81,7.09,28.94,7.01,43.18,6.32,3.91-.19,7.81-.52,11.69-.98,2.82-.34,6.2-.37,8.78-1.69,2.35-1.21,3.47-3.35,3.32-5.38.11-.39.15-.79.12-1.19-.06-.7-.33-1.33-.73-1.87Z"/>
    </clipPath>
  </defs>
  <g class="cls-32">
    <g id="Layer_10" data-name="Layer 10">
      <g>
        <path class="cls-19" d="M453.63,111.12c-7.73,6.44-14.9,13.42-21.25,21.09-.75.91-1.5,1.82-2.25,2.74-6.48,5.62-12.63,11.58-18.06,17.96-10.83,12.74-21.75,26.75-28.59,41.7-6.79,14.84-12.99,29.12-15.57,44.64-2.58,15.52-4.95,30.54-3.61,45.78,1.36,15.5,3.22,31.07,7.85,45.7,5.01,15.83,12.03,31.04,19.73,45.58,10.4,19.62,23.32,38.16,37.93,54.92,10.79,12.38,21.43,24.85,34.48,35.16,2,1.58,4.05,3.11,6.12,4.62,5.1,5.25,10.57,10.13,16.73,14.16,12.97,8.47,26.21,16.94,41.01,22.72,14.65,5.73,30.25,10.16,46.08,13.16,16.07,3.05,32.8,3.24,49.49,3.42,10.65.12,21.39-.58,32.13-2.12,17.01-2.44,34.31-5.91,50.95-11.08,10.59-3.29,21.03-7.13,31.23-11.68,16.44-7.34,33.36-15.24,48.58-25.19,4.86-3.17,9.52-6.6,14.02-10.25,9.6-7.79,19.75-15.5,28.24-24.5,8.1-8.58,15.11-18.36,21.77-27.8,3-4.25,5.65-8.7,7.91-13.28,13.76-27.89,21.64-56.97,21.64-86.49,0-14.71-1.97-29.32-4.63-43.48-1.75-9.31-4.39-18.36-7.69-27.13-8.44-22.45-18.81-44.8-32.9-64.25-1.74-3.35-3.55-6.65-5.47-9.9-12.8-21.72-29.46-41.63-48.04-58.87-7.21-6.69-14.99-12.85-23.3-18.33-11.66-7.69-23.67-15.26-36.57-21.25-8.05-3.74-16.44-6.84-25.11-9.4-13.83-4.08-27.55-8.16-42.13-10.15-14.45-1.97-29.47-2.26-44.3-2.03-9.32.15-18.71,1.05-28.06,2.75-15.22,2.77-30.74,6.02-45.54,11.45-15.07,5.53-29.86,12.8-43.85,20.79-14.22,8.12-26.44,18.39-38.98,28.84Z"/>
        <path class="cls-15" d="M805.24,418.1c-.37-4.92-1.55-9.76-1.62-14.71-.07-4.84.87-9.6,1.16-14.41.65-10.99-1.36-22.18-1.6-33.18-.23-10.57.06-21.17-.75-31.72-.78-10.21-2.57-20.31-4.23-30.41-.88-5.37-1.19-10.63-1.47-16.05-.29-5.51-1.39-10.87-2.24-16.31-1.61-10.26-3.56-20.44-5.42-30.65-1.83-10.07-3.7-20.15-5.58-30.21-.43-2.28-.95-4.73-2.01-6.87-.03-.93-.1-1.86-.2-2.79.42-4.85-.82-9.76-1.99-14.44-1.44-5.76-1.67-11.92-3.62-17.53-.52-1.48-1.17-2.77-1.93-3.9.01-1.79-1.09-3.51-2.71-4.46-.88-.51-1.93-.64-2.87-.42-6.23-3.18-14.68-2.76-21.85-3.07-15.61-.67-31.55-.93-47.05-2.9-16.15-2.06-31.97-3.26-48.25-3.37-16.07-.11-32.24-.25-48.3-.93-8.06-.34-16.1-1-24.16-1.23-8.12-.23-16.2.27-24.31.57-16.26.6-32.45.66-48.64-1.12-7.67-.84-15.46-1.52-23.06-2.84-4.1-.71-11.47-3.37-12.82,2.79-.67,3.06,1.33,6.39,2.92,8.86,1.99,3.09,4.2,5.77,5.79,9.13,3.66,7.72,5.64,16.49,7.12,24.86,1.51,8.58,2.56,17.11,5.37,25.39,2.84,8.39,5.71,16.77,8.57,25.16.55,1.62,1.64,2.48,2.84,2.76.06.46.12.93.17,1.39,1.23,10.08,2.74,20.14,5.05,30.03,2.14,9.18,5.85,17.73,6.53,27.21.75,10.33,3.85,20.29,4.51,30.62.32,4.9.41,9.81,1.05,14.68.72,5.53,1.98,10.96,2.47,16.53.88,9.98-.27,19.97-.02,29.97.13,5.13.08,10.19-1.01,15.23-1.11,5.13-2.22,10.23-2.53,15.48-.59,9.83,3.95,18.95,2.76,28.74-.07.58-.16,1.15-.26,1.72,1.18,3.4.47,7.24-1.73,10.28-.08.44-.33,2.07-.33,1.67-.11,1.52-.13,3.04-.14,4.56-.04,4.59-.46,8.95-1.24,13.49-.35,2.05-.67,4.09-.97,6.14-.07,6.09-.1,12.18,0,18.27-.15.17-.29.36-.41.57-1.39,2.46-1.56,5.07-1.55,7.85,0,3.3-.42,6.02-1.55,9.13-1.99,5.53-4.5,11.05-4.47,17.04,0,.58.12,1.09.31,1.53-2.19,4.86-3.87,10.51,1.53,13.14,3.46,1.68,7.75.26,11.36.02,5.38-.36,10.67.72,16.04.86,4.88.13,9.76-.09,14.64-.11,5.61-.02,11.15.57,16.75.76,5.93.2,11.58-1.4,17.28-2.45.71,1.23,2.07,2.14,3.85,1.85,7.04-1.15,13.87-.61,20.94-.7,4.1-.05,8.21-.8,12.25-1.8,1.83-.06,3.65-.1,5.49-.11,20.44-.07,40.72-2.42,61.16-2.51,4.89-.02,9.8.07,14.67-.48,1.56-.17,3.07-.47,4.58-.81,1.03,1.35,2.97,1.97,4.48.85.29-.15.6-.3.91-.45,1.7.15,3.41.14,5.14,0,.75-.06,1.52-.11,2.31-.16.76-.03,1.52-.1,2.26-.2,1.65-.18,3.28-.46,4.74-.97.14-.05.27-.11.39-.18,1.02.33,2.06.65,3.13.91,5.38,1.33,10.78.87,16.25.72,8.96-.24,18.15,2.1,26.96-.2.99-.26,1.68-.8,2.1-1.47,1.86,1.18,4.78.82,5.6-1.95,1.07-3.59,2.67-6.94,3.98-10.44,1.19-3.19,1.96-6.52,2.95-9.78,2.19-7.18,3.67-14.49,5.56-21.75,1.76-6.74,3.51-13.45,4.25-20.39.03-.25.05-.51.07-.76,2.97-9.6,3.13-19.52,3.07-29.51-.03-4.79,0-9.52.52-14.28.59-5.26,1.47-10.51,1.07-15.82ZM503.38,211.15c-.27-.7-.55-1.39-.86-2.08-.1-.23-.22-.46-.33-.69.06.04.11.09.16.13.66.47,1.32.68,1.93.7-.32.63-.62,1.28-.91,1.94Z"/>
        <g>
          <path class="cls-30" d="M728.78,180.51c-1.8-2.98-4.31-5.6-6.84-7.4-7.48-5.32-17.67-5.5-26.46-5.99-11.46-.63-22.94-.44-34.41-.68-13.14-.27-26.25-1.26-39.4-1.59-9.17-.23-18.57-1.5-27.73-.5-8-1.87-16.43-3.96-24.23-1.57-1.48.3-2.92.93-4.22,1.94-3.18,2.48-3.66,5.61-2.62,8.5-1.67,2.36-2.62,5.16-2.36,8.25.37,4.36,4.05,8.59,8.41,9.73,1.39,2.48,4.2,3.31,7.07,2.93,1.36-.33,4.2,1.4,5.73,1.74,2.45.54,4.97.57,7.46.63,6.01.15,11.98.9,17.97,1.38,11.77.94,23.64,1.54,35.45,1.79,7.57.16,15.26.1,22.86-.31.84.49,1.85.79,3.05.81,2.18.04,4.37.24,6.55.23,7.17.38,14.29,1.07,21.51.9,3.97-.1,7.93-.14,11.9-.08.97.07,1.94.12,2.92.15,2.38.06,5.01-.02,7.57-.43.27.02.54.04.8.08.17.05.34.1.51.13,2.73,2.12,6.51.54,8.16-2.25-.12-6.13.1-12.25.37-18.38Z"/>
          <g class="cls-42">
            <path class="cls-22" d="M707.62,160.38c-13.73-3.57-28.31-3.92-42.4-4.65-15.09-.78-30.19-1.3-45.29-1.88-17.34-.67-35.2-2.53-52.53-1.33-4.26.3-7.94,3.05-8.46,7.47-.46,3.85,1.89,8.77,6.17,9.45,14.3,2.29,29.06,2.38,43.51,3.13,13.87.72,27.75,1.4,41.62,2.18,13.36.75,26.85,1.3,40.12,3.02,9.48,1.23,21.05,3.73,28.32,9.89,8.59,7.29,11.71,18.02,11.25,28.82-.2,4.65,3.74,8.75,8.2,9.28,4.21.5,9.64-2.07,10.37-6.77,4.23-27.41-14.66-51.82-40.87-58.63Z"/>
          </g>
        </g>
        <g>
          <path class="cls-33" d="M433.32,455.89c-.64-2.44-2.74-4.03-3.57-6.48-.95-2.81-1.18-5.67-2.52-8.37-2.41-4.86-4.87-6.71-10.31-6.99-6.99-.35-13.9-.27-20.89-.4-7.18-.14-14.34-.75-21.52-.84-7.39-.09-14.78-.34-22.17-.26-7.18.08-14.29.94-21.46,1.29-6.53.32-13.05.19-19.58,0-1.47-.04-2.73.22-4.17.38-1.29.13-.09.04-1.37-.06-2.51-.2-3.97.14-5.71,2.02-2.19,2.36-4.67,3.93-7.1,5.99-1.78,1.51-2.4,3.32-1.42,5.53,1.27,2.87,3.09,5.32,4.17,8.34.8,2.23,1.69,4.2,2.91,6.04-.41,1.82.95,4.06,3.02,3.92,1.09-.07,1.88-.28,2.86-.76.69-.34,1.11-.86,1.32-1.47,1.91-.98,4.13-1.53,6.04-2.36,2.35-1.01,3.24-2.44,4.53-4.23.44-.19.88-.37,1.33-.53,1.4-.49,3-1.02,4.68-1.49.96.16,1.91.18,2.88.17.17,0,.34-.03.5-.06.71.48,1.58.7,2.53.47,1.22-.3,2.45-.48,3.69-.68,1.47-.04,2.96.1,4.41.11,3.33.02,6.63-.31,9.96-.4,6.79-.17,13.55-.26,20.34-.51,6.69-.24,13.35.54,20.04.45,6.67,2.19,13.23,1.63,20.14,2.72,3.98.63,7.82.51,11.82.74,3.32.19,6.53,1.15,9.85,1.39,2.19,1.14,5.59-.57,4.78-3.68Z"/>
          <g class="cls-39">
            <path class="cls-8" d="M430.67,432.79c-8.61-7.79-19.7-11.82-31.02-13.67-25.08-4.09-50.61-4.04-75.94-3.58-11.29.21-11.09,16.64,0,17.4,21.59,1.46,43.46,2.26,64.86,5.6,8.82,1.38,17.76,3.12,25.23,8.08,1.9,1.26,5.21,4.5,6.52,6.51,2.14,3.28,3.02,6.6,3.63,10.93,1.3,9.13,16,8.5,17.82,0,2.46-11.45-2.52-23.5-11.12-31.27Z"/>
          </g>
        </g>
        <g>
          <path class="cls-33" d="M699.24,494.13c.01-.06.02-.12.05-.18.29-.77.59-1.55.95-2.29-.14-1.77-.39-3.55-.57-5.34-.1-.94-.2-1.89-.31-2.83-.04-1.16-.05-2.33.02-3.52.29-4.9-.01-9.51-.19-14.4-.1-2.77-.46-5.27-3.49-6.08-3.07-.81-7.55-1.17-10.54-.05-2.16.81-3,3.43-1.6,5.1-.7,1.87-.52,4.25-.58,6.14-.16,5.25-1.45,10.02-.6,15.36.38,2.39.22,4.27.14,6.66-.03.96.06,1.84.48,2.59.03.16.05.32.07.49.31,2.82,3.73,3.56,5.2,2,.23,0,.47.01.71,0,1.1-.05,2.18-.25,3.27-.37.46-.05.91-.08,1.37-.12,1.13.96,2.92,1.13,4.03-.11.28-.32.52-.62.71-.95.17,0,.34.02.51.03.03-.72.16-1.43.38-2.15Z"/>
          <g class="cls-31">
            <path class="cls-21" d="M703.39,449.84c-5.52-7.07-18.31.6-15.17,8.83,2.35,6.15,5.38,11.88,6.8,18.37,1.28,5.83,1.08,11.8.28,17.67-.6,4.4,1.06,8.85,5.75,10.13,4.35,1.19,8.9-1.46,10.13-5.75,4.53-15.75,2.4-36.17-7.8-49.25Z"/>
          </g>
        </g>
        <g>
          <path class="cls-33" d="M732.62,468.38c-.69-6.6-.49-13.23-1.25-19.83-.57-4.95.54-10.35-1.71-15.03-2.2-4.57-6.76-4.18-11.14-4.14-4.11.04-8.59-.19-9.7,4.8-.56,2.53-.34,5.64-.33,8.22.02,3.22.16,6.52.32,9.74.33,6.73.96,13.5,1.73,20.2.45,3.87-.23,7.65.21,11.47.23,2.01.74,3.91.59,5.93-.09,1.17-.15,2.2-.14,3.25-.07.1-.15.19-.22.29-.24.38-.37.79-.39,1.23-.1.44-.08.88.06,1.31.1.43.3.8.59,1.12.23.36.54.64.92.85.26.11.52.22.79.33.58.16,1.17.16,1.75,0,.26-.11.52-.22.79-.33.06-.03.1-.08.16-.12,1.6.31,3.15.95,4.85.97,1.5.01,3-.36,4.49-.34,1.29.02,2.55.38,3.83.28,5.45-.41,4.17-6.61,4.45-10.5.47-6.51.04-13.21-.64-19.68Z"/>
          <g class="cls-43">
            <path class="cls-13" d="M746.8,462.92c-.42-7.34-1.28-14.67-2.41-21.94-1.09-7-2.1-14.87-5.68-21.09-4.42-7.67-17.17-4.5-16.91,4.58.19,6.75,2.67,13.49,3.94,20.1,1.22,6.33,1.94,12.66,2.28,19.1.34,6.5.36,13.02.02,19.52-.35,6.73-1.62,13.41-1.85,20.14-.35,10.22,14.4,11.61,17.33,2.35,2.18-6.88,2.63-14.56,3.13-21.73.48-7,.54-14.02.14-21.03Z"/>
          </g>
        </g>
        <g>
          <path class="cls-33" d="M763.72,490.13c-.14-2.88-1.14-5.62-1-8.51.15-3.07.29-5.89.13-8.96-.17-3.22.19-6.43,0-9.67-.21-3.56-.78-7.1-.69-10.68.08-3.17.53-6.32.62-9.5.09-3.32,1.15-6.52,1.03-9.83-.14-4.04-.4-10.38-4.75-11.99-2.34-.87-5.17-1.11-7.64-1.42-2.04-.26-4.47-.85-6.31.41-3.92,2.68-2.6,10.56-2.43,14.54.12,2.81.68,5.58.75,8.39.08,3.54-.86,6.9-1.34,10.38-.5,3.61.84,6.68,1.08,10.22.25,3.69-.41,7.36-.51,11.03-.1,3.54.3,7.03.17,10.59-.13,3.42.13,6.79,0,10.23-.09,2.64,2.41,3.55,4.33,2.78,1.29.67,2.7.79,4.32.67,3.03-.22,5.34-.4,8.37.09,2.54.41,4.78-2.58,3.57-4.5.32-1.36.36-2.89.29-4.3Z"/>
          <g class="cls-40">
            <path class="cls-8" d="M776.74,488.43c-.11-8.73-.56-17.45-1.13-26.16-.54-8.16-1.14-16.42-2.64-24.47-1.49-8.03-3.84-17.14-9.55-23.25-6.1-6.52-16.03.37-14.26,8.3,1.51,6.75,4.43,13.06,5.68,19.95,1.31,7.23,2.07,14.53,2.7,21.84.69,7.9.95,15.86,1.05,23.79.1,8.13-.67,16.51.12,24.6.41,4.2,2.92,7.81,7.36,8.34,3.91.46,8.49-1.88,9.31-6.08,1.71-8.73,1.47-18,1.36-26.86Z"/>
          </g>
        </g>
        <g>
          <path class="cls-33" d="M600.23,306.66c-.71-10.26.13-20.56.12-30.83,0-2.41.07-4.8-.17-7.2-.22-2.16-1.1-4.09-1.43-6.18-.31-2.03.49-3.99.44-6.02-.06-2.41-.84-4.81-1.95-6.93-4.06-7.67-11.51-11.43-19.8-12.68-8.3-1.25-18.93-2.92-26.39,1.9-8.12,5.25-11.41,15.07-8.72,24.19-.09.31-.15.64-.17,1.01-.18,4.64-.57,9.79-.2,14.41.17,2.12.81,4.16,1.09,6.25.41,3.06.22,6.2.27,9.28.08,4.99.62,9.9.61,14.89-.01,4.36.75,9.06,2.09,13.22,2.92,9.08,11.14,10.08,19.53,10.13,4.8.03,9.61.31,14.38-.41,2.46-.37,4.84-1.22,7.33-1.39,2.37-.16,4.7.12,6.88-1.04,7.89-4.17,6.58-15.38,6.08-22.61Z"/>
          <g class="cls-45">
            <path class="cls-14" d="M609.48,273.63c-1.4-11.35-3.87-23.02-10.33-32.68-3.18-4.76-6.9-8.64-11.53-11.98-4.21-3.04-11.66-6.44-16.81-4.28-4.64,1.95-7.95,7.03-4.87,11.98,2.53,4.07,7.29,5.87,10.67,8.65,2.74,2.25,5.21,5.2,7.08,8.24,4.77,7.77,6.38,16.98,7.23,25.93,1.01,10.53,1.3,21.11.8,31.67-.5,10.81-2.59,21.51-3,32.3-.4,10.41,14.56,11.71,17.58,2.38,3.67-11.35,4.17-24.36,4.55-36.22.38-11.98.09-24.07-1.38-35.98Z"/>
          </g>
        </g>
        <g>
          <path class="cls-33" d="M679.03,270.27c.62-6.1,1.58-12.34.21-18.42-3.85-17.03-26.04-16.43-39.7-16.12-4.24.1-10.14-1.01-14.04,1.02-3.08,1.6-4.29,5.24-4.4,8.51-.09,2.66.33,5.27.15,7.95-.15,2.22-.29,4.26.01,6.48.38,2.74.45,4.94.22,7.66-.18,2.07.05,3.77,1.02,5.61-.12,1.65-.21,3.31-.18,4.99.08,5.14-.17,10.33.07,15.47.25,5.19,2.19,9.66,3.23,14.67.36,1.74.63,3.5.87,5.26-.21.63-.21,1.36.12,2.18.08.2.17.41.26.62.34,2.49.7,4.98,1.29,7.43.45,1.88,2.41,2.74,4.13,2.47,2,2.07,4.6,3.36,7.42,3.89,6.08,1.13,12.87.13,19.05.1,6.13-.02,12.69-1.19,15.97-6.98,1.99-3.52,2.59-8,3.27-11.94.86-4.99,1.45-10.08,1.49-15.14.07-8.62-1.33-17.09-.46-25.71Z"/>
          <g class="cls-36">
            <path class="cls-7" d="M690.89,273.72c-.74-9.66-2.86-18.85-6.72-27.74-3.74-8.62-9.58-18.41-18.62-22.04-2.98-1.19-6.9.59-8.66,2.95-2.15,2.88-2.02,5.95-.64,9.15,1.46,3.39,4.46,6.13,6.45,9.27,1.95,3.07,3.8,6.25,5.19,9.61,2.85,6.92,4.52,14.56,5.05,22.01,1.33,18.67-4.13,36.41-7.93,54.46-2.29,10.86,13.4,15.32,16.7,4.6,6.09-19.8,10.8-41.46,9.2-62.27Z"/>
          </g>
        </g>
        <g>
          <path class="cls-33" d="M760.82,283.06c-.74-7.42-.1-14.84-1.25-22.25-1.7-11.01-11.51-15.9-21.4-18.21-7.07-1.65-14.36-2.93-21.63-2.65-2.26.09-4.56.23-6.73.68-1.39-1.58-4.44-1.59-5.68.46-.31.51-.63,1.75-1.04,2.72-.73.66-1.4,1.44-1.99,2.36-1.1,1.73-.11,3.71,1.45,4.5-.78,6.22-1.28,12.42-.98,18.76-.59.87-.76,2.06-.13,2.97.1.14.15.2.18.24,0,0,0,0,0,0,.03.07.09.32.11.4.07.51.05,1.04.07,1.55.04.93.16,1.82.49,2.64-.2,1.26-.43,2.51-.65,3.77-.43,2.48-.07,4.82-.21,7.31-.05.94.33,1.67.92,2.19-.62,1.96-1.2,3.97-1.19,6.02.02,2.7.94,5.4,1.24,8.07.42,3.83,1.68,6.72,3.25,9.73.06.17.13.34.19.5-.24.82-.21,1.72.23,2.5,1.14,2.03,2.86,3.83,5.18,4.04,0,0,0,.01.01.02,1.63,2.3,3.46,4.39,6.04,5.64,2.82,1.36,6.01,1.41,9.08,1.49,3.65.09,7.33.77,10.98.61,6.97-.32,14.1-.61,19.37-5.63,5.22-4.97,5.78-10.27,6.13-17.19.39-7.97-1.24-15.37-2.02-23.24Z"/>
          <g class="cls-38">
            <path class="cls-16" d="M743.72,226.64c-8.17-5.08-17.68,6.87-10.39,13.46,10.33,9.35,16.71,21.6,19.56,35.16,3.58,17.03,1.53,34.79.27,51.96-.73,9.97,16.29,12.47,17.66,2.39,4.77-34.98,7.54-81.46-27.1-102.98Z"/>
          </g>
        </g>
        <g>
          <path class="cls-28" d="M868.92,452.59c.89-1.41,1.18-3.17.55-5.08-1.44-4.38-5.95-7.12-9.64-9.38-4.65-2.84-9.49-5.35-15.12-4.68-2.31.27-4.82.6-7.09,1.19-1.15.3-4.64,3.15-5.49,3.1-.3-.04-.6-.09-.91-.11-1.27-.1-2.17.57-2.67,1.5-.51-.24-1.03-.44-1.58-.58-.99-.25-1.48,1.05-.67,1.6.61.41,1.24.82,1.87,1.24.17,1.14.87,2.17,2.21,2.48.36.08.71.12,1.04.15.28.04.55.09.82.15.12.09.24.18.36.27.62.61,1.24,1.21,1.85,1.75.39.34.79.66,1.19.99.12.13.22.27.33.41-.15.37,0,.75.32.97.05.03.1.07.15.1-.15.25-.18.55.01.86.57.9,1.3,1.62,2.08,2.33.08.07.17.12.27.16,1.29,1.32,2.64,2.6,4.2,3.54,2.29,1.38,5.06,1.47,7.62,1.95.43.08.81-.13,1-.45,1.9.35,3.86.49,5.81.47.42,0,.68-.25.78-.55.29,0,.58-.01.87-.03,1.59-.11,3.1-.47,4.51-1.04.44-.11.87-.22,1.29-.35.24-.07.48-.16.7-.25.03,0,.05.02.08.03.98.18,2.16.18,2.82-.7.31-.41.37-.85.29-1.28.18-.24.21-.49.14-.73Z"/>
          <g class="cls-44">
            <path class="cls-2" d="M871.64,447.96c-3.38-7.97-11.57-13.48-19.89-15.03-9.56-1.79-18.62,2.32-28.18,2.09-3.18-.08-4.03,5.11-.77,5.68,7.98,1.38,15.42-2.93,23.36-2.73,9.22.23,15.91,5.4,21.12,12.55,1.94,2.66,5.62.43,4.36-2.55Z"/>
          </g>
        </g>
        <g>
          <path class="cls-28" d="M922.68,440.3c-3.05-.88-5.86-2.29-8.98-2.94-1.58-.33-3.17-.61-4.74-.99-1.5-.36-2.96-.87-4.43-1.31-2.72-.82-5.31-.9-8.13-.84-2.39.05-4.98.08-7.15,1.21-.39.2-.57.52-.61.86-2.62,1.13-5.14,2.96-6.76,5.12-1.85,2.46-4.17,5.61-4.16,8.83,0,.68.41,1.08.9,1.23.09.13.21.24.37.32,2.43,1.3,5.13,2.23,7.74,3.09,2.92.97,6.35,2.17,9.47,1.74.98-.14,1.73-.54,2.17-1.24.16-.01.32-.02.48-.03,3.17-.27,6.23-1.14,9.03-2.65,2.61-1.41,5.3-2.88,7.63-4.73.64-.51,1.25-1.04,1.73-1.71.35-.48.59-1.01.88-1.53.67-.44,1.23-.94,1.64-1.48.92-.37,2.03-.46,2.93-.63,1.21-.22,1.07-2.01,0-2.31ZM907.29,450.17c.07-.13.13-.26.18-.4.37-.09.74-.19,1.1-.3-.43.24-.85.48-1.28.71Z"/>
          <g class="cls-41">
            <path class="cls-4" d="M934.08,428.17c-2.57-1.71-5.39-2.33-8.28-3.22-2.76-.85-5.44-1.93-8.22-2.74-5.31-1.54-10.98-2.48-16.51-2.65-9.86-.3-27.88,2.13-27.68,15.21.08,5.09,4.38,9.92,9.7,9.7,3.32-.13,5.7-1.08,8.29-3.12,1.18-.93.1-.68,2.2-1.22,2.98-.76,6.78-.81,10.42-.68,3.69.13,7.19.84,10.75,1.83,4.95,1.37,9.51,3.7,14.67,4.03,3.99.26,7.85-3.04,8.87-6.75,1.12-4.08-.81-8.12-4.23-10.39Z"/>
          </g>
        </g>
        <path class="cls-29" d="M910.1,504.65c-.08.02-.15.05-.22.07-.1-.03-.21-.04-.33,0-.54.21-.97.53-1.37.89-.07-.01-.13-.03-.2-.04-.25-.06-.51-.09-.78-.07-2.11-.02-4.38,1.11-6.36,1.42-.39.06-.79.11-1.18.17-.31-.46-.78-.81-1.45-.94-4.26-.83-8.71-.07-12.69,1.62-4.67-.1-9.32-.27-13.98-.66-5.38-.45-10.69-1.24-16.04-1.93-3.26-.42-9.14-.38-11.27-3.36-.09-.13-.2-.25-.31-.36-.02-.1-.04-.2-.07-.31-.61-2.57-4.85-2.73-5.36,0-.52,2.83-1.46,5.3-.97,8-.1.53-.02,1.09.34,1.64.13.19.25.39.38.58.75,1.14,2.05,1.39,3.12,1.03.18.19.4.38.67.53.1.06.21.11.31.16.29.35.71.63,1.28.78.26.07.51.14.77.2,5.81,2.47,12.53,2.91,18.75,3.85.3.27.68.48,1.18.56.24.04.47.06.71.09,0,0,0,0,0,0,0,0,.01,0,.02,0,3.33.46,6.56.28,9.84.01,2.68.48,5.37.13,8.08-.22.04,0,.07,0,.11,0,3.43-.05,6.88-.46,10.28-.92.89-.12,1.78-.26,2.67-.41,2.45-.21,5.53-.54,8.23-1.41,1.79-.3,3.72-.77,4.91-2.08.8-.88,1.09-1.97,1.2-3.11.22-.84.27-1.78.12-2.86,0-.02-.01-.04-.02-.06,0-.2.02-.4.03-.59.1-.13.13-.31.05-.51.02-.13.03-.26.06-.39,0-.02,0-.03,0-.05l.09-.32c.5-.43-.04-1.18-.61-1.04Z"/>
        <path class="cls-26" d="M908.67,515.48c-.4-.63-1.16-.76-1.82-.48-.5.21-.89.65-1.41.82-.73.24-1.67.21-2.44.31-1.64.22-3.31.28-4.94.62-1.62.34-3.18.87-4.8,1.2-1.71.35-3.49.42-5.22.56-1.73.14-3.46.26-5.19.33-3.46.15-6.9.07-10.34-.35-3.55-.43-7.16-.29-10.68-.93-1.64-.3-3.26-.72-4.9-1.03-1.51-.28-3.04-.44-4.56-.63-3.12-.39-6.26-.81-9.25-1.83-1.53-.52-2.97-1.2-4.34-2.05-.43-.27-.84.04-.93.42-.47-.13-1.06.21-.86.8.45,1.3.48,2.7.61,4.06.14,1.41.34,2.82.59,4.21.53,2.98,1.33,5.94,2.49,8.74,1.12,2.68,2.6,5.12,4.56,7.27,1.05,1.16,2.19,2.24,3.28,3.36,1.01,1.05,1.94,2.16,3.09,3.06,2.25,1.74,5.01,2.9,7.63,3.97,1.41.58,2.88.96,4.4,1.13,1.65.19,3.31,0,4.96.13,1.7.13,3.39.42,5.1.44,1.48.02,2.99-.11,4.46-.36,3.03-.51,5.59-2.26,8.38-3.46,2.92-1.26,5.41-2.91,7.76-5.05,2.39-2.17,4.6-4.59,6.71-7.02,1.99-2.3,3.5-4.68,4.44-7.59.41-1.28.68-2.63,1.16-3.88.3-.77.72-1.5,1.08-2.25.55-1.15,1.78-3.26.97-4.54Z"/>
        <path class="cls-15" d="M436.93,507.43c-.54-5.22-1.41-9.77-.97-15.07.46-5.58-1.08-10.92-1.96-16.4-.38-2.34-.6-4.51-.49-6.87.08-1.73.14-3.41-.54-5.04-1.47-3.53-4.84-3.97-8.25-4.15-10.59-.57-21.02-2.34-31.57-3.1-12.24-.88-24.63.44-36.92-.08-6.26-.27-12.53-.71-18.79-.67-5.45.03-10.36,1.26-15.6,2.08-3.59-2.27-8.26,2.86-4.88,6.28,4.28,4.34,3.39,12.33,4.22,17.98,1.09,7.41,2.85,14.78,3.27,22.27,0,.04,0,.09,0,.14,1.93,1.34,3.37,3.25,3.7,5.61.53,3.86.37,7.29.02,10.97.63,2.4.39,5.12-1.1,7.84-.02.04-.03.05-.05.08,0,.02,0,.03-.01.05-.33,1.04-.69,2.07-1.01,3.12-.66,2.15-1.27,4.31-1.94,6.46-.93,3.02-2.1,6.77-4.25,9.46,9.97.3,19.98.1,29.95.4,11.35.34,22.7.79,34.06.98,5.17.09,10.35.18,15.52,0,5.06-.18,10.18-1,15.21-.32,3.56.48,6.78.1,9.12-2.92,2.59-3.35,4.8-7.53,6.82-11.25,2.15-3.98,3.4-8.27,4.52-12.63,1.27-4.96,2.44-10.05,1.91-15.19Z"/>
        <path class="cls-18" d="M517.27,345.37c-1.95-14.44-4.1-28.8-5.63-43.3-.88-8.29-.99-16.87-2.83-25.02-.76-5.06-2.86-9.73-3.89-14.74-.52-2.53-.82-5.14-1.47-7.63.83-.7,1.38-1.79,1.15-3-1.15-6.12-2.34-12.35-4.5-18.21-.78-3.77-1.79-7.48-2.96-11.17-3.31-10.52-7.72-20.64-11.3-31.07-2.62-7.66-4.32-15.53-7.24-23.07-1.7-6.07-3.85-11.99-6.62-17.66.57-1.53.02-3.5-1.49-4.28-2.68-1.37-5.22-1.73-8.12-.81-1.96.62-3.18,3.01-2.36,4.85-.5.78-.7,1.72-.39,2.61.93,2.62,2.32,5.23,3.98,7.65-.14-.06-.27-.12-.43-.18-1.36-.54-2.79.26-3.58,1.38-.19-.11-.38-.18-.57-.24-.04.33-.1.65-.2.98-.44,1.45-1.81,2.36-3.31,2.16-.19-.03-.38-.07-.56-.13-.07.37-.08.75-.02,1.13.23,1.44.11,2.97-.29,4.42.07.05.14.1.22.14h0c.22.15.42.3.62.47,1.14.99,1.1,2.84.24,3.96-.77.99-1.97,1.34-3.12,1.06-.26.05-.53.09-.81.12-.2,1.02.03,2.09.89,2.93,5.3,5.17,9.6,11.67,13.97,17.63,4.52,6.16,8.46,12.75,13.12,18.81,4.06,5.28,8.98,9.98,12.22,15.86.94,1.71,1.75,3.5,2.45,5.34,1.14,6.01,2.09,12.07,4.73,17.61.29.61.69,1.02,1.15,1.26.68,2.6.89,5.37,1.38,7.97.22,1.19.52,2.36.85,3.52-.44.42-.7,1.04-.53,1.73.92,3.76,1.48,7.52,3.63,10.81.02.02.03.04.05.06,1.93,8.97,1.91,18.65,2.85,27.51,1.41,13.22,3.57,26.29,5.37,39.45,1.89,13.82,2.85,27.64,2.18,41.58-.19,4.05-.34,8.11-.46,12.17-.01-1.31-.03-2.61-.05-3.92-.04-1.93-2.97-1.93-3,0-.16,12.85-.8,25.7-1.52,38.53-.71,12.65-1.12,25.32-2.5,37.92-.41,3.69-.89,7.37-1.42,11.04-.47.09-.9.36-1.17.86-3.64,6.73-4.82,14.22-5.7,21.73-1.53,3.96-3.39,7.82-4.87,11.79-1.94,5.2-3.57,10.32-4.7,15.75-.86,4.11-2.05,8.22-2.01,12.43-.51.53-1.02,1.05-1.53,1.58-1.44,1.48.39,3.85,2.2,2.85.51-.28,1.01-.6,1.51-.92,1.77.03,3.59-.04,5.38-.29,2.79.75,5.45,1.71,8.46,1.24.8-.12,1.29-1.01,1.33-1.74.08-1.77.46-3.47.84-5.18.08-.11.16-.2.23-.31,2.13-3.17,2.54-6.9,2.95-10.6.67-5.99,1.39-11.98,2.04-17.98,1.29-11.9,1.44-23.98,3.36-35.8.67-.18,1.23-.71,1.23-1.62,0-2.07-.02-4.15-.04-6.23,1.21-9.15,1.67-18.23,1.47-27.56-.02-1.05-.91-1.51-1.7-1.4-.28-.68-.62-1.33-1.06-1.91-.25-.34-.58-.53-.91-.6.05-1.17.11-2.34.17-3.51.27-5.64.54-11.27.73-16.91,0,3.41.02,6.81.07,10.22.03,2.14,3.3,2.15,3.33,0,.22-14.41.3-28.81.95-43.21.62-13.7-.63-27.34-2.46-40.91ZM478.08,187.89c-.64-1.19-1.28-2.37-1.92-3.55-.04-.07-.08-.14-.11-.21-.85-1.59-1.7-3.18-2.5-4.8-.07-.15-.15-.3-.22-.45-.79-2.1-1.73-4.16-2.67-6.21-1.12-2.44-2.19-4.87-3.11-7.38.45.46.91.91,1.38,1.34.27.24.56.42.87.56.87,1.41,1.78,2.8,2.73,4.16.19.27.41.5.65.69.06.17.13.34.19.5,1.93,5.17,3.44,10.46,5.03,15.72-.1-.13-.21-.25-.31-.38ZM494.6,533.06c.76-3.57,1.86-7.03,3.09-10.45-1.32,5.24-2.99,10.39-4.32,15.62.41-1.74.86-3.47,1.23-5.17ZM498.38,545.37c-.52.16-1.07.3-1.62.41-.19-.06-.38-.11-.56-.17.69-.61,1.37-1.24,2.04-1.88.07.07.16.14.25.19-.05.48-.08.96-.1,1.44ZM506.29,535.75c-.17-.02-.34-.01-.5.01.24-.37.47-.74.67-1.13-.06.37-.11.74-.17,1.11ZM508.05,521.94c-.09,0-.19.02-.28.03.15-.86.29-1.71.43-2.57.06-.29.12-.58.17-.87-.1,1.13-.21,2.27-.32,3.4ZM512.5,475.4c-1.13,6.48-1.67,12.96-2.16,19.46,0-.08,0-.17,0-.25-.03-.63-.41-1.17-.91-1.51,1.01-5.8,1.88-11.62,2.57-17.48.46-3.92.82-7.85,1.12-11.79-.02,2.45.01,4.9.04,7.35-.2,1.41-.42,2.81-.67,4.22ZM513.88,452.11c.09-1.74.18-3.48.27-5.22.07,1.7-.07,3.49-.27,5.22Z"/>
        <path class="cls-18" d="M328.06,517.88c-.31-5.17-1.27-10.28-1.74-15.44-.45-4.84-.79-9.65-1.62-14.45-1.55-8.92-3.98-17.77-7.54-26.11-.04-.23-.07-.47-.11-.7-.06-.38-.27-.65-.55-.82-.06-.13-.11-.26-.17-.4-.77-1.7-3-.9-3.54.46-.36.89-1,1.61-1.82,2.21-.67-.16-1.43-.01-1.87.5-.25.3-.48.6-.67.92-.5.23-1.02.44-1.54.65-.58-.03-1.15.21-1.55.63-1.14.47-2.21.96-3.02,1.57-.84.63-1.18,1.57-.67,2.55.71,1.37,1.63,2.1,2.63,2.3.19.31.36.63.52.96.04.52.1,1.05.17,1.57.01.19.02.38.03.57-.04.83-.06,1.66-.02,2.49.14,3.02.8,6.11,1.5,9.04,1.58,6.67,3.22,13.19,4.13,20.01.46,3.45.84,7,1.02,10.55.01,1.18.05,2.36.12,3.54.07,7.88-1.08,15.71-4.91,22.7-.39.7-.34,1.74.3,2.3,5.34,4.72,10.67,1.69,14.37-3.4,5.19-7.14,7.07-15.48,6.54-24.22ZM312,543.98c-.36-.08-.72-.21-1.08-.4.4-.8.77-1.61,1.11-2.43-.03.94-.03,1.88-.03,2.83ZM314.35,467.14c-.23-.64-.69-1.01-1.2-1.17-.04-.12-.08-.24-.13-.36.41-.27.81-.56,1.19-.88.2.48.39.96.58,1.44.07.48.14.96.21,1.45-.18-.15-.38-.26-.59-.32-.02-.05-.03-.11-.05-.16ZM318.93,539.3c.11-.74.22-1.49.33-2.23.21.21.47.37.76.46-.34.6-.7,1.19-1.09,1.77ZM322.99,530.84c.14-3.07.27-6.18.17-9.26.39.05.78,0,1.12-.15,0,3.19-.34,6.36-1.29,9.42Z"/>
        <path class="cls-17" d="M484.89,217.56c-1.81-7.64-7.49-13.98-12.94-19.97-.66-1.05-1.31-2.11-1.93-3.18-2.23-3.83-4.45-7.67-6.81-11.43-.51-.8-1.21-2.23-2.03-3.67-.71-1.31-1.46-2.53-2.46-3.64-.08-.11-.16-.2-.25-.29-.15-.28-.38-.46-.64-.55-.61-.39-1.26-.31-1.76.04-.3.08-.56.26-.76.5-.05-.05-.11-.09-.17-.13-.68.49-1.52.65-2.35.48-.44.54-.61,1.28-.15,1.97.33.4.6.82.82,1.27,0,.18.02.37.1.56.12.31.25.61.37.92.25.63.73,1,1.25,1.15,1.1,1.12,2.34,2.2,3.51,3.31,1.29,2.2,2.74,4.3,4.45,6.24.28.31.62.47.98.53-.3.47-.41,1.07-.1,1.63,1.38,2.57,3.21,4.86,5.17,7.07,3.88,6.39,8.5,12.25,12.44,18.6,1.08,1.74,3.77.61,3.29-1.39Z"/>
        <path class="cls-5" d="M491.06,203.05c-1.9-3.45-1.93-7.79-3.24-11.5-.76-2.13-1.51-4.26-2.28-6.38.28-.49.35-1.11.06-1.77-2.59-5.91-6.23-11.33-8.47-17.4-.57-1.55-1.09-3.1-1.61-4.66.05-.24.05-.51,0-.79-.8-3.97-2.02-7.82-4.22-11.25-.32-.5-.85-.76-1.4-.83-.08-.07-.16-.14-.24-.21-.3-.51-.61-1.03-.94-1.53-.49-.77-1.72-1.3-2.55-.67-.2.15-.39.31-.58.46-.18,0-.34.04-.5.11-3.3-.76-6.52,2.17-3.03,5.85.12.13.27.22.43.3.05.07.1.14.17.21,1.16,4.18,2.42,8.25,6.17,10.97.03.02.06.03.09.05,1.65,6.43,5.5,11.91,8.68,17.75,4.04,7.43,6.27,15.66,10.52,23,1.1,1.9,4.01.2,2.95-1.72ZM467.94,152.72c.02.19.04.39.07.58-.36-.67-.75-1.32-1.18-1.96.1-.03.19-.06.29-.1.28.49.56.99.83,1.49Z"/>
        <path class="cls-15" d="M384.9,161.95c-.07-.08-.14-.15-.22-.22-.6-1.45-1.41-2.46-2.8-3.45-.75-1.18-1.6-2.28-2.57-3.28-.49-.5-1.11-.59-1.67-.44-.27-.65-.54-1.3-.79-1.95-.61-2.95-1.2-5.91-1.75-8.88-.33-1.76-2.59-1.6-3.32-.32-.08.1-.17.21-.24.34-1.66,3.05-2.19,6.54-3.97,9.52-.79,1.33-1.68,2.57-2.43,3.91-1.16-.55-2.79.57-2.42,1.93-.17-.11-.35-.2-.51-.32-1.96-1.42-3.81,1.82-1.89,3.23.97.67,1.9,1.38,2.84,2.09.34.26.87.31,1.34.2.41.47.98.82,1.71,1.05.71.84,1.5,1.58,2.35,2.19.47.97,1.03,1.91,1.64,2.78.09.2.18.4.27.61.39,2.59.75,5.18.91,7.8.09,1.58,2.45,2.56,3.25.88,1.88-3.96,3.43-7.24,6.74-10.22,1.15-1.03,2.01-2.03,2.67-3.2,1.13-.27,2.24-.57,3.15-1.39,1.67-1.5-.55-3.89-2.29-2.85Z"/>
        <path class="cls-9" d="M405.33,130.48c-1.42-.87-2.23-2.29-3.14-3.64-.04-.06-.09-.13-.13-.2.03-.45-.12-.9-.53-1.23.97.77-.11-.36-.35-.63-.35-.39-.87-.53-1.38-.49-.16-.04-.33-.06-.51-.03-1.28.16-2.16,1.31-1.58,2.56-.25.34-.47.7-.64,1.09-.2.13-.4.26-.58.42-.02.02-.05.05-.07.07-.56.24-1.02.66-1.36,1.19-1.5.02-1.69,1.93-.67,2.7,0,.07,0,.14.01.21.1,1.1.67,2.08,1.45,2.6.4.62.95,1.15,1.69,1.53.67.34,1.53.19,2.04-.32.32-.21.59-.53.75-.99-.18.5.31-.04.56-.16.47-.22.97-.37,1.46-.53.85-.28,1.71-.51,2.55-.81,1.45-.52,1.84-2.48.44-3.33Z"/>
        <path class="cls-6" d="M358.19,125.57c-.31-.18-.65-.28-.99-.33-.25-.16-.54-.27-.84-.33-.07-.07-.15-.14-.21-.22-1.13-1.33-2.87-.3-3.16,1.05-.29.07-.57.17-.85.31-2.31,1.1-3.05,4.11-.52,5.47.81.44,1.79.19,2.29-.6.1-.15.17-.3.24-.45.42.36.97.63,1.64.74.6.1,1.11-.02,1.51-.29.03,0,.05.02.08.02,1.25.26,2.29-.54,2.37-1.81.09-1.36-.28-2.86-1.55-3.58Z"/>
        <path class="cls-1" d="M912.11,504.91c-2.03.48-4.13.62-6.26.85-.54.06-.99-.02-1.38-.19-2.34,4.16-3.42,9.25-5.36,13.55-2.39,5.28-5.25,10.46-9.27,14.69-3.87,4.07-8.62,7.01-13.87,8.99-5.56,2.09-11.44,2.74-17.05,4.52-.22.07-.42.16-.61.25,4.26.78,8.4,2.65,12.67,3.32,1.84.29,3.69.52,5.54.72,6.88-2.47,13.37-6.09,18.32-10.88,4.49-4.34,8.04-9.71,10.76-15.3,2.73-5.62,6.81-13.45,6.62-19.78,0-.25-.06-.5-.12-.75Z"/>
        <path class="cls-24" d="M314.99,453.54c-.25-2.62-2.3-4.72-3.77-6.75-.54-.74-1.07-1.47-1.61-2.21.05-.7-.02-1.48-.26-2.35-.4-1.48-1.23-2.65-2.3-3.49-.19-.3-.45-.59-.79-.86-1.46-1.13-2.86-1.49-4.07-1.31-1.28.02-2.59.7-3.35,1.71-.47.31-.92.68-1.31,1.12-1.01.13-2.03.36-3.02.66-1.86.57-2.84,2.39-2.42,4.27,1.46,6.57,4.2,12.44,7.79,18.1,1.83,2.88,6.16,1.66,6.32-1.71-.03.7,5.79-1.45,6.27-1.82,1.67-1.29,2.73-3.19,2.52-5.35Z"/>
        <g>
          <path class="cls-37" d="M911.36,497.34s0-.03-.01-.04c-.59-1.34-2.08-2.03-3.49-2.1-.28-.01-.56,0-.84.05-.07,0-.13.01-.2.02-.96-.09-1.92.2-2.71.76-.01-.67-.15-1.33-.42-1.98-.22-2.16-1.45-4.22-3.35-5.41-1.52-.95-3.17-1.37-4.95-1.11-.79.12-1.56.38-2.28.75-1.1.17-2.05.85-2.47,1.94-.11.1-.21.22-.32.32,0,.03,0,.07,0,.1,0,0-.01,0-.02.01-.1.06-.18.15-.23.25-.06.1-.11.19-.17.29,0,.02-.03.02-.04.04-.04.08-.09.16-.13.24-.04.06-.07.13-.09.21-.12.05-.26.07-.39.08-.14,0-.28-.02-.4-.09-.13-.04-.24-.11-.34-.22-.19-.19-.31-.47-.31-.74,0-.25.02-.51.05-.76,0-.04.01-.07.02-.11-.47-.41-.99-.81-1.56-1.18-.02-.02-.03-.04-.05-.07-.83-1.05-1.82-1.95-2.92-2.71-2.41-1.65-5.43-2.41-8.34-2.2,0,0,0,0,0,0-.2-.12-.45-.16-.75-.08-.8.21-1.59.43-2.39.64-.75.2-1.58.34-2.24.79-.32.22-.57.48-.76.78-.49.28-.98.58-1.43.92-1.87,1.4-3.37,3.11-4.06,5.38-.03.11-.04.23-.02.34-.03.03-.05.07-.07.11-.48-.4-1-.76-1.54-1.06-.11-.28-.36-.5-.66-.62l-.8-.33c-.14-.04-.28-.05-.42-.02-1.01-.53-2.13-.83-3.25-.43-.57.2-1.08.53-1.51.96-1.16.56-2.03,1.46-2.53,2.53-.23.02-.45.05-.68.1-.33-.66-.79-1.12-1.32-1.42,0,0,0,0-.01-.01-.62-.56-1.39-.99-2.23-1.13-.23-.04-.47-.06-.7-.06-.87-.05-1.73.2-2.47.66-.2.03-.4.05-.59.09-1.03.24-1.83,1.31-1.87,2.38-.21.19-.4.39-.55.62-.93,1.37-.73,3.32.41,4.5.21.22.45.39.72.53-.06.86.32,1.73,1.34,2.29,12.81,7.09,28.94,7.01,43.18,6.32,3.91-.19,7.81-.52,11.69-.98,2.82-.34,6.2-.37,8.78-1.69,2.35-1.21,3.47-3.35,3.32-5.38.11-.39.15-.79.12-1.19-.06-.7-.33-1.33-.73-1.87Z"/>
          <g class="cls-46">
            <path class="cls-11" d="M892.4,484.06c-2.43-.39-4.9-.24-7.01.64-.58-.21-1.28-.19-2.03.19-4.54,2.28-8.67,6.15-10.7,10.87-1.98,4.59-.56,9.74,4.67,11.04,2.8.7,5.95.31,8.78.19,3.59-.15,7.2-.31,10.77-.69,4.29-.46,11.79-.36,14.87-3.97,7.53-8.85-13.53-17.32-19.35-18.27Z"/>
            <path class="cls-20" d="M850.93,498.56c-.02-.07-.05-.13-.1-.18-.04-.06-.09-.11-.15-.14-.12-.07-.29-.1-.42-.05-.01,0-.03.01-.04.02-.04-.02-.08-.04-.12-.05-.12-.02-.23-.04-.35,0-.05.02-.1.04-.14.06-.04.03-.08.06-.12.09-.04.05-.08.1-.11.14-.07.1-.12.22-.15.33-.03.12-.04.25-.03.37,0,.08.02.17.04.25.02.09.06.17.1.25.02.04.04.07.06.11.05.07.1.14.17.2.13.12.29.22.46.26.2.05.43,0,.57-.15.09-.1.18-.21.24-.33.06-.12.12-.25.14-.38.03-.13.05-.27.03-.4-.01-.14-.03-.28-.08-.4Z"/>
            <path class="cls-20" d="M866.3,502.83s0-.04-.02-.06c-.06-.16-.08-.21-.2-.34-.05-.05-.12-.1-.17-.14-.02-.01-.03-.02-.05-.03-.06-.03-.14-.06-.21-.08-.08-.02-.16-.03-.24-.03-.1,0-.2.01-.29.03,0,0-.02,0-.03,0,0,0-.01,0-.02,0-.03,0-.13.05-.16.07-.02.01-.04.02-.06.03-.14.09-.22.17-.31.3-.09.13-.11.27-.13.42,0,.02,0,.04,0,.06,0,.07.01.15.04.22.05.14.12.27.23.37.05.04.1.08.15.11,0,0,.02.01.03.02,0,0,.02,0,.03.01.08.04.13.06.2.07.01,0,.02,0,.03,0,.07.02.14.02.21.03.02,0,.04,0,.06,0,.07,0,.14-.01.21-.03.14-.04.24-.1.35-.2,0,0,.01-.01.02-.02.04-.04.07-.09.11-.14.02-.03.04-.07.05-.11.02-.03.05-.04.07-.07.02-.05.04-.11.07-.16.03-.12.03-.24,0-.35Z"/>
            <path class="cls-27" d="M896.09,493.53c-.03-.11-.08-.2-.16-.28-.04-.04-.07-.09-.12-.14-.01-.01-.03-.03-.05-.04,0-.01,0-.02-.01-.04-.02-.06-.05-.13-.09-.19-.04-.07-.08-.12-.15-.16-.05-.05-.12-.08-.19-.1-.08-.02-.15-.03-.23-.01-.03,0-.05.02-.07.02-.01,0-.02,0-.04,0-.05,0-.11.01-.16.02-.1.03-.2.08-.27.16,0,0-.01.01-.02.02-.04.04-.08.09-.11.14-.01.02-.02.03-.03.05-.02.05-.06.13-.08.19-.01.06-.02.12-.03.18,0,.01,0,.02,0,.03,0,0,0,.02,0,.03,0,.06.01.12.02.18,0,.02,0,.04.01.06.02.06.05.13.08.19,0,0,0,.01.01.02.03.05.07.1.11.14,0,0,.01.01.02.02.04.04.09.07.14.11,0,0,.01,0,.02.01.05.02.09.04.14.06l.16.02s.08,0,.12-.02c.03.02.06.05.1.07.07.04.16.06.24.05.09,0,.17-.01.24-.05.08-.03.15-.07.2-.13.03-.04.07-.08.1-.13.06-.1.09-.2.09-.32,0-.06-.01-.11-.02-.17Z"/>
            <path class="cls-27" d="M890.15,503c-.02-.05-.04-.1-.06-.15-.06-.1-.13-.17-.23-.23-.1-.04-.2-.09-.3-.12-.05-.02-.11-.03-.16-.05-.05-.02-.11-.03-.16-.05-.03,0-.05-.02-.08-.02-.13-.04-.26-.05-.39-.01-.11.03-.2.08-.28.16-.03.04-.07.09-.1.13-.06.1-.09.2-.09.32,0,.09.01.17.05.24,0,.03.03.05.05.07,0,0,0,0-.01,0,.03.05.07.09.11.14.02.02.05.03.07.04.04.03.08.06.12.08,0,0,.01,0,.02,0,.02,0,.04.03.06.04.01,0,.02,0,.03.01l.08.03s.07.02.1.03c.01,0,.02.01.03.02.07.04.14.07.22.07,0,0,0,0,0,0,.04.01.08.03.12.04.09.03.17.03.26.01.09,0,.16-.03.24-.08.04-.03.09-.07.13-.1.06-.06.11-.13.13-.21.03-.05.04-.1.04-.16.02-.09.02-.17-.01-.26Z"/>
            <g>
              <path class="cls-27" d="M883.17,494.54s-.07.03-.11.05c0,0-.02,0-.03.01.05-.02.09-.04.14-.06Z"/>
              <path class="cls-27" d="M881.95,494.15s-.05-.09-.06-.14c0,0,0,0,0,0,.02.05.04.1.06.15Z"/>
              <path class="cls-27" d="M883.82,493.6c-.02-.06-.05-.13-.08-.19,0-.01-.01-.02-.02-.03-.04-.06-.1-.14-.16-.19-.05-.05-.11-.09-.17-.13,0,0-.01,0-.02-.01-.05-.03-.12-.05-.18-.08-.03,0-.05-.02-.08-.02-.07-.01-.15-.02-.22-.03-.01,0-.03,0-.04,0-.09,0-.19.02-.27.03-.01,0-.03,0-.04,0-.06.01-.12.04-.17.07-.02.01-.04.03-.05.04-.01,0-.03.01-.04.02-.06.04-.14.1-.19.16-.04.05-.09.11-.12.16,0,.01-.01.02-.02.04-.05.12-.1.23-.09.36,0,.07.02.14.03.21.06.14.11.25.22.37.07.06.14.13.23.16.06.03.13.06.2.08.07.02.15.03.22.03.1,0,.21-.02.3-.06.06-.02.13-.05.18-.08.01,0,.03,0,.04,0,.06,0,.12-.02.17-.05.08-.03.15-.07.21-.14.12-.13.21-.3.2-.47,0-.08-.01-.18-.04-.25Z"/>
            </g>
            <path class="cls-27" d="M858.05,502.62c.02-.07.01-.15,0-.22-.02-.07-.05-.13-.1-.19-.04-.06-.09-.11-.16-.14-.04-.02-.09-.04-.13-.06-.07-.02-.15,0-.22,0-.04-.04-.07-.08-.12-.11-.06-.02-.12-.05-.17-.07-.1-.03-.19-.03-.29-.01-.1,0-.19.03-.27.09-.08.05-.15.11-.2.19-.06.07-.11.15-.13.25l-.03.19c0,.1.02.19.06.28.03.09.08.17.15.23.05.04.1.08.15.11.1.06.21.09.32.09.04.03.09.06.13.09.07.04.14.07.22.07.08.02.16.01.24-.01l.14-.06c.09-.05.16-.13.22-.22,0,0,0,0,0,0,.02-.04.02-.08.03-.12.03-.06.06-.12.1-.17.04-.06.06-.13.07-.21Z"/>
            <path class="cls-27" d="M845.95,493.93c-.89,0-.89,1.38,0,1.38s.89-1.38,0-1.38Z"/>
            <g>
              <path class="cls-27" d="M870.66,491.33c-.01-.1-.02-.2-.05-.29-.06-.16-.1-.25-.22-.38-.1-.12-.24-.17-.38-.22-.05,0-.11-.01-.16-.02-.03,0-.06.02-.09.02-.11-.04-.24-.05-.36-.03-.07,0-.13.05-.2.07.03,0,.07,0,.1-.01-.04,0-.07.01-.11.02-.06.02-.13.03-.18.06.04-.02.09-.04.13-.06,0,0-.01,0-.02,0-.12.03-.19.08-.28.16-.02.02-.03.03-.05.05-.06.07-.13.15-.17.23-.09.17-.15.36-.13.56,0,.09.02.18.05.27.02.06.05.13.08.19.04.06.09.13.13.18.02.03.05.06.08.08.07.06.14.12.22.16.17.09.34.14.53.14.19,0,.37-.05.53-.13.02,0,.03-.02.05-.03.05-.04.11-.08.16-.12.07-.06.13-.14.17-.22.1-.17.13-.33.15-.52,0-.05,0-.09,0-.14Z"/>
              <path class="cls-27" d="M869.2,490.47s-.03,0-.05,0h0s.03,0,.05,0c0,0,0,0,0,0Z"/>
              <polygon class="cls-27" points="869.15 490.48 869.15 490.48 869.16 490.48 869.15 490.48"/>
            </g>
            <path class="cls-20" d="M892.74,497.55c-.77,0-.77,1.2,0,1.2s.77-1.2,0-1.2Z"/>
            <path class="cls-20" d="M881.13,501.87s0-.02,0-.03c-.05-.15-.11-.25-.22-.37-.1-.12-.23-.17-.37-.23.05.02.1.04.15.06-.01,0-.02-.01-.03-.02-.02,0-.14-.06-.16-.07-.01,0-.16-.02-.17-.02,0,0-.02,0-.02,0-.06,0-.13.01-.18.03,0,0-.01,0-.02,0-.06.02-.11.04-.17.07,0,0-.02,0-.02.01,0,0,0,0-.01,0-.05.03-.1.07-.14.11-.05.04-.1.12-.12.15,0,0-.01.02-.02.03-.02.05-.05.11-.07.16,0,0,0,.01,0,.02-.02.06-.02.13-.03.2,0,.01,0,.03,0,.04,0,.04,0,.08.01.12,0,.04,0,.08.02.12,0,.01,0,.02.01.04.02.06.05.13.08.18,0,0,0,0,0,0,0,.02,0,.04,0,.06,0,0,0,0,0,0,0,.02.05.13.06.14.02.03.03.04.05.07.02.03.04.05.06.07.09.08.12.1.22.14.02,0,.06.03.09.04,0,0,0,0,.01,0,.05,0,.11.02.16.02.13,0,.26-.04.37-.09.04-.02.06-.04.1-.07s.07-.05.09-.08c.09-.1.15-.2.19-.33,0,0,0-.01,0-.02.02-.03.03-.06.04-.09.01-.03.03-.07.04-.1.01-.07.03-.14.02-.21,0-.06-.01-.12-.02-.18Z"/>
            <g>
              <path class="cls-20" d="M907.89,499.6c0-.05,0-.1-.02-.15-.01-.04-.05-.12-.07-.16,0,0,0-.01-.01-.02-.04-.06-.08-.11-.13-.17-.07-.08-.16-.16-.26-.21-.07-.04-.15-.07-.23-.1-.03-.01-.06-.02-.09-.03-.08-.01-.16-.03-.24-.02-.08,0-.17.02-.25.04-.16.06-.27.12-.4.24-.04.03-.07.07-.1.11-.03.04-.07.08-.09.13-.05.09-.09.19-.11.29-.01.07-.03.15-.03.23,0,.08.01.16.03.24,0,.03.01.06.02.09.03.07.05.15.09.21.08.14.19.25.33.34l.14.06c.08.02.16.03.24.01.05,0,.1-.01.15-.04.07-.02.14-.06.19-.12.06-.05.11-.1.17-.14,0,0,0,0,0,0,.05.01.1.01.16,0,.08,0,.15-.03.22-.07.13-.08.23-.2.27-.35.02-.06.02-.13.03-.19,0-.02,0-.03,0-.05,0-.06-.01-.12-.02-.18Z"/>
              <path class="cls-20" d="M907.88,499.53s0,.05,0,.07c0,.03.01.06.01.09,0-.05-.01-.11-.02-.16Z"/>
            </g>
            <path class="cls-10" d="M900.04,499.22c-.19-.4-.57-.67-1.02-.72-.44-.05-.92.14-1.2.48-.33.4-.46.97-.32,1.48.04.13.18.22.32.18.15-.04.2-.18.18-.32-.05-.39.04-.83.36-1.08.28-.22.72-.27.99-.02.26.24.34.64.28.98-.08.5-.38.94-.66,1.36-.19.29.27.56.47.27.28-.41.56-.83.7-1.32.12-.43.09-.89-.1-1.3Z"/>
            <path class="cls-10" d="M859.76,493.85c-.74-.41-1.7-.31-2.34.25-.62.53-.84,1.48-.55,2.24.05.13.17.22.32.18.13-.03.23-.19.18-.32-.22-.58-.07-1.27.39-1.7.46-.42,1.19-.5,1.74-.21.29.15.54-.28.26-.44Z"/>
          </g>
        </g>
        <path class="cls-34" d="M921.08,496.03c-1.1-1.8-2.71-3.18-4.31-4.53-.33-.28-.8.18-.48.48,2.7,2.5,5.74,5.55,4.97,9.58-.11.58.72.82.89.25.58-1.95-.04-4.08-1.07-5.77Z"/>
        <path class="cls-34" d="M926.53,496.9c-.34-1.56-1.08-3.04-2.05-4.31-2.06-2.69-5.07-4.56-8.09-6-.34-.16-.6.29-.29.5,2.55,1.77,5.33,3.3,7.31,5.74.93,1.15,1.64,2.5,2,3.94.17.69.26,1.39.25,2.1-.01.75-.27,1.48-.26,2.21,0,.45.54.53.78.21.44-.58.52-1.51.56-2.22.04-.73-.06-1.47-.21-2.18Z"/>
        <path class="cls-35" d="M924.95,548.86c-15.22.47-30.44,1.04-45.67,1.24,9.67-2.59,18.04-8.93,23.65-17.18,3.17-4.66,5.5-9.87,7.11-15.26,1.33-4.46,2.03-8.95,2.36-13.53-.03.01-.06.03-.1.04-.27.09-.57.02-.81-.11-.23-.12-.42-.38-.48-.63-.04-.14-.05-.28-.02-.42,0-.11.04-.22.09-.31.05-.13.1-.26.14-.39-.7.48-1.44.9-2.19,1.18-2.8,1.56-7.27,1.61-9.68,1.82-6.59.58-13.2.95-19.81.97-6.6.02-13.2-.3-19.75-1.09-3.22-.38-6.47-.84-9.64-1.53-2.64-.58-5.57-1.63-6.8-4.24-.44-.35-.85-.74-1.25-1.15,0,.1.01.21,0,.31,0,.14-.02.28-.09.4-.02.09-.07.17-.14.23-.09.11-.19.19-.31.26,0,.01,0,.03-.01.04.4,1.13,1.1,2.17,2,3,2.31,2.11,5.48,2.72,8.46,3.25,7.15,1.27,14.4,1.94,21.66,2.16,7.26.21,14.54-.02,21.78-.51,3.28-.22,6.63-.37,9.88-.91,1.97-.33,4.1-.92,5.71-2.19-.4,2.86-.94,5.71-1.59,8.53-.02.1-.05.2-.08.31-3.35,2.88-8.39,3.14-12.57,3.75-4.82.7-9.68,1.22-14.54,1.48-9.49.51-19.19.14-28.47-2.02-5.19-1.21-10.21-2.97-15.03-5.22-.06-.03-.11-.03-.16-.04.18-3.72.87-7.42,2.32-10.84,0-.01.01-.03.02-.04-.03,0-.05.02-.08.03-.27.08-.56.03-.81-.11-.28-.15-.5-.41-.59-.71,0,0-.01-.01-.02-.02-.05-.05-.09-.1-.13-.16-1.73,4.02-2.54,8.59-2.7,12.51-.47,11.51,3.53,23.19,12.17,31.03,3.69,3.35,8.09,5.95,12.89,7.33-.37,0-.75,0-1.12,0-20.9-.29-41.55-2.27-62.29-4.73-4.48-.53-8.94-1-13.4-1.41,9.67-22.9,15.32-47.2,18.55-71.8,3.32-25.32,4.04-50.92,3.75-76.43-.31-26.78-1.69-53.55-4.13-80.23-2.43-26.53-5.91-52.96-10.42-79.22-4.56-26.53-10.23-52.85-16.96-78.9-.62-2.4-1.28-4.79-1.95-7.17.6-.46.59-1.71-.32-1.85-.07-.01-.14-.02-.21-.03-.05-.18-.1-.36-.15-.54-.32-1.12-1.91-.79-1.94.23-4.97-.74-9.96-1.42-14.96-2.04.19-2.56.27-5.17,0-7.72-.24-2.26-.8-4.53-2.25-6.33-1.39-1.73-3.49-2.83-5.73-2.6-2.19.23-4.14,1.46-5.52,3.13-2.69,3.23-3.31,7.53-3.44,11.61-8.39-.86-16.8-1.61-25.19-2.29-19.95-1.62-39.93-2.83-59.92-3.63-40.08-1.59-80.19-.95-120.28-1.85-22.11-.5-44.22-1.51-66.22-3.79-.01-.03-.03-.06-.04-.09-.36-.79-1.5-.52-1.8.14-1,.58-.74,2.58.78,2.74.95,2.54,1.9,5.09,2.84,7.63-.09-.02-.19-.04-.3-.02-4.51.5-8.69,1.9-12.61,4.17-.54.31-.78,1.09-.43,1.63,2.26,3.49,4.46,7.02,6.6,10.58-3.09,1.96-6.17,3.93-9.24,5.94-.49.32-.83,1.09-.42,1.62,14.07,18.53,25.83,38.85,34.87,60.29-8.85-15.21-19.47-29.37-30.61-42.96-1.68-2.05-3.36-4.12-5.1-6.13,1.49-1.45,2.98-2.9,4.46-4.35.77-.75-.38-1.88-1.17-1.17-1.78,1.59-3.55,3.18-5.33,4.77-.43.38-.32.99,0,1.39,7.55,9.49,15.32,18.73,22.37,28.61,6.87,9.62,13.21,19.63,18.63,30.14,1.11,2.15,2.16,4.33,3.17,6.51,6.27,18.27,10.54,37.14,13.11,56.34,1.81,13.5,3.11,27.08,4.43,40.64.75,7.68,1.44,15.36,2.02,23.05-.16,6.87-.43,13.74-.75,20.6-.63,13.35-1.47,26.68-2.13,40.03-.64,12.93-.91,25.85-1.07,38.8-5.23,26.01-13.42,51.31-21.21,76.63-.99,3.22-1.98,6.44-2.97,9.66-.01.03-.01.07-.02.1-20.4-.08-40.8-.26-61.2-.49,10.11-12.2,13.39-28.98,13.8-44.44.24-9.09-.54-18.16-1.51-27.19-.84-7.82-1.58-15.74-3.32-23.42-1.73-7.66-4.77-15.26-10.67-20.67-.67-.62-1.51-.39-1.99.13-3.22-.54-6.53-.66-9.78-.9-1.7-.13-3.41-.24-5.12-.34.23-2.86-.34-5.81-1.73-8.29-3.84-6.82-14.11-9.08-19.69-3.02-1.41,1.53-2.45,3.45-2.91,5.48-.31,1.36-.53,3.26-.05,4.75-2.18-.06-4.36-.12-6.54-.16-.04,0-.08,0-.12,0-.12-3.06-1.07-6.1-3.03-8.49-4.7-5.73-14-5.99-18.88-.39-1.34,1.54-2.35,3.38-2.88,5.36-.26.99-.49,2.21-.42,3.35-1.59,0-3.19.01-4.78.03.18-2.58-.53-5.08-2.25-7.26-4.02-5.08-14.01-7.24-18.48-1.61-2.09,2.63-2.7,6.09-3.04,9.35-7.09.25-14.17.58-21.25.88-1.7.07-1.69,2.74,0,2.64.14,0,.29-.02.43-.02-3.58,2.93-7.24,5.78-11.12,8.3-.51.33-.74,1.01-.41,1.56,7.45,12.24,12.94,25.59,16.29,39.52,3.34,13.86,4.39,28.39,3.32,42.61-.28,3.74-.61,7.53-1.38,11.2-.68,3.22-1.87,6.45-4.68,8.39-.01,0-.02.02-.03.03-8.99-.26-17.97-.53-26.96-.8-1.74-.05-1.74,2.64,0,2.71,85.09,3.32,170.28,4.09,255.42,3.79,42.51-.15,85.07-.39,127.54-2.13,41.63-1.7,83.33-8.02,124.98-3.92,23.23,2.29,46.23,5.59,69.6,6.24,24.06.67,48.13-.25,72.16-1.45,1.44-.07,1.45-2.29,0-2.25ZM384.35,427.85c.18-1.38.72-2.69,1.51-3.83,1.71-2.48,4.56-3.66,7.52-3.45,6.02.41,9.76,6.08,9.37,11.73-1.29-.07-2.58-.14-3.88-.21-4.76-.25-9.52-.45-14.29-.6-.02-1.21-.39-2.38-.23-3.64ZM352.85,428.93c.29-1.41.85-2.71,1.66-3.9,1.62-2.39,4.28-3.84,7.16-3.91,2.83-.07,5.65,1.04,7.59,3.12,1.75,1.88,2.52,4.41,2.65,6.94-6.4-.11-12.8-.15-19.2-.14.02-.71,0-1.43.14-2.11ZM325.52,424.88c1.45-2.57,4.02-3.36,6.85-3.16,2.89.21,5.85,1.37,7.76,3.6,1.49,1.74,1.99,3.73,1.79,5.79-4.99.06-9.98.14-14.98.27-1.06.03-2.11.07-3.17.1.28-2.26.62-4.61,1.75-6.61ZM341.34,433.68c-.7,2.11-1.47,4.2-2.14,6.32-.12,0-.25,0-.37.01-.58-.02-1.16.12-1.68.41-.39.22-.73.52-1,.87-.1.11-.2.23-.28.35-1.13.38-2.16,1.25-2.81,2.24-.72,1.08-.88,2.51.02,3.54.46.53,1.12.79,1.76.76.22.28.5.54.81.75.18.12.38.22.58.31.83.85,1.96,1.43,3.17,1.52,2.66.21,4.56-2.18,4.72-4.64.06-.89-.16-1.78-.6-2.55-.25-1.08-.9-2.09-1.78-2.76.94-2.24,1.76-4.54,2.49-6.82.04-.12.06-.24.09-.35,1.13-.01,2.26-.02,3.38-.03.96,0,1.91,0,2.87,0,.46.47,1.07.37,1.47,0,6.6-.02,13.2.02,19.8.13-.19,1.73-.64,3.42-1.25,5.04-.11-.02-.22-.05-.33-.06-.99-.22-1.96.19-2.61.94-.32.3-.6.65-.79,1.02-.08.16-.15.33-.2.49-.03.03-.05.06-.07.09-1.02.48-1.88,1.21-2.28,2.26-.79,2.06.71,4.31,2.62,5.06.57.22,1.17.33,1.77.35.78.35,1.65.52,2.49.38.73.18,1.51.19,2.23-.05,2.03-.66,3.27-2.95,2.71-5.02-.2-.75-.61-1.37-1.16-1.87-.12-.25-.27-.48-.44-.69-.11-.2-.24-.4-.4-.58-.32-.39-.72-.69-1.17-.91.83-1.97,1.46-4,1.72-6.13.01-.08.01-.17.02-.25,6.99.13,13.97.3,20.95.5,2.24.07,4.48.14,6.72.22-.43,1.57-1.15,3.06-2.11,4.37-.09.12-.19.24-.28.36-1.45-.67-3.27-.13-4.38.94-.43.41-.77.91-1.02,1.46,0,0,0,0,0,0-.53.54-.91,1.23-1.14,1.96-.45.84-.49,1.79-.09,2.69.01.03.03.05.04.08.03.11.06.23.1.33.73,1.82,2.47,2.88,4.39,3.02,1.92.15,3.83-.95,4.67-2.69.53-1.1.61-2.45.18-3.56-.15-.72-.51-1.38-1.05-1.9.15-.15.31-.3.45-.47,1.37-1.58,2.44-3.38,3.07-5.37.12-.36.21-.74.29-1.11,1.15.04,2.29.09,3.44.13,3.81.14,7.71.49,11.54.33.07.15.17.29.31.42,4.98,4.61,7.72,10.87,9.37,17.35.57,2.23,1.02,4.5,1.42,6.78-6.84-1.36-13.79-2.19-20.72-2.93-7.62-.82-15.26-1.45-22.91-1.9-15.3-.91-30.62-1.19-45.94-.76-4.33.12-8.66.29-12.98.51-3.63.18-7.29.33-10.92.64-.19-.09-.4-.13-.63-.08-.02-.04-.03-.07-.05-.11-3.18-7.37-7.42-14.53-13.17-20.2,12.34-.69,24.72-1,37.09-1.15ZM291.19,444.69c4.08-2.75,7.86-5.88,11.09-9.59,4.95,5.5,9.09,11.59,12.23,18.29.35.74.67,1.49,1,2.24-.27.23-.39.57-.36.9-2.02,1.29-4.03,2.57-6.03,3.89-2.58,1.71-5.35,3.29-7.68,5.33-2.82-7.3-6.24-14.35-10.25-21.07ZM308.99,546.86c2.03-3.74,3.18-7.88,3.88-12.09.92-5.54,1.26-11.18,1.67-16.78.87-11.78,1.16-23.86-2.25-35.29-1.71-5.73-4.32-11.1-8.06-15.77-.3-.38-.97.13-.68.52,6.55,8.63,9.46,19.42,10.19,30.09.41,6.01.19,12.04-.22,18.05-.39,5.6-.77,11.25-1.56,16.82-.72,5-1.95,10-4.42,14.42-.63-.02-1.26-.04-1.89-.05,3.58-3.86,4.07-10.28,4.61-15.21.8-7.33,1-14.73.62-22.09-.76-14.5-3.91-29.05-9.03-42.63.13.02.26.02.38-.04,1.25-.53,2.45-1.18,3.64-1.87,6.86,8.62,10.1,19.59,11.09,30.43.57,6.18.47,12.42.14,18.61-.31,5.81-.68,11.66-1.36,17.44-.64,5.41-1.84,10.89-4.8,15.51-.65-.02-1.3-.04-1.95-.06ZM312.31,546.96c2.41-3.94,3.64-8.48,4.32-13.05.88-5.86,1.2-11.83,1.57-17.74.37-5.85.53-11.76.17-17.63,1.56,10.28,2.11,20.99.57,31.26-.89,5.96-2.57,11.8-5.29,17.19-.45-.01-.9-.03-1.35-.04ZM319.96,545.42s-.01,0-.02,0l-1.34.93c-.22.15-.45.31-.67.46-.13.09-.26.19-.39.29-.15,0-.3,0-.45-.01,6.03-8.96,6.73-20.24,6.74-30.74.01-11.95-1.29-23.93-4.37-35.49-1.71-6.43-3.93-12.91-7.14-18.75-.37-.67-1.3-.08-1.01.59,2.38,5.38,4.6,10.77,6.26,16.43,1.64,5.58,2.81,11.29,3.6,17.05.8,5.84,1.2,11.74,1.3,17.63.1,5.57.03,11.21-.77,16.73-.85,5.91-2.62,11.7-6.25,16.52-.1,0-.2,0-.3,0,4.8-9.85,6.22-20.95,6.05-31.82-.18-11.46-1.65-23.15-5.19-34.08-1.98-6.13-4.67-11.99-8.28-17.34.87-.53,1.73-1.07,2.59-1.58,2.11-1.25,4.2-2.55,6.29-3.84,2.17,5.54,3.77,11.29,4.99,17.1,1.75,8.28,2.69,16.7,3.57,25.11.77,7.36,1.56,14.75,1.28,22.15-.3,7.95-1.97,15.94-6.48,22.62-.02.02-.02.04-.04.07ZM419.14,549.25c-32.74-.39-65.46-1.15-98.19-2.06.07-.06.15-.12.22-.17.05-.04.09-.09.13-.15.21-.07.4-.2.56-.43,8.56-12.45,7.36-28.48,5.89-42.77-1.62-15.68-3.52-31.64-9.39-46.38.03-.02.04-.05.07-.07,6.86-.19,13.71-.59,20.58-.7,7.59-.12,15.19-.12,22.78.04,15.32.31,30.61,1.11,45.89,2.39,8.05.68,16.09,1.63,24.16,2.17.74,4.57,1.24,9.19,1.82,13.76,2.1,16.58,3.4,33.7-.61,50.11-2.02,8.27-5.46,16.11-10.03,23.29-.23.36-.11.74.14,1.01-1.34-.02-2.67-.02-4.01-.04ZM743,137.7c1-3.05,4.53-7.43,8.04-4.88,1.79,1.3,2.39,3.54,2.59,5.64.22,2.41.15,4.83-.18,7.22-3.8-.46-7.6-.89-11.41-1.29.06-2.26.27-4.52.97-6.68ZM458.65,148.51c3.28-1.9,6.84-3.09,10.61-3.62.29-.04.49-.21.6-.43,8.16,22.02,15.97,44.11,22.33,66.77,1.05,3.75,2.07,7.51,3.06,11.27-7.98-21.92-17.9-43.14-29.86-63.17.02-.43-.24-.86-.61-1.01-.51-.84-1.01-1.69-1.52-2.52-1.5-2.45-3.05-4.87-4.61-7.27ZM496.08,242.95c-.77-2.27-1.57-4.53-2.41-6.78-8.34-22.39-19.54-43.69-33.36-63.18-1.54-2.17-3.12-4.32-4.72-6.45,2.68-1.82,5.35-3.65,8.01-5.5,10.71,18.05,19.83,37.02,27.31,56.65,4.56,11.97,8.53,24.17,11.94,36.53,1.02,4.74,1.99,9.49,2.92,14.25-2.49-8.31-5.49-16.46-9.14-24.37-.18-.39-.37-.77-.55-1.15ZM510.5,309.28c-1.66-14.21-4.02-28.24-7.37-42.04,4.12,13.3,6.87,27.03,8.51,40.9,1.23,10.36,1.87,20.75,2.14,31.16-.99-10.03-2.12-20.04-3.28-30.03ZM512.62,434.25c.55-13.47,1.39-26.93,2.11-40.4.12-2.32.24-4.64.36-6.96.77,20.93.16,41.87-2.87,62.57.09-5.07.19-10.14.4-15.21ZM492.68,549.83c-1.69,0-3.38-.02-5.07-.02,7.81-25.16,16.07-50.27,21.91-75.98-.47,9.98-1.59,19.86-4,29.65-3,12.19-7.37,24.02-11.97,35.69-1.16,2.95-2.34,5.89-3.52,8.83-.45,1.11,1.33,1.57,1.78.49,4.97-11.81,9.82-23.68,13.45-35.98,3.66-12.4,5.73-25,6.33-37.91.2-4.24.31-8.49.4-12.74,4.34-23.21,5.98-46.69,5.31-70.37-.25-8.99-.73-17.98-1.37-26.97.21-8.49.25-16.99.03-25.48,1.12,11.79,1.97,23.6,2.53,35.43.14,2.94.25,5.87.35,8.81-.34,23.94-2.38,47.82-4.82,71.64-2.94,28.69-4.99,57.9-16.73,84.63-1.41,3.2-2.92,6.35-4.53,9.46-.14.27-.16.55-.1.8ZM505.19,549.44c-.02.1-.02.2-.01.29-.17-.29-.47-.52-.9-.55-2.96-.19-5.92-.37-8.88-.58,6.09-11.88,10.67-24.5,13.57-37.53,3.14-14.14,4.51-28.61,6.03-42.99,1.48-14,2.93-28.01,4.06-42.04-.26,10.3-.74,20.6-1.44,30.88-1.88,27.69-5.37,55.26-10.48,82.54-.62,3.33-1.28,6.66-1.96,9.98ZM782.33,543.52c-.03.08-.05.15-.07.23-15.32-1.32-30.59-1.85-46.07-1.08-20.9,1.04-41.73,3.18-62.64,4.27-42.39,2.22-84.89,2.49-127.33,2.8-12.79.09-25.59.13-38.38.12,5.41-26.98,9.31-54.25,11.62-81.67,2.33-27.77,3.05-55.68,2.16-83.54-.1-3.05-.22-6.1-.35-9.15-.07-24.54-1.93-49.08-5.72-73.33-2.2-14.11-5.06-28.11-8.62-41.94-2.74-13.27-5.85-26.47-9.33-39.56-7.13-26.8-15.68-53.29-26.16-78.97-.84-2.06-1.71-4.11-2.59-6.15,39.13,3.96,78.48,4.2,117.78,4.5,39.88.31,79.68,1.24,119.46,4.23,11.02.83,22.01,1.83,33.01,2.87-.03,4.25.09,8.52.12,12.77.04,4.72-.26,9.57.44,14.25.56,3.72,2.19,7.53,5.89,9.06,2.18.9,4.64.78,6.89.18,2.08-.55,4.64-1.47,5.88-3.35,1.33-2.04.92-5.09.91-7.4-.01-2.73-.1-5.45-.26-8.18-.09-1.53-.22-3.05-.33-4.58-.09-1.16-.27-2.34-1.16-3.18-1.81-1.7-5.04-.76-6.84.48-4.61,3.17-5.12,9.68-4.04,14.7.38,1.78,2.8,1.18,2.96-.4.37-3.54-.23-7.64,2.38-10.5.48-.52.97-1.03,1.58-1.39.36-.21,1.44-.81,1.85-.61.41.2.38,1.78.4,2.09.1,1.19.18,2.39.25,3.58.13,2.26.2,4.52.23,6.78.01,1.06,0,2.13,0,3.19-.01.99.07,2.07-.15,3.04-.38,1.73-2.8,2.37-4.29,2.78-1.75.49-3.69.67-5.39-.12-2.71-1.25-3.68-4.35-4.04-7.09-.5-3.8-.26-7.73-.28-11.55-.02-4.54-.05-9.09-.07-13.63,0-.22,0-.44,0-.66,9.84.94,19.68,1.91,29.53,2.81,6.27,25.11,12.03,50.31,16.69,75.78,4.82,26.36,8.59,52.92,11.3,79.58,2.67,26.39,4.31,52.89,4.89,79.42.56,25.46.3,51-2.33,76.35-2.59,25.01-7.64,49.77-16.35,73.39-1.08,2.93-2.22,5.85-3.41,8.74ZM853.64,544.27c-9.01-6.07-14.08-16.5-14.96-27.15-.12-1.44-.18-2.91-.16-4.37,17.73,8.47,38.34,8.41,57.41,5.67,4.25-.61,9.26-.98,12.97-3.42-1.19,4.48-2.85,8.84-5.1,12.9-4.91,8.87-12.61,16-22.25,19.38-9.35,3.27-19.58,2.6-27.9-3Z"/>
        <path class="cls-35" d="M929.56,440.16c-2.35.04-4.6-.18-6.86-.86-2.2-.66-4.31-1.56-6.45-2.38-4.2-1.61-8.5-3-12.95-3.68-4.24-.65-8.56-.7-12.7.58-3.5,1.08-6.7,3.08-9.23,5.72-1.38,1.45-2.63,3.15-3.5,4.95-.42.88-.82,1.79-1.09,2.73-.22.75-.31,1.42-.33,2.13-.18.12-.3.34-.25.58-.93,1.05-1.76,2.22-2.46,3.56-.57,1.1-1,2.24-1.28,3.39-.14-.3-.29-.6-.44-.89.1-.11.17-.27.12-.47-.01-.05-.02-.09-.03-.14.14-.17.16-.43-.1-.6-.02-.01-.04-.02-.06-.03-1.96-7.95-6.7-15.63-13.84-19.85-3.59-2.12-7.84-3.34-12.03-3.13-4.17.2-8.02,1.89-11.79,3.54-2.16.95-4.34,1.91-6.62,2.53-1.06.28-2.13.5-3.23.58-.9.07-1.79,0-2.68-.05-.07-.01-.13-.03-.2-.04-.15-.02-.28,0-.4.02-.08,0-.17,0-.25,0-.94,0-1.06,1.31-.22,1.59.32.11.65.18.99.24,3.03.98,5.66,2.44,8.16,4.47,2.61,2.13,4.99,4.52,7.55,6.71,2.64,2.26,5.45,4.28,8.71,5.54,3.73,1.46,7.78,1.8,11.75,1.44,2.28-.21,4.54-.63,6.75-1.22,1.07-.29,2.13-.61,3.18-.97.68-.23,1.48-.6,2.27-.75.44.6.83,1.24,1.14,1.92.32.69.55,1.43.72,2.18.09.38.13.77.2,1.14.1,2.21.77,4.4,2.06,6.42,2.65,4.17,8.51,8.44,7.57,14.01-.28,1.65-1.17,3.17-2.23,4.59-.05.14-.1.28-.17.41-.84,1.62-2.15,2.8-3.44,4.02-1.84,2.27-3.67,4.52-5.4,6.88.22-.04.44-.06.68-.05.36.02.67.07.97.16,2.08-1.73,3.93-3.59,5.7-5.66.67-.78,1.36-1.57,2.02-2.38.05,0,.1,0,.16.01.19-.32.41-.62.64-.92.15-1.04.66-1.99,1.35-2.79.31-.37.67-.67,1.05-.92,1.14-2.25,1.44-4.71.71-7.17-.77-2.59-2.38-4.8-4.08-6.86-1.63-1.97-3.4-3.88-4.49-6.21-.98-2.11-1.17-4.45-.63-6.71.53-2.19,1.6-4.19,3.03-5.9,4.74,4.59,11.71,6.61,18.23,5.95,3.95-.4,7.81-1.56,11.38-3.3,3.57-1.74,6.71-4.12,9.81-6.57,3.4-2.69,7.13-5.35,11.67-5.27.46,0,.61-.58.32-.84.24-.04.48-.08.71-.14.68-.17.54-1.23-.17-1.22ZM862.35,448.52c-3.42-1.27-7.02-2.2-10.59-2.93-1.81-.37-3.63-.67-5.46-.91-1.87-.25-3.84-.58-5.73-.5-.65.03-.87,1.09-.16,1.19,1.69.26,3.43.27,5.13.47,1.72.2,3.44.46,5.15.78,3.35.63,6.65,1.47,9.86,2.6,2.96,1.04,5.97,2.4,8.22,4.65.17.17.32.34.48.52-.78.16-1.56.45-2.3.67-2.07.59-4.18,1.05-6.32,1.33-4.07.53-8.28.4-12.23-.77-6.93-2.05-11.57-7.78-16.99-12.17-1.57-1.27-3.3-2.53-5.15-3.51.03,0,.06-.01.09-.02,1.89-.35,3.73-1,5.52-1.71,3.68-1.47,7.24-3.35,11.12-4.23,8.37-1.91,16.72,2.64,21.71,9.2,2.38,3.13,4.09,6.66,5.55,10.29-2.11-2.35-4.97-3.87-7.89-4.96ZM919.13,443.87c-3.2,2.05-6.08,4.55-9.37,6.47-6.58,3.85-14.32,6.14-21.94,4.56-3.37-.7-6.64-2.15-9.35-4.3,1.41-1.45,3.07-2.66,4.86-3.55,5.7-2.85,12.16-2.93,18.36-3.58.73-.08.77-1.14,0-1.17-7.66-.27-16.72.52-22.94,5.26.24-.54.48-1.07.76-1.59.82-1.54,1.76-3.01,2.9-4.33,2.35-2.71,5.27-4.84,8.69-6,8.27-2.82,17.1-.16,24.91,2.83,2.67,1.02,5.61,2.38,8.59,2.94-1.93.42-3.76,1.37-5.47,2.46Z"/>
        <path class="cls-35" d="M289.52,417.7c-1.99-3.01-4.57-5.58-7.18-8.05-2.59-2.45-5.35-5.04-8.46-6.83-.88-.51-1.89.72-1.11,1.43,1.31,1.19,2.75,2.22,4.11,3.35,1.37,1.13,2.74,2.25,4.07,3.44,2.65,2.36,5.06,4.97,7.71,7.33.44.39,1.22-.12.86-.66Z"/>
        <path class="cls-35" d="M277.97,427.54c-1.98-2.94-5.52-5.16-8.65-6.66-1.64-.79-3.38-1.4-5.14-1.85-1.75-.45-3.85-.85-5.63-.33-.56.16-.8,1.1-.18,1.37,1.52.66,3.26.86,4.87,1.21,1.74.38,3.42.93,5.08,1.6,1.61.65,3.16,1.43,4.63,2.35,1.5.94,2.84,2.08,4.31,3.03.43.28,1-.28.71-.71Z"/>
        <path class="cls-35" d="M278.19,441.59c-3.58.95-7.07,2.16-10.53,3.47-1.71.65-3.4,1.32-5.08,2.05-.79.35-1.59.7-2.38,1.06-.86.39-1.66.71-2.22,1.5-.43.62.16,1.34.8,1.39.94.07,1.79-.46,2.61-.85.78-.37,1.56-.74,2.35-1.1,1.63-.74,3.25-1.5,4.88-2.24,3.3-1.49,6.65-2.87,9.98-4.32.56-.24.16-1.12-.41-.97Z"/>
        <path class="cls-35" d="M436.29,431.95c-.51-1.43-1.26-2.73-2.22-3.91-1.88-2.32-4.66-3.94-7.66-4.13-.56-.04-.66.82-.13.97,2.56.71,4.84,2.22,6.45,4.34.78,1.02,1.39,2.17,1.77,3.4.2.64.38,1.29.5,1.95.11.66.12,1.31.25,1.97.15.74,1.19.63,1.39,0,.45-1.4.14-3.22-.35-4.58Z"/>
        <path class="cls-35" d="M721.63,170.63c-4.52-3.27-10.3-3.61-15.68-3.84-6.62-.29-13.23-.56-19.85-.85-26.19-1.12-52.38-2.29-78.58-3.33-7.29-.29-14.58-.58-21.87-.87-7.42-.29-14.85-.66-22.28-.61-1.38.01-1.33,1.98,0,2.1.42.04.85.07,1.27.11-.71.15-1.4.37-2.03.74-2.64,1.57-2.84,4.82-3.1,7.56-.27,2.82-.43,5.67-.15,8.49.28,2.8.96,5.6,2.46,8.01,1.6,2.56,4,4.42,6.73,5.66,6.3,2.87,13.37,3.12,20.16,3.62,14.84,1.09,29.68,2.15,44.53,3.07,14.85.92,29.7,1.68,44.57,2.18,7.46.25,14.93.39,22.4.45,7.4.06,14.81-.09,22.2.09,1.88.04,3.77.08,5.65.11.56,0,1.3-.45,1.39-1.06,1.57-10.79,2.1-24.46-7.82-31.65ZM717.36,200.89c-3.57,0-7.13-.01-10.7-.05-7.06-.08-14.13-.24-21.19-.47-14.2-.46-28.38-1.09-42.56-1.93-14.18-.84-28.35-1.83-42.52-2.88-6.89-.51-13.88-.75-20.74-1.7-5.61-.77-12.59-2.33-15.57-7.7-2.54-4.59-1.95-10.41-1.4-15.41.12-1.13.23-2.46.91-3.43.78-1.11,2.36-1.19,3.59-1.32,3.22-.33,6.53-.14,9.73.35,1.54.24,3.16.62,4.6,1.2.92.37,1.32-1.12.41-1.49-1.67-.67-3.31-1.32-4.99-1.85,8.3.45,16.62.7,24.91,1.08,12.83.59,25.65,1.15,38.48,1.7,12.69.55,25.38,1.09,38.08,1.64,6.35.27,12.69.55,19.04.82,3.18.14,6.36.26,9.54.41,2.73.13,5.47.31,8.12,1.04,5.53,1.52,9.23,5.83,10.96,11.19,1.93,5.99,1.23,12.28.68,18.44-3.12.17-6.25.37-9.38.37Z"/>
        <path class="cls-35" d="M763.39,283.28c-.3-5.22-.69-10.43-1.11-15.64-.36-4.45-.73-8.97-2.59-13.09-1.83-4.05-5.29-7.01-9.09-9.16-3.91-2.22-8.2-3.85-12.54-5-8.36-2.21-17.1-2.61-25.67-1.7-1.17-.46-2.4-.78-3.76-.87-1.89-.14-3.95.29-5.53,1.37-1.77,1.21-2.73,2.99-3.02,5.09-.35,2.52-.25,5.12-.31,7.66-.23,10.59-.23,21.18.04,31.77.13,4.99.25,9.98.56,14.96.27,4.18.73,8.39,1.83,12.44,1.09,4,2.87,7.81,5.56,11,2.76,3.26,6.44,5.6,10.41,7.12,9.13,3.52,19.14,2.24,28.45.2,3.94-.86,8.14-1.72,11.57-3.97,1.56-1.03,2.94-2.34,3.87-3.97,1.16-2.02,1.51-4.34,1.67-6.63.71-10.48.27-21.1-.33-31.57ZM761.12,311.8c-.08,2.2-.07,4.46-.71,6.59-1.08,3.6-4.4,5.51-7.76,6.64-4.12,1.39-8.53,2.21-12.82,2.89-4.57.73-9.3,1.06-13.91.42-7.85-1.09-15.07-5.04-18.79-12.24-3.67-7.1-3.85-15.5-4.12-23.31-.34-9.84-.49-19.69-.46-29.54.02-4.99.09-9.98.21-14.97.05-1.87-.23-4.36,1.05-5.92.24-.29.51-.53.81-.74,2.29-.08,4.57-.19,6.86-.29,1.05.32,2.14.54,3.21.81.72.18,1.24-.38,1.27-.97,4.7-.12,9.4-.06,14.1.6,4.2.59,8.36,1.59,12.34,3.06,3.74,1.38,7.64,3.16,10.72,5.74,3.28,2.75,4.95,6.33,5.69,10.49.81,4.52.95,9.2,1.29,13.77.71,9.82,1.21,19.67,1.16,29.52-.01,2.48-.06,4.96-.15,7.43Z"/>
        <path class="cls-35" d="M680.14,247.44c-1.72-4.16-4.73-7.48-8.71-9.59-3.84-2.04-8.14-3-12.42-3.61-5.3-.76-10.66-1.26-16.01-1.32-5.56-.06-11.03.38-16.54,1.13-2.61.36-5.21.79-7.81,1.23-.75.13-.59,1.44.18,1.34,1.13-.13,2.26-.24,3.39-.33-3.79,2.86-3.44,7.82-3.22,12.08.56,11.13,1.1,22.26,1.68,33.39.56,10.66.78,21.46,2.94,31.95.88,4.31,2.01,8.89,4.66,12.49,2.82,3.85,6.91,5.55,11.6,5.83,5.2.31,10.56-.27,15.74-.73,4.72-.42,9.78-.63,14.21-2.46,4.09-1.68,7-4.76,8.67-8.83,1.57-3.81,1.99-8.01,2.2-12.09.55-10.86.75-21.75,1.12-32.61.17-5.04.47-10.09.42-15.13-.04-4.3-.44-8.75-2.1-12.76ZM678.85,266.9c-.32,10.45-.64,20.89-.96,31.34-.14,4.53-.11,9.11-.61,13.63-.39,3.6-1.26,7.38-3.46,10.33-2.5,3.35-6.45,4.73-10.42,5.44-4.86.87-9.88,1.14-14.81,1.42-4.38.25-9.46.93-13.62-.84-3.71-1.58-5.75-5.27-6.98-8.91-3.12-9.28-3.51-19.43-4.03-29.12-.55-10.45-1.11-20.89-1.69-31.34-.14-2.62-.29-5.23-.43-7.85-.13-2.38-.38-4.79-.3-7.18.07-1.93.5-3.89,2-5.22,1.35-1.19,3.15-1.51,4.88-1.72,1.71-.2,3.67-.39,5.39-.17.52.07.76-.34.72-.75,5.08.1,10.14.17,15.21.56,4.58.35,9.21.81,13.68,1.9,3.82.93,7.63,2.44,10.43,5.29,5.89,5.99,5.24,15.47,5,23.2Z"/>
        <path class="cls-35" d="M602.14,311.07c-.02-10.77-.28-21.54-.78-32.3-.24-5.31-.56-10.62-.93-15.93-.29-4.19-.63-8.46-1.88-12.49-1.24-3.99-3.44-7.55-6.83-10.06-3.47-2.56-7.77-3.78-11.95-4.59-5.11-.99-10.32-1.53-15.52-1.66-4.59-.11-9.37.09-13.49,2.36-7.94,4.39-10.47,13.95-10.75,22.38-.17,5.21.15,10.46.32,15.67.18,5.36.45,10.72.77,16.08.31,5.29.67,10.58,1.08,15.86.37,4.73.63,9.68,2,14.24.18.61.39,1.19.61,1.76-.19,3.45,1.92,6.64,4.74,8.64,3.84,2.72,8.95,2.78,13.46,2.63,5.33-.18,10.65-.49,15.97-.88,2.67-.19,5.34-.41,8.01-.65,2.22-.2,4.51-.36,6.63-1.07,8.46-2.83,8.56-12.59,8.54-20ZM599.77,314.34c-.04,3.41-.25,7.12-1.84,10.21-.77,1.5-1.88,2.8-3.37,3.63-1.85,1.03-4.04,1.29-6.12,1.47-4.89.43-9.8.73-14.71.98-4.82.24-9.72.63-14.54.43-3.92-.16-8.15-1.18-10.46-4.59.15-.21.22-.47.11-.74-.54-1.29-.99-2.6-1.37-3.94.02-.15.04-.29.07-.44.13-.61-.14-1.09-.54-1.35-.53-2.22-.88-4.49-1.1-6.76-.47-4.81-.83-9.63-1.22-14.44-.81-9.97-1.44-19.96-1.99-29.95-.47-8.59-1.1-18.22,4.05-25.66,2.34-3.38,5.68-5.59,9.71-6.38,4.51-.88,9.38-.45,13.92-.02,4.52.43,9.15,1.05,13.51,2.36,3.77,1.13,7.45,3.02,9.78,6.3,2.25,3.15,3.24,7,3.79,10.78.64,4.39.78,8.86,1.03,13.28.58,10.08.97,20.17,1.16,30.26.09,4.86.17,9.72.12,14.58Z"/>
        <path class="cls-35" d="M754.98,352.98c-6.82-.72-13.67-1.02-20.51-1.35-3.35-.16-6.7-.33-10.05-.49-1.74-.08-3.48-.18-5.23-.23-1.67-.05-3.39-.24-5.02.22-.73.2-.64,1.15,0,1.39,1.58.59,3.35.54,5.02.64,1.67.09,3.35.15,5.03.21,3.42.13,6.84.26,10.26.39,6.84.26,13.67.55,20.51.42.78-.01.75-1.11,0-1.19Z"/>
        <path class="cls-35" d="M762.77,365.25c-7.96-1.3-15.97-2.24-24.02-2.75-3.99-.25-7.99-.43-11.98-.55-2-.06-4-.11-6-.13-1.99-.01-4.28-.24-6.23.25-.81.2-.83,1.46,0,1.66,1.84.44,3.94.23,5.83.26,2,.03,4,.04,6,.08,4.06.09,8.13.24,12.18.47,8.04.44,16.07.99,24.08,1.69.56.05.7-.9.13-1Z"/>
        <path class="cls-35" d="M761.1,376.09c-7.76-1.65-15.68-2.58-23.61-2.97-3.96-.2-7.93-.27-11.89-.21-1.98.03-3.96.09-5.94.2-2.02.11-4.06.15-6.03.61-1.28.3-.91,2.11.3,2.19,1.98.13,3.96-.14,5.93-.25,1.98-.11,3.96-.2,5.94-.26,3.9-.12,7.8-.13,11.69,0,7.85.24,15.66.93,23.45,1.87.67.08.81-1.03.16-1.17Z"/>
        <path class="cls-35" d="M677.98,353.1c-7.78-.14-15.55-.37-23.33-.67-3.89-.15-7.77-.28-11.66-.46-3.87-.18-7.78-.58-11.65-.41-1.06.05-1.44,1.79-.27,1.97,3.8.56,7.68.55,11.52.67,3.95.12,7.91.23,11.86.27,7.84.08,15.69-.01,23.53-.23.73-.02.74-1.13,0-1.14Z"/>
        <path class="cls-35" d="M682.86,368.07c-8.42-1.25-16.88-2.21-25.38-2.76-4.28-.28-8.56-.48-12.85-.61-4.28-.13-8.6-.35-12.86.17-1.23.15-1.25,1.8,0,1.93,4.27.43,8.57.26,12.86.33,4.22.06,8.43.2,12.65.4,8.48.41,16.96.99,25.41,1.82.72.07.89-1.16.17-1.27Z"/>
        <path class="cls-35" d="M679.26,379.2c-7.55-.78-15.13-1.26-22.7-1.9-7.55-.63-15.09-1.52-22.66-1.83-1.23-.05-1.55,2-.3,2.19,7.53,1.16,15.16,1.57,22.76,2.04,7.63.46,15.26.88,22.9.82.86,0,.83-1.23,0-1.32Z"/>
        <path class="cls-35" d="M590.34,353.07c-.59-.25-1.12-.38-1.77-.33-.17.01-.3.08-.4.18-3.14-.07-6.3.04-9.43.02-3.68-.03-7.37-.09-11.05-.1-3.68-.01-7.37-.04-11.05-.08-1.88-.02-3.75-.05-5.63-.07-1.81-.03-3.74-.25-5.53.08-1.1.2-1.07,1.97,0,2.2,1.77.37,3.72.18,5.53.18,1.88,0,3.75,0,5.63-.01,3.68-.01,7.37-.04,11.05-.09,3.68-.04,7.37-.17,11.05-.28,3.74-.12,7.53-.07,11.25-.4.6-.05,1.05-1,.35-1.3Z"/>
        <path class="cls-35" d="M597.55,368.85c-8.48-.45-16.96-.83-25.45-1.04-4.17-.11-8.35-.21-12.52-.32-4.28-.11-8.65-.41-12.93-.1-1.24.09-1.2,1.77,0,1.9,4.26.47,8.64.35,12.93.41l12.52.18c8.48.12,16.97.08,25.45-.04.64,0,.63-.96,0-.99Z"/>
        <path class="cls-35" d="M594.57,383.04c-7.75-.68-15.52-1.19-23.3-1.45-3.88-.13-7.77-.14-11.66-.14-3.79,0-7.75-.19-11.48.52-1.02.19-.64,1.56.23,1.67,3.82.47,7.81.07,11.66.01,3.82-.06,7.64-.05,11.46-.05,7.7,0,15.41.12,23.1.45.66.03.64-.96,0-1.01Z"/>
        <path class="cls-35" d="M771.67,498.27c-2.55-.12-5.1-.21-7.65-.29,0,0,0,0,0,0,.79-11.89-.09-23.79-.53-35.68-.22-5.91-.3-11.82,0-17.73.31-5.93,1.33-11.87.84-17.82-.21-2.52-.77-4.89-2.86-6.51-1.99-1.54-4.56-2.11-7.02-2.34-2.75-.26-5.52.04-8.25.4-1.07.14-2.47.11-3.32.9-.97.9-.89,2.5-.96,3.7-.38,5.8.3,11.6.34,17.39.03,5.93-1,11.79-1.2,17.71-.23,6.62.17,13.25.49,19.86.32,6.54.28,13.09.51,19.63-2.85-.04-5.69-.07-8.54-.1.01-.04.03-.07.04-.11,1.26-10.72.33-21.66-.28-32.39-.31-5.37-.53-10.75-.87-16.12-.17-2.69-.33-5.37-.5-8.06-.08-1.28-.16-2.55-.24-3.83-.08-1.22-.06-2.5-.33-3.69-.99-4.31-6.31-4.31-9.8-4.68-2.46-.26-5.12-.8-7.58-.48-2.07.26-3.74,1.44-4.87,3.16-2.65,4.03-1.41,9.44-1.21,13.94.24,5.42.45,10.85.79,16.27.37,6.02.79,12.04,1.05,18.07.26,5.88.6,11.79.29,17.67-3.4-.04-6.8-.08-10.2-.11.02-1.48.26-2.96.39-4.43.15-1.7.3-3.4.39-5.1.17-3.15.21-6.31.17-9.47-.04-3.16-.16-6.32-.37-9.48-.1-1.58-.22-3.16-.33-4.73-.08-1.17-.06-2.49-.66-3.54-.5-.88-1.36-1.35-2.32-1.54-1.55-.3-3.18-.33-4.75-.47-1.51-.14-3.02-.33-4.54-.39-1.15-.04-2.33.07-3.29.76-2.09,1.5-1.81,4.8-2.02,7.07-.3,3.21-.44,6.44-.56,9.66-.26,7.09-.54,14.45.59,21.48l-13.48-.15c-1.27-.01-1.27,1.96,0,1.98,26.68.3,53.36.65,80.04.84,7.55.05,15.09.03,22.64-.15.69-.02.68-1.03,0-1.06ZM699.21,487.08c-.14,3.24-.17,6.8-1.15,9.91-2.14-.02-4.28-.05-6.42-.07l-7.72-.09c.32-5.8-.08-11.67-.13-17.47-.03-2.95,0-5.91.06-8.86.03-1.34.08-2.68.1-4.02.02-1.44-.06-2.95.21-4.37.23-1.23.74-2.18,2-2.51,1.2-.31,2.51-.11,3.73-.03,1.47.1,2.94.19,4.41.29,1.24.08,3.17-.16,3.93,1.05.63,1.01.48,2.55.53,3.67.07,1.45.13,2.89.19,4.34.11,2.9.26,5.79.33,8.69.08,3.16.07,6.31-.06,9.47ZM732.07,497.37c-.14,0-.28,0-.42,0-6.79-.08-13.57-.15-20.36-.23.5-4.88.45-9.78.16-14.68-.3-5.08-.56-10.17-.79-15.26-.23-5.09-.47-10.18-.78-15.26-.3-4.87-.9-9.86-.64-14.74.11-2.13.65-4.34,2.23-5.87,1.71-1.66,3.98-1.38,6.16-1.15,2.38.25,4.77.44,7.14.73,1.54.19,3.66.54,4.37,2.13.43.96.35,2.18.42,3.21.08,1.34.16,2.69.24,4.03.15,2.55.3,5.11.45,7.66.3,5.11.7,10.21,1.03,15.32.73,11.35,1.54,22.64.77,34.01,0,.04.01.06.01.1ZM743.65,497.51c.94-5.44.66-10.98.38-16.48-.29-5.56-.72-11.12-.8-16.69-.09-5.57.36-11.04.9-16.58.54-5.62.27-11.16.05-16.78-.11-2.83-.14-5.66.11-8.49.03-.37-.05-1.29.22-1.54.26-.25,1.37-.21,1.7-.25,1.37-.18,2.75-.34,4.14-.41,2.58-.13,5.23,0,7.67.9.97.36,1.93.87,2.62,1.65.85.96,1.08,2.27,1.21,3.51.61,5.59-.17,11.23-.46,16.82-.29,5.64-.21,11.29-.03,16.93.4,12.6,1.47,25.2.74,37.8-6.14-.19-12.28-.3-18.42-.39Z"/>
        <path class="cls-35" d="M640.87,453.15c-11.8-1.67-23.79-2.16-35.69-2.58-12.01-.42-24.02-.51-36.03-.27-3.29.06-6.58.12-9.86.27-1.68.07-3.35.17-5.03.26-1.68.09-3.38.11-5.03.47-.89.2-.58,1.38.2,1.47,2.95.34,6.09-.06,9.05-.13,2.95-.08,5.9-.2,8.85-.28,5.97-.16,11.94-.24,17.92-.23,11.81,0,23.62.31,35.42.94,6.69.35,13.38.79,20.08.99.5.01.64-.82.12-.9Z"/>
        <path class="cls-35" d="M642.17,465.78c-23.06-3.47-46.4-4.74-69.71-4.44-6.55.08-13.12.29-19.63,1.13-.89.12-.96,1.42,0,1.44,11.61.26,23.24-.39,34.85-.24,11.62.15,23.23.61,34.82,1.47,6.51.48,13.03.96,19.53,1.57.52.05.65-.84.12-.92Z"/>
        <path class="cls-35" d="M642.69,478.72c-13.07-1.54-26.27-2.1-39.41-2.68-13-.57-26.01-.87-39.03-.64-7.36.13-14.8.29-22.11,1.22-.81.1-.87,1.32,0,1.32,6.57,0,13.13-.34,19.7-.46,6.57-.12,13.14-.11,19.71,0,13.02.21,26.03.72,39.03,1.4,7.37.39,14.73.78,22.11.81.64,0,.6-.89,0-.96Z"/>
        <path class="cls-35" d="M637.14,495.78c-12.3-1.6-24.81-2.04-37.2-2.23-12.42-.2-24.84.06-37.24.86-6.81.44-13.82.67-20.51,2.1-.65.14-.49,1.14.15,1.15,6.19.02,12.39-.8,18.56-1.2,6.2-.4,12.4-.67,18.61-.87,12.28-.4,24.57-.3,36.85.15,6.93.25,13.85.76,20.78,1.07.67.03.63-.93,0-1.01Z"/>
        <path class="cls-35" d="M780.67,122c-.34-2.23-.75-4.46-1.29-6.65-.53-2.14-.98-4.52-2.19-6.39-.33-.52-1.23-.34-1.2.33.07,2.11.83,4.19,1.3,6.24.5,2.2.96,4.41,1.34,6.64.75,4.43,1.13,8.94,1.6,13.41.07.69,1.03.71,1.09,0,.39-4.56.04-9.05-.64-13.57Z"/>
        <path class="cls-35" d="M815.16,106.04c-9.19,6.85-16.04,16.65-19.8,27.43-.18.52.67.89.9.38,4.68-10.2,11.59-19.01,19.96-26.44.73-.65-.26-1.97-1.06-1.37Z"/>
        <path class="cls-35" d="M836.37,138.41c-6.25-.73-12.7-.06-18.77,1.56-5.92,1.58-12.18,3.93-17.12,7.64-.47.35-.08,1.03.46.79,2.85-1.28,5.64-2.67,8.58-3.75,2.83-1.03,5.73-1.86,8.68-2.47,5.99-1.24,12.06-1.6,18.17-1.48,1.5.03,1.42-2.12,0-2.28Z"/>
        <path class="cls-35" d="M389.93,162.27c-1.82-1.2-3.64-2.44-5.19-3.97-4.5-5.1-7.44-11.56-8.4-18.3-.04-.25-.26-.36-.48-.35-.15-.56-.3-1.11-.45-1.67-.39-1.41-2.31-1.3-2.75,0-2.78,8.24-7.8,15.67-14.54,21.18-.51.42-.47,1.37,0,1.8,6.51,5.84,15.08,13.4,13.01,23.22-.3,1.41,1.81,2.52,2.48,1.04,1.82-4.02,4.08-7.88,6.83-11.34,2.73-3.45,5.81-6.89,9.37-9.49.23-.17.35-.38.39-.61.32-.44.31-1.14-.25-1.51ZM378.63,172.09c-1.8,2.16-3.42,4.45-4.84,6.86-1.2-7.59-7.1-13.81-12.86-18.9,5.42-4.84,9.8-10.71,12.82-17.29,1.2,4.07,2.7,8.12,4.81,11.73,2.16,3.7,5.29,7.54,9.37,9.2-3.39,2.5-6.58,5.12-9.3,8.39Z"/>
        <path class="cls-35" d="M409.07,131.9c-1.87-1.52-3.57-3.24-5.03-5.16-.72-.94-1.37-1.93-1.97-2.95-.55-.94-.94-2.05-1.69-2.86-.24-.26-.74-.07-.71.3,0,.06.02.12.02.18-.94-.62-2.1.23-1.58,1.34.56,1.21-2.2,2.96-2.9,3.53-1.56,1.27-3.2,2.4-4.9,3.47-.53.33-.76,1.21-.21,1.66,2.98,2.44,5.01,5.7,5.95,9.44.22.87,1.58,1.11,2,.26,2.06-4.15,6.06-7.03,10.64-7.73.64-.1.88-1.09.39-1.49ZM397.44,137.96c-1.03-2.73-2.7-5.2-4.85-7.18,1.86-1.24,3.67-2.57,5.39-4,.84-.69,2.15-1.91,2.53-3.14.14.27.29.54.43.8.58,1.09,1.22,2.15,1.93,3.16,1.09,1.56,2.32,3.02,3.68,4.35-3.65.86-6.88,2.99-9.11,6Z"/>
        <path class="cls-35" d="M363.99,129.9c-2.79-2.13-5.16-4.68-7.25-7.47.21-.39.38-.8.5-1.22.25-.84-.97-1.67-1.57-.91-.13.16-.25.33-.37.49-.44-.06-.89.36-.67.88-.64.84-1.3,1.67-2.12,2.38-1.22,1.05-2.7,1.86-4.25,2.27-.93.25-1,1.46-.26,1.95,2.61,1.72,4.12,4.76,4.05,7.87-.03,1.46,2.35,1.86,2.61.35.67-3.77,4.97-6.07,8.5-4.66.49.19,1.06-.17,1.25-.61.22-.52,0-1-.43-1.32ZM353.98,132.21c-.67-1.76-1.77-3.34-3.21-4.58,1.1-.5,2.14-1.11,3.11-1.89.7-.57,1.38-1.22,1.96-1.94,1.23,1.96,2.7,3.78,4.34,5.43-2.35.14-4.63,1.23-6.2,2.98Z"/>
        <path class="cls-35" d="M493.98,350.52c-.16-4.64-.46-9.28-.9-13.9-.89-9.26-2.37-18.45-4.43-27.53-1.17-5.16-2.52-10.27-4.05-15.33-.26-.86-1.59-.5-1.34.37,5.1,17.71,8.03,36.04,8.69,54.45.09,2.58.17,5.16.21,7.74.04,2.63-.14,5.32.15,7.93.08.69,1.2,1.01,1.34.18.39-2.21.35-4.52.38-6.76.03-2.38.03-4.77-.05-7.16Z"/>
        <path class="cls-23" d="M879.9,485.31c-.66.52-1.21,1.2-1.69,1.89-.24.34-.46.7-.66,1.06-.2.37-.41.77-.52,1.18-.08.31.36.5.52.22.2-.35.36-.73.55-1.08.19-.36.4-.71.62-1.04.45-.68,1-1.27,1.54-1.87.22-.25-.1-.54-.35-.35Z"/>
        <path class="cls-23" d="M881.48,499.81c-.46-.57-1.13-1.04-1.85-1.42.06-.3-.02-.61-.37-.76-2.25-.95-4.7-1.38-7.16-1.35-2.5-.09-4.97.4-7.26,1.47-.92.43-.26,2.05.7,1.67,2.14-.87,4.31-1.28,6.49-1.32.09,0,.19,0,.28,0,.03,0,.06,0,.08,0,.32.02.64.04.96.08,1.24.14,2.48.47,3.65.93.62.25,1.23.55,1.81.88.57.33,1.09.79,1.69,1.07.84.39,1.53-.54.96-1.25Z"/>
        <path class="cls-23" d="M913.26,501.25c-.05-.34-.12-.67-.24-.98-.03-.08-.08-.16-.14-.23-.02-.04-.05-.07-.08-.1-.08-.04-.16-.07-.22-.14-.02-.02-.02-.04-.04-.06-.05-.02-.08-.05-.14-.06-.07,0-.15,0-.22.01.04-.14.07-.28.11-.42-.02-.07-.02-.14-.02-.22,0-.02,0-.04,0-.06,0,0,0-.01,0-.02,0,0,0,0,0,0,0,.16-.02.33-.05.49-.16-2-1.49-3.89-3.44-4.55-1.82-.62-3.9-.03-5.25,1.29.48-2.61-.43-5.43-2.36-7.29-2.47-2.38-6.2-2.52-9.09-.81-1.39.82-2.51,2.03-3.17,3.5-1.15-2.64-3.14-4.85-5.57-6.36.3-.54.57-1.1.77-1.68.09-.27-.31-.43-.45-.19-.24.41-.47.83-.69,1.26.17-.63.29-1.27.34-1.92.03-.36-.51-.34-.55,0-.08.67-.22,1.33-.42,1.97-.86-.44-1.76-.81-2.69-1.07-4.37-1.22-9.03-.04-12.5,2.83-1.79,1.48-3.2,3.39-4.07,5.55-1.35-1.83-3.74-2.83-5.99-2.34-2.06.44-3.69,2.07-4.33,4.03-.91-1.76-2.74-2.98-4.73-3.18-2.41-.24-4.59,1.29-5.53,3.46-.12.27-.21.56-.29.84,0,.06-.02.12-.04.19-.01.05-.02.1-.03.15,0,0,0,0-.01,0-.16-.04-.34-.03-.48.06-.24.15-.47.31-.71.46-.03,0-.06,0-.09-.02-.1.05-.2.12-.28.22-.11.13-.23.26-.32.41-.02.04-.11.15,0,.02.16-.18-.13.17-.14.19-.11.14-.22.29-.32.44-.21.31-.39.64-.56.97-.36.73-.61,1.5-.74,2.31-.05.3-.05.57.11.84.13.23.39.44.65.5.54.12,1.22-.16,1.34-.76.04-.21.11-.42.17-.63.17.16.29.2.51.29.19.05.38.05.58,0,.14-.03.26-.1.37-.19.12-.08.21-.18.28-.3.04-.08.08-.16.1-.24.29.45.61.89.96,1.29.43.51.91.98,1.43,1.41.55.45,1.16.94,1.84,1.17.55.18.99-.58.56-.97-.46-.42-1-.73-1.48-1.13-.49-.41-.95-.86-1.37-1.34-.11-.12-.2-.25-.3-.37-.21-.28-.41-.56-.59-.86-.21-.35-.41-.72-.58-1.09-.08-.18-.15-.34-.22-.53-.02-.07-.05-.13-.07-.2-.39-2.4,1.07-5.04,3.46-5.74,2.58-.77,5.53.94,6.26,3.51.11.39.61.27.65-.09.27-2.15,1.97-4.02,4.09-4.47,2.18-.47,4.51.66,5.61,2.57.15.26.52.18.61-.08,1.41-4.05,4.88-7.24,8.97-8.47,3.25-.97,6.71-.54,9.66.99-.16.42-.33.83-.54,1.23-.3.57-.66,1.12-1.06,1.63-.21.27-.43.52-.67.76-.22.23-.49.42-.61.72,0,.02,0,.03,0,.04-.75.76-1.54,1.49-2.34,2.22-.28.26.09.76.41.54,1.52-1.07,2.83-2.53,3.96-4,.57-.74,1.1-1.51,1.57-2.32.06-.11.12-.21.18-.32.48.3.95.62,1.39.98,1.87,1.51,3.36,3.49,4.2,5.74.11.29.51.31.61,0,.9-2.93,3.88-4.94,6.89-5.01,3.15-.07,5.73,2.16,6.64,5.1.5,1.63.48,3.42-.23,4.98-.15.33.33.62.49.29.95-1.99,3.37-3.13,5.5-2.49,2.1.63,3.43,2.91,3.17,5.04-.08.38-.17.77-.25,1.15-.01.03-.03.06-.04.09,0,0,.01,0,.02,0-.11.54-.21,1.09-.28,1.64,0,.08.01.15.04.22,0,.02,0,.03,0,.05-.03.26.19.49.43.57-.02.21.06.41.26.53.27.16.59.05.76-.2.56-.86.77-1.93.69-2.96,0-.09,0-.19-.03-.28Z"/>
        <g id="_1402" data-name="1402">
          <g>
            <path class="cls-25" d="M347.12,519.53c.05-.16.08-.24.13-.4,4.2-11.27,1.11-21.69-2.67-32.36-.07-.18-.1-.27-.17-.45-.23-.84-.11-1.46.39-1.87.5-.41,1.09-.62,1.78-.62,1.44,0,2.55.64,3.28,1.94,4.59,8.48,5.88,16.85,4.75,24.24-.39,2.58-1.13,5.32-2.17,8.13-.4,1.08-1.07,1.9-1.96,2.42-.9.52-1.68.78-2.34.78-1.06,0-1.39-.6-1.03-1.81Z"/>
            <path class="cls-25" d="M360.3,523.18c-2.42-.74-3.54-1.83-3.42-3.3.11-1.48.27-2.71.54-3.68.35-1.31.91-2.7,1.65-4.17,1.59-3.21,3.16-6.05,4.92-8.45.82-1.11,1.23-1.87,1.27-2.27.04-.4.06-.62.06-.65-.01-.73-.61-1.6-1.82-2.61-2.02-1.6-3.22-2.88-3.53-3.85-.31-.97-.51-1.58-.55-1.86-.23-1.44.15-3.08,1.09-4.9,1.58-2.8,3.16-5.28,4.84-7.46.3-.38.67-.58,1.14-.58.26,0,.55.06.86.19.85.38,1.44.82,1.75,1.33.31.5.5.85.57,1.05.23.62.16,1.21-.2,1.77-1.33,1.71-2.51,3.04-3.46,3.95-1.47,1.25-2.14,2.32-1.97,3.21.16.85,1.52,2.5,3.86,4.96,1.13,1.21,1.73,2.6,1.77,4.17.03,1.18-.28,2.48-.96,3.89s-1.52,2.79-2.51,4.14c-.61.83-1.38,2-2.37,3.48-.99,1.49-1.62,2.58-1.82,3.29-.2.71-.32,1.1-.34,1.16-.33,1.24.09,2.05,1.31,2.45.37.1.74.15,1.12.15,1.58,0,3.74-1.16,6.23-3.56.9-.84,1.81-1.62,2.73-2.34.46-.31.91-.46,1.34-.46.46,0,.89.15,1.29.46.82.61,1.31,1.29,1.45,2.01.14.73.15,1.27.05,1.64-.15.54-.49,1.02-1.02,1.45-5.32,3.86-10.01,5.67-13.43,5.67-.83,0-1.64-.1-2.42-.29Z"/>
            <path class="cls-25" d="M384.22,518.34c-1.78-1.09-2.7-2.44-2.8-4.05-.1-1.61-.09-2.97.08-4.07.18-1.17.5-2.34.96-3.52.91-2.36,2.2-4.32,3.99-5.79,1.41-1.15,2.94-1.72,4.57-1.72,1.18,0,2.23.36,3.14,1.07.91.71,1.65,1.65,2.19,2.79.81,1.91,1.09,3.81.85,5.67-.17,1.28-.57,2.55-1.23,3.81-1.63,3.1-4.26,5.13-7.56,6.15-.63.17-1.23.25-1.81.25-.89,0-1.69-.2-2.4-.6ZM389.09,512.48c1.28-.92,2.38-2.18,3.2-3.76.58-1.13.88-2.06.93-2.75.03-.38,0-.69-.11-.94-.25-.63-.74-.94-1.46-.94-.95,0-1.93.39-2.96,1.15-.75.56-1.39,1.27-1.91,2.13-.52.87-.85,1.76-.99,2.69-.12.76-.12,1.72.2,2.31.26.47.88.77,1.4.77s1.08-.22,1.69-.66Z"/>
            <path class="cls-25" d="M403.58,520.41c.92-4.71.94-9.25.36-13.43-.58-4.17-2.02-8.5-4.36-12.84-.16-.34-.26-.67-.31-.98-.27-1.82.18-3.06,1.29-3.39,2.78-.83,5.83-1.53,8.31-2.54,2.48-1.01,4.97-2.2,7.43-3.55.21-.07.4-.1.57-.1.37,0,.75.1,1.13.3.62.3,1.13.78,1.53,1.44.13.23.22.47.29.7.11.4.14.8.07,1.21-.1.61-.42,1.01-.95,1.22-4.72,2.44-9.56,4.37-14.36,5.75,2.52,3.94,4.18,7.88,5.03,11.75.84,3.87,1.01,8.45-.35,12.3-.37,1.04-1.23,1.98-2.19,2.66-.96.68-1.82,1.02-2.57,1.02s-1.05-.5-.94-1.51Z"/>
          </g>
        </g>
      </g>
    </g>
  </g>
</svg>