<?xml version="1.0" encoding="UTF-8"?>
<svg id="BG" xmlns="http://www.w3.org/2000/svg" viewBox="0 0 1920 1080">
  <defs>
    <style>
      .cls-1, .cls-2, .cls-3 {
        stroke-width: 0px;
      }

      .cls-2 {
        fill: #e7eaf7;
      }

      .cls-3 {
        fill: #cbd3ef;
      }

      .cls-4 {
        opacity: .16;
      }
    </style>
  </defs>
  <rect class="cls-2" width="1920" height="1080"/>
  <g class="cls-4">
    <path class="cls-1" d="M900.49,1010.74h-3.28v-24.88h3.28v24.88Z"/>
    <path class="cls-1" d="M920.22,999.75h-10.44v10.99h-3.28v-24.88h15.42v2.68h-12.13v8.53h10.44v2.68Z"/>
    <path class="cls-1" d="M936.67,1004.22h-10.42l-2.34,6.51h-3.38l9.5-24.88h2.87l9.52,24.88h-3.37l-2.38-6.51ZM927.24,1001.54h8.46l-4.24-11.64-4.22,11.64Z"/>
    <path class="cls-1" d="M954.89,1000.67h-5.84v10.07h-3.3v-24.88h8.24c2.8,0,4.96.64,6.47,1.91,1.51,1.28,2.26,3.13,2.26,5.57,0,1.55-.42,2.9-1.26,4.05-.84,1.15-2,2.01-3.49,2.58l5.84,10.56v.21h-3.52l-5.4-10.07ZM949.05,997.99h5.04c1.63,0,2.92-.42,3.89-1.27s1.44-1.97,1.44-3.39c0-1.54-.46-2.72-1.38-3.54-.92-.82-2.24-1.24-3.97-1.25h-5.02v9.45Z"/>
    <path class="cls-1" d="M967.32,1010.74v-24.88h7.02c2.17,0,4.08.48,5.74,1.44s2.95,2.32,3.85,4.08c.91,1.77,1.36,3.79,1.38,6.08v1.59c0,2.35-.45,4.4-1.36,6.17-.91,1.77-2.2,3.12-3.88,4.07-1.68.95-3.64,1.43-5.87,1.45h-6.89ZM970.6,988.54v19.52h3.45c2.53,0,4.5-.79,5.9-2.36,1.41-1.57,2.11-3.81,2.11-6.72v-1.45c0-2.83-.66-5.03-1.99-6.59s-3.21-2.36-5.65-2.39h-3.83Z"/>
    <path class="cls-1" d="M988.1,1009.08c0-.55.16-1,.49-1.37.32-.36.81-.55,1.46-.55s1.14.18,1.48.55c.33.37.5.82.5,1.37s-.17.96-.5,1.32c-.34.35-.83.53-1.48.53s-1.14-.18-1.46-.53c-.33-.35-.49-.79-.49-1.32Z"/>
    <path class="cls-1" d="M1001.26,1010.74h-3.28v-24.88h3.28v24.88Z"/>
    <path class="cls-1" d="M1016.38,1000.67h-5.84v10.07h-3.3v-24.88h8.24c2.8,0,4.96.64,6.47,1.91,1.51,1.28,2.26,3.13,2.26,5.57,0,1.55-.42,2.9-1.26,4.05-.84,1.15-2,2.01-3.5,2.58l5.85,10.56v.21h-3.52l-5.4-10.07ZM1010.54,997.99h5.04c1.63,0,2.92-.42,3.89-1.27s1.44-1.97,1.44-3.39c0-1.54-.46-2.72-1.38-3.54-.92-.82-2.24-1.24-3.97-1.25h-5.02v9.45Z"/>
  </g>
  <path class="cls-3" d="M913.22,461.95c0-8.58,7.02-15.59,15.59-15.59s15.59,7.02,15.59,15.59-7.02,15.59-15.59,15.59-15.59-7.02-15.59-15.59ZM1147.13,454.15v109.16c0,38.67-31.5,70.17-70.17,70.17h-155.94c-38.67,0-70.17-31.5-70.17-70.17v-109.16c0-38.67,31.5-70.17,70.17-70.17h155.94c38.67,0,70.17,31.5,70.17,70.17ZM880.16,599.49l96.22-96.22c12.79-12.79,33.53-12.79,46.32,0l16.22,16.22c6.55,6.39,17.78,6.55,24.17,0l68.46-68.46c-1.56-28.69-25.42-51.46-54.42-51.46h-156.1c-30.1,0-54.58,24.48-54.58,54.58v109.16c0,13.88,5.15,26.51,13.72,36.18ZM1131.54,563.31v-90.29l-57.54,57.54c-12.32,12.32-34,12.32-46.32,0l-16.22-16.22c-6.71-6.71-17.62-6.71-24.17,0l-95.28,95.28c8.42,5.3,18.4,8.42,29.01,8.42h155.94c30.1,0,54.58-24.48,54.58-54.58v-.16ZM1035.01,666.55c-9.98,8.73-22.77,13.72-36.02,13.72h-155.94c-30.1,0-54.58-24.48-54.58-54.58v-109.16c0-19.49,10.45-37.58,27.29-47.25,3.74-2.18,4.99-6.86,2.81-10.6-2.18-3.74-6.86-4.99-10.6-2.81-21.68,12.48-35.09,35.87-35.09,60.82v109.16c0,38.67,31.5,70.17,70.17,70.17h155.94c17.15,0,33.53-6.24,46.47-17.47,3.27-2.81,3.59-7.8.62-11.07s-7.8-3.59-11.07-.62v-.31Z"/>
</svg>