<?xml version="1.0" encoding="UTF-8"?>
<svg id="BG" xmlns="http://www.w3.org/2000/svg" viewBox="0 0 1920 1080">
  <defs>
    <style>
      .cls-1 {
        fill: #dae1f7;
      }

      .cls-1, .cls-2, .cls-3, .cls-4 {
        stroke-width: 0px;
      }

      .cls-5 {
        fill: #d8ddef;
        stroke: #818699;
        stroke-miterlimit: 10;
        stroke-width: 1.14px;
      }

      .cls-2 {
        fill: #818699;
      }

      .cls-3 {
        fill: #e8ebf7;
      }

      .cls-4 {
        fill: #cad4ef;
      }
    </style>
  </defs>
  <rect class="cls-3" width="1920" height="1080"/>
  <polygon class="cls-1" points="836.8 1080 0 1080 0 0 1151.13 0 836.8 1080"/>
  <path class="cls-4" d="M421.27,399.01c0-11.73,9.6-21.33,21.33-21.33s21.33,9.6,21.33,21.33-9.6,21.33-21.33,21.33-21.33-9.6-21.33-21.33ZM741.27,388.35v149.33c0,52.91-43.09,96-96,96h-213.33c-52.91,0-96-43.09-96-96v-149.33c0-52.91,43.09-96,96-96h213.33c52.91,0,96,43.09,96,96ZM376.05,587.17l131.63-131.63c17.49-17.49,45.87-17.49,63.36,0l22.19,22.19c8.96,8.75,24.32,8.96,33.07,0l93.65-93.65c-2.13-39.25-34.77-70.4-74.45-70.4h-213.55c-41.17,0-74.67,33.49-74.67,74.67v149.33c0,18.99,7.04,36.27,18.77,49.49ZM719.94,537.68v-123.52l-78.72,78.72c-16.85,16.85-46.51,16.85-63.36,0l-22.19-22.19c-9.17-9.17-24.11-9.17-33.07,0l-130.35,130.35c11.52,7.25,25.17,11.52,39.68,11.52h213.33c41.17,0,74.67-33.49,74.67-74.67v-.21ZM587.89,678.91c-13.65,11.95-31.15,18.77-49.28,18.77h-213.33c-41.17,0-74.67-33.49-74.67-74.67v-149.33c0-26.67,14.29-51.41,37.33-64.64,5.12-2.99,6.83-9.39,3.84-14.51-2.99-5.12-9.39-6.83-14.51-3.84-29.65,17.07-48,49.07-48,83.2v149.33c0,52.91,43.09,96,96,96h213.33c23.47,0,45.87-8.53,63.57-23.89,4.48-3.84,4.91-10.67.85-15.15s-10.67-4.91-15.15-.85v-.43Z"/>
  <g id="_سایت" data-name="سایت">
    <g>
      <path class="cls-2" d="M1543.01,927.97h2v19.78h-2v-19.78Z"/>
      <path class="cls-2" d="M1550.19,927.97h12.24v1.67h-10.26v7.37h8.9v1.67h-8.9v9.07h-1.97v-19.78Z"/>
      <path class="cls-2" d="M1568.82,927.97h1.81l7.54,19.78h-2.06l-2-5.42h-8.76l-1.97,5.42h-2.03l7.48-19.78ZM1573.5,940.65l-3.75-10.24-3.75,10.24h7.51Z"/>
      <path class="cls-2" d="M1580.95,927.97h6.48c1.43,0,2.65.23,3.66.68,1.01.45,1.78,1.12,2.32,1.99.54.87.81,1.94.81,3.2s-.36,2.37-1.08,3.32c-.72.96-1.7,1.62-2.92,1.99l4.87,8.43v.17h-2.11l-4.64-8.15h-5.37v8.15h-2v-19.78ZM1590.07,937.41c.69-.34,1.22-.82,1.6-1.45.38-.62.57-1.33.57-2.13,0-1.34-.42-2.36-1.25-3.09-.83-.72-2.01-1.09-3.53-1.11h-4.51v8.29h4.76c.89,0,1.68-.17,2.36-.51Z"/>
      <path class="cls-2" d="M1598.5,927.97h5.54c1.5,0,2.9.34,4.19,1.02s2.33,1.7,3.13,3.06c.8,1.36,1.21,3.04,1.22,5.05v1.56c0,1.83-.36,3.44-1.08,4.81-.72,1.37-1.73,2.42-3.03,3.16s-2.79,1.11-4.48,1.13h-5.48v-19.78ZM1607.23,945.27c1.02-.54,1.84-1.36,2.45-2.48.61-1.11.92-2.49.92-4.14v-1.61c0-1.32-.22-2.52-.67-3.62-.45-1.09-1.15-1.99-2.11-2.68s-2.2-1.06-3.7-1.1h-3.64v16.44h3.39c1.22,0,2.35-.27,3.37-.81Z"/>
      <path class="cls-2" d="M1615.58,947.3c-.3-.3-.45-.65-.45-1.06s.15-.79.45-1.08.66-.44,1.08-.44.76.15,1.06.44c.3.3.44.66.44,1.08s-.15.78-.44,1.07c-.3.29-.65.43-1.06.43s-.79-.15-1.08-.45Z"/>
      <path class="cls-2" d="M1623.23,927.97h2v19.78h-2v-19.78Z"/>
      <path class="cls-2" d="M1630.35,927.97h6.48c1.43,0,2.65.23,3.66.68,1.01.45,1.78,1.12,2.32,1.99.54.87.81,1.94.81,3.2s-.36,2.37-1.08,3.32c-.72.96-1.7,1.62-2.92,1.99l4.87,8.43v.17h-2.11l-4.64-8.15h-5.37v8.15h-2v-19.78ZM1639.47,937.41c.69-.34,1.22-.82,1.6-1.45.38-.62.57-1.33.57-2.13,0-1.34-.42-2.36-1.25-3.09-.83-.72-2.01-1.09-3.53-1.11h-4.51v8.29h4.76c.89,0,1.68-.17,2.36-.51Z"/>
    </g>
    <g>
      <path class="cls-2" d="M1548.33,889.59c.67,1.04,1.16,1.81,1.49,2.32s.8,1.26,1.43,2.24c.5.78.78,1.62.85,2.53.06.91-.12,1.66-.54,2.25-.48.71-1.09,1.2-1.83,1.47-.74.28-1.55.42-2.42.42h-1.5c-1,0-1.89-.14-2.67-.43-.78-.29-1.41-.62-1.89-.99l.92-1.64.11.08c.41.28.88.52,1.43.72.55.2,1.25.31,2.1.31h1.5c.69,0,1.27-.08,1.74-.24.47-.16.85-.43,1.13-.82.22-.32.31-.69.25-1.13s-.26-.93-.61-1.49c-1.72-2.71-3.13-4.89-4.23-6.54l1.45-1.06,1.31,1.97Z"/>
      <path class="cls-2" d="M1560.15,892.4v7.98c0,1.61-.27,2.98-.82,4.09s-1.35,1.95-2.42,2.52c-1.07.56-2.36.85-3.88.85h-1.75v-1.95h1.75c1.26,0,2.29-.19,3.07-.57.79-.38,1.37-.97,1.75-1.78.38-.81.57-1.86.57-3.16v-7.98h1.72ZM1560.84,898.35c.46.35,1.08.53,1.84.53h.28l.14,1-.14.95h-.28c-.58,0-1.13-.12-1.67-.38-.54-.25-.99-.7-1.35-1.34s-.54-1.5-.54-2.57h1.03c0,.85.23,1.46.7,1.81Z"/>
      <path class="cls-2" d="M1562.68,898.88h4.51c1.37-.02,2.39-.15,3.04-.4.66-.25,1.1-.65,1.32-1.21.22-.56.33-1.38.33-2.47v-2.84c0-.91-.23-1.63-.7-2.17-.46-.54-1.13-.81-2-.81-.8,0-1.45.28-1.95.83-.5.56-.75,1.27-.75,2.14,0,.82.23,1.44.7,1.86.46.43,1.13.64,2,.64h3.62v1.95h-3.62c-.82,0-1.56-.19-2.22-.56-.67-.37-1.2-.89-1.6-1.57-.4-.68-.6-1.45-.6-2.32s.2-1.69.6-2.45c.4-.76.94-1.36,1.63-1.81.69-.45,1.42-.67,2.2-.67.85,0,1.62.22,2.29.67.68.45,1.2,1.04,1.57,1.79s.56,1.57.56,2.46v2.84c0,1.37-.2,2.49-.58,3.37-.39.87-1.06,1.53-2.02,1.99-.96.46-2.28.68-3.96.68h-4.37v-1.95ZM1569.18,882h1.22v2.48h-2.48v-2.48h1.25Z"/>
      <path class="cls-2" d="M1586.07,900.16c-.74-.44-1.3-1.05-1.67-1.82-.37-.77-.51-1.59-.42-2.46.07-.74.37-2.23.89-4.48l1.64.42-.11.53c-.44,1.87-.7,3.11-.75,3.7-.09.85.13,1.54.65,2.06.53.52,1.3.78,2.32.78h10.37c1.02,0,1.8-.23,2.35-.68s.79-1.02.72-1.71c-.06-.69-.42-1.35-1.07-2l-5.54-5.51.53-2.28,9.43-4.14.7,1.78-8.82,3.89,4.92,4.9c.95.95,1.44,2.03,1.47,3.25s-.37,2.27-1.22,3.14c-.85.87-2.01,1.31-3.48,1.31h-10.37c-.96,0-1.82-.22-2.56-.67ZM1596.33,883.67l7.68-3.37.39.97-8.23,3.59.17-1.2Z"/>
      <path class="cls-2" d="M1607.65,898.88h7.68c.8,0,1.44-.19,1.93-.57.49-.38.74-1.04.74-1.99v-13.54h1.7v13.54c0,1.06-.23,1.92-.7,2.6s-1.02,1.16-1.67,1.46c-.65.3-1.27.45-1.86.45h-7.82v-1.95ZM1608.6,883.25l1.72-.14.81,13.49-1.72.11-.81-13.46ZM1620.38,900.38c-.62-.3-1.15-.78-1.57-1.45-.43-.67-.64-1.54-.64-2.61h1.53c0,.91.23,1.56.7,1.96.46.4,1.08.6,1.84.6h.83l.11.97-.11.97h-.83c-.61,0-1.23-.15-1.85-.45Z"/>
      <path class="cls-2" d="M1623.34,898.88h3c.96,0,1.65-.22,2.06-.67.41-.45.6-1.02.58-1.72-.02-.54-.12-1.28-.29-2.24-.18-.95-.37-1.91-.57-2.85l1.67-.45c.22.95.43,1.94.61,2.98.18,1.04.29,1.87.31,2.5.02.72-.12,1.42-.43,2.1-.31.68-.79,1.23-1.46,1.66-.67.43-1.49.64-2.47.64h-3v-1.95ZM1625.45,904.81h1.22v2.48h-2.47v-2.48h1.25Z"/>
      <path class="cls-2" d="M1640.29,905.39c.75-.33,1.28-.84,1.58-1.52.31-.68.46-1.55.46-2.63v-5.45c0-1.26-.28-2.24-.85-2.95-.57-.7-1.39-1.06-2.46-1.06-1,0-1.79.37-2.36,1.1-.58.73-.86,1.7-.86,2.91,0,1.09.27,1.88.81,2.35.54.47,1.35.71,2.45.71h4v1.95h-4c-1.48,0-2.68-.43-3.6-1.29s-1.38-2.1-1.38-3.71c0-1.11.21-2.12.63-3.02s1-1.61,1.75-2.14,1.61-.79,2.57-.79c1.02,0,1.91.25,2.67.75.76.5,1.34,1.2,1.75,2.1.41.9.61,1.93.61,3.1v5.45c0,1.33-.23,2.49-.68,3.48-.46.98-1.19,1.75-2.21,2.29-1.02.55-2.35.82-3.98.82h-2.75v-1.95h2.75c1.32,0,2.35-.17,3.1-.5Z"/>
    </g>
    <path class="cls-5" d="M1714.05,867.61c-33.77,0-46.16,12.39-46.16,46.16s12.39,46.16,46.16,46.16c33.77,0,46.16-12.39,46.16-46.16,0-33.77-12.39-46.16-46.16-46.16"/>
    <path class="cls-2" d="M1740.96,901.1c-14.9,0-26.98,12.08-26.98,26.98v-.17c0-16.57-13.43-30-30-30h-1.74v1.74c0,16,12.53,29.08,28.32,29.95v30.33h6.18v-30.31c14.34-.63,25.78-12.45,25.78-26.95v-1.56h-1.56Z"/>
  </g>
</svg>