<?xml version="1.0" encoding="UTF-8"?>
<svg id="BG" xmlns="http://www.w3.org/2000/svg" xmlns:xlink="http://www.w3.org/1999/xlink" viewBox="0 0 1920 1080">
  <defs>
    <style>
      .cls-1, .cls-2 {
        fill: #4e57af;
      }

      .cls-3 {
        fill: #dae1f7;
      }

      .cls-3, .cls-4, .cls-2, .cls-5, .cls-6, .cls-7, .cls-8 {
        stroke-width: 0px;
      }

      .cls-4 {
        fill: #d2d7ff;
      }

      .cls-5 {
        fill: #e9ecff;
      }

      .cls-6 {
        fill: #e8ebf7;
      }

      .cls-7 {
        fill: #5e6abf;
      }

      .cls-9 {
        clip-path: url(#clippath);
      }

      .cls-8 {
        fill: #cad4ef;
      }
    </style>
    <clipPath id="clippath">
      <path class="cls-2" d="M1716.15,879.79c-25.04,0-34.23,9.19-34.23,34.23s9.19,34.23,34.23,34.23c25.04,0,34.23-9.19,34.23-34.23,0-25.04-9.19-34.23-34.23-34.23"/>
    </clipPath>
  </defs>
  <rect class="cls-6" width="1920" height="1080"/>
  <polygon class="cls-3" points="836.8 1080 0 1080 0 0 1151.13 0 836.8 1080"/>
  <path class="cls-8" d="M421.27,399.01c0-11.73,9.6-21.33,21.33-21.33s21.33,9.6,21.33,21.33-9.6,21.33-21.33,21.33-21.33-9.6-21.33-21.33ZM741.27,388.35v149.33c0,52.91-43.09,96-96,96h-213.33c-52.91,0-96-43.09-96-96v-149.33c0-52.91,43.09-96,96-96h213.33c52.91,0,96,43.09,96,96ZM376.05,587.17l131.63-131.63c17.49-17.49,45.87-17.49,63.36,0l22.19,22.19c8.96,8.75,24.32,8.96,33.07,0l93.65-93.65c-2.13-39.25-34.77-70.4-74.45-70.4h-213.55c-41.17,0-74.67,33.49-74.67,74.67v149.33c0,18.99,7.04,36.27,18.77,49.49ZM719.94,537.68v-123.52l-78.72,78.72c-16.85,16.85-46.51,16.85-63.36,0l-22.19-22.19c-9.17-9.17-24.11-9.17-33.07,0l-130.35,130.35c11.52,7.25,25.17,11.52,39.68,11.52h213.33c41.17,0,74.67-33.49,74.67-74.67v-.21ZM587.89,678.91c-13.65,11.95-31.15,18.77-49.28,18.77h-213.33c-41.17,0-74.67-33.49-74.67-74.67v-149.33c0-26.67,14.29-51.41,37.33-64.64,5.12-2.99,6.83-9.39,3.84-14.51-2.99-5.12-9.39-6.83-14.51-3.84-29.65,17.07-48,49.07-48,83.2v149.33c0,52.91,43.09,96,96,96h213.33c23.47,0,45.87-8.53,63.57-23.89,4.48-3.84,4.91-10.67.85-15.15s-10.67-4.91-15.15-.85v-.43Z"/>
  <g id="_لوگو" data-name="لوگو">
    <g>
      <path class="cls-7" d="M1564.42,925.51h1.89v18.63h-1.89v-18.63Z"/>
      <path class="cls-7" d="M1571.18,925.51h11.53v1.57h-9.67v6.94h8.39v1.57h-8.39v8.54h-1.86v-18.63Z"/>
      <path class="cls-7" d="M1588.74,925.51h1.7l7.1,18.63h-1.94l-1.89-5.11h-8.25l-1.86,5.11h-1.91l7.05-18.63ZM1593.15,937.46l-3.54-9.64-3.54,9.64h7.08Z"/>
      <path class="cls-7" d="M1600.17,925.51h6.11c1.35,0,2.49.21,3.45.64.95.43,1.68,1.05,2.19,1.87.51.82.76,1.83.76,3.01s-.34,2.23-1.02,3.13c-.68.9-1.6,1.52-2.75,1.87l4.59,7.94v.16h-1.99l-4.38-7.68h-5.06v7.68h-1.89v-18.63ZM1608.76,934.41c.65-.32,1.15-.78,1.51-1.36.36-.59.54-1.25.54-2,0-1.26-.39-2.23-1.18-2.91s-1.9-1.03-3.33-1.05h-4.25v7.81h4.48c.84,0,1.58-.16,2.23-.48Z"/>
      <path class="cls-7" d="M1616.7,925.51h5.21c1.42,0,2.73.32,3.94.96,1.21.64,2.2,1.6,2.95,2.88s1.14,2.87,1.15,4.76v1.47c0,1.73-.34,3.24-1.02,4.53-.68,1.29-1.63,2.29-2.86,2.97-1.22.69-2.63,1.04-4.22,1.06h-5.16v-18.63ZM1624.93,941.81c.96-.51,1.73-1.28,2.31-2.33.58-1.05.86-2.35.86-3.9v-1.52c0-1.24-.21-2.38-.63-3.41-.42-1.03-1.08-1.87-1.99-2.53s-2.07-1-3.49-1.04h-3.43v15.49h3.2c1.15,0,2.21-.25,3.17-.76Z"/>
      <path class="cls-7" d="M1632.79,943.72c-.28-.28-.42-.61-.42-1s.14-.74.42-1.02.62-.42,1.02-.42.72.14,1,.42c.28.28.42.62.42,1.02s-.14.74-.42,1.01c-.28.27-.61.41-1,.41s-.74-.14-1.02-.42Z"/>
      <path class="cls-7" d="M1640,925.51h1.89v18.63h-1.89v-18.63Z"/>
      <path class="cls-7" d="M1646.71,925.51h6.11c1.35,0,2.49.21,3.45.64.95.43,1.68,1.05,2.19,1.87.51.82.76,1.83.76,3.01s-.34,2.23-1.02,3.13c-.68.9-1.6,1.52-2.75,1.87l4.59,7.94v.16h-1.99l-4.38-7.68h-5.06v7.68h-1.89v-18.63ZM1655.3,934.41c.65-.32,1.15-.78,1.51-1.36.36-.59.54-1.25.54-2,0-1.26-.39-2.23-1.18-2.91s-1.9-1.03-3.33-1.05h-4.25v7.81h4.48c.84,0,1.58-.16,2.23-.48Z"/>
    </g>
    <g>
      <path class="cls-7" d="M1569.43,893.12c.63.98,1.1,1.71,1.4,2.19s.76,1.18,1.35,2.11c.47.73.74,1.53.8,2.38.06.86-.11,1.56-.51,2.12-.45.66-1.03,1.13-1.73,1.39-.7.26-1.46.39-2.28.39h-1.42c-.94,0-1.78-.13-2.52-.41-.73-.27-1.33-.58-1.78-.93l.86-1.55.11.08c.38.26.83.49,1.35.68.51.19,1.17.29,1.98.29h1.42c.65,0,1.19-.07,1.64-.22.45-.15.8-.41,1.06-.77.21-.3.29-.65.24-1.06-.05-.41-.25-.88-.58-1.4-1.62-2.55-2.95-4.6-3.98-6.16l1.36-1,1.23,1.86Z"/>
      <path class="cls-7" d="M1580.57,895.77v7.52c0,1.52-.26,2.8-.77,3.85-.52,1.05-1.28,1.84-2.28,2.37-1,.53-2.22.8-3.66.8h-1.65v-1.83h1.65c1.19,0,2.15-.18,2.9-.54.74-.36,1.29-.92,1.65-1.68.36-.76.54-1.75.54-2.97v-7.52h1.62ZM1581.22,901.38c.44.33,1.01.5,1.73.5h.26l.13.94-.13.89h-.26c-.54,0-1.07-.12-1.57-.35-.51-.24-.93-.66-1.27-1.26-.34-.6-.51-1.41-.51-2.42h.97c0,.8.22,1.37.66,1.7Z"/>
      <path class="cls-7" d="M1582.95,901.88h4.25c1.29-.02,2.25-.14,2.87-.38.62-.24,1.04-.62,1.25-1.14s.31-1.3.31-2.33v-2.67c0-.86-.22-1.54-.66-2.04s-1.07-.76-1.89-.76c-.75,0-1.36.26-1.83.79-.47.52-.71,1.2-.71,2.02,0,.77.22,1.35.66,1.76.44.4,1.07.6,1.89.6h3.41v1.83h-3.41c-.77,0-1.47-.17-2.1-.52s-1.13-.84-1.51-1.48c-.38-.64-.56-1.37-.56-2.19s.19-1.59.56-2.31c.38-.72.89-1.28,1.53-1.7s1.34-.63,2.07-.63c.8,0,1.52.21,2.16.63s1.13.98,1.48,1.69c.35.71.52,1.48.52,2.32v2.67c0,1.29-.18,2.35-.55,3.17-.37.82-1,1.45-1.9,1.87-.9.43-2.14.64-3.73.64h-4.11v-1.83ZM1589.08,885.97h1.15v2.33h-2.33v-2.33h1.18Z"/>
      <path class="cls-7" d="M1604.99,903.08c-.7-.42-1.22-.99-1.57-1.72-.35-.72-.48-1.5-.39-2.32.07-.7.35-2.1.84-4.22l1.55.39-.1.5c-.42,1.77-.66,2.93-.71,3.49-.09.8.12,1.45.62,1.94.5.49,1.23.73,2.19.73h9.77c.96,0,1.7-.21,2.21-.64.51-.43.74-.96.68-1.61s-.4-1.28-1.01-1.89l-5.21-5.19.5-2.15,8.88-3.9.66,1.68-8.31,3.67,4.64,4.61c.89.89,1.35,1.91,1.39,3.07.04,1.15-.35,2.14-1.15,2.96s-1.9,1.23-3.28,1.23h-9.77c-.91,0-1.71-.21-2.41-.63ZM1614.66,887.54l7.23-3.17.37.92-7.76,3.38.16-1.13Z"/>
      <path class="cls-7" d="M1625.33,901.88h7.23c.75,0,1.36-.18,1.82-.54.46-.36.69-.98.69-1.87v-12.76h1.6v12.76c0,1-.22,1.81-.66,2.45s-.96,1.1-1.57,1.38-1.2.42-1.76.42h-7.36v-1.83ZM1626.22,887.15l1.62-.13.76,12.71-1.62.1-.76-12.68ZM1637.31,903.29c-.58-.28-1.08-.73-1.48-1.36-.4-.63-.6-1.45-.6-2.46h1.44c0,.86.22,1.47.66,1.85s1.01.56,1.73.56h.79l.1.92-.1.92h-.79c-.58,0-1.16-.14-1.74-.42Z"/>
      <path class="cls-7" d="M1640.11,901.88h2.83c.91,0,1.55-.21,1.94-.63.38-.42.57-.96.55-1.62-.02-.51-.11-1.21-.28-2.11-.17-.9-.34-1.8-.54-2.69l1.57-.42c.21.89.4,1.83.58,2.8.17.98.27,1.76.29,2.36.02.68-.12,1.34-.41,1.98s-.75,1.16-1.38,1.56-1.41.6-2.33.6h-2.83v-1.83ZM1642.1,907.46h1.15v2.33h-2.33v-2.33h1.18Z"/>
      <path class="cls-7" d="M1656.08,908.01c.71-.31,1.21-.79,1.49-1.43s.43-1.46.43-2.48v-5.14c0-1.19-.27-2.11-.8-2.78s-1.31-1-2.32-1c-.94,0-1.69.34-2.23,1.04-.54.69-.81,1.6-.81,2.74,0,1.03.25,1.77.76,2.21.51.45,1.27.67,2.31.67h3.77v1.83h-3.77c-1.4,0-2.53-.41-3.39-1.22s-1.3-1.98-1.3-3.5c0-1.05.2-2,.59-2.84.39-.85.94-1.52,1.65-2.02.71-.5,1.52-.75,2.42-.75.96,0,1.8.24,2.52.71.72.47,1.27,1.13,1.65,1.98.38.85.58,1.82.58,2.92v5.14c0,1.26-.21,2.35-.64,3.28-.43.93-1.12,1.65-2.08,2.16-.96.51-2.21.77-3.75.77h-2.59v-1.83h2.59c1.24,0,2.21-.16,2.92-.47Z"/>
    </g>
    <g>
      <path class="cls-1" d="M1716.15,879.79c-25.04,0-34.23,9.19-34.23,34.23s9.19,34.23,34.23,34.23c25.04,0,34.23-9.19,34.23-34.23,0-25.04-9.19-34.23-34.23-34.23"/>
      <g class="cls-9">
        <path class="cls-4" d="M1698.27,903.91h-3.14c-1.85,0-3.36,1.5-3.36,3.36h0c0,11.56,9.37,20.94,20.94,20.94h.34v20.03h6.16v-23.39c0-11.56-9.37-20.94-20.94-20.94Z"/>
        <path class="cls-5" d="M1737.17,897.9h-3.14c-7.61,0-14.27,4.06-17.94,10.13,2.02,2.13,3.61,4.58,4.76,7.28.9,2.14,1.49,4.37,1.76,6.66,10.13-1.46,17.92-10.18,17.92-20.72h0c0-1.85-1.5-3.36-3.36-3.36Z"/>
      </g>
    </g>
  </g>
</svg>