<?xml version="1.0" encoding="UTF-8"?>
<svg id="Layer_2" data-name="Layer 2" xmlns="http://www.w3.org/2000/svg" xmlns:xlink="http://www.w3.org/1999/xlink" viewBox="0 0 1200 600">
  <defs>
    <linearGradient id="linear-gradient" x1="399.83" y1="299" x2="763.73" y2="299" gradientUnits="userSpaceOnUse">
      <stop offset="0" stop-color="#9280e8"/>
      <stop offset=".01" stop-color="#917fe8"/>
      <stop offset=".6" stop-color="#866be8"/>
      <stop offset=".99" stop-color="#8364e8"/>
    </linearGradient>
    <linearGradient id="linear-gradient-2" x1="392.06" y1="118.44" x2="410.38" y2="118.44" xlink:href="#linear-gradient"/>
    <linearGradient id="linear-gradient-3" x1="392.06" y1="479.56" x2="410.38" y2="479.56" xlink:href="#linear-gradient"/>
    <linearGradient id="linear-gradient-4" x1="753.18" y1="118.44" x2="771.5" y2="118.44" xlink:href="#linear-gradient"/>
    <linearGradient id="linear-gradient-5" x1="753.18" y1="479.56" x2="771.5" y2="479.56" xlink:href="#linear-gradient"/>
    <linearGradient id="linear-gradient-6" x1="571.7" y1="300.81" x2="694.77" y2="300.81" gradientUnits="userSpaceOnUse">
      <stop offset="0" stop-color="#d397fa"/>
      <stop offset=".05" stop-color="#ce95f8"/>
      <stop offset=".44" stop-color="#ad89ef"/>
      <stop offset=".77" stop-color="#9982ea"/>
      <stop offset=".99" stop-color="#9280e8"/>
    </linearGradient>
    <linearGradient id="linear-gradient-7" x1="438.92" y1="297.63" x2="584.25" y2="297.63" gradientUnits="userSpaceOnUse">
      <stop offset="0" stop-color="#8364e8"/>
      <stop offset="1" stop-color="#d397fa"/>
    </linearGradient>
    <linearGradient id="linear-gradient-8" x1="715.69" y1="409.36" x2="820.64" y2="409.36" gradientUnits="userSpaceOnUse">
      <stop offset="0" stop-color="#edcc29"/>
      <stop offset="1" stop-color="#ffe14d"/>
    </linearGradient>
  </defs>
  <g id="cover">
    <rect x="401.22" y="118.44" width="361.12" height="361.12" style="fill: #fbfaff; stroke: url(#linear-gradient); stroke-miterlimit: 10; stroke-width: 2.77px;"/>
    <circle cx="401.22" cy="118.44" r="7.77" style="fill: #fbfaff; stroke: url(#linear-gradient-2); stroke-miterlimit: 10; stroke-width: 2.77px;"/>
    <circle cx="401.22" cy="479.56" r="7.77" style="fill: #fbfaff; stroke: url(#linear-gradient-3); stroke-miterlimit: 10; stroke-width: 2.77px;"/>
    <circle cx="762.34" cy="118.44" r="7.77" style="fill: #fbfaff; stroke: url(#linear-gradient-4); stroke-miterlimit: 10; stroke-width: 2.77px;"/>
    <circle cx="762.34" cy="479.56" r="7.77" style="fill: #fbfaff; stroke: url(#linear-gradient-5); stroke-miterlimit: 10; stroke-width: 2.77px;"/>
  </g>
  <g>
    <g id="Ai">
      <path d="M642.58,430.1c-1.16,0-2.26-.56-2.98-1.52l-18.1-24.25h-45.21c-2.09,0-3.79-1.79-3.79-3.99s1.69-3.99,3.79-3.99h47.05c1.16,0,2.26.56,2.97,1.52l19.24,25.78c1.29,1.73,1.01,4.24-.63,5.61-.67.55-1.49.85-2.34.85h0ZM626.57,373.29h-47.05c-2.09,0-3.79-1.79-3.79-3.99s1.69-3.99,3.79-3.99h47.05c2.09,0,3.79,1.79,3.79,3.99s-1.69,3.99-3.79,3.99ZM644.71,336.81h-60.33c-2.09,0-3.79-1.79-3.79-3.99s1.69-3.99,3.79-3.99h60.33c2.09,0,3.79,1.79,3.79,3.99s-1.69,3.99-3.79,3.99ZM639.32,302.15h-57.48c-2.09,0-3.79-1.79-3.79-3.99s1.69-3.99,3.79-3.99h57.48c2.09,0,3.79,1.79,3.79,3.99s-1.69,3.99-3.79,3.99ZM690.99,321.72c-1,0-1.97-.42-2.68-1.17l-50.31-53.05h-62.52c-2.09,0-3.79-1.79-3.79-3.99s1.69-3.99,3.79-3.99h64.09c1,0,1.97.42,2.68,1.17l51.42,54.22c1.48,1.56,1.48,4.09,0,5.65-.71.75-1.67,1.17-2.67,1.17h0ZM690.12,233.89h-112.22c-2.09,0-3.79-1.79-3.79-3.99s1.69-3.99,3.79-3.99h112.22c2.09,0,3.79,1.79,3.79,3.99s-1.69,3.99-3.79,3.99h0ZM656.54,198.96h-64.09c-2.09,0-3.79-1.79-3.79-3.99s1.69-3.99,3.79-3.99h62.52l17.33-18.27c1.48-1.56,3.88-1.56,5.35,0,1.48,1.56,1.48,4.09,0,5.65l-18.43,19.44c-.71.75-1.67,1.17-2.68,1.17h0Z" style="fill: url(#linear-gradient-6); stroke-width: 0px;"/>
      <g>
        <g>
          <circle cx="634.69" cy="369.3" r="11.83" style="fill: #8364e8; stroke-width: 0px;"/>
          <circle cx="647.39" cy="435.11" r="11.83" style="fill: #8364e8; stroke-width: 0px;"/>
          <circle cx="653.81" cy="332.82" r="11.83" style="fill: #8364e8; stroke-width: 0px;"/>
          <circle cx="699.15" cy="326.09" r="11.83" style="fill: #8364e8; stroke-width: 0px;"/>
          <circle cx="688.22" cy="267.58" r="11.83" style="fill: #8364e8; stroke-width: 0px;"/>
          <circle cx="677.99" cy="386.04" r="11.83" style="fill: #8364e8; stroke-width: 0px;"/>
          <circle cx="701.7" cy="229.9" r="11.83" style="fill: #8364e8; stroke-width: 0px;"/>
          <circle cx="681.69" cy="166.64" r="11.83" style="fill: #8364e8; stroke-width: 0px;"/>
          <circle cx="636.44" cy="297.78" r="11.83" style="fill: #8364e8; stroke-width: 0px;"/>
        </g>
        <g>
          <circle cx="634.69" cy="369.3" r="11.83" style="fill: #9280e8; stroke-width: 0px;"/>
          <circle cx="647.39" cy="435.11" r="11.83" style="fill: #9280e8; stroke-width: 0px;"/>
          <circle cx="653.81" cy="332.82" r="11.83" style="fill: #9280e8; stroke-width: 0px;"/>
          <circle cx="699.15" cy="326.09" r="11.83" style="fill: #9280e8; stroke-width: 0px;"/>
          <circle cx="688.22" cy="267.58" r="11.83" style="fill: #7b66e2; stroke-width: 0px;"/>
          <circle cx="677.99" cy="386.04" r="11.83" style="fill: #7b66e2; stroke-width: 0px;"/>
          <circle cx="701.7" cy="229.9" r="11.83" style="fill: #9280e8; stroke-width: 0px;"/>
          <circle cx="681.69" cy="166.64" r="11.83" style="fill: #9280e8; stroke-width: 0px;"/>
          <circle cx="636.44" cy="297.78" r="11.83" style="fill: #9280e8; stroke-width: 0px;"/>
        </g>
      </g>
    </g>
    <g id="obsidian">
      <path d="M580.25,151.89c-.49-1.98-2.21-3.72-4.01-3.93-6.9-.82-14.14-1.99-20.04,3.01-8.63,7.32-16.96,14.98-25.4,22.53-11.17,9.99-22.39,19.93-33.46,30.03-5.82,5.3-12.38,10.17-13.51,18.87-.49,3.76-.91,7.53-1.47,11.27-1.75,11.82-3.46,23.64-5.38,35.43-.41,2.53.45,3.59,2.46,4.98,11.59,8.01,22.3,16.94,30.69,28.5,6.58,9.08,11.38,18.94,14.78,29.54.74,2.32,1.23,3.29,4.23,2.69,11.46-2.3,22.99-4.35,34.79-3.94,3.74.13,4.62-1.54,3.09-5.04-6.87-15.71-9.87-32.39-11.49-49.26-2.31-24.03,4.95-45.81,16.71-66.49,6.61-11.63,11.68-23.96,11.86-39.62.8-5.34-2.2-11.84-3.87-18.57ZM523,361.05c-.34-9.85-1.81-19.72-4.89-29.31-3.77-11.74-10.3-21.81-18.23-31.19-6.42-7.59-13.98-13.65-21.8-19.61-3.22-2.46-3.67-1.2-4.87,1.5-10.76,24.11-21.83,48.08-32.35,72.29-3.5,8.05-2.31,15.98,3.91,22.87,9.26,10.26,19.26,19.78,28.91,29.66,8.68,8.89,17.27,17.86,25.89,26.81,1.9,1.97,2.95,2.53,4.44-.78,3.56-7.89,6.78-15.87,9.63-24.06,5.43-15.58,8.73-31.5,9.37-48.17ZM568.43,337.93c-5.96-5.05-16.9,2.33-33.81,2.3-1.24,0-4.9.05-6.34,2.13-.81,1.17-.44,3.15.26,7.04.32,1.79.16,3.67.22,5.51,0,4.6,0,9.19,0,13.79-.25,6.24-1.25,12.39-2.46,18.48-3.32,16.77-9.11,32.72-16.52,48.09-.76,1.58-1.09,2.69-.67,3.42.64,1.11,2.55,1.1,3.15,1.1,8.82.03,17.58,1.86,26.4,1.94,16.61.16,20.78,8.8,25.74,5.59,7.76-5.03-4.92-24.63-3.7-55.25,1.23-30.85,15.56-47.51,7.72-54.15Z" style="fill: url(#linear-gradient-7); stroke-width: 0px;"/>
    </g>
  </g>
  <g>
    <rect x="715.69" y="374.58" width="104.95" height="69.55" rx="7.45" ry="7.45" style="fill: url(#linear-gradient-8); stroke: #4d4d4d; stroke-miterlimit: 10; stroke-width: 1.58px;"/>
    <g>
      <path d="M755.51,390.38h5.79l13.79,36.44h-6.71l-2.97-8.41h-13.94l-2.92,8.41h-6.71l13.69-36.44ZM763.71,413.34l-5.28-15.33-5.28,15.33h10.56Z" style="fill: #494533; stroke-width: 0px;"/>
      <path d="M779.5,390.38h6.41v36.44h-6.41v-36.44Z" style="fill: #494533; stroke-width: 0px;"/>
    </g>
    <g>
      <path d="M843.6,436.53l-33.12-11.32c-1.6-.55-3.14.98-2.59,2.57l11.39,32.93c.15.43.42.77.76,1,1.03.71,2.47.18,2.86-1.01l5.11-15.6,15.51-4.96c1.68-.54,1.82-2.91.19-3.57-.04-.02-.08-.03-.12-.04" style="fill: #fee438; stroke-width: 0px;"/>
      <path d="M824.32,446.33l-4.94,14.62c.15.31.38.58.66.77,1.03.71,2.47.18,2.86-1.01l5.11-15.6-3.69,1.22Z" style="fill: #f2d935; stroke-width: 0px;"/>
      <path d="M843.72,436.58s-.08-.03-.12-.04l-33.12-11.32c-1.54-.53-3.02.87-2.64,2.39l31.69,10.83s.08.03.12.04c1.11.45,1.39,1.69.94,2.61l2.94-.94c1.68-.54,1.82-2.91.19-3.57" style="fill: #f2d935; stroke-width: 0px;"/>
      <path d="M807.29,439.96c-7.49-.75-13.23-7.16-12.96-14.71.28-7.86,6.97-14.03,14.91-13.75,3.66.13,6.96,1.61,9.43,3.94" style="fill: none; opacity: .45; stroke: #fff; stroke-linecap: round; stroke-linejoin: round; stroke-width: 1.53px;"/>
      <path d="M809.09,415.69c2.01.07,3.87.72,5.41,1.77" style="fill: none; opacity: .6; stroke: #fff; stroke-linecap: round; stroke-linejoin: round; stroke-width: 1.53px;"/>
      <path d="M806.2,435.52c-4.53-1.15-7.81-5.3-7.64-10.12.15-4.17,2.84-7.66,6.54-9.06" style="fill: none; opacity: .6; stroke: #fff; stroke-linecap: round; stroke-linejoin: round; stroke-width: 1.53px;"/>
      <path d="M826.33,450.27l1.69-5.16,15.51-4.96c1.68-.54,1.82-2.91.19-3.57-.04-.02-.08-.03-.12-.04l-33.12-11.32c-1.6-.55-3.14.98-2.59,2.57l11.39,32.93c.15.43.42.77.76,1,1.03.71,2.47.18,2.86-1.01l2.13-6.5" style="fill: none; stroke: #060606; stroke-linecap: round; stroke-linejoin: round; stroke-width: 1.53px;"/>
    </g>
  </g>
  <path d="M810.17,324.91l1.59,4.4c1.76,4.89,5.61,8.74,10.5,10.5l4.4,1.59c.23.09.35.35.27.58-.05.12-.14.22-.27.27l-4.4,1.59c-4.89,1.76-8.74,5.61-10.5,10.5l-1.59,4.4c-.09.23-.35.35-.58.27-.12-.05-.22-.14-.27-.27l-1.59-4.4c-1.76-4.89-5.61-8.74-10.5-10.5l-4.4-1.59c-.23-.09-.35-.35-.27-.58.05-.12.14-.22.27-.27l4.4-1.59c4.89-1.76,8.74-5.61,10.5-10.5l1.59-4.4c.08-.23.34-.36.57-.27.13.05.23.15.27.27h0ZM829.99,314.33l.8,2.23c.89,2.47,2.84,4.42,5.32,5.32l2.23.8c.12.04.18.17.14.29-.02.06-.07.11-.14.14l-2.23.8c-2.47.89-4.42,2.84-5.32,5.32l-.8,2.23c-.04.12-.17.18-.29.14-.06-.02-.11-.07-.14-.14l-.8-2.23c-.89-2.47-2.84-4.42-5.32-5.32l-2.23-.8c-.12-.04-.18-.17-.14-.29.02-.06.07-.11.14-.14l2.23-.8c2.47-.89,4.42-2.84,5.32-5.32l.8-2.23c.04-.12.17-.18.29-.14.06.02.11.07.14.14ZM829.99,352.19l.8,2.23c.89,2.47,2.84,4.42,5.32,5.32l2.23.8c.12.04.18.17.14.29-.02.06-.07.11-.14.14l-2.23.8c-2.47.89-4.42,2.84-5.32,5.32l-.8,2.23c-.04.12-.17.18-.29.14-.06-.02-.11-.07-.14-.14l-.8-2.23c-.89-2.47-2.84-4.42-5.32-5.32l-2.23-.8c-.12-.04-.18-.17-.14-.29.02-.06.07-.11.14-.14l2.23-.8c2.47-.89,4.42-2.84,5.32-5.32l.8-2.23c.07-.2.36-.2.43,0Z" style="fill: #333; stroke-width: 0px;"/>
</svg>