<?xml version="1.0" encoding="UTF-8"?>
<svg id="Layer_2" data-name="Layer 2" xmlns="http://www.w3.org/2000/svg" xmlns:xlink="http://www.w3.org/1999/xlink" viewBox="0 0 1200 600">
  <defs>
    <linearGradient id="linear-gradient" x1="392.32" y1="299" x2="768.68" y2="299" gradientUnits="userSpaceOnUse">
      <stop offset="0" stop-color="#9280e8"/>
      <stop offset=".01" stop-color="#917fe8"/>
      <stop offset=".6" stop-color="#866be8"/>
      <stop offset=".99" stop-color="#8364e8"/>
    </linearGradient>
    <linearGradient id="linear-gradient-2" x1="384.28" y1="112.26" x2="403.23" y2="112.26" xlink:href="#linear-gradient"/>
    <linearGradient id="linear-gradient-3" x1="384.28" y1="485.74" x2="403.23" y2="485.74" xlink:href="#linear-gradient"/>
    <linearGradient id="linear-gradient-4" x1="757.77" y1="112.26" x2="776.72" y2="112.26" xlink:href="#linear-gradient"/>
    <linearGradient id="linear-gradient-5" x1="757.77" y1="485.74" x2="776.72" y2="485.74" xlink:href="#linear-gradient"/>
    <linearGradient id="linear-gradient-6" x1="570.07" y1="300.88" x2="697.36" y2="300.88" gradientUnits="userSpaceOnUse">
      <stop offset="0" stop-color="#d397fa"/>
      <stop offset=".05" stop-color="#ce95f8"/>
      <stop offset=".44" stop-color="#ad89ef"/>
      <stop offset=".77" stop-color="#9982ea"/>
      <stop offset=".99" stop-color="#9280e8"/>
    </linearGradient>
    <linearGradient id="linear-gradient-7" x1="432.75" y1="297.58" x2="583.06" y2="297.58" gradientUnits="userSpaceOnUse">
      <stop offset="0" stop-color="#8364e8"/>
      <stop offset="1" stop-color="#d397fa"/>
    </linearGradient>
    <linearGradient id="linear-gradient-8" x1="719" y1="413.14" x2="827.54" y2="413.14" gradientUnits="userSpaceOnUse">
      <stop offset="0" stop-color="#edcc29"/>
      <stop offset="1" stop-color="#ffe14d"/>
    </linearGradient>
    <linearGradient id="linear-gradient-9" x1="395.72" y1="473.33" x2="455.79" y2="473.33" xlink:href="#linear-gradient-7"/>
    <linearGradient id="linear-gradient-10" x1="395.72" y1="473.33" x2="455.79" y2="473.33" xlink:href="#linear-gradient-7"/>
    <linearGradient id="linear-gradient-11" x1="395.72" y1="473.33" x2="455.79" y2="473.33" xlink:href="#linear-gradient-7"/>
    <linearGradient id="linear-gradient-12" x1="395.72" y1="473.33" x2="455.79" y2="473.33" xlink:href="#linear-gradient-7"/>
    <linearGradient id="linear-gradient-13" x1="395.72" y1="473.33" x2="455.79" y2="473.33" xlink:href="#linear-gradient-7"/>
    <linearGradient id="linear-gradient-14" x1="395.72" y1="473.33" x2="455.79" y2="473.33" xlink:href="#linear-gradient-7"/>
  </defs>
  <g id="cover">
    <rect x="393.76" y="112.26" width="373.49" height="373.49" style="fill: #fbfaff; stroke: url(#linear-gradient); stroke-miterlimit: 10; stroke-width: 2.87px;"/>
    <circle cx="393.76" cy="112.26" r="8.04" style="fill: #fbfaff; stroke: url(#linear-gradient-2); stroke-miterlimit: 10; stroke-width: 2.87px;"/>
    <circle cx="393.76" cy="485.74" r="8.04" style="fill: #fbfaff; stroke: url(#linear-gradient-3); stroke-miterlimit: 10; stroke-width: 2.87px;"/>
    <circle cx="767.24" cy="112.26" r="8.04" style="fill: #fbfaff; stroke: url(#linear-gradient-4); stroke-miterlimit: 10; stroke-width: 2.87px;"/>
    <circle cx="767.24" cy="485.74" r="8.04" style="fill: #fbfaff; stroke: url(#linear-gradient-5); stroke-miterlimit: 10; stroke-width: 2.87px;"/>
  </g>
  <g>
    <g id="Ai">
      <path d="M643.38,434.58c-1.2,0-2.34-.58-3.08-1.58l-18.72-25.08h-46.76c-2.16,0-3.92-1.85-3.92-4.13s1.75-4.13,3.92-4.13h48.66c1.2,0,2.33.58,3.08,1.58l19.89,26.66c1.34,1.79,1.04,4.39-.66,5.8-.69.57-1.54.88-2.42.88h0ZM626.83,375.83h-48.66c-2.16,0-3.92-1.85-3.92-4.13s1.75-4.13,3.92-4.13h48.66c2.16,0,3.92,1.85,3.92,4.13s-1.75,4.13-3.92,4.13ZM645.58,338.11h-62.4c-2.16,0-3.92-1.85-3.92-4.13s1.75-4.13,3.92-4.13h62.4c2.16,0,3.92,1.85,3.92,4.13s-1.75,4.13-3.92,4.13ZM640.01,302.26h-59.45c-2.16,0-3.92-1.85-3.92-4.13s1.75-4.13,3.92-4.13h59.45c2.16,0,3.92,1.85,3.92,4.13s-1.75,4.13-3.92,4.13ZM693.45,322.49c-1.04,0-2.03-.43-2.77-1.21l-52.03-54.87h-64.66c-2.16,0-3.92-1.85-3.92-4.13s1.75-4.13,3.92-4.13h66.28c1.04,0,2.03.44,2.77,1.21l53.18,56.08c1.53,1.61,1.53,4.23,0,5.84-.73.77-1.73,1.21-2.77,1.21h0ZM692.55,231.66h-116.06c-2.16,0-3.92-1.85-3.92-4.13s1.75-4.13,3.92-4.13h116.06c2.16,0,3.92,1.85,3.92,4.13s-1.75,4.13-3.92,4.13h0ZM657.82,195.53h-66.28c-2.16,0-3.92-1.85-3.92-4.13s1.75-4.13,3.92-4.13h64.66l17.92-18.9c1.53-1.61,4.01-1.61,5.54,0,1.53,1.61,1.53,4.23,0,5.84l-19.06,20.1c-.73.77-1.73,1.21-2.77,1.21h0Z" style="fill: url(#linear-gradient-6); stroke-width: 0px;"/>
      <g>
        <g>
          <circle cx="635.22" cy="371.71" r="12.24" style="fill: #8364e8; stroke-width: 0px;"/>
          <circle cx="648.36" cy="439.77" r="12.24" style="fill: #8364e8; stroke-width: 0px;"/>
          <circle cx="655" cy="333.98" r="12.24" style="fill: #8364e8; stroke-width: 0px;"/>
          <circle cx="701.88" cy="327.02" r="12.24" style="fill: #8364e8; stroke-width: 0px;"/>
          <circle cx="690.59" cy="266.51" r="12.24" style="fill: #8364e8; stroke-width: 0px;"/>
          <circle cx="680.01" cy="389.02" r="12.24" style="fill: #8364e8; stroke-width: 0px;"/>
          <circle cx="704.53" cy="227.53" r="12.24" style="fill: #8364e8; stroke-width: 0px;"/>
          <circle cx="683.83" cy="162.1" r="12.24" style="fill: #8364e8; stroke-width: 0px;"/>
          <circle cx="637.04" cy="297.74" r="12.24" style="fill: #8364e8; stroke-width: 0px;"/>
        </g>
        <g>
          <circle cx="635.22" cy="371.71" r="12.24" style="fill: #9280e8; stroke-width: 0px;"/>
          <circle cx="648.36" cy="439.77" r="12.24" style="fill: #9280e8; stroke-width: 0px;"/>
          <circle cx="655" cy="333.98" r="12.24" style="fill: #9280e8; stroke-width: 0px;"/>
          <circle cx="701.88" cy="327.02" r="12.24" style="fill: #9280e8; stroke-width: 0px;"/>
          <circle cx="690.59" cy="266.51" r="12.24" style="fill: #7b66e2; stroke-width: 0px;"/>
          <circle cx="680.01" cy="389.02" r="12.24" style="fill: #7b66e2; stroke-width: 0px;"/>
          <circle cx="704.53" cy="227.53" r="12.24" style="fill: #9280e8; stroke-width: 0px;"/>
          <circle cx="683.83" cy="162.1" r="12.24" style="fill: #9280e8; stroke-width: 0px;"/>
          <circle cx="637.04" cy="297.74" r="12.24" style="fill: #9280e8; stroke-width: 0px;"/>
        </g>
      </g>
    </g>
    <g id="obsidian">
      <path d="M578.92,146.85c-.51-2.05-2.29-3.85-4.14-4.07-7.14-.85-14.63-2.05-20.73,3.11-8.92,7.57-17.54,15.5-26.26,23.3-11.56,10.33-23.15,20.61-34.61,31.05-6.02,5.48-12.8,10.52-13.97,19.52-.51,3.89-.94,7.78-1.52,11.66-1.81,12.22-3.58,24.45-5.56,36.64-.42,2.61.47,3.72,2.54,5.15,11.99,8.28,23.07,17.51,31.74,29.48,6.81,9.39,11.77,19.59,15.28,30.55.77,2.4,1.27,3.41,4.38,2.78,11.85-2.38,23.77-4.49,35.98-4.08,3.87.13,4.78-1.59,3.2-5.21-7.11-16.25-10.21-33.5-11.88-50.94-2.39-24.86,5.12-47.38,17.28-68.77,6.84-12.03,12.08-24.79,12.26-40.97.83-5.52-2.28-12.25-4-19.21ZM519.71,363.17c-.35-10.18-1.87-20.39-5.06-30.31-3.9-12.15-10.65-22.55-18.86-32.26-6.64-7.85-14.46-14.12-22.54-20.29-3.33-2.54-3.8-1.24-5.04,1.55-11.13,24.93-22.57,49.73-33.45,74.77-3.62,8.32-2.39,16.53,4.04,23.65,9.58,10.61,19.92,20.46,29.9,30.68,8.97,9.19,17.86,18.47,26.77,27.72,1.96,2.04,3.05,2.61,4.59-.8,3.68-8.17,7.01-16.42,9.96-24.88,5.62-16.11,9.03-32.58,9.69-49.82ZM566.69,339.26c-6.17-5.23-17.48,2.41-34.97,2.38-1.29,0-5.06.05-6.55,2.2-.84,1.21-.46,3.26.27,7.29.33,1.85.17,3.8.23,5.7,0,4.75,0,9.51,0,14.26-.26,6.45-1.29,12.81-2.54,19.12-3.43,17.35-9.42,33.84-17.08,49.74-.79,1.63-1.13,2.78-.69,3.54.66,1.15,2.64,1.14,3.26,1.14,9.13.03,18.18,1.92,27.31,2.01,17.18.17,21.5,9.1,26.62,5.78,8.03-5.2-5.09-25.47-3.83-57.14,1.27-31.9,16.1-49.13,7.98-56.01Z" style="fill: url(#linear-gradient-7); stroke-width: 0px;"/>
    </g>
  </g>
  <g>
    <rect x="719" y="377.17" width="108.55" height="71.93" rx="7.7" ry="7.7" style="fill: url(#linear-gradient-8); stroke: #4d4d4d; stroke-miterlimit: 10; stroke-width: 1.64px;"/>
    <g>
      <path d="M760.18,393.51h5.99l14.26,37.69h-6.94l-3.07-8.69h-14.42l-3.02,8.69h-6.94l14.15-37.69ZM768.66,417.26l-5.46-15.85-5.46,15.85h10.92Z" style="fill: #494533; stroke-width: 0px;"/>
      <path d="M784.99,393.51h6.63v37.69h-6.63v-37.69Z" style="fill: #494533; stroke-width: 0px;"/>
    </g>
    <g>
      <path d="M851.29,441.24l-34.25-11.71c-1.66-.57-3.25,1.01-2.68,2.66l11.78,34.06c.15.45.44.8.79,1.04,1.07.74,2.55.19,2.96-1.04l5.29-16.13,16.04-5.13c1.73-.55,1.88-3.01.2-3.7-.04-.02-.08-.03-.12-.05" style="fill: #fee438; stroke-width: 0px;"/>
      <path d="M831.35,451.37l-5.11,15.12c.16.32.39.6.69.8,1.07.74,2.55.19,2.96-1.04l5.29-16.13-3.82,1.26Z" style="fill: #f2d935; stroke-width: 0px;"/>
      <path d="M851.41,441.29s-.08-.03-.12-.05l-34.25-11.71c-1.6-.55-3.13.9-2.73,2.48l32.77,11.21s.08.03.12.05c1.14.47,1.44,1.75.97,2.7l3.04-.97c1.73-.55,1.88-3.01.2-3.7" style="fill: #f2d935; stroke-width: 0px;"/>
      <path d="M813.73,444.78c-7.74-.77-13.68-7.4-13.4-15.21.29-8.13,7.2-14.51,15.42-14.22,3.79.13,7.2,1.66,9.75,4.07" style="fill: none; opacity: .6; stroke: #fff; stroke-linecap: round; stroke-linejoin: round; stroke-width: 1.58px;"/>
      <path d="M815.59,419.69c2.08.07,4,.74,5.59,1.83" style="fill: none; opacity: .75; stroke: #fff; stroke-linecap: round; stroke-linejoin: round; stroke-width: 1.58px;"/>
      <path d="M812.6,440.2c-4.69-1.19-8.07-5.48-7.9-10.47.15-4.31,2.93-7.92,6.76-9.37" style="fill: none; opacity: .75; stroke: #fff; stroke-linecap: round; stroke-linejoin: round; stroke-width: 1.58px;"/>
      <path d="M833.42,455.45l1.75-5.34,16.04-5.13c1.73-.55,1.88-3.01.2-3.7-.04-.02-.08-.03-.12-.05l-34.25-11.71c-1.66-.57-3.25,1.01-2.68,2.66l11.78,34.06c.15.45.44.8.79,1.04,1.07.74,2.55.19,2.96-1.04l2.2-6.73" style="fill: none; stroke: #060606; stroke-linecap: round; stroke-linejoin: round; stroke-width: 1.58px;"/>
    </g>
  </g>
  <g>
    <path d="M816.71,325.8l1.64,4.55c1.82,5.05,5.8,9.03,10.86,10.86l4.55,1.64c.24.09.37.36.28.6-.05.13-.15.23-.28.28l-4.55,1.64c-5.05,1.82-9.03,5.8-10.86,10.86l-1.64,4.55c-.09.24-.36.37-.6.28-.13-.05-.23-.15-.28-.28l-1.64-4.55c-1.82-5.05-5.8-9.03-10.86-10.86l-4.55-1.64c-.24-.09-.37-.36-.28-.6.05-.13.15-.23.28-.28l4.55-1.64c5.05-1.82,9.03-5.8,10.86-10.86l1.64-4.55c.09-.24.35-.37.59-.28.13.05.24.15.28.28h0Z" style="fill: #4d4d4d; stroke-width: 0px;"/>
    <path d="M837.21,354.01l.83,2.31c.92,2.56,2.94,4.57,5.5,5.5l2.31.83c.12.04.19.18.14.3-.02.07-.08.12-.14.14l-2.31.83c-2.56.92-4.57,2.94-5.5,5.5l-.83,2.31c-.04.12-.18.19-.3.14-.07-.02-.12-.08-.14-.14l-.83-2.31c-.92-2.56-2.94-4.57-5.5-5.5l-2.31-.83c-.12-.04-.19-.18-.14-.3.02-.07.08-.12.14-.14l2.31-.83c2.56-.92,4.57-2.94,5.5-5.5l.83-2.31c.08-.21.37-.21.45,0Z" style="fill: #333; stroke-width: 0px;"/>
    <path d="M837.21,314.86l.83,2.31c.92,2.56,2.94,4.57,5.5,5.5l2.31.83c.12.04.19.18.14.3-.02.07-.08.12-.14.14l-2.31.83c-2.56.92-4.57,2.94-5.5,5.5l-.83,2.31c-.04.12-.18.19-.3.14-.07-.02-.12-.08-.14-.14l-.83-2.31c-.92-2.56-2.94-4.57-5.5-5.5l-2.31-.83c-.12-.04-.19-.18-.14-.3.02-.07.08-.12.14-.14l2.31-.83c2.56-.92,4.57-2.94,5.5-5.5l.83-2.31c.04-.12.18-.19.3-.14.07.02.12.08.14.14Z" style="fill: #666; stroke-width: 0px;"/>
  </g>
  <g>
    <path d="M410.33,472.6c-.07-.21-.1-.33-.11-.35s.02-.14.08-.34c.07-.13.16-.34.28-.62s.23-.52.33-.73c.1-.21.21-.39.33-.56.09-.13.15-.27.18-.41.03-.14.04-.24.03-.31-.01-.07-.01-.13,0-.17,0-.02.02-.07.04-.15.01-.08.04-.14.08-.18.06-.07.12-.1.2-.1.07,0,.14.02.22.07.04.02.07.04.09.06.02.02.03.04.04.06,0,.02,0,.04,0,.05s0,.04,0,.06c0,.03,0,.06,0,.09s.02.03.06.01c0,0,.02-.01.03-.01h.03s.01.03,0,.07c0,.04-.02.08-.04.14-.02.05-.05.09-.08.11-.02.02-.02.04,0,.07.02.03.03.05.02.07s-.03.04-.05.05-.05.03-.06.04c-.02.01-.04.03-.06.05s-.03.03-.04.04,0,.02,0,.04c0,0,.02,0,.04,0,.02,0,.04-.02.05-.02.01,0,.02,0,.02.02,0,.11-.02.22-.06.35-.04.13-.08.22-.12.3s-.11.18-.19.33c-.08.15-.14.24-.17.29-.12.21-.19.41-.23.59,0,.02-.1.21-.27.56-.03.06-.05.13-.07.22-.02.09-.03.16-.04.22,0,.06-.04.12-.08.18-.04.06-.1.11-.18.15-.06.03-.12,0-.18-.09-.06-.09-.1-.17-.12-.25ZM414.05,464.56s-.07-.05-.07-.09,0-.08.03-.14c.02-.05.03-.09.03-.11-.04-.45.05-.76.27-.93.09-.06.17-.09.26-.09.06,0,.13.02.23.07.06.04.15.08.26.14.12.05.19.09.23.11.06.03.1.07.12.13.02.06.04.1.06.12.11.07.13.17.06.29-.03.05-.06.07-.09.07-.02,0-.06-.03-.13-.09s-.12-.08-.16-.07c-.02,0-.03.01-.04.04,0,.02-.02.03-.05.02-.02,0-.04-.04-.06-.09-.02-.05-.04-.08-.07-.09-.02,0-.04,0-.06.02-.02.01-.05.02-.07,0-.02-.02-.03-.05-.04-.08,0-.03,0-.05.01-.06.02,0,.04,0,.06,0,.02,0,.03.01.04.02,0,0,.02,0,.03,0,.02-.02.03-.06.02-.12s-.02-.09-.05-.1c-.03-.02-.06,0-.09.04-.03.05-.05.07-.07.07s-.04,0-.05-.02c-.01-.01-.03-.03-.04-.05,0-.02-.02-.04-.03-.06,0-.02-.02-.03-.04-.03s-.03.01-.05.04c-.09.09-.11.14-.07.14h.1s.08,0,.09.01c.07.06.09.11.07.17-.02.05-.07.09-.12.12l-.23.06c-.09.04-.14.09-.17.17-.02.07-.05.12-.08.15,0,0,0,.04,0,.1.02.06.01.09-.01.09,0,0-.02,0-.03-.01ZM414.28,464.93s-.07-.04-.08-.08c-.01-.04,0-.07.05-.09.09-.05.13-.03.13.06-.04.08-.07.12-.1.12ZM414.38,464.93s.02-.02.04-.04c.01-.02.03-.03.04-.04.06-.03.09,0,.09.06,0,.05-.05.06-.16.03Z" style="fill: url(#linear-gradient-9); stroke-width: 0px;"/>
    <path d="M412.07,478.48c-.15,0-.28-.07-.37-.2-.09-.13-.14-.28-.14-.44l.32-1.32c.03-.1.06-.25.1-.47.04-.22.08-.4.14-.54.05-.14.14-.28.25-.42.05-.05.16-.29.33-.74.17-.44.3-.71.38-.78.21-.22.57-.87,1.09-1.95,0-.02.05-.08.12-.2.07-.11.13-.21.17-.3s.06-.17.06-.26c0-.18-.21-.28-.62-.28-.17,0-.38-.05-.62-.14-.24-.09-.35-.17-.35-.22,0-.04.02-.07.07-.1.05-.03.07-.06.07-.1,0-.05-.04-.09-.12-.13-.08-.04-.12-.07-.12-.1,0-.04,0-.06.01-.07.02,0,.05,0,.1,0,.03,0,.07,0,.12.02s.09.02.12.02c.04,0,.08-.02.13-.07.05-.04.11-.07.17-.07.34,0,.64.03.9.1.26.07.48.1.67.1.08,0,.14-.02.2-.07.05-.04.1-.1.14-.16.04-.06.07-.1.09-.12.12-.08.28-.28.51-.61.22-.33.38-.58.46-.75.03-.07.09-.15.18-.25.09-.1.15-.17.18-.22.07-.12.18-.29.33-.5.15-.21.27-.36.33-.47.12-.18.24-.36.38-.52.14-.16.3-.34.48-.54.18-.19.31-.33.39-.42.44-.5.68-.76.71-.77.17-.11.37-.29.6-.55.23-.26.42-.43.59-.51.04-.02.1-.08.19-.2s.18-.2.27-.28c.09-.07.18-.09.25-.05.14.09.19.19.14.32,0,.02-.02.04-.04.07-.01.03-.03.05-.04.06,0,.01-.02.03-.03.05,0,.02-.01.04-.01.06,0,.04.05.11.16.22.04.03,0,.1-.13.21s-.27.23-.43.35c-.16.12-.26.19-.28.21-.05.05-.22.19-.52.41-.3.23-.49.44-.56.64-.07.16-.15.31-.25.43-.1.13-.25.28-.45.46s-.32.29-.35.33c-.11.1-.24.26-.41.49s-.29.39-.38.48c-.29.29-.49.55-.61.77-.09.16-.21.34-.36.53s-.28.35-.38.48c-.1.13-.14.23-.14.31,0,.15.23.23.69.23.09,0,.21,0,.35-.01.15,0,.24-.01.28-.01.15,0,.39.04.72.12s.78.12,1.32.12c.04,0,.15-.02.34-.05.19-.03.42-.05.7-.05.08,0,.2.03.38.08.17.05.3.08.38.08.18,0,.44-.13.77-.38s.59-.38.8-.38c.22,0,.44.09.65.27s.32.41.32.7c0,.11-.02.23-.05.37-.03.14-.05.25-.05.34,0,.04-.06.19-.18.46s-.18.43-.18.49c0,.02,0,.04,0,.07,0,.03,0,.05.01.07s0,.04,0,.06c0,.02,0,.03-.01.04-.02.02-.08.04-.19.05-.11.01-.17.05-.19.11-.02.05-.02.08-.01.1,0,.02.02.03.04.03h.09c.09,0,.21-.06.36-.15s.26-.18.3-.25c.13-.24.37-.36.71-.36-.04.17-.21.37-.53.6-.31.23-.49.39-.54.49l-.41.22c-.12.05-.2.07-.25.07-.22,0-.33-.1-.33-.3,0-.16.02-.37.06-.63s.1-.42.17-.49c.15-.16.3-.45.45-.85-.19,0-.5.12-.91.35-.04.02-.12.05-.24.1-.12.05-.23.09-.32.14-.09.04-.15.08-.17.11-.15.18-.41.28-.78.28-.14,0-.24-.04-.31-.12s-.11-.17-.12-.28c0-.1-.02-.2-.03-.3,0-.1-.03-.16-.07-.18-.03,0-.31-.03-.85-.07-.54-.04-1.15-.08-1.85-.12-.7-.04-1.19-.07-1.46-.09-.42,0-.69.16-.83.49-.31.61-.66,1.21-1.06,1.79-.03.05-.07.12-.13.21-.06.09-.11.18-.16.25-.05.08-.07.12-.07.13-.05.14-.21.5-.47,1.1-.27.6-.43.93-.5,1,0,0-.05.14-.12.39-.07.25-.12.39-.14.42-.03.03-.09.16-.17.4s-.16.38-.23.43c-.02.05-.02.12,0,.2.02.09.05.2.08.33.03.14.05.22.05.25,0,.2-.11.3-.33.3ZM412.78,470.18s-.06.06-.1.06c-.06,0-.12-.02-.17-.07-.06-.05-.09-.1-.09-.16,0-.07.04-.13.12-.18.08-.05.16-.09.26-.11-.04.08-.04.15,0,.22s.03.15-.01.25ZM413.15,470.12c0,.06.02.11.07.15.04.04.1.04.17,0,.09-.09.13-.17.13-.25s-.11-.12-.33-.12c0,.03,0,.07-.01.12,0,.05-.01.08-.01.1ZM414.75,470.69s-.03.05-.03.13c0,.09.03.13.1.13.05,0,.1-.02.14-.07s.07-.08.07-.12c0-.05-.04-.08-.12-.09-.08-.01-.14,0-.17.02ZM420.68,471.07c-.08.13-.07.22.01.28s.21.09.38.09c.38,0,.56-.05.56-.14,0-.02,0-.04-.01-.06-.02-.07-.08-.1-.19-.1-.05,0-.12,0-.21.02s-.16.02-.2.02c-.06-.09-.13-.13-.22-.13-.08,0-.12,0-.13.03ZM421.38,462.7s0-.05.03-.06c.02-.01.04-.02.06-.02s.04,0,.07,0,.05,0,.06,0c.04,0,.06.02.06.06,0,.07-.05.13-.14.2-.04.03-.06.02-.06-.01,0-.02-.01-.05-.04-.09-.02-.04-.04-.07-.04-.08ZM421.58,463.59c-.05-.08-.07-.13-.05-.15s.05-.05.11-.09c.06-.03.09-.07.1-.09l.03-.3c.02-.2.04-.33.06-.38.07-.16.18-.25.33-.25.09,0,.23-.03.43-.08.2-.05.36-.08.46-.08.24,0,.45.07.62.2.17.14.25.32.25.55,0,.05,0,.12-.03.22-.02.1-.03.18-.03.24,0,.04.02.12.06.25.04.13.06.22.06.27,0,0-.01.05-.04.12-.03.07-.04.18-.04.33s-.01.27-.04.37c-.02.1-.05.17-.06.21-.02.04-.06.1-.13.18-.07.08-.12.15-.15.2-.04.06-.1.19-.18.38-.08.2-.17.36-.25.49-.09.13-.18.2-.28.2,0-.77.24-1.33.71-1.68.09-.06.13-.15.13-.27,0-.18-.03-.43-.09-.73-.06-.3-.11-.5-.14-.57-.03-.06-.05-.15-.05-.27s-.02-.2-.05-.25c-.03-.04-.08-.04-.16,0-.04.02-.12.1-.25.23-.13.13-.23.2-.32.2-.03,0-.12.05-.28.16-.16.11-.31.2-.46.29-.15.09-.24.12-.27.09ZM422.04,471.04c-.07,0-.13.03-.17.09-.05.06-.05.12,0,.17.04.03.08.04.12.04.11,0,.21-.08.32-.23-.09-.05-.17-.07-.26-.07ZM422.9,462.32c-.1,0-.16.07-.2.2.04.09.1.13.19.13.07,0,.14-.04.23-.13.04-.04.03-.08-.04-.13-.06-.05-.12-.07-.18-.07Z" style="fill: url(#linear-gradient-10); stroke-width: 0px;"/>
    <path d="M424.77,471.88s0-.06.03-.09c.02-.03.05-.07.08-.11.03-.04.06-.07.06-.09.51-.95.84-1.79.98-2.55,0,0,.03-.03.07-.06.04-.03.07-.06.11-.09s.06-.07.07-.09c.02-.03.03-.06.02-.09,0-.03-.02-.05-.04-.06-.02,0-.04,0-.07.01,0,0-.04.05-.1.11-.06.06-.1.1-.12.11-.06.03-.05-.01.01-.13.06-.1.09-.14.1-.14.07-.07.15-.12.23-.14.14-.04.26.07.33.32.03.09.02.23-.04.42-.05.19-.07.31-.05.36.15-.08.34-.22.56-.44.22-.22.38-.36.49-.43.23-.15.61-.3,1.13-.46.18-.06.37,0,.55.16.03.03.07.06.12.09.05.03.1.06.13.09.03.03.06.07.08.12.02.05.09.17.22.36.13.19.2.35.23.48,0,.06,0,.11,0,.17,0,.05,0,.09.04.12,0,.02,0,.05,0,.1-.01.05-.02.09-.03.12,0,.03.01.05.05.06.06,0,.09.02.09.07v.06c-.14,0-.34-.1-.58-.3-.05-.07-.13-.14-.23-.22-.02,0-.02-.04,0-.1l.03-.1s-.04-.04-.09-.07-.08-.06-.09-.09c-.02-.06-.1-.12-.23-.2-.14-.08-.24-.12-.3-.12-.04,0-.1.01-.19.04-.09.02-.15.04-.19.05-.15.03-.46.25-.93.67s-.76.71-.88.9c-.06.08-.15.19-.28.33s-.23.27-.31.38c-.08.11-.14.23-.19.35-.14.3-.21.46-.23.48-.09.11-.2.16-.33.16-.11,0-.19-.06-.24-.17-.05-.11-.08-.22-.08-.34Z" style="fill: url(#linear-gradient-11); stroke-width: 0px;"/>
    <path d="M430.6,472.75s-.03-.11-.09-.19c-.06-.08-.09-.12-.09-.13,0-.35.17-.81.52-1.39.03-.05.1-.17.22-.38.12-.2.2-.35.26-.43.06-.09.14-.2.24-.34.1-.14.21-.24.31-.3.11-.06.21-.1.32-.12.02,0,0,.04-.07.13-.12.16-.16.26-.14.28.05.04.1.04.15,0,.05-.04.1-.1.14-.17.04-.07.06-.11.07-.11,0,.05.02.11.07.2.05.08.07.15.08.19,0,.04-.03.11-.09.2-.02.02-.09.07-.22.15s-.22.14-.28.2-.09.13-.09.22c0,.07-.06.2-.16.39l-.15.3s-.07.13-.14.24c-.06.11-.11.2-.15.25-.03.06-.06.14-.08.24-.02.1,0,.17.06.21.03.04.08.04.14,0,.07-.04.15-.1.23-.17s.14-.12.17-.13c.03,0,.1-.03.2-.07.11-.04.19-.08.25-.12.15-.1.26-.13.32-.12,0,0,.03.01.07.04.04.03.07.04.09.04s.06-.01.11-.04c.05-.05.02-.14-.07-.28-.03-.05-.05-.06-.06-.03,0,.06-.02.1-.03.12-.04.04-.06.06-.07.06-.04,0-.06-.06-.08-.17-.01-.12,0-.18.04-.2.03,0,.07-.04.13-.09.06-.05.1-.08.13-.09.02,0,.03,0,.03.06v.06c0,.08,0,.13,0,.15.06.06.11.02.16-.12.03-.08.05-.13.06-.16.06-.12.15-.23.27-.32.22-.16.36-.3.41-.41.03-.07.1-.13.2-.19.11-.06.18-.1.22-.14.04-.03.04-.1,0-.2-.02-.03-.04-.05-.07-.07s-.05-.04-.06-.06c-.02-.02-.03-.05-.04-.09,0,0-.01-.04-.04-.1-.02-.06-.03-.1-.02-.13,0-.02.07-.03.17-.03s.16,0,.17-.01c.02-.03.03-.07.02-.13,0-.06-.02-.09-.05-.1-.02,0-.05,0-.1,0s-.09,0-.12,0c-.03,0-.05-.03-.07-.07-.06-.11-.17-.16-.35-.16-.04,0-.07,0-.09.02-.02.01-.03.04-.02.08-.02.02-.04.02-.07,0-.03-.02-.07-.05-.12-.09-.05-.03-.09-.05-.13-.05s-.08.02-.12.06c-.05.03,0,.08.16.16.07.03.1.05.09.07l-.16.25s-.02.06-.04.06c-.03,0-.07-.04-.11-.12-.04-.08-.08-.12-.09-.13-.06-.02-.12-.03-.19-.04-.05,0-.07-.02-.07-.04,0,0,0-.05.03-.13,0-.03.02-.05.03-.07.02,0,.08-.05.19-.11.11-.06.18-.1.22-.12s.1-.04.18-.07c.08-.03.16-.06.22-.07s.14-.03.22-.04c.21-.02.36-.02.43,0,.32.09.45.42.41.98l.45-.46c.1-.08.19-.17.29-.28s.17-.19.22-.25.13-.17.25-.34.2-.27.22-.3c.07-.08.17-.21.31-.4s.25-.33.33-.41c.04-.03.08-.06.13-.09.05-.03.1-.07.15-.13.07-.08.15-.2.25-.35.1-.16.18-.28.25-.36.64-.74,1.09-1.4,1.35-1.98.06-.09.11-.19.14-.31.04-.12.07-.21.11-.25.03-.05.08-.07.15-.07,0,0,.01.02,0,.06,0,.04,0,.07.02.07.23.03.36.03.38.01s0-.05-.06-.08c-.07-.03-.14-.08-.2-.14-.07-.06-.08-.12-.04-.18.02-.02.1-.15.23-.41s.24-.4.32-.45c.1-.06.15-.11.16-.14,0-.02.01-.05.01-.09,0-.02.03-.06.1-.13.05-.04.13-.06.23-.08.11-.01.18-.03.22-.04.12-.05.23-.03.34.06s.15.17.12.25c-.02.06-.1.19-.25.41-.03.05-.09.13-.18.25-.09.12-.15.21-.18.28-.04.14-.09.28-.16.41-.07.13-.13.23-.18.31-.05.08-.15.21-.3.41-.15.19-.27.36-.36.49-.09.14-.21.33-.35.59-.15.26-.26.44-.33.54-.05.07-.12.2-.21.39-.09.19-.19.37-.28.52-.1.15-.19.26-.29.32-.02,0-.03.02-.03.04s0,.04,0,.07,0,.05,0,.07c-.02.12-.05.24-.1.38s-.1.26-.15.36c-.05.1-.12.23-.2.39s-.14.27-.18.34c-.31.64-.46,1.35-.46,2.14,0,.06,0,.16-.03.3-.02.14-.02.26-.01.36,0,.1.04.2.1.28.03.04.09.1.2.17.1.08.17.15.22.21.04.06.05.13,0,.2-.04.08-.11.12-.22.12-.09,0-.17-.02-.25-.07-.15-.11-.28-.17-.39-.19-.13-.09-.25-.31-.36-.68-.05-.21-.07-.41-.07-.59,0-.39.12-1,.38-1.84,0,0,.02-.06.05-.15s.06-.17.08-.25c.02-.07.04-.15.06-.25s.03-.16.02-.22c0-.05-.02-.08-.05-.08-.04.07-.15.17-.34.31-.19.14-.28.27-.27.38,0,.03-.08.13-.23.31-.15.18-.31.35-.46.5l-.22.25s-.09.07-.19.12c-.1.05-.16.1-.2.16-.14.18-.27.27-.41.27-.03,0-.04-.03-.02-.06.01-.03.03-.07.05-.12.02-.04.02-.07.01-.07-.02,0-.08.05-.19.16-.03.02-.02.06.02.13s.07.11.07.13c0,.07-.05.12-.11.15s-.12.02-.17-.05c-.09-.12-.15-.17-.2-.13-.04.03-.02.09.04.17.02.03.04.05.06.07.02.02.04.03.05.04s.01.02.01.03,0,.02-.01.03c0,0-.03.03-.06.06-.04.03-.1.06-.18.1-.08.04-.14.08-.17.12-.04-.09-.09-.13-.16-.14-.08.02-.07.1.03.23.02.03.01.04-.01.04-.08,0-.13,0-.16.01,0,0-.03.02-.06.02-.03,0-.05.01-.06.03,0,.01,0,.03,0,.05.12.16.02.39-.27.67-.3.28-.52.44-.67.46-.09,0-.25.08-.5.22-.25.14-.44.2-.59.17-.07,0-.16-.06-.27-.14s-.17-.16-.17-.22ZM433.48,470.86s-.02.09,0,.17c.01.09.03.15.05.19,0,0,.05-.02.11-.04.06-.02.11-.04.13-.06.02-.02.03-.04.02-.06-.12-.18-.22-.25-.3-.2ZM433.89,470.6s-.01.08.05.14c.06.05.12.07.17.06,0-.12-.04-.21-.12-.25-.04,0-.07,0-.1.04Z" style="fill: url(#linear-gradient-12); stroke-width: 0px;"/>
    <path d="M439.65,472.83c-.16-.08-.15-.21.06-.41.2-.19.37-.25.49-.17.06.04.15.03.28-.03.13-.06.21-.09.22-.09.12-.02.27,0,.45.07.18.07.3.11.35.12.04,0,.07.05.1.12s.05.15.07.24c.02.09.04.15.06.18.09.16.1.3.04.42-.06.12-.16.17-.28.17-.15,0-.25-.09-.32-.26-.02-.06-.13-.1-.33-.12-.2-.02-.37-.02-.51.02-.05,0-.11.06-.18.14s-.13.12-.17.12c-.07,0-.13-.05-.19-.14-.03-.05-.04-.09-.03-.13,0-.04,0-.08,0-.13,0-.05-.05-.09-.12-.12Z" style="fill: url(#linear-gradient-13); stroke-width: 0px;"/>
    <path d="M444.53,472.38c-.04-.09-.07-.23-.1-.43-.03-.2-.03-.4,0-.59.03-.19.1-.28.21-.28.05-.17.18-.37.41-.59.22-.22.37-.38.45-.5.04-.07.08-.15.14-.25.05-.1.1-.19.15-.25s.11-.14.17-.22c.04-.04.08-.09.14-.17.05-.07.09-.12.11-.14.02-.02.06-.05.13-.08.07-.03.14-.02.22.03-.12.37-.28.69-.48.97-.1.13-.2.36-.3.67-.11.31-.2.53-.27.65-.09.13-.15.25-.2.33s-.08.17-.12.26-.05.16-.04.22.04.11.1.14c.07.04.19.08.37.11.18.03.29.04.34,0,.26-.15.54-.23.84-.23.08-.12.23-.19.46-.23.23-.04.39-.13.5-.26.07-.11.35-.3.85-.58.5-.28.82-.48.94-.61.37-.37.74-.55,1.11-.55.27,0,.51.13.71.38.12.14.18.46.19.94,0,.3.03.45.09.45.02,0,.04,0,.06-.03.1-.08.16-.19.2-.35.03-.15,0-.31-.08-.48-.06-.16-.08-.25-.08-.27s.03-.09.08-.2c.02-.05.05-.21.1-.48.05-.28.1-.5.17-.69.06-.18.13-.24.21-.16.12.12.1.2-.06.25-.15.05-.17.13-.06.25.04.04.08.06.12.06.07,0,.14-.04.21-.13s.15-.19.22-.3c.08-.12.13-.19.17-.23.27-.23.79-.35,1.55-.35.12,0,.27-.02.45-.05.18-.03.31-.05.39-.05.14,0,.26.03.36.1-.04.13-.14.25-.29.33-.15.09-.34.16-.56.22-.22.06-.37.11-.45.15-.13.07-.31.12-.56.14-.25.03-.49.11-.71.25-.32.19-.55.51-.69.96-.14.44-.21.91-.21,1.4,0,.21-.06.39-.19.54-.13.15-.27.22-.43.22-.13,0-.24-.05-.33-.16-.12-.12-.21-.45-.29-.96-.08-.52-.18-.79-.3-.83-.25-.07-.49.01-.72.25-.04.04-.19.1-.44.18-.26.08-.43.18-.51.3,0,0-.45.29-1.32.85-.37.22-.69.33-.96.33-.19.24-.36.36-.49.36h-.69c-.25,0-.45-.04-.59-.12-.14-.08-.27-.24-.38-.48ZM444.78,471.33c-.14.09-.21.21-.2.36,0,.07.02.1.07.1.08,0,.15-.1.2-.3.04-.12.03-.18-.03-.17,0,0-.02,0-.04.01ZM449.66,464.25c-.23-.08-.28-.17-.13-.28.17-.12.36-.16.56-.1.02,0,.03,0,.04.01.06.03.13.13.22.3.09.17.14.31.14.42-.12,0-.24.01-.37.04s-.21.04-.24.04c-.11,0-.18-.15-.23-.45Z" style="fill: url(#linear-gradient-14); stroke-width: 0px;"/>
  </g>
</svg>