<?xml version="1.0" encoding="UTF-8"?>
<svg id="Layer_2" data-name="Layer 2" xmlns="http://www.w3.org/2000/svg" viewBox="0 0 1200 600">
  <path d="M598.94,419.52c113.81,0,155.56-41.75,155.56-155.56,0-113.81-41.75-155.56-155.56-155.56-113.81,0-155.56,41.75-155.56,155.56s41.75,155.56,155.56,155.56Z" style="fill: #efefef; stroke-width: 0px;"/>
  <g>
    <polygon points="534.99 361.82 662.95 361.82 666.68 248.18 652.07 216.26 646.04 171 636.83 171 619.41 203.66 598.74 196.78 573.86 203.09 561.06 169.57 549.8 177.2 544.07 203.09 540.92 230.59 531.47 245.48 534.91 271.8 534.05 290.32 536.91 321.97 536.34 343.74 534.99 361.82" style="fill: #fff; stroke-width: 0px;"/>
    <path d="M557.14,166.16c-1.83.3-4.02,1.25-5.56,2.43-4.68,3.56-8.3,11.1-9.84,20.5-.58,3.56-.97,8.49-.97,12.25,0,4.44.52,10.12,1.26,14.04.17.87.25,1.64.18,1.7-.06.06-.74.62-1.52,1.24-2.64,2.11-5.66,5.35-7.74,8.32-3.99,5.66-6.58,12.1-7.66,19.07-.42,2.75-.53,8.32-.2,11.07.74,6.35,2.66,11.72,5.93,16.64l1.07,1.59-.31.52c-2.19,3.68-4.06,9.01-4.93,14.12-.69,4.05-.77,5.13-.77,10.55s.07,6.55.72,10.33c.77,4.52,2.35,9.32,4.1,12.51.58,1.04,1.98,3.2,2.15,3.32.06.03-.11.55-.38,1.15-2.02,4.43-3.75,10.31-4.47,15.27-.51,3.4-.58,4.5-.58,8.08,0,4.57.25,6.79,1.21,10.43l.14.53h12.04l-.39-.74c-2.43-4.5-2.66-12.84-.56-21.18.96-3.85,2.04-6.67,4.06-10.57l1.21-2.36v-1.45c0-1.35-.03-1.5-.46-2.39-.34-.67-.79-1.25-1.59-2.04-1.36-1.32-2.35-2.71-3.13-4.43-3.46-7.5-4.13-18.65-1.7-28.15,1.01-3.96,2.68-7.49,4.44-9.41,1.19-1.32,1.81-2.8,1.81-4.33s-.56-2.89-1.83-4.26c-3.63-3.88-5.86-8.6-6.66-14.09-1.14-7.83.93-16.36,5.62-23.12,4.59-6.63,11.04-10.89,18.25-12.03,1.62-.27,4.64-.22,6.32.08,1.84.32,2.99.22,4.17-.34,1.46-.69,2.19-1.55,3.05-3.51.76-1.76,1.35-2.71,2.94-4.69,1.91-2.37,3.75-3.99,6.7-5.94,3.37-2.21,7.21-3.81,11.03-4.58,1.39-.28,2.04-.32,4.64-.32s3.25.04,4.64.32c5.61,1.14,11.17,4.03,15.61,8.14.96.89,3.25,3.72,3.98,4.9.28.46.77,1.45,1.08,2.18.86,1.97,1.59,2.82,3.05,3.51,1.14.55,2.33.66,4.1.37,2.8-.48,4.95-.44,7.69.13,9.33,1.88,17.45,9.57,21.05,19.87,3.13,9.04,2.25,18.49-2.42,25.71-.79,1.22-1.57,2.21-2.71,3.41-2.46,2.63-2.46,5.89-.01,8.59,4.02,4.4,6.53,15.22,5.78,24.76-.51,6.3-2.12,11.93-4.34,15.12-.39.56-1.21,1.52-1.83,2.11-.8.79-1.25,1.36-1.59,2.04-.44.89-.46,1.04-.46,2.39v1.45l1.21,2.36c2.02,3.89,3.11,6.72,4.06,10.57,2.07,8.22,1.88,16.4-.48,21.05-.2.39-.37.76-.37.8s2.68.07,5.97.07h5.96l.15-.6c.08-.32.22-.81.3-1.1.15-.62.46-2.44.72-4.2.24-1.77.24-8.29,0-10.26-.9-7.14-2.4-12.8-4.86-18.16-.27-.6-.44-1.12-.38-1.15.07-.04.46-.6.89-1.24,3.06-4.64,4.95-10.47,5.9-18.17.25-2.12.25-11.24,0-13.28-.67-5.26-1.49-8.82-2.84-12.44-.56-1.5-2.05-4.68-2.68-5.71l-.31-.52,1.07-1.59c3.27-4.92,5.19-10.29,5.93-16.64.34-2.75.22-8.32-.2-11.07-1.1-6.98-3.67-13.39-7.66-19.07-2.08-2.97-5.1-6.21-7.74-8.32-.77-.62-1.46-1.18-1.52-1.24-.07-.06.01-.83.18-1.7,1.7-8.87,1.64-19.93-.14-28.57-1.55-7.53-4.36-13.52-7.98-16.97-2.89-2.75-5.85-3.93-9.39-3.71-8.12.48-14.67,9.82-17.26,24.55-.42,2.37-.79,5.16-.79,5.92,0,.3-.06.53-.13.53s-.62-.28-1.21-.63c-6.27-3.71-13.24-5.69-20.02-5.69s-13.76,1.98-20.02,5.69c-.59.35-1.14.63-1.21.63s-.13-.24-.13-.53c0-.79-.38-3.65-.79-5.92-2.35-13.22-7.73-21.98-14.88-24.18-.98-.3-3.78-.49-4.78-.34ZM559.53,177.6c2.02,1.6,4.27,6.18,5.56,11.31.24.93.49,2,.56,2.39.06.38.21,1.24.34,1.9.55,2.98.8,6.2.83,10.12v3.86s-.96,1.43-.96,1.43l-.97,1.45h-2.26c-2.64,0-5.27.34-7.78,1.01-.9.22-1.77.45-1.94.49-.27.06-.31-.03-.46-1.18-.83-6.25-.79-13.18.13-18.94,1.01-6.42,3.37-12.24,5.68-13.95.55-.41.65-.39,1.28.11ZM639.65,177.5c1.39,1.03,2.92,3.75,4.06,7.24,2.29,6.97,2.94,16.54,1.73,25.64-.15,1.15-.2,1.24-.46,1.18-.17-.04-1.04-.27-1.94-.49-2.52-.67-5.14-1.01-7.78-1.01h-2.26l-.97-1.45-.97-1.43v-3.86c.04-5.45.55-9.71,1.76-14.45,1.28-5.09,3.54-9.67,5.55-11.27.63-.51.73-.52,1.29-.1Z" style="fill: #333; stroke-width: 0px;"/>
    <path d="M596.76,248.22c-3.05.3-3.88.41-5.34.7-2.37.49-5.55,1.59-7.76,2.67-7.67,3.75-12.96,10-14.57,17.24-.32,1.43-.37,1.91-.37,4.33s.04,2.91.35,4.27c2.15,9.46,10.86,16.44,22.13,17.72,2.44.27,13.01.27,15.46,0,9.05-1.03,16.83-5.93,20.33-12.82.93-1.84,1.38-3.04,1.8-4.9.31-1.36.35-1.88.35-4.27s-.04-2.89-.37-4.33c-2.35-10.51-12.55-18.79-25.05-20.36-1.63-.2-5.9-.37-6.97-.25ZM602.02,255.86c4.17.45,8.38,1.94,11.75,4.19,1.81,1.21,4.37,3.74,5.47,5.4,1.35,2.05,2.12,4.15,2.47,6.69.15,1.17.07,2.05-.35,3.93-.66,2.81-2.71,5.75-5.48,7.8-1.29.94-3.98,2.3-5.62,2.84-3.12,1-5.16,1.18-12.44,1.12-4.75-.04-5.59-.08-6.96-.34-4.65-.87-8.33-2.73-11-5.55-2.16-2.28-3.15-4.36-3.68-7.71-.24-1.56.21-4.15,1.12-6.32,1.11-2.66,3.98-5.96,6.82-7.85,3.29-2.19,7.62-3.75,11.59-4.17,1.53-.17,4.78-.17,6.31-.01Z" style="fill: #333; stroke-width: 0px;"/>
    <path d="M593.57,266.12c-1.07.58-1.81,2.04-1.59,3.12.25,1.17,1.28,2.35,2.88,3.32.86.52.91.59.96,1.11.03.31-.08,1.19-.24,1.98-.17.77-.3,1.59-.3,1.81.01.6.58,1.59,1.17,2.07.52.42.62.44,2.08.48,1.34.04,1.62.01,2.15-.24,1.38-.67,1.73-1.91,1.22-4.29-.42-1.98-.34-2.29.72-2.89,1.11-.65,2.29-1.78,2.64-2.56.67-1.48.06-3.15-1.43-3.92-.37-.18-.81-.27-1.48-.27-1.03,0-1.69.24-2.89,1.01l-.69.44-.44-.27c-1.78-1.05-2.11-1.18-3.19-1.17-.77,0-1.19.07-1.57.27Z" style="fill: #333; stroke-width: 0px;"/>
    <path d="M559.46,249.81c-2.49.79-4.34,2.61-5.3,5.21-.46,1.24-.69,3.19-.49,4.24.46,2.52,2.53,4.81,4.88,5.44,2.95.77,5.16.27,7.11-1.67,1.14-1.11,1.76-2.08,2.37-3.65.45-1.11.48-1.31.48-2.88v-1.69s-.58-1.21-.58-1.21c-.94-1.91-2.64-3.33-4.61-3.85-1.11-.28-2.89-.27-3.86.06Z" style="fill: #333; stroke-width: 0px;"/>
    <path d="M634.51,249.77c-1.93.52-3.64,1.95-4.55,3.84l-.59,1.21v1.69c.01,1.57.04,1.77.49,2.88.62,1.57,1.24,2.54,2.37,3.65,1.95,1.94,4.16,2.44,7.11,1.67,1.7-.45,3.4-1.88,4.22-3.56.7-1.42.87-2.44.65-4.06-.52-3.7-2.68-6.38-5.9-7.32-.94-.28-2.77-.28-3.79,0Z" style="fill: #333; stroke-width: 0px;"/>
  </g>
  <text transform="translate(487.49 504.51)" style="font-family: Estedad-Bold, Estedad; font-size: 70.87px; font-weight: 700;"><tspan x="0" y="0">Ollama</tspan></text>
</svg>