<?xml version="1.0" encoding="UTF-8"?>
<svg id="Layer_2" data-name="Layer 2" xmlns="http://www.w3.org/2000/svg" xmlns:xlink="http://www.w3.org/1999/xlink" viewBox="0 0 1200 600">
  <defs>
    <style>
      .cls-1 {
        fill: url(#radial-gradient-6);
      }

      .cls-1, .cls-2, .cls-3, .cls-4, .cls-5, .cls-6, .cls-7, .cls-8, .cls-9, .cls-10, .cls-11, .cls-12, .cls-13, .cls-14 {
        stroke-width: 0px;
      }

      .cls-1, .cls-5, .cls-7, .cls-10 {
        fill-rule: evenodd;
      }

      .cls-2 {
        fill: #2f2944;
      }

      .cls-4 {
        fill: #333;
      }

      .cls-5 {
        fill: url(#radial-gradient-8);
      }

      .cls-6 {
        fill: #fff;
      }

      .cls-7 {
        fill: url(#radial-gradient-7);
      }

      .cls-8 {
        fill: url(#radial-gradient-2);
      }

      .cls-9 {
        fill: url(#radial-gradient);
      }

      .cls-10 {
        fill: url(#radial-gradient-5);
      }

      .cls-11 {
        fill: #6c31e3;
      }

      .cls-12 {
        fill: url(#radial-gradient-3);
      }

      .cls-13 {
        fill: url(#radial-gradient-4);
      }

      .cls-14 {
        fill: #efefef;
      }
    </style>
    <radialGradient id="radial-gradient" cx="2.24" cy="599.59" fx="2.24" fy="599.59" r=".11" gradientTransform="translate(109590.91 -1320.6) rotate(-91.22) scale(272.59 -181.63) skewX(.08)" gradientUnits="userSpaceOnUse">
      <stop offset="0" stop-color="#fff" stop-opacity=".4"/>
      <stop offset="1" stop-color="#000" stop-opacity=".1"/>
    </radialGradient>
    <radialGradient id="radial-gradient-2" cx="1.63" cy="601.25" fx="1.63" fy="601.25" r=".11" gradientTransform="translate(186239.78 72161.12) rotate(-69.01) scale(447.99 -330.98)" gradientUnits="userSpaceOnUse">
      <stop offset="0" stop-color="#fff" stop-opacity=".6"/>
      <stop offset="1" stop-color="#fff" stop-opacity=".1"/>
    </radialGradient>
    <radialGradient id="radial-gradient-3" cx="1.65" cy="600.63" fx="1.65" fy="600.63" r=".11" gradientTransform="translate(141937.12 68632.85) rotate(-64.32) scale(382.47 -261.34) skewX(-.03)" gradientUnits="userSpaceOnUse">
      <stop offset="0" stop-color="#fff" stop-opacity=".8"/>
      <stop offset="1" stop-color="#fff" stop-opacity=".4"/>
    </radialGradient>
    <radialGradient id="radial-gradient-4" cx="2.74" cy="600.2" fx="2.74" fy="600.2" r=".11" gradientTransform="translate(146996.21 -44525.36) rotate(-107.02) scale(221.68 -254.84) skewX(-.23)" gradientUnits="userSpaceOnUse">
      <stop offset="0" stop-color="#fff" stop-opacity=".3"/>
      <stop offset="1" stop-color="#000" stop-opacity=".3"/>
    </radialGradient>
    <radialGradient id="radial-gradient-5" cx=".82" cy="600.99" fx=".82" fy="600.99" r=".11" gradientTransform="translate(-71972.47 -34852.77) rotate(115.71) scale(199.05 -134.23) skewX(-.1)" gradientUnits="userSpaceOnUse">
      <stop offset="0" stop-color="#fff" stop-opacity="0"/>
      <stop offset="1" stop-color="#fff" stop-opacity=".2"/>
    </radialGradient>
    <radialGradient id="radial-gradient-6" cx="1.38" cy="601.78" fx="1.38" fy="601.78" r=".11" gradientTransform="translate(-160442.86 96963.12) rotate(58.8) scale(146.67 -312.41) skewX(.28)" gradientUnits="userSpaceOnUse">
      <stop offset="0" stop-color="#fff" stop-opacity=".2"/>
      <stop offset="1" stop-color="#fff" stop-opacity=".4"/>
    </radialGradient>
    <radialGradient id="radial-gradient-7" cx="-.25" cy="601.37" fx="-.25" fy="601.37" r=".11" gradientTransform="translate(-191730.72 -31455.82) rotate(99.52) scale(152.71 -324.28) skewX(-.39)" gradientUnits="userSpaceOnUse">
      <stop offset="0" stop-color="#fff" stop-opacity=".2"/>
      <stop offset="1" stop-color="#fff" stop-opacity=".3"/>
    </radialGradient>
    <radialGradient id="radial-gradient-8" cx="1.86" cy="600.71" fx="1.86" fy="600.71" r=".11" gradientTransform="translate(327159.67 -372366.36) rotate(-138.81) scale(262.09 -824.54) skewX(-.05)" gradientUnits="userSpaceOnUse">
      <stop offset="0" stop-color="#fff" stop-opacity=".2"/>
      <stop offset=".5" stop-color="#fff" stop-opacity=".2"/>
      <stop offset="1" stop-color="#fff" stop-opacity=".3"/>
    </radialGradient>
  </defs>
  <path class="cls-14" d="M598.94,419.52c113.81,0,155.56-41.75,155.56-155.56,0-113.81-41.75-155.56-155.56-155.56-113.81,0-155.56,41.75-155.56,155.56s41.75,155.56,155.56,155.56Z"/>
  <g>
    <polygon class="cls-6" points="534.99 361.82 662.95 361.82 666.68 248.18 652.07 216.26 646.04 171 636.83 171 619.41 203.66 598.74 196.78 573.86 203.09 561.06 169.57 549.8 177.2 544.07 203.09 540.92 230.59 531.47 245.48 534.91 271.8 534.05 290.32 536.91 321.97 536.34 343.74 534.99 361.82"/>
    <path class="cls-4" d="M557.14,166.16c-1.83.3-4.02,1.25-5.56,2.43-4.68,3.56-8.3,11.1-9.84,20.5-.58,3.56-.97,8.49-.97,12.25,0,4.44.52,10.12,1.26,14.04.17.87.25,1.64.18,1.7-.06.06-.74.62-1.52,1.24-2.64,2.11-5.66,5.35-7.74,8.32-3.99,5.66-6.58,12.1-7.66,19.07-.42,2.75-.53,8.32-.2,11.07.74,6.35,2.66,11.72,5.93,16.64l1.07,1.59-.31.52c-2.19,3.68-4.06,9.01-4.93,14.12-.69,4.05-.77,5.13-.77,10.55s.07,6.55.72,10.33c.77,4.52,2.35,9.32,4.1,12.51.58,1.04,1.98,3.2,2.15,3.32.06.03-.11.55-.38,1.15-2.02,4.43-3.75,10.31-4.47,15.27-.51,3.4-.58,4.5-.58,8.08,0,4.57.25,6.79,1.21,10.43l.14.53h12.04l-.39-.74c-2.43-4.5-2.66-12.84-.56-21.18.96-3.85,2.04-6.67,4.06-10.57l1.21-2.36v-1.45c0-1.35-.03-1.5-.46-2.39-.34-.67-.79-1.25-1.59-2.04-1.36-1.32-2.35-2.71-3.13-4.43-3.46-7.5-4.13-18.65-1.7-28.15,1.01-3.96,2.68-7.49,4.44-9.41,1.19-1.32,1.81-2.8,1.81-4.33s-.56-2.89-1.83-4.26c-3.63-3.88-5.86-8.6-6.66-14.09-1.14-7.83.93-16.36,5.62-23.12,4.59-6.63,11.04-10.89,18.25-12.03,1.62-.27,4.64-.22,6.32.08,1.84.32,2.99.22,4.17-.34,1.46-.69,2.19-1.55,3.05-3.51.76-1.76,1.35-2.71,2.94-4.69,1.91-2.37,3.75-3.99,6.7-5.94,3.37-2.21,7.21-3.81,11.03-4.58,1.39-.28,2.04-.32,4.64-.32s3.25.04,4.64.32c5.61,1.14,11.17,4.03,15.61,8.14.96.89,3.25,3.72,3.98,4.9.28.46.77,1.45,1.08,2.18.86,1.97,1.59,2.82,3.05,3.51,1.14.55,2.33.66,4.1.37,2.8-.48,4.95-.44,7.69.13,9.33,1.88,17.45,9.57,21.05,19.87,3.13,9.04,2.25,18.49-2.42,25.71-.79,1.22-1.57,2.21-2.71,3.41-2.46,2.63-2.46,5.89-.01,8.59,4.02,4.4,6.53,15.22,5.78,24.76-.51,6.3-2.12,11.93-4.34,15.12-.39.56-1.21,1.52-1.83,2.11-.8.79-1.25,1.36-1.59,2.04-.44.89-.46,1.04-.46,2.39v1.45l1.21,2.36c2.02,3.89,3.11,6.72,4.06,10.57,2.07,8.22,1.88,16.4-.48,21.05-.2.39-.37.76-.37.8s2.68.07,5.97.07h5.96l.15-.6c.08-.32.22-.81.3-1.1.15-.62.46-2.44.72-4.2.24-1.77.24-8.29,0-10.26-.9-7.14-2.4-12.8-4.86-18.16-.27-.6-.44-1.12-.38-1.15.07-.04.46-.6.89-1.24,3.06-4.64,4.95-10.47,5.9-18.17.25-2.12.25-11.24,0-13.28-.67-5.26-1.49-8.82-2.84-12.44-.56-1.5-2.05-4.68-2.68-5.71l-.31-.52,1.07-1.59c3.27-4.92,5.19-10.29,5.93-16.64.34-2.75.22-8.32-.2-11.07-1.1-6.98-3.67-13.39-7.66-19.07-2.08-2.97-5.1-6.21-7.74-8.32-.77-.62-1.46-1.18-1.52-1.24-.07-.06.01-.83.18-1.7,1.7-8.87,1.64-19.93-.14-28.57-1.55-7.53-4.36-13.52-7.98-16.97-2.89-2.75-5.85-3.93-9.39-3.71-8.12.48-14.67,9.82-17.26,24.55-.42,2.37-.79,5.16-.79,5.92,0,.3-.06.53-.13.53s-.62-.28-1.21-.63c-6.27-3.71-13.24-5.69-20.02-5.69s-13.76,1.98-20.02,5.69c-.59.35-1.14.63-1.21.63s-.13-.24-.13-.53c0-.79-.38-3.65-.79-5.92-2.35-13.22-7.73-21.98-14.88-24.18-.98-.3-3.78-.49-4.78-.34ZM559.53,177.6c2.02,1.6,4.27,6.18,5.56,11.31.24.93.49,2,.56,2.39.06.38.21,1.24.34,1.9.55,2.98.8,6.2.83,10.12v3.86s-.96,1.43-.96,1.43l-.97,1.45h-2.26c-2.64,0-5.27.34-7.78,1.01-.9.22-1.77.45-1.94.49-.27.06-.31-.03-.46-1.18-.83-6.25-.79-13.18.13-18.94,1.01-6.42,3.37-12.24,5.68-13.95.55-.41.65-.39,1.28.11ZM639.65,177.5c1.39,1.03,2.92,3.75,4.06,7.24,2.29,6.97,2.94,16.54,1.73,25.64-.15,1.15-.2,1.24-.46,1.18-.17-.04-1.04-.27-1.94-.49-2.52-.67-5.14-1.01-7.78-1.01h-2.26l-.97-1.45-.97-1.43v-3.86c.04-5.45.55-9.71,1.76-14.45,1.28-5.09,3.54-9.67,5.55-11.27.63-.51.73-.52,1.29-.1Z"/>
    <path class="cls-4" d="M596.76,248.22c-3.05.3-3.88.41-5.34.7-2.37.49-5.55,1.59-7.76,2.67-7.67,3.75-12.96,10-14.57,17.24-.32,1.43-.37,1.91-.37,4.33s.04,2.91.35,4.27c2.15,9.46,10.86,16.44,22.13,17.72,2.44.27,13.01.27,15.46,0,9.05-1.03,16.83-5.93,20.33-12.82.93-1.84,1.38-3.04,1.8-4.9.31-1.36.35-1.88.35-4.27s-.04-2.89-.37-4.33c-2.35-10.51-12.55-18.79-25.05-20.36-1.63-.2-5.9-.37-6.97-.25ZM602.02,255.86c4.17.45,8.38,1.94,11.75,4.19,1.81,1.21,4.37,3.74,5.47,5.4,1.35,2.05,2.12,4.15,2.47,6.69.15,1.17.07,2.05-.35,3.93-.66,2.81-2.71,5.75-5.48,7.8-1.29.94-3.98,2.3-5.62,2.84-3.12,1-5.16,1.18-12.44,1.12-4.75-.04-5.59-.08-6.96-.34-4.65-.87-8.33-2.73-11-5.55-2.16-2.28-3.15-4.36-3.68-7.71-.24-1.56.21-4.15,1.12-6.32,1.11-2.66,3.98-5.96,6.82-7.85,3.29-2.19,7.62-3.75,11.59-4.17,1.53-.17,4.78-.17,6.31-.01Z"/>
    <path class="cls-4" d="M593.57,266.12c-1.07.58-1.81,2.04-1.59,3.12.25,1.17,1.28,2.35,2.88,3.32.86.52.91.59.96,1.11.03.31-.08,1.19-.24,1.98-.17.77-.3,1.59-.3,1.81.01.6.58,1.59,1.17,2.07.52.42.62.44,2.08.48,1.34.04,1.62.01,2.15-.24,1.38-.67,1.73-1.91,1.22-4.29-.42-1.98-.34-2.29.72-2.89,1.11-.65,2.29-1.78,2.64-2.56.67-1.48.06-3.15-1.43-3.92-.37-.18-.81-.27-1.48-.27-1.03,0-1.69.24-2.89,1.01l-.69.44-.44-.27c-1.78-1.05-2.11-1.18-3.19-1.17-.77,0-1.19.07-1.57.27Z"/>
    <path class="cls-4" d="M559.46,249.81c-2.49.79-4.34,2.61-5.3,5.21-.46,1.24-.69,3.19-.49,4.24.46,2.52,2.53,4.81,4.88,5.44,2.95.77,5.16.27,7.11-1.67,1.14-1.11,1.76-2.08,2.37-3.65.45-1.11.48-1.31.48-2.88v-1.69s-.58-1.21-.58-1.21c-.94-1.91-2.64-3.33-4.61-3.85-1.11-.28-2.89-.27-3.86.06Z"/>
    <path class="cls-4" d="M634.51,249.77c-1.93.52-3.64,1.95-4.55,3.84l-.59,1.21v1.69c.01,1.57.04,1.77.49,2.88.62,1.57,1.24,2.54,2.37,3.65,1.95,1.94,4.16,2.44,7.11,1.67,1.7-.45,3.4-1.88,4.22-3.56.7-1.42.87-2.44.65-4.06-.52-3.7-2.68-6.38-5.9-7.32-.94-.28-2.77-.28-3.79,0Z"/>
  </g>
  <g>
    <path class="cls-3" d="M504.72,454.8c2.72-.98,5.7-1.47,8.93-1.47s6.21.49,8.93,1.47c2.72.98,5.02,2.32,6.9,4.01,1.88,1.7,3.48,3.69,4.79,5.97,1.31,2.28,2.28,4.71,2.89,7.28.61,2.57.92,5.24.92,8.01s-.31,5.44-.92,8.01c-.61,2.57-1.57,5-2.89,7.28s-2.91,4.27-4.79,5.97c-1.88,1.7-4.18,3.03-6.9,4.01-2.72.98-5.7,1.47-8.93,1.47s-6.21-.49-8.93-1.47-5.02-2.32-6.9-4.01c-1.88-1.7-3.48-3.69-4.79-5.97s-2.28-4.71-2.89-7.28c-.61-2.57-.92-5.24-.92-8.01s.31-5.44.92-8.01c.61-2.57,1.57-5,2.89-7.28,1.31-2.28,2.91-4.27,4.79-5.97,1.88-1.7,4.18-3.03,6.9-4.01ZM525.33,465.94c-2.73-3.54-6.63-5.31-11.68-5.31s-8.95,1.77-11.68,5.31-4.1,8.25-4.1,14.14,1.37,10.64,4.1,14.19c2.73,3.55,6.63,5.33,11.68,5.33s8.95-1.78,11.68-5.33c2.73-3.55,4.1-8.28,4.1-14.19s-1.37-10.59-4.1-14.14Z"/>
    <path class="cls-3" d="M552.98,506.13h-8.65v-52.11h8.65v52.11Z"/>
    <path class="cls-3" d="M569.62,506.13h-8.65v-52.11h8.65v52.11Z"/>
    <path class="cls-3" d="M586.88,478.69h-8.65c0-2.03.43-3.87,1.28-5.52.85-1.65,2-2.98,3.43-3.98,1.43-1,3.02-1.78,4.78-2.32,1.75-.54,3.58-.81,5.47-.81,1.38,0,2.77.16,4.17.47,1.4.31,2.75.81,4.07,1.49,1.31.68,2.47,1.49,3.46,2.44.99.95,1.79,2.12,2.41,3.51s.92,2.91.92,4.55v14.85c0,4.96.47,9.22,1.42,12.77h-8.37c-.44-1.45-.79-2.92-1.04-4.39-1.45,1.52-3.17,2.69-5.16,3.51-1.98.82-4.04,1.23-6.16,1.23-3.48,0-6.23-.97-8.25-2.92-2.02-1.95-3.03-4.63-3.03-8.05,0-1.98.4-3.77,1.21-5.36.81-1.59,1.86-2.9,3.15-3.93,1.29-1.03,2.8-1.88,4.52-2.56,1.72-.68,3.44-1.16,5.17-1.45,1.73-.29,3.48-.43,5.26-.43.88,0,1.75.04,2.63.1v-3.36c0-1.5-.58-2.73-1.73-3.7-1.15-.97-2.7-1.45-4.64-1.45-2.12,0-3.7.49-4.74,1.47s-1.56,2.27-1.56,3.86ZM599.54,491.5v-3.15c-.81-.09-1.68-.14-2.63-.14-3.11,0-5.74.64-7.87,1.92s-3.2,3.02-3.2,5.21c0,1.18.45,2.16,1.35,2.96s2.17,1.19,3.81,1.19c2.17,0,4.14-.8,5.9-2.41,1.76-1.6,2.65-3.47,2.65-5.59Z"/>
    <path class="cls-3" d="M617.6,466.75h8.65v5.75c1.82-4.29,4.98-6.44,9.48-6.44,5.49,0,8.91,2.72,10.24,8.17.71-2.44,1.91-4.42,3.58-5.92,1.67-1.5,3.85-2.25,6.52-2.25,1.38,0,2.64.18,3.77.55,1.13.37,2.06.84,2.8,1.42.74.58,1.38,1.29,1.94,2.13s.97,1.67,1.26,2.47c.29.81.52,1.7.69,2.67s.28,1.79.33,2.46c.05.67.07,1.37.07,2.11v26.26h-8.65v-26.26c0-3.99-1.95-5.99-5.85-5.99s-5.85,2-5.85,5.99v26.26h-8.65v-26.26c0-3.99-1.95-5.99-5.85-5.99s-5.85,2-5.85,5.99v26.26h-8.65v-39.38Z"/>
    <path class="cls-3" d="M684.2,478.69h-8.65c0-2.03.43-3.87,1.28-5.52s2-2.98,3.43-3.98c1.43-1,3.02-1.78,4.78-2.32,1.75-.54,3.58-.81,5.47-.81,1.38,0,2.77.16,4.17.47s2.75.81,4.07,1.49c1.31.68,2.47,1.49,3.46,2.44.99.95,1.79,2.12,2.41,3.51s.92,2.91.92,4.55v14.85c0,4.96.47,9.22,1.42,12.77h-8.37c-.44-1.45-.79-2.92-1.04-4.39-1.45,1.52-3.17,2.69-5.16,3.51-1.98.82-4.04,1.23-6.16,1.23-3.48,0-6.23-.97-8.25-2.92s-3.03-4.63-3.03-8.05c0-1.98.4-3.77,1.21-5.36.81-1.59,1.86-2.9,3.15-3.93s2.8-1.88,4.52-2.56c1.72-.68,3.44-1.16,5.17-1.45,1.73-.29,3.48-.43,5.26-.43.88,0,1.75.04,2.63.1v-3.36c0-1.5-.58-2.73-1.73-3.7-1.15-.97-2.7-1.45-4.64-1.45-2.12,0-3.7.49-4.74,1.47s-1.56,2.27-1.56,3.86ZM696.87,491.5v-3.15c-.81-.09-1.68-.14-2.63-.14-3.11,0-5.74.64-7.87,1.92-2.13,1.28-3.2,3.02-3.2,5.21,0,1.18.45,2.16,1.35,2.96s2.17,1.19,3.81,1.19c2.17,0,4.13-.8,5.9-2.41,1.77-1.6,2.65-3.47,2.65-5.59Z"/>
  </g>
  <g>
    <path class="cls-2" d="M714.71,181.78c-28.39,0-51.49-23.1-51.49-51.49s23.1-51.49,51.49-51.49,51.49,23.1,51.49,51.49-23.1,51.49-51.49,51.49Z"/>
    <path class="cls-6" d="M714.71,83.15c26.04,0,47.14,21.11,47.14,47.14s-21.11,47.14-47.14,47.14-47.14-21.11-47.14-47.14,21.11-47.14,47.14-47.14M714.71,74.46c-30.79,0-55.83,25.05-55.83,55.83s25.05,55.83,55.83,55.83,55.83-25.05,55.83-55.83-25.05-55.83-55.83-55.83h0Z"/>
  </g>
  <g>
    <path class="cls-11" d="M723.98,160.31c-1.1,2.86-4.55,4.47-7.23,2.99-3.83-2.11-8.14-5-12.33-6.35l-6.41-2.07c-1.04-.33-1.92-1.02-2.47-1.96l-8.47-14.29c-.93-1.56-.82-3.53.3-4.97,0,0,10.62-13.63,11.07-14.36.44-.74,3.07-7.45,4.51-11.03.39-.96,1.09-1.74,2.01-2.23l16.18-8.79c2.15-1.17,4.84-.37,6.01,1.79.05.09.09.17.13.26l7.77,16.89c.43.96.53,2.04.28,3.06-.65,2.69-1.74,8.27-1.1,12.19.63,3.8,2.38,8.19,3.33,10.36.37.83.21,1.8-.42,2.47-2.53,2.59-5.13,5.12-7.8,7.57-2.57,2.36-4.28,5.64-5.37,8.48h.01Z"/>
    <path class="cls-9" d="M696.55,154.1c7.78-9.36,9.45-17.01,8.52-22.95-.85-5.5-3.9-9.56-6.42-12.23-.15.27-.3.52-.47.75l-10.8,14.01c-1.11,1.43-1.23,3.4-.31,4.97l8.48,14.29c.26.45.6.85,1,1.18h0Z"/>
    <path class="cls-8" d="M715.93,135.96c1.38.49,2.7,1.13,3.92,1.95,3.91,2.64,6.97,7.18,8.52,14.91.32-.34.64-.67.99-.99,2.67-2.45,5.27-4.97,7.8-7.57.64-.66.8-1.64.42-2.47-.95-2.18-2.71-6.56-3.33-10.36-.64-3.92.47-9.51,1.1-12.19.25-1.02.16-2.1-.28-3.06l-7.78-16.89c-.04-.09-.09-.18-.14-.26.21,2.38-.27,4.77-1.38,6.89-.98,1.69-2.14,3.26-3.48,4.69l-1.34,1.58c-2.12,2.43-3.7,5.29-4.6,8.39-1.04,3.68-1.4,8.54-.41,15.38Z"/>
    <path class="cls-12" d="M715.93,135.96c-.99-6.84-.64-11.7.41-15.39.91-3.1,2.48-5.96,4.6-8.39.44-.54.89-1.06,1.34-1.56,1.32-1.54,2.59-2.99,3.48-4.7,1.11-2.12,1.59-4.51,1.38-6.89-1.17-2.14-3.86-2.93-6.01-1.76l-16.19,8.79c-.9.49-1.61,1.28-1.99,2.24l-4.19,10.36-.13.28c2.54,2.68,5.6,6.74,6.44,12.24.18,1.11.26,2.24.23,3.37,3.75-.01,7.37.3,10.63,1.44h0Z"/>
    <path class="cls-13" d="M716.75,163.31c2.68,1.47,6.13-.14,7.23-3,1-2.74,2.49-5.28,4.39-7.49-1.57-7.73-4.61-12.28-8.51-14.91-4.14-2.78-9.23-3.42-14.56-3.4-.1,5.38-2.37,11.9-8.76,19.58.45.35.93.62,1.48.8,0,0,3.02.99,6.65,2.14,3.61,1.13,8.63,4.35,12.08,6.26h0Z"/>
    <g>
      <path class="cls-10" d="M716.43,120.33c-1.05,3.65-1.6,8.01-.6,14.84l-.77-.25c-.68-7.05-.35-10.51.71-14.21.96-3.14,2.58-6.03,4.76-8.48.45-.55,1.44-1.54,1.9-2.06,1.31-1.52,2.14-2.29,3.04-3.76,1.25-2.04,1.35-3.14,1.51-4.2-.32,3.92-3.3,6.69-5.74,9.64-2.19,2.45-3.82,5.34-4.8,8.47h0Z"/>
      <path class="cls-1" d="M705.74,131.59c.14.76.28,1.38.26,2.27l-.7-.02c-.03-1.05-.07-1.81-.25-2.73-.98-5.85-3.93-9.44-6.4-12.16,3.1,2.78,6.05,6.66,7.09,12.65h.01Z"/>
      <path class="cls-7" d="M705.88,134.52c-.15,6.11-3.31,13.14-9.12,19.32,5.13-6.28,8.42-12.7,8.55-19.34l.57.02Z"/>
      <path class="cls-5" d="M720.15,137.39c6.11,4.12,7.38,10.27,8.21,15.33-1.25-5.39-3.28-11.52-8.57-14.89-4.04-2.55-7.79-3.26-14.48-3.34v-.67c7.1.08,10.66.75,14.84,3.55h0Z"/>
    </g>
  </g>
</svg>